<svg width="103" height="103" viewBox="0 0 103 103" fill="none" xmlns="http://www.w3.org/2000/svg">
<path d="M30.0365 72.9531L43.7698 43.7698L72.9531 30.0365L59.2198 59.2198L30.0365 72.9531ZM51.4948 47.6323C50.4704 47.6323 49.4879 48.0392 48.7636 48.7636C48.0392 49.4879 47.6323 50.4704 47.6323 51.4948C47.6323 52.5192 48.0392 53.5016 48.7636 54.226C49.4879 54.9504 50.4704 55.3573 51.4948 55.3573C52.5192 55.3573 53.5016 54.9504 54.226 54.226C54.9504 53.5016 55.3573 52.5192 55.3573 51.4948C55.3573 50.4704 54.9504 49.4879 54.226 48.7636C53.5016 48.0392 52.5192 47.6323 51.4948 47.6323ZM51.4948 8.57812C57.1307 8.57813 62.7114 9.6882 67.9183 11.845C73.1252 14.0017 77.8563 17.1629 81.8415 21.1481C85.8266 25.1333 88.9879 29.8644 91.1446 35.0713C93.3014 40.2782 94.4115 45.8589 94.4115 51.4948C94.4115 62.877 89.8899 73.793 81.8415 81.8415C73.793 89.8899 62.877 94.4115 51.4948 94.4115C45.8589 94.4115 40.2782 93.3014 35.0713 91.1446C29.8644 88.9879 25.1333 85.8266 21.1481 81.8415C13.0997 73.793 8.57813 62.877 8.57812 51.4948C8.57813 40.1126 13.0997 29.1966 21.1481 21.1481C29.1966 13.0997 40.1126 8.57813 51.4948 8.57812ZM51.4948 17.1615C42.389 17.1615 33.6562 20.7787 27.2175 27.2175C20.7787 33.6562 17.1615 42.389 17.1615 51.4948C17.1615 60.6006 20.7787 69.3334 27.2175 75.7721C33.6562 82.2109 42.389 85.8281 51.4948 85.8281C60.6006 85.8281 69.3334 82.2109 75.7721 75.7721C82.2109 69.3334 85.8281 60.6006 85.8281 51.4948C85.8281 42.389 82.2109 33.6562 75.7721 27.2175C69.3334 20.7787 60.6006 17.1615 51.4948 17.1615Z" fill="#E0263E"/>
</svg>
