<svg width="90" height="84" viewBox="0 0 90 84" fill="none" xmlns="http://www.w3.org/2000/svg">
<path d="M16.875 62.5H22.5V68.125H11.25V11.875H5.625V73.75H22.5V79.375H0V6.25H11.25V0.625H28.125C30.7031 0.625 33.1787 1.02051 35.5518 1.81152C37.9248 2.60254 40.1367 3.78906 42.1875 5.37109C44.209 3.78906 46.4062 2.60254 48.7793 1.81152C51.1523 1.02051 53.6426 0.625 56.25 0.625H73.125V6.25H84.375V42.2412L78.75 39.6924V11.875H73.125V37.1436L67.5 34.5508V6.25H56.25C54.1699 6.25 52.1777 6.60156 50.2734 7.30469C48.3691 8.00781 46.6113 9.04785 45 10.4248V37.1436L39.375 39.6924V10.4248C37.793 9.07715 36.0498 8.05176 34.1455 7.34863C32.2412 6.64551 30.2344 6.2793 28.125 6.25H16.875V62.5ZM78.75 73.7061L59.0625 83.5938L39.375 73.7061C39.375 72.6514 39.3896 71.5381 39.4189 70.3662C39.4482 69.1943 39.5654 68.0078 39.7705 66.8066C39.9756 65.6055 40.2686 64.4775 40.6494 63.4229C41.0303 62.3682 41.5576 61.3867 42.2314 60.4785L33.75 56.6113V82.1875H28.125V54.0625L59.0625 40L90 54.0625L75.8936 60.4785L76.2451 60.9619C76.8604 61.8701 77.3291 62.8516 77.6514 63.9062C77.9736 64.9609 78.2227 66.0303 78.3984 67.1143C78.5742 68.1982 78.6768 69.3115 78.7061 70.4541C78.7354 71.5967 78.75 72.6807 78.75 73.7061ZM59.0625 46.1523L41.7041 54.0625L59.0625 61.9727L76.4209 54.0625L59.0625 46.1523ZM59.0625 77.3096L73.125 70.2344C73.0957 69.4727 73.0371 68.7842 72.9492 68.1689C72.8613 67.5537 72.7002 66.9531 72.4658 66.3672C72.2314 65.7812 71.9971 65.21 71.7627 64.6533C71.5283 64.0967 71.1914 63.4814 70.752 62.8076L59.0625 68.125L47.373 62.8076C46.9336 63.5107 46.582 64.1406 46.3184 64.6973C46.0547 65.2539 45.8203 65.8105 45.6152 66.3672C45.4102 66.9238 45.2783 67.5098 45.2197 68.125C45.1611 68.7402 45.1025 69.458 45.0439 70.2783L59.0625 77.3096Z" fill="#DE2424"/>
</svg>
