<svg width="116" height="84" viewBox="0 0 116 84" fill="none" xmlns="http://www.w3.org/2000/svg">
<path d="M39.875 0.125C32.7374 0.125 27.0425 5.34862 25.8281 12.1346C18.9769 13.8601 13.0282 18.3225 10.4219 25.3876H10.3095L2.60637 47.0252C0.901393 50.4776 0.00980426 54.2746 0 58.125C0 72.0994 11.4006 83.5 25.375 83.5C37.9646 83.5 48.4554 74.2562 50.4093 62.2031C52.4228 64.2192 55.1507 65.3591 58 65.375C60.9471 65.375 63.6187 64.1425 65.5908 62.2031C67.5446 74.2526 78.0354 83.5 90.625 83.5C104.599 83.5 116 72.0994 116 58.125C116 54.5979 115.275 51.2158 113.959 48.1562L105.694 25.0469L105.578 24.9345V24.8221C102.932 18.3914 97.0666 13.9036 90.1719 12.1346C88.9539 5.345 83.2626 0.125 76.125 0.125C69.4006 0.125 63.9341 4.78312 62.3029 11H53.6935C52.0695 4.78312 46.5994 0.125 39.875 0.125ZM39.875 7.375C44.1924 7.375 47.125 10.3076 47.125 14.625V18.25H68.875V14.625C68.875 10.3076 71.8076 7.375 76.125 7.375C80.4424 7.375 83.375 10.3076 83.375 14.625V17.9093L86.6592 18.25C92.0424 18.8155 96.686 22.5674 98.7812 27.4249C98.8102 27.4974 98.8646 27.5807 98.8936 27.6532L101.612 35.3564C98.1947 33.6662 94.4376 32.775 90.625 32.75C80.0182 32.75 70.9557 39.333 67.1749 48.6094C66.1833 47.0786 64.8243 45.8205 63.2216 44.9498C61.619 44.0792 59.8239 43.6237 58 43.625C54.1937 43.625 50.7645 45.5934 48.8251 48.6094C45.0443 39.333 35.9818 32.75 25.375 32.75C21.4963 32.75 17.7987 33.6707 14.5 35.244L17.2188 27.878V27.7656C19.3285 22.1577 23.7764 18.83 29.3407 18.25L32.625 17.9093V14.625C32.625 10.3076 35.5576 7.375 39.875 7.375ZM25.375 40C35.4271 40 43.5 48.0729 43.5 58.125C43.5 68.1771 35.4271 76.25 25.375 76.25C15.3229 76.25 7.25 68.1771 7.25 58.125C7.25 55.5621 7.888 53.195 8.83775 50.9874C8.89213 50.846 8.89213 50.6756 8.9465 50.5343C10.3863 47.3878 12.7006 44.7218 15.6135 42.8541C18.5263 40.9863 21.9148 39.9956 25.375 40ZM90.625 40C100.677 40 108.75 48.0729 108.75 58.125C108.75 68.1771 100.677 76.25 90.625 76.25C80.5729 76.25 72.5 68.1771 72.5 58.125C72.5 48.0729 80.5729 40 90.625 40ZM58 50.875C60.0409 50.875 61.625 52.4627 61.625 54.5C61.625 56.5409 60.0373 58.125 58 58.125C55.9591 58.125 54.375 56.5373 54.375 54.5C54.375 52.4591 55.9627 50.875 58 50.875Z" fill="#DE2424"/>
</svg>
