<svg width="94" height="88" viewBox="0 0 94 88" fill="none" xmlns="http://www.w3.org/2000/svg">
<path d="M42.7022 85.1588H36.6269C21.0919 85.1588 13.3265 85.1588 8.49921 80.2405C3.67188 75.3222 3.67188 67.4052 3.67188 51.5755C3.67188 35.7459 3.67188 27.8289 8.49921 22.9105C13.3265 17.9922 21.0919 17.9922 36.6269 17.9922H53.1065C68.6415 17.9922 76.4112 17.9922 81.2385 22.9105C84.9522 26.6935 85.8059 32.2532 86.0052 41.8255V48.3255" stroke="#DE2424" stroke-width="5.56" stroke-linecap="round" stroke-linejoin="round"/>
<path d="M77.3281 72.1615H64.3281M64.3281 85.1615C60.8803 85.1615 57.5737 83.7918 55.1357 81.3539C52.6978 78.9159 51.3281 75.6093 51.3281 72.1615C51.3281 68.7136 52.6978 65.407 55.1357 62.9691C57.5737 60.5311 60.8803 59.1615 64.3281 59.1615M77.3281 85.1615C80.7759 85.1615 84.0825 83.7918 86.5205 81.3539C88.9585 78.9159 90.3281 75.6093 90.3281 72.1615C90.3281 68.7136 88.9585 65.407 86.5205 62.9691C84.0825 60.5311 80.7759 59.1615 77.3281 59.1615M64.3281 17.9948L63.8948 16.6515C61.7498 9.97813 60.6795 6.64146 58.1271 4.73479C55.5705 2.82813 52.1818 2.82812 45.3958 2.82812H44.2561C37.4745 2.82812 34.0815 2.82813 31.5291 4.73479C28.9725 6.64146 27.9021 9.97813 25.7571 16.6515L25.3281 17.9948" stroke="#DE2424" stroke-width="5.56" stroke-linecap="round" stroke-linejoin="round"/>
</svg>
