<svg width="92" height="92" viewBox="0 0 92 92" fill="none" xmlns="http://www.w3.org/2000/svg">
<path d="M48.875 69.529V57.5H43.125V69.529C41.2068 70.2072 39.59 71.5417 38.5606 73.2966C37.5311 75.0516 37.1552 77.1139 37.4992 79.1192C37.8433 81.1245 38.8852 82.9436 40.4407 84.2551C41.9963 85.5665 43.9654 86.2857 46 86.2857C48.0346 86.2857 50.0037 85.5665 51.5593 84.2551C53.1149 82.9436 54.1567 81.1245 54.5008 79.1192C54.8449 77.1139 54.4689 75.0516 53.4395 73.2966C52.41 71.5417 50.7933 70.2072 48.875 69.529Z" fill="#DE2424"/>
<path d="M74.754 34.5C72.2114 34.5076 69.7431 35.3584 67.7359 36.9192C65.7287 38.4801 64.296 40.6626 63.6623 43.125H28.3458C27.646 40.4149 25.9819 38.053 23.6652 36.482C21.3486 34.9111 18.5386 34.239 15.7619 34.5917C12.9852 34.9444 10.4324 36.2977 8.58209 38.3979C6.73177 40.4981 5.71094 43.201 5.71094 46C5.71094 48.7991 6.73177 51.502 8.58209 53.6022C10.4324 55.7024 12.9852 57.0557 15.7619 57.4084C18.5386 57.7611 21.3486 57.0889 23.6652 55.518C25.9819 53.9471 27.646 51.5852 28.3458 48.875H63.6623C64.2037 50.9524 65.3167 52.8363 66.875 54.3129C68.4332 55.7895 70.3743 56.7995 72.4778 57.2284C74.5813 57.6572 76.7628 57.4877 78.7748 56.739C80.7868 55.9903 82.5485 54.6924 83.8599 52.9928C85.1713 51.2932 85.9799 49.2599 86.1938 47.1239C86.4077 44.9878 86.0184 42.8346 85.0701 40.9086C84.1218 38.9827 82.6524 37.3613 80.8289 36.2285C79.0054 35.0956 76.9008 34.4968 74.754 34.5ZM17.254 51.75C16.1168 51.75 15.0051 51.4128 14.0595 50.781C13.1139 50.1492 12.3769 49.2511 11.9417 48.2005C11.5065 47.1498 11.3926 45.9936 11.6145 44.8783C11.8364 43.7629 12.384 42.7383 13.1882 41.9342C13.9923 41.13 15.0169 40.5824 16.1322 40.3605C17.2476 40.1386 18.4038 40.2525 19.4544 40.6877C20.5051 41.1229 21.4031 41.8599 22.035 42.8055C22.6668 43.7511 23.004 44.8628 23.004 46C23.0017 47.5243 22.3952 48.9855 21.3174 50.0634C20.2395 51.1412 18.7783 51.7477 17.254 51.75ZM74.754 51.75C73.6168 51.75 72.5051 51.4128 71.5595 50.781C70.6139 50.1492 69.8769 49.2511 69.4417 48.2005C69.0065 47.1498 68.8926 45.9936 69.1145 44.8783C69.3364 43.7629 69.884 42.7383 70.6882 41.9342C71.4923 41.13 72.5169 40.5824 73.6323 40.3605C74.7476 40.1386 75.9038 40.2525 76.9545 40.6877C78.0051 41.1229 78.9032 41.8599 79.535 42.8055C80.1668 43.7511 80.504 44.8628 80.504 46C80.5017 47.5243 79.8952 48.9855 78.8174 50.0634C77.7395 51.1412 76.2783 51.7477 74.754 51.75Z" fill="#DE2424"/>
<path d="M54.6249 14.3716C54.6315 12.7889 54.2024 11.2349 53.3846 9.87974C52.5669 8.52461 51.392 7.42061 49.9887 6.68866C48.5854 5.9567 47.0077 5.62501 45.4284 5.7299C43.8491 5.83479 42.3292 6.37222 41.035 7.28334C39.7408 8.19446 38.7222 9.44414 38.0909 10.8955C37.4595 12.3469 37.2397 13.944 37.4556 15.512C37.6714 17.08 38.3145 18.5583 39.3145 19.7852C40.3144 21.012 41.6327 21.94 43.1249 22.4676V34.4966H48.8749V22.4676C50.5531 21.8788 52.0073 20.7839 53.0372 19.3339C54.067 17.8839 54.6217 16.1501 54.6249 14.3716Z" fill="#DE2424"/>
</svg>
