<svg width="188" height="187" viewBox="0 0 188 187" fill="none" xmlns="http://www.w3.org/2000/svg">
<path d="M103.819 59.4598L112.95 57.1223C113.06 57.0966 113.176 57.0999 113.284 57.1319C113.393 57.1639 113.492 57.2235 113.571 57.3049L120.255 63.8791C120.357 63.9769 120.488 64.0392 120.628 64.0567C120.768 64.0742 120.911 64.046 121.034 63.9763C121.157 63.9066 121.254 63.7991 121.311 63.6697C121.368 63.5404 121.382 63.3961 121.35 63.2582L119.013 54.1273C118.987 54.0169 118.991 53.9017 119.023 53.7929C119.055 53.6841 119.114 53.5854 119.196 53.5065L125.77 46.7861C125.875 46.6826 125.942 46.5469 125.96 46.4006C125.979 46.2544 125.948 46.1062 125.872 45.9798C125.796 45.8534 125.68 45.7561 125.542 45.7037C125.404 45.6512 125.253 45.6465 125.112 45.6904L116.018 48.0645C115.908 48.0902 115.792 48.0868 115.683 48.0548C115.575 48.0229 115.476 47.9633 115.397 47.8818L108.677 41.3076C108.575 41.2098 108.444 41.1476 108.303 41.1301C108.163 41.1126 108.021 41.1407 107.898 41.2105C107.775 41.2802 107.678 41.3877 107.621 41.517C107.563 41.6464 107.55 41.7907 107.581 41.9285L109.955 51.0594C109.981 51.1698 109.977 51.2851 109.945 51.3939C109.913 51.5027 109.854 51.6013 109.772 51.6803L103.198 58.3641C103.1 58.4662 103.038 58.5971 103.021 58.7374C103.003 58.8777 103.031 59.0199 103.101 59.1429C103.171 59.2659 103.278 59.3632 103.408 59.4203C103.537 59.4773 103.681 59.4912 103.819 59.4598Z" fill="white"/>
<path d="M104.705 70.6345L109.087 75.1268C109.138 75.1795 109.174 75.2438 109.193 75.3139C109.212 75.384 109.214 75.4578 109.197 75.5286L107.627 81.5915C107.597 81.6853 107.6 81.7862 107.635 81.8781C107.67 81.9699 107.735 82.0473 107.819 82.0979C107.904 82.1484 108.003 82.1692 108.1 82.1569C108.197 82.1445 108.288 82.0998 108.357 82.0298L112.849 77.647C112.902 77.5968 112.966 77.5605 113.036 77.5414C113.107 77.5223 113.18 77.5209 113.251 77.5374L119.314 79.1079C119.408 79.1372 119.509 79.1341 119.601 79.0991C119.692 79.0641 119.77 78.9993 119.82 78.915C119.871 78.8307 119.892 78.7319 119.879 78.6344C119.867 78.5369 119.822 78.4464 119.752 78.3774L115.37 73.8851C115.319 73.8324 115.283 73.7681 115.264 73.698C115.245 73.6279 115.243 73.5541 115.26 73.4833L116.83 67.4204C116.86 67.3266 116.857 67.2257 116.822 67.1338C116.787 67.042 116.722 66.9646 116.638 66.914C116.553 66.8635 116.454 66.8427 116.357 66.855C116.259 66.8674 116.169 66.9121 116.1 66.9821L111.608 71.3649C111.555 71.4151 111.491 71.4514 111.421 71.4705C111.35 71.4896 111.277 71.491 111.206 71.4745L105.106 69.904C105.016 69.8866 104.921 69.8985 104.838 69.9379C104.754 69.9773 104.685 70.0422 104.64 70.1233C104.596 70.2044 104.578 70.2975 104.589 70.3894C104.601 70.4812 104.641 70.567 104.705 70.6345Z" fill="white"/>
<path d="M123.66 81.7046L132.718 84.2613C132.828 84.2873 132.93 84.3413 133.013 84.418C133.096 84.4948 133.158 84.5918 133.193 84.6995L135.713 93.7574C135.758 93.8863 135.842 93.998 135.953 94.0771C136.064 94.1562 136.197 94.1987 136.334 94.1987C136.47 94.1987 136.603 94.1562 136.715 94.0771C136.826 93.998 136.91 93.8863 136.955 93.7574L139.511 84.6995C139.537 84.5894 139.591 84.4878 139.668 84.4046C139.745 84.3214 139.842 84.2595 139.95 84.2247L149.007 81.7046C149.136 81.6598 149.248 81.5759 149.327 81.4646C149.406 81.3534 149.449 81.2202 149.449 81.0837C149.449 80.9472 149.406 80.8141 149.327 80.7028C149.248 80.5916 149.136 80.5077 149.007 80.4628L139.95 77.9062C139.839 77.8802 139.738 77.8262 139.655 77.7494C139.571 77.6726 139.509 77.5757 139.475 77.4679L136.955 68.4101C136.91 68.2812 136.826 68.1694 136.715 68.0903C136.603 68.0112 136.47 67.9688 136.334 67.9688C136.197 67.9688 136.064 68.0112 135.953 68.0903C135.842 68.1694 135.758 68.2812 135.713 68.4101L133.156 77.4679C133.13 77.5781 133.076 77.6797 132.999 77.7629C132.923 77.8461 132.826 77.908 132.718 77.9427L123.66 80.4628C123.531 80.5077 123.419 80.5916 123.34 80.7028C123.261 80.8141 123.219 80.9472 123.219 81.0837C123.219 81.2202 123.261 81.3534 123.34 81.4646C123.419 81.5759 123.531 81.6598 123.66 81.7046Z" fill="white"/>
<path d="M136.842 105.764C130.442 105.817 124.095 104.608 118.163 102.205C112.231 99.8028 106.831 96.2544 102.272 91.7631C97.7129 87.2717 94.084 81.9256 91.5929 76.0304C89.1018 70.1352 87.7975 63.8068 87.7545 57.407C87.791 53.3097 88.3557 49.2342 89.4346 45.2812C77.5117 46.4976 66.4593 52.0786 58.4025 60.9511C50.3458 69.8237 45.8533 81.3615 45.7891 93.3461C45.7891 120.045 67.7031 141.703 94.8035 141.703C117.631 141.703 136.732 126.29 142.211 105.472C140.416 105.668 138.611 105.765 136.805 105.764H136.842Z" fill="white"/>
</svg>
