<svg width="78" height="81" viewBox="0 0 78 81" fill="none" xmlns="http://www.w3.org/2000/svg">
<path d="M44.5 80.25H50V74.75C50 74.0207 50.2897 73.3212 50.8055 72.8055C51.3212 72.2897 52.0207 72 52.75 72H69.25C69.9793 72 70.6788 72.2897 71.1945 72.8055C71.7103 73.3212 72 74.0207 72 74.75V80.25H77.5V74.75C77.4978 72.5626 76.6279 70.4655 75.0812 68.9188C73.5345 67.3721 71.4374 66.5022 69.25 66.5H52.75C50.5626 66.5022 48.4655 67.3721 46.9188 68.9188C45.3721 70.4655 44.5022 72.5626 44.5 74.75V80.25ZM61 63.75C58.8244 63.75 56.6977 63.1049 54.8887 61.8962C53.0798 60.6875 51.6699 58.9695 50.8373 56.9595C50.0048 54.9495 49.7869 52.7378 50.2114 50.604C50.6358 48.4702 51.6834 46.5102 53.2218 44.9718C54.7602 43.4335 56.7202 42.3858 58.854 41.9614C60.9878 41.5369 63.1995 41.7548 65.2095 42.5873C67.2195 43.4199 68.9375 44.8298 70.1462 46.6387C71.3549 48.4477 72 50.5744 72 52.75C71.9971 55.6665 70.8372 58.4627 68.775 60.525C66.7127 62.5872 63.9165 63.7471 61 63.75ZM61 47.25C59.9122 47.25 58.8488 47.5726 57.9444 48.1769C57.0399 48.7813 56.3349 49.6403 55.9187 50.6452C55.5024 51.6502 55.3935 52.7561 55.6057 53.823C55.8179 54.8899 56.3417 55.8699 57.1109 56.6391C57.8801 57.4083 58.8601 57.9321 59.927 58.1443C60.9939 58.3565 62.0998 58.2476 63.1048 57.8313C64.1098 57.4151 64.9687 56.7101 65.5731 55.8056C66.1774 54.9012 66.5 53.8378 66.5 52.75C66.4978 51.292 65.9177 49.8943 64.8867 48.8633C63.8557 47.8323 62.458 47.2522 61 47.25ZM0.5 80.25H6V74.75C6 74.0207 6.28973 73.3212 6.80546 72.8055C7.32118 72.2897 8.02065 72 8.75 72H25.25C25.9793 72 26.6788 72.2897 27.1945 72.8055C27.7103 73.3212 28 74.0207 28 74.75V80.25H33.5V74.75C33.4978 72.5626 32.6279 70.4655 31.0812 68.9188C29.5345 67.3721 27.4374 66.5022 25.25 66.5H8.75C6.56263 66.5022 4.46548 67.3721 2.91878 68.9188C1.37208 70.4655 0.502184 72.5626 0.5 74.75V80.25ZM17 63.75C14.8244 63.75 12.6977 63.1049 10.8887 61.8962C9.07979 60.6875 7.66989 58.9695 6.83733 56.9595C6.00476 54.9495 5.78692 52.7378 6.21136 50.604C6.6358 48.4702 7.68345 46.5102 9.22182 44.9718C10.7602 43.4335 12.7202 42.3858 14.854 41.9614C16.9878 41.5369 19.1995 41.7548 21.2095 42.5873C23.2195 43.4199 24.9375 44.8298 26.1462 46.6387C27.3549 48.4477 28 50.5744 28 52.75C27.9971 55.6665 26.8372 58.4627 24.775 60.525C22.7127 62.5872 19.9165 63.7471 17 63.75ZM17 47.25C15.9122 47.25 14.8488 47.5726 13.9444 48.1769C13.0399 48.7813 12.3349 49.6403 11.9187 50.6452C11.5024 51.6502 11.3935 52.7561 11.6057 53.823C11.8179 54.8899 12.3417 55.8699 13.1109 56.6391C13.8801 57.4083 14.8601 57.9321 15.927 58.1443C16.9939 58.3565 18.0998 58.2476 19.1048 57.8313C20.1098 57.4151 20.9687 56.7101 21.5731 55.8056C22.1774 54.9012 22.5 53.8378 22.5 52.75C22.5 51.2913 21.9205 49.8924 20.8891 48.8609C19.8576 47.8295 18.4587 47.25 17 47.25ZM44.5 39H50V33.5C50 32.7707 50.2897 32.0712 50.8055 31.5555C51.3212 31.0397 52.0207 30.75 52.75 30.75H69.25C69.9793 30.75 70.6788 31.0397 71.1945 31.5555C71.7103 32.0712 72 32.7707 72 33.5V39H77.5V33.5C77.4978 31.3126 76.6279 29.2155 75.0812 27.6688C73.5345 26.1221 71.4374 25.2522 69.25 25.25H52.75C50.5626 25.2522 48.4655 26.1221 46.9188 27.6688C45.3721 29.2155 44.5022 31.3126 44.5 33.5V39ZM61 22.5C58.8244 22.5 56.6977 21.8549 54.8887 20.6462C53.0798 19.4375 51.6699 17.7195 50.8373 15.7095C50.0048 13.6995 49.7869 11.4878 50.2114 9.35401C50.6358 7.22022 51.6834 5.26021 53.2218 3.72183C54.7602 2.18345 56.7202 1.1358 58.854 0.711367C60.9878 0.286929 63.1995 0.504766 65.2095 1.33733C67.2195 2.16989 68.9375 3.57979 70.1462 5.38873C71.3549 7.19767 72 9.32441 72 11.5C71.9971 14.4165 70.8372 17.2127 68.775 19.275C66.7127 21.3372 63.9165 22.4971 61 22.5ZM61 6C59.9122 6 58.8488 6.32257 57.9444 6.92692C57.0399 7.53127 56.3349 8.39025 55.9187 9.39525C55.5024 10.4002 55.3935 11.5061 55.6057 12.573C55.8179 13.6399 56.3417 14.6199 57.1109 15.3891C57.8801 16.1583 58.8601 16.6821 59.927 16.8943C60.9939 17.1065 62.0998 16.9976 63.1048 16.5813C64.1098 16.1651 64.9687 15.4601 65.5731 14.5556C66.1774 13.6512 66.5 12.5878 66.5 11.5C66.5 10.0413 65.9205 8.64237 64.8891 7.61092C63.8576 6.57947 62.4587 6 61 6ZM0.5 39H6V33.5C6 32.7707 6.28973 32.0712 6.80546 31.5555C7.32118 31.0397 8.02065 30.75 8.75 30.75H25.25C25.9793 30.75 26.6788 31.0397 27.1945 31.5555C27.7103 32.0712 28 32.7707 28 33.5V39H33.5V33.5C33.4978 31.3126 32.6279 29.2155 31.0812 27.6688C29.5345 26.1221 27.4374 25.2522 25.25 25.25H8.75C6.56263 25.2522 4.46548 26.1221 2.91878 27.6688C1.37208 29.2155 0.502184 31.3126 0.5 33.5V39ZM17 22.5C14.8244 22.5 12.6977 21.8549 10.8887 20.6462C9.07979 19.4375 7.66989 17.7195 6.83733 15.7095C6.00476 13.6995 5.78692 11.4878 6.21136 9.35401C6.6358 7.22022 7.68345 5.26021 9.22182 3.72183C10.7602 2.18345 12.7202 1.1358 14.854 0.711367C16.9878 0.286929 19.1995 0.504766 21.2095 1.33733C23.2195 2.16989 24.9375 3.57979 26.1462 5.38873C27.3549 7.19767 28 9.32441 28 11.5C27.9964 14.4163 26.8363 17.212 24.7742 19.2742C22.712 21.3363 19.9163 22.4964 17 22.5ZM17 6C15.9122 6 14.8488 6.32257 13.9444 6.92692C13.0399 7.53127 12.3349 8.39025 11.9187 9.39525C11.5024 10.4002 11.3935 11.5061 11.6057 12.573C11.8179 13.6399 12.3417 14.6199 13.1109 15.3891C13.8801 16.1583 14.8601 16.6821 15.927 16.8943C16.9939 17.1065 18.0998 16.9976 19.1048 16.5813C20.1098 16.1651 20.9687 15.4601 21.5731 14.5556C22.1774 13.6512 22.5 12.5878 22.5 11.5C22.5 10.0413 21.9205 8.64237 20.8891 7.61092C19.8576 6.57947 18.4587 6 17 6Z" fill="#DE2424"/>
</svg>
