<svg width="82" height="91" viewBox="0 0 82 91" fill="none" xmlns="http://www.w3.org/2000/svg">
<path d="M3.5 54V37.3333C3.5 21.6208 3.5 13.7625 8.38333 8.88333C13.2625 4 21.1208 4 36.8333 4H45.1667C60.8792 4 68.7375 4 73.6167 8.88333C76.3417 11.6042 77.5458 15.25 78.075 20.6667M78.5 37.3333V54C78.5 69.7125 78.5 77.5708 73.6167 82.45C68.7375 87.3333 60.8792 87.3333 45.1667 87.3333H36.8333C21.1208 87.3333 13.2625 87.3333 8.38333 82.45C5.65833 79.7292 4.45417 76.0833 3.925 70.6667M24.3333 54H45.1667M24.3333 37.3333H28.5M57.6667 37.3333H41" stroke="#DE2424" stroke-width="6.75" stroke-linecap="round"/>
</svg>
