<svg width="24" height="24" viewBox="0 0 24 24" fill="none" xmlns="http://www.w3.org/2000/svg">
<path d="M20.5194 2.0814C20.7437 2.11809 20.9443 2.24236 21.0769 2.42689C21.2096 2.61142 21.2636 2.84109 21.227 3.0654C20.8477 5.38954 20.3433 7.30226 19.7137 8.80311C19.1424 10.1651 18.1743 11.7744 16.8088 13.6318L16.4733 14.0823L16.2997 14.3111C15.7682 15.0084 15.4417 15.8402 15.3568 16.7128C15.2377 17.9407 14.9754 18.8197 14.5708 19.349C13.1077 20.9613 11.7487 22.0138 10.4934 22.5071C10.4256 22.5337 10.3522 22.5426 10.28 22.533C10.2078 22.5233 10.1393 22.4954 10.0809 22.452C10.0224 22.4085 9.97607 22.3508 9.94612 22.2844C9.91618 22.218 9.90364 22.1451 9.9097 22.0725L10.2376 18.1404C10.2428 18.0781 10.2344 18.0153 10.2128 17.9566C10.1912 17.8979 10.1571 17.8446 10.1127 17.8005C10.0683 17.7564 10.0149 17.7225 9.95604 17.7013C9.8972 17.68 9.83443 17.6719 9.77213 17.6775C9.09027 17.7393 8.40413 17.4675 7.7137 16.8637C7.10598 16.3323 6.78413 15.7953 6.74941 15.2544L6.74555 15.1588C6.74537 15.093 6.73004 15.0282 6.70075 14.9693C6.67147 14.9103 6.62901 14.859 6.57667 14.8191C6.52433 14.7792 6.46351 14.7519 6.39893 14.7394C6.33435 14.7268 6.26775 14.7292 6.20427 14.7465L3.00455 15.6191C2.92634 15.6405 2.84367 15.6393 2.76613 15.6156C2.68859 15.5919 2.61937 15.5466 2.5665 15.4852C2.51364 15.4237 2.4793 15.3485 2.46747 15.2682C2.45565 15.188 2.46682 15.1061 2.4997 15.032L2.67027 14.6505L2.83613 14.2867L2.99727 13.9408L3.15413 13.613L3.30584 13.3027L3.37998 13.1544L3.52484 12.8711L3.66455 12.6054L3.73313 12.4794L3.86598 12.2411L3.99455 12.0204C4.05396 11.9202 4.11512 11.821 4.17798 11.723L4.29455 11.5473C4.4467 11.3244 4.58641 11.1495 4.7137 11.0223C5.1877 10.5483 6.11384 10.1107 7.49213 9.70997C8.20944 9.50144 8.85979 9.10905 9.3787 8.57169C9.50727 8.4384 9.63498 8.30769 9.76098 8.17997L10.1356 7.80454C10.4311 7.5114 10.7315 7.22308 11.0364 6.93969L11.3831 6.62254L11.7217 6.32254C12.6136 5.54426 13.4206 4.9434 14.1423 4.5204C14.5301 4.29326 14.981 4.06183 15.4948 3.82611L15.8467 3.6684C15.9067 3.64183 15.968 3.61568 16.0297 3.58911L16.4098 3.42968C16.5397 3.37611 16.6726 3.32254 16.8084 3.26897L17.2263 3.10697L17.6621 2.94411L18.1173 2.77954L18.5908 2.61411L19.0828 2.44697L19.3361 2.3634L19.8564 2.19454L20.1238 2.11011C20.2516 2.06975 20.3871 2.05991 20.5194 2.0814ZM6.42798 16.7115C6.58527 16.7115 6.73827 16.7287 6.88613 16.7604C6.54841 16.9237 6.33498 17.4945 6.24541 18.4721L6.2347 18.602C6.22989 18.6639 6.23858 18.7261 6.26018 18.7843C6.28178 18.8425 6.31576 18.8953 6.35978 18.9391C6.4038 18.9828 6.4568 19.0165 6.51512 19.0378C6.57344 19.0591 6.63569 19.0674 6.69755 19.0623C7.74584 18.974 8.35398 18.7528 8.52241 18.3993C8.55412 18.5463 8.57084 18.6984 8.57084 18.8544C8.57084 19.643 7.99955 20.2147 6.85655 20.5687L5.0107 20.7547C4.94778 20.761 4.88424 20.7534 4.82464 20.7323C4.76503 20.7111 4.71084 20.6771 4.66594 20.6326C4.62104 20.588 4.58656 20.5341 4.56495 20.4747C4.54335 20.4153 4.53516 20.3518 4.54098 20.2888L4.7137 18.4258C5.0677 17.2828 5.63941 16.7115 6.42798 16.7115ZM19.2804 4.18997L19.0456 4.27054L18.5913 4.4304C18.446 4.48241 18.301 4.53527 18.1563 4.58897L17.7406 4.7454C17.3356 4.9014 16.9593 5.05397 16.613 5.20397L16.2766 5.35354C15.8433 5.54679 15.4203 5.76222 15.0093 5.99897C14.0176 6.58054 12.782 7.59497 11.327 9.03754L10.9734 9.39154C10.8543 9.5124 10.7334 9.63583 10.6117 9.76269C9.8853 10.5149 8.97494 11.0642 7.97084 11.3561C7.3627 11.5331 6.86941 11.7123 6.49613 11.8888C6.19698 12.0298 6.00627 12.1545 5.92613 12.2343C5.85241 12.308 5.76027 12.4284 5.65184 12.5934L5.55541 12.746L5.45084 12.9204C5.43226 12.952 5.41383 12.9837 5.39555 13.0155L5.27984 13.2217L5.75341 13.0927C6.07076 13.0062 6.40377 12.9939 6.72663 13.0568C7.0495 13.1196 7.35355 13.256 7.61524 13.4553C7.87693 13.6546 8.08923 13.9114 8.2357 14.2059C8.38216 14.5005 8.45885 14.8248 8.45984 15.1537L8.46112 15.1584L8.47955 15.1927L8.50698 15.2317L8.54898 15.284L8.57641 15.3153L8.64455 15.3881L8.73241 15.4738C8.76541 15.5047 8.80184 15.5381 8.84255 15.5737C9.18027 15.8694 9.41341 15.9723 9.58313 15.9723L9.6187 15.9705C9.93002 15.9426 10.2437 15.9831 10.5377 16.0892C10.8317 16.1953 11.099 16.3644 11.3207 16.5847C11.5424 16.805 11.7133 17.0711 11.8213 17.3645C11.9293 17.6578 11.9718 17.9712 11.9458 18.2827L11.8327 19.643C12.3282 19.2125 12.7974 18.7529 13.238 18.2664C13.4013 18.0144 13.5646 17.4337 13.6507 16.5465C13.7665 15.3568 14.2118 14.2229 14.9364 13.2723C15.2698 12.8351 15.5806 12.4121 15.869 12.0045L16.1497 11.6021C17.0608 10.277 17.7217 9.11983 18.1327 8.14011C18.5784 7.07854 18.9624 5.76026 19.2804 4.18997ZM15.2137 6.8544C15.7252 6.8544 16.2157 7.05759 16.5774 7.41927C16.9391 7.78094 17.1423 8.27148 17.1423 8.78297C17.1423 9.29446 16.9391 9.785 16.5774 10.1467C16.2157 10.5084 15.7252 10.7115 15.2137 10.7115C14.7022 10.7115 14.2117 10.5084 13.85 10.1467C13.4883 9.785 13.2851 9.29446 13.2851 8.78297C13.2851 8.27148 13.4883 7.78094 13.85 7.41927C14.2117 7.05759 14.7022 6.8544 15.2137 6.8544Z" fill="#F6F6F6"/>
</svg>
