<svg width="88" height="88" viewBox="0 0 88 88" fill="none" xmlns="http://www.w3.org/2000/svg">
<path d="M8.81938 4.0625L7.67125 6.93625L21.4281 12.438L22.5625 9.56422L8.81938 4.0625ZM79.1781 4.06422L65.4281 9.56422L66.5625 12.438L80.3125 6.93797L79.1781 4.06422ZM43.9953 4.29797C39.0109 4.29797 35.4016 6.71797 32.875 10.1916C30.3484 13.6669 29.0422 18.2198 29.0422 22.0011C29.0422 24.2355 30.2453 26.7792 31.5344 28.7042C32.8234 30.6292 34.0953 31.9011 34.0953 31.9011L34.3531 32.1589L35.9516 36.9542H39.1828L33.4594 16.8569L43.9953 20.3683L54.5312 16.8569L48.8078 36.9542H52.0391L53.6375 32.1589L53.8953 31.9011C53.8953 31.9011 55.1672 30.6292 56.4563 28.7042C57.7453 26.7792 58.9484 24.2355 58.9484 22.0011C58.9484 18.2198 57.6422 13.6669 55.1156 10.1916C52.5891 6.71797 48.9797 4.29797 43.9953 4.29797ZM65.9953 20.4542V23.548H82.4953V20.4542H65.9953ZM5.49531 20.4714V23.5652H21.9953V20.4714H5.49531ZM38.0312 21.6402L42.4141 36.9542H45.5766L49.9594 21.6402L43.9953 23.6339L38.0312 21.6402ZM66.5625 31.5573L65.4281 34.4448L79.1781 39.9448L80.3125 37.0573L66.5625 31.5573ZM21.4281 31.5745L7.67125 37.0745L8.81938 39.962L22.5625 34.462L21.4281 31.5745ZM37.2922 40.048V42.4542H50.6984V40.048H37.2922ZM37.2922 45.548V47.9542H50.6984V45.548H37.2922ZM29.2313 45.9948C24.5734 46.0808 20.1906 46.8542 17.7328 47.9027L5.11719 83.2058C17.3375 80.7823 29.85 78.737 42.4484 83.0511V51.048H34.1984V46.1839C32.8406 46.0636 31.4484 45.9948 30.0906 45.9948H29.2313ZM57.9 45.9948C56.5422 45.9948 55.15 46.0636 53.7922 46.1839V51.048H45.5422V83.0511C58.1406 78.737 70.6531 80.7823 82.8734 83.2058L70.2578 47.9027C67.8 46.8542 63.4172 46.0808 58.7594 45.9948H57.9Z" fill="#DE2424"/>
</svg>
