<svg width="122" height="121" viewBox="0 0 122 121" fill="none" xmlns="http://www.w3.org/2000/svg">
<path d="M60.998 5.90625C58.2581 5.90625 55.5625 8.93125 55.5625 13.2324C55.5625 17.5336 58.2581 20.5586 60.998 20.5586C63.738 20.5586 66.4336 17.5336 66.4336 13.2324C66.4336 8.93125 63.738 5.90625 60.998 5.90625ZM36.4315 6.60933L32.6271 8.51177C36.1938 15.6453 44.7673 21.9376 52.0504 26.1045L55.4051 69.7148H58.8711V45.373H63.125V69.7148H66.591L69.9457 26.1045C77.2288 21.9376 85.8023 15.6453 89.369 8.51177L85.5646 6.60933C80.8593 13.6755 74.9556 18.2244 68.7064 20.262C66.9797 22.988 64.2476 24.8125 60.998 24.8125C57.7485 24.8125 55.0166 22.988 53.2897 20.2618C47.0405 18.2246 41.1368 13.6755 36.4315 6.60933ZM40.4375 73.9688V96.6562H6.40625V115.09H115.59V108H81.5586V73.9688H40.4375Z" fill="white"/>
</svg>
