<svg width="84" height="85" viewBox="0 0 84 85" fill="none" xmlns="http://www.w3.org/2000/svg">
<path d="M68.25 34.125C68.25 41.6555 65.8055 48.6117 61.6875 54.2555L82.4578 75.0422C84.5086 77.093 84.5086 80.4234 82.4578 82.4742C80.407 84.525 77.0766 84.525 75.0258 82.4742L54.2555 61.6875C48.6117 65.8219 41.6555 68.25 34.125 68.25C15.2742 68.25 0 52.9758 0 34.125C0 15.2742 15.2742 0 34.125 0C52.9758 0 68.25 15.2742 68.25 34.125ZM34.125 57.75C37.2275 57.75 40.2996 57.1389 43.1659 55.9517C46.0322 54.7644 48.6366 53.0242 50.8304 50.8304C53.0242 48.6366 54.7644 46.0322 55.9517 43.1659C57.1389 40.2996 57.75 37.2275 57.75 34.125C57.75 31.0225 57.1389 27.9504 55.9517 25.0841C54.7644 22.2178 53.0242 19.6134 50.8304 17.4196C48.6366 15.2258 46.0322 13.4856 43.1659 12.2983C40.2996 11.1111 37.2275 10.5 34.125 10.5C31.0225 10.5 27.9504 11.1111 25.0841 12.2983C22.2178 13.4856 19.6134 15.2258 17.4196 17.4196C15.2258 19.6134 13.4856 22.2178 12.2983 25.0841C11.1111 27.9504 10.5 31.0225 10.5 34.125C10.5 37.2275 11.1111 40.2996 12.2983 43.1659C13.4856 46.0322 15.2258 48.6366 17.4196 50.8304C19.6134 53.0242 22.2178 54.7644 25.0841 55.9517C27.9504 57.1389 31.0225 57.75 34.125 57.75Z" fill="#DE2424"/>
</svg>
