<svg width="120" height="120" viewBox="0 0 120 120" fill="none" xmlns="http://www.w3.org/2000/svg">
<g clip-path="url(#clip0_4998_8431)">
<path d="M82.4027 82.0761C80.5904 83.1446 78.9471 84.1121 77.3108 85.0831C73.0387 87.6201 68.7245 90.1016 64.5053 92.7257C61.4719 94.6119 58.6005 94.5702 55.5777 92.7396C50.0635 89.3985 44.4965 86.1411 38.9471 82.8487C38.5459 82.6086 38.1377 82.3789 37.5782 82.0587V83.4648C37.5782 90.2338 37.5571 97.0029 37.6028 103.775C37.6099 104.732 37.3917 105.007 36.3853 105.004C24.6707 104.966 12.9561 104.966 1.24145 105.004C0.266699 105.004 -0.0112986 104.785 -0.00777961 103.793C0.0309289 94.5493 -0.0218554 85.3058 0.02741 76.0623C0.0766754 66.951 5.34455 59.8235 13.5684 57.5057C19.0122 55.9709 24.0619 57.0219 28.8125 59.7574C38.8591 65.5416 48.867 71.3953 58.8679 77.2595C59.6843 77.7398 60.2438 77.7781 61.0813 77.2873C71.0822 71.4231 81.1148 65.6042 91.1367 59.7713C99.5119 54.8955 109.041 56.1519 115.256 62.9975C118.504 66.5752 119.943 70.8628 119.961 75.6168C119.996 85.0343 119.961 94.4519 119.992 103.866C119.996 104.799 119.718 105.007 118.813 105.004C107.057 104.976 95.2962 104.973 83.5393 105.004C82.6103 105.004 82.371 104.76 82.3781 103.848C82.4168 97.0794 82.3992 90.3104 82.3992 83.5378V82.0831L82.4027 82.0761Z" fill="#D2D4DB"/>
<path d="M59.7125 46.066C67.8835 46.0834 75.034 50.9209 77.638 57.8849C77.9477 58.7097 77.9231 59.1343 77.0644 59.6215C71.6382 62.6911 66.2472 65.8233 60.8596 68.959C60.2649 69.307 59.818 69.3557 59.1952 68.9903C53.7408 65.7989 48.2723 62.6319 42.7828 59.4927C42.1493 59.1308 42.0543 58.8593 42.3429 58.1946C45.1475 51.7353 49.8699 47.5973 56.9501 46.2818C57.207 46.233 57.4674 46.1843 57.7278 46.1669C58.516 46.1182 59.3043 46.0834 59.7125 46.0625V46.066Z" fill="#D2D4DB"/>
<path d="M71.291 27.1382C71.3086 33.1973 66.1428 38.3132 60.0057 38.3097C53.8827 38.3097 48.7063 33.1729 48.7345 27.1277C48.7626 21.1383 53.837 16.1058 59.9529 16.0014C65.9703 15.9005 71.2734 21.1104 71.291 27.1347V27.1382Z" fill="#D2D4DB"/>
<path d="M112.414 38.3583C112.396 44.3965 107.308 49.4429 101.22 49.4568C95.0968 49.4707 89.9485 44.3478 89.9767 38.2609C90.0013 32.0522 95.0581 27.1276 101.382 27.1485C107.445 27.1694 112.431 32.2331 112.414 38.3583Z" fill="#D2D4DB"/>
<path d="M30.0471 38.3551C30.0894 44.1671 25.2156 49.4536 18.7126 49.4292C12.4383 49.4048 7.53988 44.268 7.59618 38.0071C7.64897 31.9724 12.8218 27.1035 19.1313 27.1488C25.0819 27.194 30.0858 32.3308 30.0507 38.3551H30.0471Z" fill="#D2D4DB"/>
</g>
<defs>
<clipPath id="clip0_4998_8431">
<rect width="120" height="89" fill="white" transform="translate(0 16)"/>
</clipPath>
</defs>
</svg>
