<svg width="120" height="120" viewBox="0 0 120 120" fill="none" xmlns="http://www.w3.org/2000/svg">
<g clip-path="url(#clip0_4998_8429)">
<path d="M10.002 86.5031C11.0864 83.7423 12.1312 81.0713 13.1832 78.3967C15.3989 72.7744 17.6146 67.152 19.8375 61.5332C19.978 61.1809 19.996 60.8322 19.9816 60.4656C19.7186 51.7912 21.8839 43.7818 26.7981 36.6029C33.0993 27.4001 41.7604 21.5979 52.7704 19.6208C65.2036 17.3884 76.3974 20.3973 86.0673 28.5037C93.3052 34.5718 97.7114 42.3834 99.484 51.6582C100.734 58.1936 100.251 64.6284 98.3167 70.9733C97.2827 74.3705 96.5261 77.8503 95.1102 81.1324C91.9434 88.4839 86.9752 94.3004 80.2272 98.607C79.7984 98.8802 79.6255 99.1462 79.6291 99.6711C79.6507 106.225 79.6363 112.774 79.6579 119.328C79.6579 119.867 79.5174 119.989 78.9878 119.989C66.0827 119.975 53.1776 119.971 40.2724 119.989C39.6672 119.989 39.5303 119.842 39.5339 119.249C39.5627 114.859 39.5411 110.466 39.5591 106.077C39.5591 105.592 39.4726 105.426 38.9394 105.434C36.2049 105.466 33.4668 105.452 30.7323 105.448C26.7584 105.444 24.0852 102.781 24.0888 98.8335C24.0888 94.9654 24.078 91.0974 24.1032 87.2293C24.1068 86.6541 24.0023 86.4744 23.3754 86.478C19.2034 86.5139 15.0314 86.4959 10.8594 86.4959C10.6108 86.4959 10.3586 86.4959 10.002 86.4959V86.5031Z" fill="#D2D4DB"/>
<path d="M61.1885 7.44591C61.1885 9.71786 61.1705 11.9934 61.2029 14.2654C61.2101 14.7614 61.0624 14.8909 60.594 14.8477C60.0536 14.7974 59.3259 15.0203 59.0088 14.7471C58.6341 14.4235 58.8899 13.6758 58.8899 13.1186C58.8791 8.98092 58.8971 4.84323 58.8719 0.705549C58.8719 0.130371 59.0268 -0.0134233 59.5925 0.00095616C61.1921 0.0440945 61.1921 0.0153354 61.1921 1.58269C61.1921 3.5383 61.1921 5.4939 61.1921 7.4495L61.1885 7.44591Z" fill="#D2D4DB"/>
<path d="M37.0975 21.2615C36.8057 21.2436 36.7769 20.9775 36.6724 20.7978C34.7377 17.4654 32.8066 14.1293 30.8755 10.7933C30.5008 10.1462 30.1406 9.48837 29.737 8.85927C29.5317 8.53933 29.6109 8.40991 29.9172 8.25174C30.4612 7.97493 31.0196 7.39257 31.5096 7.45368C31.8699 7.49682 32.1437 8.35239 32.4355 8.85567C34.5179 12.4433 36.5895 16.0382 38.6827 19.6223C38.9241 20.0357 38.9745 20.2694 38.4666 20.485C37.991 20.69 37.5587 20.9919 37.1011 21.2579L37.0975 21.2615Z" fill="#D2D4DB"/>
<path d="M9.51071 28.4688C13.6755 30.8701 17.7574 33.2319 21.8502 35.5686C22.2825 35.813 22.4194 35.9964 22.088 36.4242C21.7421 36.8663 21.6376 37.6644 21.1657 37.7722C20.7766 37.8621 20.2362 37.3301 19.7678 37.0641C16.1326 34.9718 12.5046 32.8725 8.8586 30.7946C8.43348 30.5538 8.33981 30.3632 8.63163 29.9462C8.95588 29.4861 9.21168 28.9756 9.51071 28.4688Z" fill="#D2D4DB"/>
<path d="M111.726 30.4058C111.672 30.582 111.51 30.6215 111.387 30.6934C107.345 33.0229 103.299 35.3488 99.2605 37.689C98.9759 37.8544 98.8354 37.8472 98.6841 37.556C98.4535 37.1174 98.223 36.6717 97.9383 36.2618C97.7114 35.9347 97.8411 35.8089 98.1221 35.6471C102.172 33.3248 106.218 30.9954 110.256 28.6587C110.537 28.497 110.667 28.5077 110.822 28.8061C111.103 29.3489 111.424 29.8702 111.73 30.4058H111.726Z" fill="#D2D4DB"/>
<path d="M111.76 87.3951C111.392 88.035 111.165 88.9624 110.628 89.2033C110.07 89.4549 109.396 88.6748 108.787 88.3261C105.264 86.3202 101.755 84.2819 98.2276 82.276C97.8277 82.0495 97.7088 81.8698 97.997 81.4707C98.3249 81.0142 98.5014 80.2629 98.9193 80.1083C99.3517 79.9501 99.8921 80.5469 100.375 80.8237C104.032 82.9231 107.678 85.0332 111.327 87.1434C111.464 87.2225 111.598 87.3052 111.756 87.3987L111.76 87.3951Z" fill="#D2D4DB"/>
<path d="M90.5257 8.58652C90.4573 8.70155 90.3888 8.81659 90.3204 8.93522C88.029 12.8932 85.7304 16.8475 83.4571 20.8162C83.2049 21.2584 83.0103 21.3591 82.596 21.0391C82.1529 20.6976 81.3495 20.6041 81.2522 20.1224C81.1729 19.7198 81.6989 19.1913 81.9691 18.724C84.066 15.0968 86.1736 11.4768 88.2524 7.83878C88.501 7.40021 88.6991 7.3355 89.099 7.62669C89.4665 7.88911 89.8844 8.07604 90.2663 8.3205C90.36 8.38161 90.5473 8.3888 90.5221 8.58652H90.5257Z" fill="#D2D4DB"/>
<path d="M8.47223 60.0741C6.19528 60.0741 3.91473 60.0562 1.63777 60.0885C1.10817 60.0957 0.996481 59.9339 1.00008 59.4343C1.01449 57.7842 0.996481 57.7842 2.67537 57.7842C6.8654 57.7842 11.059 57.7914 15.249 57.7734C15.7354 57.7734 15.9552 57.8525 15.8903 58.3918C15.8255 58.9274 16.0453 59.6392 15.7714 59.9699C15.4832 60.315 14.7483 60.0706 14.2114 60.0741C12.2984 60.0885 10.3853 60.0777 8.47223 60.0777V60.0741Z" fill="#D2D4DB"/>
<path d="M111.648 60.0752C109.371 60.0752 107.094 60.0609 104.821 60.086C104.338 60.0932 104.172 59.9602 104.234 59.4857C104.306 58.9285 103.985 58.1843 104.367 57.8608C104.688 57.5876 105.408 57.7817 105.952 57.7817C110.117 57.7817 114.282 57.7889 118.45 57.7673C118.955 57.7673 119.099 57.8788 119.092 58.3964C119.063 60.068 119.088 60.0681 117.387 60.0681C115.474 60.0681 113.565 60.0681 111.652 60.0681L111.648 60.0752Z" fill="#D2D4DB"/>
<path d="M81.4083 60.4562C80.1762 60.4562 78.9476 60.4418 77.7155 60.4634C77.3084 60.4706 77.1462 60.3771 77.1751 59.9386C77.2147 59.2807 77.2111 58.6192 77.1751 57.9614C77.1534 57.5264 77.2687 57.3754 77.7335 57.3862C79.1458 57.4186 80.5617 57.3718 81.974 57.4114C82.4747 57.4258 82.5324 57.2316 82.4855 56.8182C81.9884 52.2599 80.3311 48.1834 77.4201 44.6209C77.1354 44.2722 76.9661 44.1931 76.613 44.5669C75.6439 45.5915 74.6171 46.5621 73.6299 47.5758C73.3705 47.8419 73.2156 47.8922 72.9418 47.5902C72.4518 47.051 71.933 46.5369 71.3962 46.048C71.126 45.8 71.144 45.6562 71.3962 45.4081C72.441 44.3908 73.4534 43.3447 74.5054 42.3345C74.7936 42.0541 74.7756 41.9175 74.4766 41.6695C71.3962 39.1351 67.8979 37.5102 63.9709 36.8092C63.4125 36.7086 62.8468 36.6475 62.2848 36.5576C61.8056 36.4785 61.5498 36.5432 61.5751 37.1543C61.6291 38.5168 61.5679 39.8828 61.6039 41.2489C61.6147 41.7378 61.4634 41.8708 60.9914 41.842C60.3321 41.8025 59.6692 41.8097 59.0099 41.842C58.6172 41.86 58.4983 41.727 58.5055 41.3424C58.5235 39.908 58.4947 38.4773 58.5235 37.0429C58.5343 36.5971 58.3866 36.5001 57.9759 36.5432C53.3319 37.0393 49.1923 38.7253 45.5896 41.7054C45.2725 41.9679 45.3446 42.0865 45.5824 42.3166C46.6236 43.3339 47.6467 44.3764 48.6952 45.3866C48.969 45.649 49.0014 45.8036 48.7024 46.0696C48.18 46.5405 47.6756 47.0402 47.2036 47.5651C46.9262 47.8706 46.7641 47.8886 46.465 47.5722C45.5211 46.5837 44.5051 45.6634 43.5864 44.6532C43.1397 44.1607 42.9451 44.2937 42.5993 44.7287C39.7855 48.2409 38.1534 52.2312 37.6382 56.6924C37.5734 57.2388 37.6851 57.4437 38.294 57.4222C39.6594 57.3718 41.0285 57.4222 42.3975 57.397C42.819 57.3898 42.9559 57.5084 42.9343 57.9326C42.9019 58.6121 42.9127 59.2987 42.9307 59.9781C42.9379 60.3016 42.8839 60.4742 42.4912 60.4706C39.962 60.4562 37.4293 60.4526 34.9001 60.4706C34.4966 60.4706 34.4786 60.2909 34.4678 59.9817C34.248 53.4462 36.2043 47.6334 40.3872 42.6113C44.4763 37.7008 49.7219 34.6883 56.034 33.7284C63.7619 32.5493 70.7045 34.4941 76.6887 39.5449C81.4371 43.5532 84.2689 48.6902 85.3389 54.7943C85.6416 56.5234 85.6992 58.2741 85.6632 60.0248C85.656 60.4023 85.5119 60.4706 85.1768 60.467C83.9231 60.4526 82.6693 60.4598 81.4155 60.4598L81.4083 60.4562Z" fill="white"/>
<path d="M66.4258 59.0958C66.2998 62.5828 63.4644 65.3364 60.0309 65.3113C56.5795 65.2825 53.7045 62.5001 53.7189 59.0383C53.7189 58.1395 53.4487 57.8304 52.6849 57.5212C50.5448 56.6549 48.448 55.6842 46.326 54.7748C45.9621 54.6202 45.8432 54.4908 46.045 54.0989C46.3656 53.477 46.6538 52.8335 46.8952 52.1793C47.0465 51.7694 47.2159 51.773 47.5725 51.9312C49.8063 52.9198 52.0652 53.8652 54.2881 54.879C54.8033 55.1127 55.0519 55.0264 55.4122 54.631C57.21 52.6502 60.0453 52.0498 62.524 53.078C64.9271 54.0773 66.5195 56.529 66.4258 59.0994V59.0958Z" fill="white"/>
<path d="M60.0382 62.212C58.208 62.2084 56.7777 60.7597 56.7813 58.912C56.7849 57.075 58.2332 55.637 60.0706 55.6406C61.89 55.6442 63.3455 57.1181 63.3383 58.9443C63.3311 60.7705 61.872 62.2192 60.0382 62.2156V62.212Z" fill="#D2D4DB"/>
</g>
<defs>
<clipPath id="clip0_4998_8429">
<rect width="118.095" height="120" fill="white" transform="translate(1)"/>
</clipPath>
</defs>
</svg>
