<svg width="120" height="120" viewBox="0 0 120 120" fill="none" xmlns="http://www.w3.org/2000/svg">
<path d="M119.271 45.5804C114.516 43.7546 109.767 41.892 105.023 40.0451C103.618 39.4963 102.212 38.9528 100.608 38.3249C101.277 40.3881 101.799 42.2086 102.463 43.9815C102.808 44.905 102.494 45.1635 101.679 45.3746C94.9186 47.1317 88.1631 48.9153 81.4076 50.7093C80.6918 50.8993 80.2634 50.7779 79.7671 50.1342C76.836 46.3349 73.1265 43.5594 68.6124 41.95C67.8183 41.6651 67.5518 41.2376 67.5048 40.4409C67.1182 33.3806 66.7316 26.3257 66.2875 19.2707C66.2248 18.2998 66.5957 18.189 67.3846 18.2101C69.2551 18.2523 71.1255 18.2259 73.022 18.2259C72.975 18.0096 72.9855 17.9093 72.9384 17.8565C68.8057 12.7118 64.6521 7.58807 60.5508 2.42217C59.9134 1.62011 59.694 2.12667 59.3334 2.58047C55.6187 7.20287 51.8935 11.8253 48.1736 16.4477C47.7452 16.9806 47.3324 17.5294 46.7943 18.2259C48.8946 18.2259 50.7807 18.2734 52.6616 18.2048C53.5602 18.1731 53.7744 18.4581 53.7013 19.3287C53.5341 21.2759 53.4818 23.2335 53.3669 25.1859C53.0795 30.204 52.7922 35.2169 52.4839 40.2298C52.4421 40.8999 52.5048 41.5648 51.5801 41.8867C46.9249 43.5014 43.1109 46.3455 40.1172 50.2872C39.7305 50.7938 39.3857 50.9151 38.7953 50.7568C31.9145 48.9258 25.0336 47.1053 18.1423 45.3218C17.3116 45.1055 17.2541 44.7941 17.5101 44.0607C18.1527 42.2455 18.7118 40.3986 19.3596 38.3988C19.0305 38.4832 18.8685 38.5096 18.7222 38.5676C12.7086 40.9158 6.70029 43.2956 0.665815 45.5909C-0.295522 45.955 -0.0395136 46.2875 0.341886 46.8784C3.74836 52.1604 7.13916 57.4582 10.5404 62.7455C10.7233 63.0305 10.8173 63.4051 11.2771 63.5423C11.8675 61.6954 12.4735 59.8591 13.0273 58.0123C13.2468 57.2841 13.4714 57.0467 14.2969 57.3791C20.8591 60.0227 27.4422 62.603 34.0304 65.1833C34.6313 65.4208 34.9134 65.6952 34.9291 66.4075C35.0597 71.3202 36.4704 75.8423 39.2238 79.9054C39.6783 80.5755 39.6469 81.0082 39.229 81.6572C35.4359 87.5882 31.6637 93.5298 27.9333 99.4978C27.4317 100.305 27.1391 100.363 26.4025 99.7722C24.9187 98.5796 23.346 97.5137 21.648 96.2737C22.0346 103.482 22.4056 110.405 22.787 117.439C29.4955 115.634 36.1464 113.85 43.0796 111.982C41.2979 110.674 39.7567 109.508 38.1788 108.405C37.5884 107.993 37.4631 107.719 37.9751 107.096C42.5257 101.55 47.0451 95.9835 51.5539 90.406C51.9458 89.9206 52.2749 89.815 52.8758 89.9944C57.5936 91.4139 62.3219 91.4244 67.045 90.0155C67.6668 89.8309 68.0482 89.9153 68.4766 90.4535C72.9541 95.9993 77.4473 101.535 81.9719 107.038C82.5152 107.703 82.4369 107.988 81.7681 108.447C80.185 109.534 78.6594 110.706 76.9092 111.993C83.6438 113.798 90.1119 115.523 96.58 117.28C97.4995 117.528 97.2331 116.89 97.2592 116.484C97.5204 111.956 97.7712 107.429 98.0168 102.901C98.1317 100.764 98.2153 98.6271 98.3198 96.2843C96.5121 97.6087 94.8977 98.7538 93.325 99.9569C92.8287 100.337 92.6197 100.368 92.254 99.7827C88.4139 93.6723 84.5424 87.583 80.6605 81.4989C80.2843 80.9079 80.3679 80.5175 80.7336 79.9687C83.5079 75.8687 84.9447 71.3149 85.0701 66.3495C85.0858 65.6952 85.347 65.4261 85.8956 65.2097C92.5204 62.6083 99.1453 60.0069 105.754 57.358C106.512 57.0572 106.737 57.2313 106.946 57.9332C107.51 59.8117 108.132 61.6691 108.753 63.6214C108.952 63.4315 109.062 63.3576 109.13 63.2574C112.667 57.7432 116.188 52.2132 119.757 46.7201C120.269 45.9339 119.908 45.8231 119.276 45.5804H119.271ZM60.1328 76.9557C54.0304 76.9979 49.0409 72.0325 48.973 65.8535C48.9103 59.7589 53.9312 54.6352 60.0074 54.5983C66.1098 54.5613 71.1098 59.5637 71.1255 65.7269C71.1464 71.9375 66.2718 76.9135 60.1328 76.9557Z" fill="#D2D4DB"/>
</svg>
