<svg width="128" height="128" viewBox="0 0 128 128" fill="none" xmlns="http://www.w3.org/2000/svg">
<g clip-path="url(#clip0_3236_11942)">
<path d="M106.055 21.4141C106.137 21.4266 105.84 21.4376 105.226 21.4376C100.598 21.4376 96.2814 26.4526 96.2814 33.3126C96.2814 36.7701 97.4594 39.8646 99.1874 42.0076L101.742 45.1641L97.7262 45.7816C95.0862 46.1858 93.3104 47.3896 91.8199 49.3671C90.3294 51.3446 89.2339 54.1621 88.5074 57.4531C87.2109 63.3261 87.1099 70.5593 87.1012 76.9921H94.7107L94.8589 79.1721L96.6324 105.82H113.086L115.093 79.1478L115.257 76.9918H123.257C123.197 70.6461 122.852 63.5086 121.421 57.6793C120.618 54.4078 119.476 51.5908 118 49.5856C116.523 47.5806 114.825 46.3731 112.484 45.9373L108.554 45.2031L111.124 42.1406C112.931 39.9848 114.171 36.8561 114.171 33.3123C114.171 26.8773 110.296 21.9608 106.101 21.4218L106.054 21.4143L106.055 21.4141ZM44.8672 22.2578C33.3922 22.2593 19.9062 23.6011 4.46094 26.7341V31.5156C71.4654 22.1036 89.8472 41.0531 61.0234 51.3516C31.6917 61.8316 8.39769 114.416 100.875 119C101.965 119.11 103.087 119.172 104.234 119.172C109.804 119.172 114.819 117.809 118.265 115.773C121.712 113.738 123.414 111.238 123.414 108.797C123.414 106.356 121.712 103.856 118.265 101.821C118.208 101.786 118.145 101.753 118.086 101.719L117.586 108.336L117.422 110.5H92.2577L92.1169 108.313L91.2969 95.9376C59.2484 96.6376 50.4829 70.8101 71.2734 63.3201C76.3697 61.4841 80.5449 59.3611 83.8202 57.0626C83.8627 56.8571 83.9002 56.6488 83.9452 56.4451C84.7607 52.7516 86.0092 49.3206 88.0937 46.5546C89.3302 44.9138 90.9037 43.5371 92.7737 42.5621C91.9927 31.9253 75.6899 22.2531 44.8669 22.2578H44.8672Z" fill="#E0263E"/>
</g>
<defs>
<clipPath id="clip0_3236_11942">
<rect width="128" height="128" fill="white"/>
</clipPath>
</defs>
</svg>
