<svg width="128" height="128" viewBox="0 0 128 128" fill="none" xmlns="http://www.w3.org/2000/svg">
<path fill-rule="evenodd" clip-rule="evenodd" d="M23.6071 44.6473C23.3764 44.6473 23.1456 44.5887 22.9441 44.4751C22.2225 44.1015 21.9331 43.2333 22.3104 42.5117C27.4496 32.4091 36.0211 24.2699 46.4131 19.5922C47.1347 19.2735 47.9992 19.5922 48.3472 20.3138C48.6952 21.0647 48.3472 21.8999 47.6256 22.2479C37.8416 26.6362 29.7573 34.3139 24.9075 43.8377C24.6474 44.3579 24.1273 44.6473 23.6071 44.6473Z" fill="#E0263E"/>
<path fill-rule="evenodd" clip-rule="evenodd" d="M109.765 44.6272C109.245 44.6272 108.725 44.3378 108.465 43.8177C103.586 34.2352 95.4757 26.5575 85.6625 22.1985C84.9409 21.8799 84.5929 21.0154 84.9116 20.2645C85.2303 19.5135 86.0947 19.1949 86.8456 19.5135C97.2669 24.1326 105.868 32.3012 111.033 42.4624C111.406 43.184 111.12 44.0485 110.399 44.4258C110.227 44.5979 109.996 44.6272 109.765 44.6272Z" fill="#E0263E"/>
<path fill-rule="evenodd" clip-rule="evenodd" d="M45.4527 110.002C45.2512 110.002 45.0204 109.943 44.819 109.859C34.687 104.896 26.4599 96.5513 21.6687 86.3645C21.3207 85.6428 21.6394 84.7784 22.361 84.4304C23.0826 84.0824 23.9471 84.4011 24.2951 85.1227C28.8262 94.7052 36.5625 102.555 46.1157 107.233C46.8373 107.581 47.1267 108.474 46.7787 109.196C46.493 109.713 45.9728 110.002 45.4527 110.002Z" fill="#E0263E"/>
<path fill-rule="evenodd" clip-rule="evenodd" d="M89.5336 109.191C89.0135 109.191 88.5226 108.902 88.2332 108.411C87.8596 107.689 88.116 106.825 88.8376 106.447C98.2186 101.425 105.695 93.2276 109.852 83.4437C110.171 82.6928 111.036 82.3484 111.757 82.6635C112.508 82.9821 112.852 83.8466 112.537 84.5682C108.12 94.9895 100.182 103.678 90.2259 109.015C89.9952 109.132 89.7644 109.191 89.5336 109.191Z" fill="#E0263E"/>
<path fill-rule="evenodd" clip-rule="evenodd" d="M66.7024 29.6705C58.5339 29.6705 51.8672 23.0331 51.8672 14.8352C51.8672 6.6374 58.5046 0 66.7024 0C74.9003 0 81.5377 6.6374 81.5377 14.8352C81.5084 23.0331 74.871 29.6705 66.7024 29.6705Z" fill="#E0263E"/>
<mask id="mask0_3236_11941" style="mask-type:alpha" maskUnits="userSpaceOnUse" x="51" y="0" width="31" height="30">
<path fill-rule="evenodd" clip-rule="evenodd" d="M66.7024 29.6705C58.5339 29.6705 51.8672 23.0331 51.8672 14.8352C51.8672 6.6374 58.5046 0 66.7024 0C74.9003 0 81.5377 6.6374 81.5377 14.8352C81.5084 23.0331 74.871 29.6705 66.7024 29.6705Z" fill="#E0263E"/>
</mask>
<g mask="url(#mask0_3236_11941)">
<path fill-rule="evenodd" clip-rule="evenodd" d="M63.4131 17.5863C62.0324 16.5746 61.1328 14.9417 61.1328 13.1061C61.1328 10.0493 63.6274 7.55469 66.6842 7.55469C69.741 7.55469 72.2356 10.0493 72.2356 13.1061C72.2356 14.9769 71.3 16.6372 69.8739 17.6439C74.055 18.8766 77.3254 22.3741 78.1246 26.8382C78.2847 27.7128 77.7057 28.5875 76.7983 28.7476C76.7326 28.7804 76.6381 28.7804 76.5396 28.7804C76.2072 28.7804 76.007 28.8464 75.7781 28.9219C75.4726 29.0225 75.1159 29.1401 74.3253 29.1401C72.5713 29.2854 71.3278 29.5367 70.1484 29.775C68.602 30.0874 67.1658 30.3775 64.834 30.3775C62.7665 30.3775 62.1547 30.3775 61.5862 30.2205C61.0245 30.0654 60.5051 29.757 58.6658 29.1439C58.5612 29.7149 57.9787 29.4397 57.3343 29.1352C56.9917 28.9733 56.6317 28.8032 56.3167 28.7476C55.442 28.5875 54.8302 27.7457 54.9904 26.8382C55.8023 22.3026 59.1439 18.7647 63.4131 17.5863Z" fill="white"/>
</g>
<path fill-rule="evenodd" clip-rule="evenodd" d="M110.835 79.6705C102.667 79.6705 96 73.0331 96 64.8352C96 56.6374 102.637 50 110.835 50C119.033 50 125.67 56.6374 125.67 64.8352C125.641 73.0331 119.004 79.6705 110.835 79.6705Z" fill="#E0263E"/>
<mask id="mask1_3236_11941" style="mask-type:alpha" maskUnits="userSpaceOnUse" x="96" y="50" width="30" height="30">
<path fill-rule="evenodd" clip-rule="evenodd" d="M110.835 79.6705C102.667 79.6705 96 73.0331 96 64.8352C96 56.6374 102.637 50 110.835 50C119.033 50 125.67 56.6374 125.67 64.8352C125.641 73.0331 119.004 79.6705 110.835 79.6705Z" fill="#E0263E"/>
</mask>
<g mask="url(#mask1_3236_11941)">
<path fill-rule="evenodd" clip-rule="evenodd" d="M107.546 67.5863C106.165 66.5746 105.266 64.9417 105.266 63.1061C105.266 60.0493 107.76 57.5547 110.817 57.5547C113.874 57.5547 116.368 60.0493 116.368 63.1061C116.368 64.9769 115.433 66.6372 114.007 67.6439C118.188 68.8766 121.458 72.3741 122.257 76.8382C122.418 77.7128 121.839 78.5875 120.931 78.7476C120.865 78.7804 120.771 78.7804 120.672 78.7804C120.34 78.7804 120.14 78.8464 119.911 78.9219C119.605 79.0225 119.249 79.1401 118.458 79.1401C116.704 79.2854 115.461 79.5367 114.281 79.775C112.735 80.0874 111.299 80.3775 108.967 80.3775C106.899 80.3775 106.287 80.3775 105.719 80.2205C105.157 80.0654 104.638 79.757 102.799 79.1439C102.694 79.7149 102.112 79.4397 101.467 79.1352C101.125 78.9733 100.764 78.8032 100.449 78.7476C99.5749 78.5875 98.963 77.7457 99.1232 76.8382C99.9351 72.3026 103.277 68.7647 107.546 67.5863Z" fill="white"/>
</g>
<path fill-rule="evenodd" clip-rule="evenodd" d="M66.8352 122.67C58.6667 122.67 52 116.033 52 107.835C52 99.6374 58.6374 93 66.8352 93C75.0331 93 81.6705 99.6374 81.6705 107.835C81.6412 116.033 75.0038 122.67 66.8352 122.67Z" fill="#E0263E"/>
<mask id="mask2_3236_11941" style="mask-type:alpha" maskUnits="userSpaceOnUse" x="52" y="93" width="30" height="30">
<path fill-rule="evenodd" clip-rule="evenodd" d="M66.8352 122.67C58.6667 122.67 52 116.033 52 107.835C52 99.6374 58.6374 93 66.8352 93C75.0331 93 81.6705 99.6374 81.6705 107.835C81.6412 116.033 75.0038 122.67 66.8352 122.67Z" fill="#E0263E"/>
</mask>
<g mask="url(#mask2_3236_11941)">
<path fill-rule="evenodd" clip-rule="evenodd" d="M63.5459 110.586C62.1652 109.575 61.2656 107.942 61.2656 106.106C61.2656 103.049 63.7602 100.555 66.817 100.555C69.8738 100.555 72.3684 103.049 72.3684 106.106C72.3684 107.977 71.4328 109.637 70.0067 110.644C74.1878 111.877 77.4582 115.374 78.2574 119.838C78.4175 120.713 77.8386 121.587 76.9311 121.748C76.8654 121.78 76.7709 121.78 76.6724 121.78C76.34 121.78 76.1398 121.846 75.911 121.922C75.6054 122.023 75.2487 122.14 74.4581 122.14C72.7041 122.285 71.4606 122.537 70.2812 122.775C68.7348 123.087 67.2986 123.378 64.9668 123.378C62.8993 123.378 62.2875 123.378 61.719 123.221C61.1573 123.065 60.6379 122.757 58.7986 122.144C58.694 122.715 58.1115 122.44 57.4671 122.135C57.1245 121.973 56.7645 121.803 56.4495 121.748C55.5749 121.587 54.963 120.746 55.1232 119.838C55.9351 115.303 59.2767 111.765 63.5459 110.586Z" fill="white"/>
</g>
<path fill-rule="evenodd" clip-rule="evenodd" d="M17.8352 78.6705C9.6667 78.6705 3 72.0331 3 63.8352C3 55.6374 9.6374 49 17.8352 49C26.0331 49 32.6705 55.6374 32.6705 63.8352C32.6412 72.0331 26.0038 78.6705 17.8352 78.6705Z" fill="#E0263E"/>
<mask id="mask3_3236_11941" style="mask-type:alpha" maskUnits="userSpaceOnUse" x="3" y="49" width="30" height="30">
<path fill-rule="evenodd" clip-rule="evenodd" d="M17.8352 78.6705C9.6667 78.6705 3 72.0331 3 63.8352C3 55.6374 9.6374 49 17.8352 49C26.0331 49 32.6705 55.6374 32.6705 63.8352C32.6412 72.0331 26.0038 78.6705 17.8352 78.6705Z" fill="#E0263E"/>
</mask>
<g mask="url(#mask3_3236_11941)">
<path fill-rule="evenodd" clip-rule="evenodd" d="M14.5459 66.5863C13.1652 65.5746 12.2656 63.9417 12.2656 62.1061C12.2656 59.0493 14.7602 56.5547 17.817 56.5547C20.8738 56.5547 23.3684 59.0493 23.3684 62.1061C23.3684 63.9769 22.4328 65.6372 21.0067 66.6439C25.1878 67.8766 28.4582 71.3741 29.2574 75.8382C29.4175 76.7128 28.8386 77.5875 27.9311 77.7476C27.8654 77.7804 27.7709 77.7804 27.6724 77.7804C27.34 77.7804 27.1398 77.8464 26.911 77.9219C26.6054 78.0225 26.2487 78.1401 25.4581 78.1401C23.7041 78.2854 22.4606 78.5367 21.2812 78.775C19.7348 79.0874 18.2986 79.3775 15.9668 79.3775C13.8993 79.3775 13.2875 79.3775 12.719 79.2205C12.1573 79.0654 11.6379 78.757 9.79858 78.1439C9.69403 78.7149 9.1115 78.4397 8.46715 78.1352C8.12455 77.9733 7.76447 77.8032 7.44947 77.7476C6.57485 77.5875 5.96303 76.7457 6.12317 75.8382C6.93513 71.3026 10.2767 67.7647 14.5459 66.5863Z" fill="white"/>
</g>
<path d="M67.3017 88.9785C63.8887 88.9785 60.6812 88.3308 57.6793 87.0355C54.6775 85.7402 52.0663 83.9822 49.8457 81.7617C47.6252 79.5411 45.8672 76.9299 44.5719 73.9281C43.2766 70.9262 42.6289 67.7187 42.6289 64.3057C42.6289 60.8926 43.2766 57.6851 44.5719 54.6832C45.8672 51.6814 47.6252 49.0702 49.8457 46.8496C52.0663 44.6291 54.6775 42.8711 57.6793 41.5758C60.6812 40.2805 63.8887 39.6328 67.3017 39.6328C70.7148 39.6328 73.9223 40.2805 76.9242 41.5758C79.926 42.8711 82.5372 44.6291 84.7578 46.8496C86.9783 49.0702 88.7363 51.6814 90.0316 54.6832C91.3269 57.6851 91.9746 60.8926 91.9746 64.3057C91.9746 67.7187 91.3269 70.9262 90.0316 73.9281C88.7363 76.9299 86.9783 79.5411 84.7578 81.7617C82.5372 83.9822 79.926 85.7402 76.9242 87.0355C73.9223 88.3308 70.7148 88.9785 67.3017 88.9785ZM67.3017 84.0439C72.812 84.0439 77.4793 82.1318 81.3036 78.3075C85.1279 74.4832 87.04 69.8159 87.04 64.3057C87.04 64.0178 87.0297 63.7197 87.0092 63.4113C86.9886 63.1028 86.9783 62.8458 86.9783 62.6402C86.7727 63.8328 86.2176 64.8197 85.3129 65.601C84.4083 66.3823 83.3391 66.7729 82.1055 66.7729H77.1709C75.8139 66.7729 74.6522 66.2898 73.6858 65.3234C72.7195 64.3571 72.2363 63.1954 72.2363 61.8384V59.3711H62.3672V54.4365C62.3672 53.0795 62.8504 51.9178 63.8167 50.9515C64.7831 49.9851 65.9447 49.5019 67.3017 49.5019H69.769C69.769 48.5562 70.026 47.7234 70.5401 47.0038C71.0541 46.2842 71.6812 45.6982 72.4214 45.2459C71.5989 45.0403 70.7662 44.8758 69.9232 44.7524C69.0802 44.6291 68.2064 44.5674 67.3017 44.5674C61.7915 44.5674 57.1242 46.4795 53.2999 50.3038C49.4756 54.1281 47.5635 58.7954 47.5635 64.3057H59.8999C62.6139 64.3057 64.9373 65.272 66.87 67.2047C68.8027 69.1374 69.769 71.4608 69.769 74.1748V76.6421H62.3672V83.4271C63.1896 83.6327 64.0018 83.7869 64.8036 83.8897C65.6055 83.9925 66.4382 84.0439 67.3017 84.0439Z" fill="#E0263E"/>
</svg>
