<svg width="128" height="128" viewBox="0 0 128 128" fill="none" xmlns="http://www.w3.org/2000/svg">
<g clip-path="url(#clip0_3236_11940)">
<path d="M64.8384 14.1946C60.8112 14.1651 57.7669 11.1117 57.7734 7.11048C57.78 3.01086 60.8508 -0.0195829 64.9835 9.52836e-05C69.0074 0.0197735 72.0517 3.07317 72.0451 7.08752C72.0385 11.1871 68.9612 14.2241 64.8384 14.1946Z" fill="#E0263E"/>
<path d="M114.692 117.1C110.586 95.7725 98.1611 81.9158 77.1312 75.8418C75.7591 75.4449 75.3238 74.8054 75.271 73.4476C74.928 64.5531 74.5289 55.6585 74.1001 46.764C74.0473 45.6653 74.3442 44.9634 75.2644 44.2911C78.3615 42.0281 81.4157 39.6995 84.1797 37.0298C86.9074 34.393 87.1184 32.9925 85.2516 29.6669C83.2397 26.0855 80.8946 22.714 78.5429 19.3523C78.1702 18.821 77.6985 18.3388 77.2071 17.9092C74.8026 15.8069 72.1046 15.4986 69.2186 16.8335C66.0688 18.2929 62.9288 18.1945 59.9043 16.4563C59.0566 15.9676 58.2155 15.6659 57.2491 15.8528C55.0954 16.2694 53.0537 17.0237 51.7113 18.8177C48.921 22.5434 46.279 26.3807 44.1417 30.5164C42.7927 33.1237 43.0764 34.4586 45.1477 36.5412C47.9744 39.3847 51.1704 41.8084 54.3994 44.1665C55.4054 44.9011 55.7913 45.6325 55.7286 46.8788C55.2801 55.6618 54.8777 64.4448 54.5412 73.2311C54.4885 74.6184 54.0432 75.2252 52.6546 75.5663C40.8698 78.4622 31.2388 84.6937 23.8869 94.3163C18.27 101.669 15.1036 110.01 14.035 119.16C13.8305 120.902 14.5264 121.902 16.037 122.213C17.6829 122.554 18.956 121.823 19.454 120.177C19.675 119.449 19.7938 118.684 19.9092 117.93C20.5788 113.581 21.7596 109.37 23.7583 105.448C31.9744 89.3082 45.2895 80.8531 63.3741 79.8102C67.6124 79.5642 71.8144 80.1775 75.9109 81.3615C76.277 81.4664 76.7453 81.5156 76.8212 81.942C76.9069 82.4143 76.4188 82.5455 76.0923 82.7095C75.4095 83.0571 74.7202 83.408 74.0077 83.6835C69.9871 85.2381 65.7027 85.7169 61.5369 86.6943C60.5672 86.9206 60.399 86.281 60.2407 85.6349C60.0428 84.8249 59.9142 83.8508 58.984 83.6835C56.2827 83.1981 53.4099 82.6668 50.9098 83.9131C48.1294 85.2971 45.7315 87.3896 43.3073 89.3607C42.6542 89.892 42.1529 90.5578 42.5849 91.5023C43.0335 92.4862 43.8548 92.6502 44.7882 92.4698C45.56 92.3222 46.312 92.1812 47.0277 92.6043C48.0799 93.2242 48.9902 93.0372 49.8511 92.2173C50.204 91.8795 50.6394 91.6237 51.0484 91.3482C51.3881 91.1219 51.7509 91.0136 52.1071 91.3154C52.4897 91.6368 52.5722 92.0467 52.4007 92.4993C52.1797 93.093 51.7146 93.4701 51.1902 93.7915C49.5938 94.7623 47.8424 95.1395 45.9987 95.1362C43.5316 95.1297 41.3646 95.9069 39.4977 97.5107C39.036 97.9076 38.4423 98.347 38.6072 98.9866C39.1514 101.122 37.7661 101.62 36.1797 102.04C35.708 102.165 35.243 102.375 34.8241 102.627C33.0628 103.686 33.0232 105.756 34.702 106.933C36.0246 107.858 37.2978 107.674 38.5116 106.779C39.7451 105.867 40.9193 104.877 42.1364 103.945C44.9069 101.824 47.0838 102.729 47.628 106.215C47.8523 107.655 48.5977 108.176 49.8973 107.622C53.0504 106.281 56.1409 106.855 59.238 107.773C59.8251 107.947 60.399 108.153 60.4089 108.94C60.4188 109.669 60.1186 110.223 59.492 110.561C58.4992 111.092 57.4767 111.358 56.3322 110.954C54.7985 110.416 53.2252 110.265 51.642 110.767C49.1848 111.545 47.1762 110.889 45.7183 108.803C44.7618 107.435 43.4953 107.265 41.9715 107.363C35.2792 107.796 30.9915 111.541 28.0461 117.195C27.1556 118.907 27.3238 120.242 28.6563 121.695C30.1207 123.292 31.8787 124.483 33.8643 125.359C39.0723 127.661 44.6332 127.776 49.2145 127.979C52.7668 128.032 55.3427 128.002 57.8329 127.143C62.3747 125.575 63.407 123.099 61.2796 118.832C61.0125 118.294 60.709 117.769 60.4716 117.218C60.3231 116.874 60.2209 116.497 60.1846 116.123C60.1384 115.68 60.2143 115.185 60.6629 114.985C61.085 114.798 61.3654 115.208 61.6194 115.47C62.5693 116.454 63.5126 117.448 64.4295 118.465C66.0787 120.295 67.6256 122.227 69.6408 123.689C71.788 125.247 74.1166 124.562 75.0566 122.112C75.3897 121.246 75.7328 120.38 76.0296 119.501C76.6299 117.727 75.9537 116.776 74.0506 116.7C73.7208 116.687 73.3877 116.687 73.0644 116.726C71.4318 116.923 70.7721 115.884 70.4555 114.575C70.2444 113.696 70.5742 113.083 71.6066 113.64C73.4503 114.634 75.4854 114.932 77.4973 115.011C79.7204 115.096 81.0265 116.182 82.0028 117.996C82.9362 119.731 83.9521 121.423 85.311 122.873C87.8144 125.549 90.2287 125.775 93.1675 123.607C94.0053 122.991 94.7903 122.289 95.6709 121.744C97.0199 120.908 98.4118 120.839 99.5662 122.082C100.793 123.404 102.31 123.84 104.029 123.755C106.44 123.634 108.854 123.509 111.259 123.306C112.904 123.168 113.94 122.151 114.507 120.659C114.946 119.504 114.94 118.304 114.705 117.104L114.692 117.1ZM55.7946 36.4165C54.9997 36.8199 54.3203 35.5769 53.687 34.9767C50.9395 32.3759 51.2726 32.9696 53.2252 30.1851C53.6771 29.5423 54.0366 28.3386 54.7919 28.4961C55.6989 28.6863 55.4714 29.9457 55.633 30.7558C55.8342 31.7626 55.8803 32.799 55.9925 33.8256C55.9331 34.7242 56.5631 36.0263 55.7946 36.4165ZM66.7548 74.2511C65.5542 74.1593 64.3405 74.1363 63.1366 74.1822C61.8733 74.2314 61.5171 73.7395 61.6985 72.5063C62.5825 66.5176 63.3971 60.519 64.2448 54.5237C64.3965 53.4578 64.5812 52.3952 64.7527 51.3293C64.8616 51.3293 64.9671 51.3293 65.076 51.326C65.4916 54.1105 65.9236 56.8917 66.3194 59.6761C66.9362 63.9955 67.487 68.3247 68.1599 72.6375C68.3578 73.9068 68.0345 74.3528 66.7515 74.2544L66.7548 74.2511ZM73.7373 35.777C73.7373 35.0719 73.8 34.3667 73.8329 33.6616C73.9187 32.1956 74.11 30.7394 74.4464 29.3094C74.5256 28.9716 74.5289 28.437 75.0038 28.4305C75.2479 28.4272 75.4986 28.788 75.7426 28.988C75.7822 29.0208 75.8053 29.0766 75.8416 29.1192C78.688 32.6482 78.5594 33.4582 74.8191 36.2165C74.1034 36.7445 73.7406 36.7281 73.7373 35.7737V35.777Z" fill="#E0263E"/>
<mask id="mask0_3236_11940" style="mask-type:alpha" maskUnits="userSpaceOnUse" x="62" y="81" width="40" height="40">
<rect x="62.1328" y="81.25" width="39.1774" height="38.9565" fill="white"/>
</mask>
<g mask="url(#mask0_3236_11940)">
<path d="M70.2053 108.601L68.3047 106.791L78.3507 97.1587L83.7811 102.33L90.8404 95.6718H87.3107V93.0859H95.4562V100.844H92.7411V97.4819L83.7811 106.015L78.3507 100.844L70.2053 108.601Z" fill="white"/>
</g>
</g>
<defs>
<clipPath id="clip0_3236_11940">
<rect width="100.848" height="128" fill="white" transform="translate(14)"/>
</clipPath>
</defs>
</svg>
