<svg width="28" height="28" viewBox="0 0 28 28" fill="none" xmlns="http://www.w3.org/2000/svg">
<path fill-rule="evenodd" clip-rule="evenodd" d="M2.84466 10.4513C2.84466 7.40467 3.45976 5.51704 4.60949 4.36731C5.75923 3.21757 7.64686 2.60247 10.6935 2.60247H18.2284C21.275 2.60247 23.1627 3.21757 24.3124 4.36731C25.4621 5.51704 26.0772 7.40467 26.0772 10.4513V17.9862C26.0772 21.0328 25.4621 22.9205 24.3124 24.0702C23.1627 25.2199 21.275 25.835 18.2284 25.835H17.9151V18.5501H19.736C20.0304 18.5501 20.2941 18.4346 20.4561 18.3374C20.5505 18.2808 20.6731 18.1934 20.7833 18.0662C20.8705 17.9656 21.0063 17.7738 21.0444 17.5039L21.557 15.0691V14.9711C21.557 14.7058 21.4935 14.3866 21.3046 14.1033C21.0971 13.792 20.7293 13.5269 20.2384 13.5269H17.9151V11.392H20.364C20.6347 11.392 21.0108 11.3237 21.3125 11.0219C21.6142 10.7202 21.6826 10.3441 21.6826 10.0734V7.05942C21.6826 6.78866 21.6142 6.41259 21.3125 6.11087C21.0108 5.80915 20.6347 5.74082 20.364 5.74082H16.9733C14.3182 5.74082 12.2639 7.79506 12.2639 10.4501V13.6524H11.0709C10.8002 13.6524 10.4241 13.7208 10.1224 14.0225C9.82065 14.3242 9.75232 14.7003 9.75232 14.9711V17.3571C9.75232 17.6279 9.82065 18.0039 10.1224 18.3057C10.4241 18.6074 10.8002 18.6757 11.0709 18.6757H12.2639V25.835H10.6935C7.64686 25.835 5.75923 25.2199 4.60949 24.0702C3.45976 22.9205 2.84466 21.0328 2.84466 17.9862V10.4513ZM10.6935 0.71875C7.46107 0.71875 4.95335 1.35947 3.2775 3.03531C1.60166 4.71116 0.960938 7.21888 0.960938 10.4513V17.9862C0.960938 21.2186 1.60166 23.7264 3.2775 25.4022C4.95335 27.0781 7.46107 27.7188 10.6935 27.7188H18.2284C21.4608 27.7188 23.9685 27.0781 25.6444 25.4022C27.3202 23.7264 27.961 21.2186 27.961 17.9862V10.4513C27.961 7.21888 27.3202 4.71116 25.6444 3.03531C23.9685 1.35947 21.4608 0.71875 18.2284 0.71875H10.6935ZM14.1477 10.4501C14.1477 8.83541 15.3585 7.62454 16.9733 7.62454H19.7988V9.50826H17.35C17.0792 9.50826 16.7032 9.57659 16.4014 9.87831C16.0997 10.18 16.0314 10.5561 16.0314 10.8269V15.4106H19.5601L19.2957 16.6664H16.0314V25.8339H14.1477V16.792H11.636V15.5362H14.1477V10.4501Z" fill="white"/>
</svg>
