<svg width="28" height="28" viewBox="0 0 28 28" fill="none" xmlns="http://www.w3.org/2000/svg">
<mask id="mask0_701_791" style="mask-type:alpha" maskUnits="userSpaceOnUse" x="0" y="0" width="28" height="28">
<rect width="28" height="28" fill="#D9D9D9"/>
</mask>
<g mask="url(#mask0_701_791)">
<path d="M14 24.5C12.5611 24.5 11.2049 24.2229 9.93125 23.6687C8.65764 23.1146 7.54444 22.3611 6.59167 21.4083C5.63889 20.4556 4.88542 19.3424 4.33125 18.0687C3.77708 16.7951 3.5 15.4389 3.5 14C3.5 13.1444 3.59722 12.3132 3.79167 11.5062C3.98611 10.6993 4.26806 9.94097 4.6375 9.23125C5.00694 8.52153 5.44931 7.86042 5.96458 7.24792C6.47986 6.63542 7.05833 6.08611 7.7 5.6L15.6333 13.5333L14 15.1667L7.7 8.86667C7.11667 9.56667 6.65972 10.3493 6.32917 11.2146C5.99861 12.0799 5.83333 13.0083 5.83333 14C5.83333 16.2556 6.63056 18.1806 8.225 19.775C9.81944 21.3694 11.7444 22.1667 14 22.1667C16.2556 22.1667 18.1806 21.3694 19.775 19.775C21.3694 18.1806 22.1667 16.2556 22.1667 14C22.1667 11.9194 21.5007 10.1257 20.1687 8.61875C18.8368 7.11181 17.1694 6.22222 15.1667 5.95V8.16667H12.8333V3.5H14C15.4389 3.5 16.7951 3.77708 18.0687 4.33125C19.3424 4.88542 20.4556 5.63889 21.4083 6.59167C22.3611 7.54444 23.1146 8.65764 23.6687 9.93125C24.2229 11.2049 24.5 12.5611 24.5 14C24.5 15.4389 24.2229 16.7951 23.6687 18.0687C23.1146 19.3424 22.3611 20.4556 21.4083 21.4083C20.4556 22.3611 19.3424 23.1146 18.0687 23.6687C16.7951 24.2229 15.4389 24.5 14 24.5ZM8.16667 15.1667C7.83611 15.1667 7.55903 15.0549 7.33542 14.8313C7.11181 14.6076 7 14.3306 7 14C7 13.6694 7.11181 13.3924 7.33542 13.1688C7.55903 12.9451 7.83611 12.8333 8.16667 12.8333C8.49722 12.8333 8.77431 12.9451 8.99792 13.1688C9.22153 13.3924 9.33333 13.6694 9.33333 14C9.33333 14.3306 9.22153 14.6076 8.99792 14.8313C8.77431 15.0549 8.49722 15.1667 8.16667 15.1667ZM14 21C13.6694 21 13.3924 20.8882 13.1688 20.6646C12.9451 20.441 12.8333 20.1639 12.8333 19.8333C12.8333 19.5028 12.9451 19.2257 13.1688 19.0021C13.3924 18.7785 13.6694 18.6667 14 18.6667C14.3306 18.6667 14.6076 18.7785 14.8313 19.0021C15.0549 19.2257 15.1667 19.5028 15.1667 19.8333C15.1667 20.1639 15.0549 20.441 14.8313 20.6646C14.6076 20.8882 14.3306 21 14 21ZM19.8333 15.1667C19.5028 15.1667 19.2257 15.0549 19.0021 14.8313C18.7785 14.6076 18.6667 14.3306 18.6667 14C18.6667 13.6694 18.7785 13.3924 19.0021 13.1688C19.2257 12.9451 19.5028 12.8333 19.8333 12.8333C20.1639 12.8333 20.441 12.9451 20.6646 13.1688C20.8882 13.3924 21 13.6694 21 14C21 14.3306 20.8882 14.6076 20.6646 14.8313C20.441 15.0549 20.1639 15.1667 19.8333 15.1667Z" fill="#DE2424"/>
</g>
</svg>
