<svg width="28" height="28" viewBox="0 0 28 28" fill="none" xmlns="http://www.w3.org/2000/svg">
<mask id="mask0_701_795" style="mask-type:alpha" maskUnits="userSpaceOnUse" x="0" y="0" width="28" height="28">
<rect width="28" height="28" fill="#DE2424"/>
</mask>
<g mask="url(#mask0_701_795)">
<path d="M5.83333 25.6693C5.19167 25.6693 4.64236 25.4408 4.18542 24.9839C3.72847 24.5269 3.5 23.9776 3.5 23.3359V7.0026C3.5 6.36094 3.72847 5.81163 4.18542 5.35469C4.64236 4.89774 5.19167 4.66927 5.83333 4.66927H7V2.33594H9.33333V4.66927H18.6667V2.33594H21V4.66927H22.1667C22.8083 4.66927 23.3576 4.89774 23.8146 5.35469C24.2715 5.81163 24.5 6.36094 24.5 7.0026V23.3359C24.5 23.9776 24.2715 24.5269 23.8146 24.9839C23.3576 25.4408 22.8083 25.6693 22.1667 25.6693H5.83333ZM5.83333 23.3359H22.1667V11.6693H5.83333V23.3359ZM5.83333 9.33594H22.1667V7.0026H5.83333V9.33594ZM14 16.3359C13.6694 16.3359 13.3924 16.2241 13.1688 16.0005C12.9451 15.7769 12.8333 15.4998 12.8333 15.1693C12.8333 14.8387 12.9451 14.5616 13.1688 14.338C13.3924 14.1144 13.6694 14.0026 14 14.0026C14.3306 14.0026 14.6076 14.1144 14.8313 14.338C15.0549 14.5616 15.1667 14.8387 15.1667 15.1693C15.1667 15.4998 15.0549 15.7769 14.8313 16.0005C14.6076 16.2241 14.3306 16.3359 14 16.3359ZM9.33333 16.3359C9.00278 16.3359 8.72569 16.2241 8.50208 16.0005C8.27847 15.7769 8.16667 15.4998 8.16667 15.1693C8.16667 14.8387 8.27847 14.5616 8.50208 14.338C8.72569 14.1144 9.00278 14.0026 9.33333 14.0026C9.66389 14.0026 9.94097 14.1144 10.1646 14.338C10.3882 14.5616 10.5 14.8387 10.5 15.1693C10.5 15.4998 10.3882 15.7769 10.1646 16.0005C9.94097 16.2241 9.66389 16.3359 9.33333 16.3359ZM18.6667 16.3359C18.3361 16.3359 18.059 16.2241 17.8354 16.0005C17.6118 15.7769 17.5 15.4998 17.5 15.1693C17.5 14.8387 17.6118 14.5616 17.8354 14.338C18.059 14.1144 18.3361 14.0026 18.6667 14.0026C18.9972 14.0026 19.2743 14.1144 19.4979 14.338C19.7215 14.5616 19.8333 14.8387 19.8333 15.1693C19.8333 15.4998 19.7215 15.7769 19.4979 16.0005C19.2743 16.2241 18.9972 16.3359 18.6667 16.3359ZM14 21.0026C13.6694 21.0026 13.3924 20.8908 13.1688 20.6672C12.9451 20.4436 12.8333 20.1665 12.8333 19.8359C12.8333 19.5054 12.9451 19.2283 13.1688 19.0047C13.3924 18.7811 13.6694 18.6693 14 18.6693C14.3306 18.6693 14.6076 18.7811 14.8313 19.0047C15.0549 19.2283 15.1667 19.5054 15.1667 19.8359C15.1667 20.1665 15.0549 20.4436 14.8313 20.6672C14.6076 20.8908 14.3306 21.0026 14 21.0026ZM9.33333 21.0026C9.00278 21.0026 8.72569 20.8908 8.50208 20.6672C8.27847 20.4436 8.16667 20.1665 8.16667 19.8359C8.16667 19.5054 8.27847 19.2283 8.50208 19.0047C8.72569 18.7811 9.00278 18.6693 9.33333 18.6693C9.66389 18.6693 9.94097 18.7811 10.1646 19.0047C10.3882 19.2283 10.5 19.5054 10.5 19.8359C10.5 20.1665 10.3882 20.4436 10.1646 20.6672C9.94097 20.8908 9.66389 21.0026 9.33333 21.0026ZM18.6667 21.0026C18.3361 21.0026 18.059 20.8908 17.8354 20.6672C17.6118 20.4436 17.5 20.1665 17.5 19.8359C17.5 19.5054 17.6118 19.2283 17.8354 19.0047C18.059 18.7811 18.3361 18.6693 18.6667 18.6693C18.9972 18.6693 19.2743 18.7811 19.4979 19.0047C19.7215 19.2283 19.8333 19.5054 19.8333 19.8359C19.8333 20.1665 19.7215 20.4436 19.4979 20.6672C19.2743 20.8908 18.9972 21.0026 18.6667 21.0026Z" fill="#DE2424"/>
</g>
</svg>
