<?xml version="1.0" encoding="UTF-8"?>
<svg id="Layer_1" data-name="Layer 1" xmlns="http://www.w3.org/2000/svg" width="44" height="44" viewBox="0 0 44 44">
  <path d="m23.72,1.75c.03-1.33-1.31-2.13-2.49-1.57-.75.35-.99,1.03-1.05,1.83-.2,2.82-.65,5.6-2.04,8.12-1.61,2.91-4.99,4.11-7.56,2.43-1.23-.8-2.03-.58-3,.13-.53.4-1.1.77-1.56,1.23-3.59,3.62-4.43,8.23-4.58,13.05-.03,1,.68,1.56,1.68,1.6,1,.04,1.65-.47,1.82-1.46.13-.77.12-1.56.23-2.34.32-2.28.72-4.54,2.1-6.46.11.02.21.04.32.06v1.26c0,7.05,0,14.09,0,21.14,0,.43,0,.87.07,1.29.2,1.11,1.14,1.9,2.21,1.93,1.1.02,2.13-.81,2.31-1.95.08-.5.05-1.01.05-1.52,0-3.6.03-7.2-.01-10.8-.01-.81.29-.99,1.01-1,.82,0,.82.46.82,1.07-.02,3.91-.03,7.83,0,11.74,0,1.43,1.01,2.46,2.29,2.46,1.25,0,2.19-.92,2.32-2.32.04-.43.03-.86.03-1.29,0-7.95,0-15.89,0-23.84,0-.66-.04-1.29.5-1.85,3.5-3.61,4.42-8.15,4.54-12.94Zm-5.81,12.26c-.68.67-.65,1.56-.65,2.42,0,8.03,0,16.05,0,24.08,0,.43-.02.86-.07,1.29-.06.5-.39.79-.88.76-.46-.03-.82-.29-.86-.8-.03-.35-.03-.7-.03-1.06,0-3.76.01-7.52.02-11.27,0-1.5-.64-2.08-2.31-2.08-1.72,0-2.33.52-2.33,2.03,0,3.76,0,7.52,0,11.27,0,.31,0,.63-.01.94-.03.6-.36.99-.95.97-.54-.01-.82-.41-.86-.94-.02-.27,0-.55,0-.82,0-3.76,0-7.52,0-11.27,0-3.84-.05-7.67.03-11.51.02-1.08-.63-1.31-1.33-1.63-.74-.34-.97.35-1.27.73-1.78,2.27-2.36,4.98-2.68,7.76-.06.54-.09,1.09-.15,1.64-.03.3-.03.69-.49.62-.38-.06-.29-.42-.28-.67.2-3.47.8-6.84,2.75-9.82.74-1.13,1.68-2.05,2.81-2.79.46-.3.83-.36,1.38-.06,3.34,1.84,7.22.8,9.31-2.48,1.66-2.61,2.17-5.58,2.49-8.59.04-.41-.19-1.2.41-1.16.71.05.35.84.32,1.27-.31,4.18-1.23,8.12-4.38,11.2Z" style="fill: #df263e; stroke-width: 0px;"/>
  <path d="m40.62,17.66c-1.1-2.42-2.75-4.35-5.19-5.53-.51-.25-.92-.29-1.39.09-2.6,2.12-6.5.91-8.07-1.85-.74-1.29-1.15-2.7-1.71-4.27-.4,1.32-.56,2.57-1.14,3.59-.86,1.53-.39,2.66.6,3.79.26.29.48.63.78.88.7.57.89,1.29.89,2.17-.03,7.91-.03,15.81-.03,23.72,0,.51-.02,1.02.02,1.53.09,1.24,1,2.12,2.19,2.18,1.14.06,2.09-.68,2.34-1.88.09-.42.09-.85.09-1.28,0-3.64,0-7.28,0-10.92,0-.62,0-1.15.89-1.17.91-.02.87.5.87,1.13-.01,3.6-.01,7.2,0,10.8,0,.58.03,1.19.19,1.74.27.96.98,1.5,1.97,1.58.98.07,1.74-.34,2.21-1.24.28-.54.29-1.12.29-1.72,0-4.74,0-9.47,0-14.21v-8.67c.1-.03.2-.07.3-.1.3.62.64,1.22.9,1.85.88,2.16,1.22,4.44,1.38,6.75.09,1.3.73,1.98,1.85,1.97,1.1-.01,1.74-.76,1.72-2.06-.05-3.09-.66-6.06-1.94-8.87Zm.2,9.46c-.43.02-.39-.4-.42-.7-.2-2.54-.62-5.04-1.61-7.41-.44-1.06-1.1-1.98-1.71-2.93-.23-.36-.42-.5-.79-.11-.73.78-1.31,1.54-1.3,2.74.05,7.32.03,14.64.02,21.96,0,.73.3,1.83-.85,1.84-1.21.02-.97-1.11-.97-1.88-.02-3.64,0-7.28-.01-10.92,0-1.78-.51-2.35-2.12-2.38-1.75-.03-2.43.58-2.44,2.37-.03,3.68-.01,7.36-.02,11.04,0,.35.02.71-.04,1.05-.09.47-.43.78-.91.76-.48-.01-.79-.31-.85-.81-.03-.27-.02-.55-.02-.82,0-8.14,0-16.29.03-24.43,0-1.26-.33-2.28-1.29-3.13-.46-.41-.78-.97-1.17-1.46-.31-.39-.34-.77.12-1.29,1.01,1.7,2.26,2.99,4.08,3.64,1.91.68,3.79.66,5.54-.4.67-.4,1.11-.32,1.68.06,1.13.75,2.07,1.68,2.77,2.83,1.78,2.96,2.5,6.21,2.62,9.62,0,.28.14.72-.32.74Z" style="fill: #df263e; stroke-width: 0px;"/>
  <path d="m13.06,12.51c2.52.01,4.55-2.01,4.55-4.55,0-2.49-2.1-4.59-4.57-4.55-2.44.03-4.41,2.07-4.41,4.57,0,2.51,1.96,4.52,4.42,4.54Zm.02-7.69c1.69,0,3.13,1.44,3.12,3.15-.01,1.74-1.42,3.15-3.12,3.14-1.72,0-3.07-1.43-3.04-3.2.04-1.71,1.38-3.08,3.04-3.09Z" style="fill: #de263d; stroke-width: 0px;"/>
  <path d="m30.84,12.51c2.5.02,4.52-2.03,4.51-4.56,0-2.51-2.08-4.58-4.55-4.54-2.4.04-4.44,2.15-4.42,4.58.01,2.47,2.02,4.51,4.45,4.53Zm.03-7.69c1.67-.02,3.13,1.47,3.11,3.16-.02,1.74-1.43,3.14-3.13,3.13-1.65-.01-3.01-1.39-3.04-3.08-.03-1.7,1.4-3.18,3.07-3.2Z" style="fill: #de263e; stroke-width: 0px;"/>
</svg>