<svg width="28" height="28" viewBox="0 0 28 28" fill="none" xmlns="http://www.w3.org/2000/svg">
<path fill-rule="evenodd" clip-rule="evenodd" d="M8.92248 2.79567C5.6725 2.79567 3.03786 5.43031 3.03786 8.68029V19.7572C3.03786 23.0072 5.6725 25.6418 8.92248 25.6418H19.9994C23.2494 25.6418 25.884 23.0072 25.884 19.7572V8.68029C25.884 5.43031 23.2494 2.79567 19.9994 2.79567H8.92248ZM0.960938 8.68029C0.960938 4.28326 4.52544 0.71875 8.92248 0.71875H19.9994C24.3964 0.71875 27.9609 4.28325 27.9609 8.68029V19.7572C27.9609 24.1542 24.3964 27.7188 19.9994 27.7188H8.92248C4.52544 27.7188 0.960938 24.1542 0.960938 19.7572V8.68029Z" fill="white"/>
<path d="M9.61688 6.71875C8.58183 6.71875 7.96094 7.34562 7.96094 8.18036C7.96094 9.0151 8.58191 9.63959 9.51309 9.63959C10.5481 9.63959 11.169 9.0151 11.169 8.18036C11.169 7.34562 10.5481 6.71875 9.61688 6.71875ZM8.0435 11.201V19.7188H11.0912V11.201H8.0435ZM13.6058 11.201V19.7188H16.6534V15.063C16.6534 13.677 17.6349 13.4778 17.9296 13.4778C18.2243 13.4778 19.0123 13.7756 19.0123 15.063V19.7188H21.9609V15.063C21.9609 12.3896 20.7819 11.201 19.3072 11.201C17.8325 11.201 17.046 11.6957 16.6534 12.3893V11.201H13.6058Z" fill="white"/>
</svg>
