<svg width="28" height="28" viewBox="0 0 28 28" fill="none" xmlns="http://www.w3.org/2000/svg">
<path d="M14.4609 0.71875C10.791 0.71875 10.3336 0.736471 8.8974 0.797229C7.45525 0.868112 6.47975 1.09173 5.61902 1.4259C4.73128 1.77357 3.97519 2.23516 3.22838 2.98619C2.4765 3.733 2.01069 4.4891 1.66809 5.37683C1.33392 6.23757 1.1103 7.21306 1.03942 8.65521C0.974439 10.0923 0.960938 10.5488 0.960938 14.2188C0.960938 17.8887 0.978658 18.3461 1.03942 19.7823C1.1103 21.2202 1.33392 22.1999 1.66809 23.0607C2.01576 23.9484 2.47735 24.7045 3.22838 25.4513C3.97519 26.2032 4.73128 26.669 5.61902 27.0116C6.47975 27.3416 7.45947 27.5694 8.8974 27.6403C10.3345 27.7053 10.791 27.7188 14.4609 27.7188C18.1309 27.7188 18.5882 27.701 20.0245 27.6403C21.4624 27.5694 22.4421 27.3407 23.3029 27.0116C24.1906 26.6639 24.9467 26.2023 25.6935 25.4513C26.4454 24.7045 26.9112 23.9526 27.2538 23.0607C27.5837 22.1999 27.8116 21.2202 27.8825 19.7823C27.9474 18.3452 27.9609 17.8887 27.9609 14.2188C27.9609 10.5488 27.9432 10.0915 27.8825 8.65521C27.8116 7.21728 27.5829 6.2325 27.2538 5.37683C26.9061 4.4891 26.4445 3.733 25.6935 2.98619C24.9467 2.23431 24.1948 1.76851 23.3029 1.4259C22.4421 1.09173 21.4624 0.868112 20.0245 0.797229C18.5874 0.732252 18.1309 0.71875 14.4609 0.71875ZM14.4609 3.14905C18.065 3.14905 18.4954 3.16678 19.9198 3.22753C21.2337 3.28913 21.9493 3.50854 22.4244 3.69419C23.0581 3.93975 23.5012 4.23003 23.9805 4.70428C24.4505 5.17431 24.7408 5.6224 24.9863 6.25613C25.172 6.73122 25.3914 7.44681 25.453 8.76069C25.5138 10.1851 25.5315 10.6163 25.5315 14.2196C25.5315 17.8229 25.5138 18.2541 25.4479 19.6785C25.3771 20.9924 25.1576 21.708 24.9728 22.1831C24.7172 22.8168 24.4319 23.2598 23.9611 23.7391C23.486 24.2092 23.0337 24.4994 22.405 24.745C21.9358 24.9307 21.2101 25.1501 19.8911 25.2117C18.4591 25.2724 18.0372 25.2901 14.4238 25.2901C10.8104 25.2901 10.3893 25.2724 8.95562 25.2066C7.64174 25.1357 6.91687 24.9163 6.44178 24.7315C5.80045 24.4758 5.3608 24.1906 4.88993 23.7197C4.41484 23.2446 4.11274 22.7923 3.87983 22.1637C3.69081 21.6945 3.47478 20.9688 3.40474 19.6498C3.35664 18.2347 3.33386 17.7959 3.33386 14.1993C3.33386 10.6045 3.35664 10.1649 3.40474 8.732C3.47478 7.41306 3.69081 6.68903 3.87983 6.21816C4.11274 5.57598 4.41568 5.13718 4.88993 4.66209C5.35996 4.19206 5.80045 3.88827 6.44178 3.6503C6.91687 3.4655 7.62402 3.2461 8.94297 3.18028C10.375 3.1288 10.7969 3.11024 14.4052 3.11024L14.4609 3.14905ZM14.4609 7.28985C10.629 7.28985 7.53035 10.3927 7.53035 14.2204C7.53035 18.0524 10.6332 21.151 14.4609 21.151C18.2929 21.151 21.3915 18.0482 21.3915 14.2204C21.3915 10.3885 18.2887 7.28985 14.4609 7.28985ZM14.4609 18.7207C11.9733 18.7207 9.96066 16.7081 9.96066 14.2204C9.96066 11.7328 11.9733 9.72016 14.4609 9.72016C16.9486 9.72016 18.9612 11.7328 18.9612 14.2204C18.9612 16.7081 16.9486 18.7207 14.4609 18.7207ZM23.291 7.01307C23.291 7.91009 22.5611 8.63412 21.6683 8.63412C20.7713 8.63412 20.0473 7.90924 20.0473 7.01307C20.0473 6.12111 20.7764 5.3954 21.6683 5.3954C22.5603 5.3954 23.291 6.12111 23.291 7.01307Z" fill="white"/>
</svg>
