<svg width="28" height="28" viewBox="0 0 28 28" fill="none" xmlns="http://www.w3.org/2000/svg">
<path fill-rule="evenodd" clip-rule="evenodd" d="M14.533 0.71875H14.3889C11.49 0.718738 9.21815 0.718725 7.4456 0.957041C5.63127 1.20097 4.19962 1.71 3.0759 2.83372C1.95219 3.95743 1.44316 5.38908 1.19923 7.20341C0.960913 8.97597 0.960925 11.2478 0.960938 14.1467V14.2908C0.960925 17.1898 0.960913 19.4615 1.19923 21.2341C1.44316 23.0484 1.95219 24.4801 3.0759 25.6038C4.19962 26.7275 5.63127 27.2365 7.4456 27.4805C9.21815 27.7188 11.49 27.7188 14.3889 27.7188H14.533C17.4319 27.7188 19.7037 27.7188 21.4763 27.4805C23.2906 27.2365 24.7223 26.7275 25.846 25.6038C26.9697 24.4801 27.4787 23.0484 27.7227 21.2341C27.9609 19.4615 27.9609 17.1898 27.9609 14.2908V14.1467C27.9609 11.2478 27.9609 8.97597 27.7227 7.20341C27.4787 5.38908 26.9697 3.95743 25.846 2.83372C24.7223 1.71 23.2906 1.20097 21.4763 0.957041C19.7037 0.718725 17.4319 0.718738 14.533 0.71875ZM4.4079 4.16571C5.12327 3.45032 6.09115 3.03981 7.6966 2.82396C9.32913 2.60447 11.4743 2.60247 14.4609 2.60247C17.4475 2.60247 19.5927 2.60447 21.2253 2.82396C22.8307 3.03981 23.7985 3.45032 24.514 4.16571C25.2294 4.88108 25.6399 5.84896 25.8557 7.45441C26.0752 9.08694 26.0772 11.2321 26.0772 14.2188C26.0772 17.2053 26.0752 19.3505 25.8557 20.9831C25.6399 22.5885 25.2294 23.5564 24.514 24.2718C23.7985 24.9872 22.8307 25.3978 21.2253 25.6135C19.5927 25.833 17.4475 25.835 14.4609 25.835C11.4743 25.835 9.32913 25.833 7.6966 25.6135C6.09115 25.3978 5.12327 24.9872 4.4079 24.2718C3.69251 23.5564 3.282 22.5885 3.06615 20.9831C2.84666 19.3505 2.84466 17.2053 2.84466 14.2188C2.84466 11.2321 2.84666 9.08694 3.06615 7.45441C3.282 5.84896 3.69251 4.88108 4.4079 4.16571Z" fill="white"/>
<path d="M17.8454 8.42188H21.7073L11.526 21.0608H7.66406L17.8454 8.42188Z" fill="white"/>
<path fill-rule="evenodd" clip-rule="evenodd" d="M7.02973 8.11781C7.14643 7.87395 7.39276 7.71875 7.66311 7.71875H11.525C11.7375 7.71875 11.9385 7.81496 12.0718 7.98043L22.2532 20.6194C22.4228 20.8299 22.4564 21.1191 22.3398 21.363C22.2231 21.6068 21.9767 21.762 21.7064 21.762H17.8445C17.632 21.762 17.431 21.6658 17.2977 21.5003L7.1163 8.8614C6.9467 8.65087 6.91303 8.36167 7.02973 8.11781ZM9.13039 9.12308L18.1805 20.3577H20.2391L11.189 9.12308H9.13039Z" fill="white"/>
</svg>
