<svg width="40" height="38" viewBox="0 0 40 38" fill="none" xmlns="http://www.w3.org/2000/svg">
<path d="M17.1641 37.5026C14.8724 37.5026 12.7259 37.0748 10.7245 36.2193C8.72309 35.3637 6.97378 34.1873 5.47656 32.6901C3.97934 31.1929 2.80295 29.4436 1.9474 27.4422C1.09184 25.4408 0.664062 23.2943 0.664062 21.0026C0.664062 18.7109 1.09184 16.5644 1.9474 14.563C2.80295 12.5616 3.97934 10.8123 5.47656 9.3151C6.97378 7.81788 8.72309 6.64149 10.7245 5.78594C12.7259 4.93038 14.8724 4.5026 17.1641 4.5026C17.8057 4.5026 18.4245 4.5408 19.0203 4.61719C19.6161 4.69358 20.2196 4.80816 20.8307 4.96094V8.71927C20.2196 8.53594 19.6161 8.39844 19.0203 8.30677C18.4245 8.2151 17.8057 8.16927 17.1641 8.16927C13.5585 8.16927 10.5182 9.40677 8.04323 11.8818C5.56823 14.3568 4.33073 17.397 4.33073 21.0026C4.33073 24.6082 5.56823 27.6484 8.04323 30.1234C10.5182 32.5984 13.5585 33.8359 17.1641 33.8359C20.7696 33.8359 23.8099 32.5984 26.2849 30.1234C28.7599 27.6484 29.9974 24.6082 29.9974 21.0026C29.9974 20.6665 29.9821 20.3609 29.9516 20.0859C29.921 19.8109 29.8752 19.5054 29.8141 19.1693H33.5724C33.6335 19.5054 33.6641 19.8109 33.6641 20.0859V21.0026C33.6641 23.2943 33.2363 25.4408 32.3807 27.4422C31.5252 29.4436 30.3488 31.1929 28.8516 32.6901C27.3543 34.1873 25.605 35.3637 23.6036 36.2193C21.6023 37.0748 19.4557 37.5026 17.1641 37.5026ZM22.2974 28.7026L15.3307 21.7359V11.8359H18.9974V20.2693L24.8641 26.1359L22.2974 28.7026ZM29.9974 15.5026V10.0026H24.4974V6.33594H29.9974V0.835938H33.6641V6.33594H39.1641V10.0026H33.6641V15.5026H29.9974Z" fill="#E0263E"/>
</svg>
