<svg width="44" height="50" viewBox="0 0 44 50" fill="none" xmlns="http://www.w3.org/2000/svg">
<g clip-path="url(#clip0_257_1331)">
<path d="M29.9303 25.1997C29.9243 21.3252 27.0721 17.9893 23.2684 17.4075C23.0905 17.3798 22.9139 17.3474 22.7361 17.3185C21.7173 17.1586 21.0445 16.3833 21.0529 15.3795C21.0613 14.4142 21.8002 13.5703 22.8022 13.4994C23.8775 13.4236 24.5899 12.8959 25.0525 11.9594C25.1678 11.7262 25.2916 11.4978 25.4285 11.2766C25.7998 10.678 26.362 10.4808 27.0252 10.7309C27.5491 10.928 28.0657 11.1432 28.5763 11.3716C29.1854 11.6445 29.4365 12.1253 29.338 12.7757C29.3296 12.8346 29.3212 12.8959 29.2995 12.9512C28.3252 15.5021 29.3512 16.102 31.2939 17.8114C31.8418 18.2934 32.5891 18.2658 33.3003 18.0614C35.2899 17.4916 35.398 17.5481 36.1934 19.4703C36.2847 19.6915 36.3844 19.9115 36.4637 20.1375C36.6715 20.7314 36.4985 21.2591 35.9891 21.6077C35.923 21.6534 35.8534 21.6919 35.7837 21.7327C33.7857 22.9168 33.1946 24.4002 33.8229 26.6699C34.0224 27.3911 34.5077 27.8624 35.1505 28.2158C36.8349 29.139 36.877 29.2761 36.1609 31.0793C36.072 31.3016 35.9759 31.5216 35.8774 31.7392C35.5458 32.4689 35.0544 32.7117 34.2831 32.5242C33.9923 32.4533 33.7016 32.3751 33.4168 32.2826C33.066 32.1684 32.7092 32.1576 32.3488 32.1876C30.5983 32.3355 28.7313 35.0174 29.2106 36.692C29.2767 36.9228 29.3524 37.15 29.4149 37.3808C29.6323 38.1958 29.3812 38.7176 28.5943 39.0662C28.1017 39.285 27.6055 39.5001 27.1009 39.6889C26.4882 39.9185 25.9488 39.731 25.5967 39.1804C25.4033 38.8774 25.2267 38.5625 25.0549 38.2463C24.5647 37.3483 23.7982 36.9444 22.7914 36.9625C22.5511 36.9661 22.3108 36.9781 22.0705 36.9697C20.9436 36.9288 20.0834 36.0392 20.1182 34.9561C20.1518 33.8874 21.0217 33.0664 22.1246 33.0616C26.5194 33.0387 29.9363 29.5982 29.9291 25.2033L29.9303 25.1997Z" fill="#E0263E"/>
<path d="M19.6082 41.8412C18.8873 41.8412 18.1665 41.8604 17.4468 41.8364C16.1841 41.7955 14.9719 40.847 14.8193 39.6052C14.3796 36.0289 12.9018 32.8168 11.4445 29.5927C10.8113 28.1935 9.99194 26.8843 9.6231 25.3625C7.72965 17.5414 13.4244 9.91394 21.4476 9.5497C22.3511 9.50882 22.9145 9.91394 22.9542 10.6352C22.9962 11.3817 22.4544 11.8313 21.5149 11.8662C14.2222 12.1355 9.30112 20.0647 12.5858 26.7317C13.8954 29.3896 15.116 32.0775 16.0712 34.8821C16.5097 36.1684 16.9134 37.4691 17.0083 38.8383C17.0443 39.3576 17.3087 39.568 17.8289 39.5608C19.0892 39.5439 20.3507 39.5535 21.611 39.562C22.4328 39.568 22.9374 40.0067 22.9578 40.6908C22.9746 41.2281 22.5012 41.9325 21.5882 41.858C20.9322 41.8051 20.2678 41.8472 19.6082 41.8472V41.84V41.8412Z" fill="#E0263E"/>
<path d="M27.2438 28.1517C27.1393 28.1337 27.0396 28.1205 26.9422 28.0988C25.7516 27.838 24.8265 28.772 25.1341 29.9705C25.2891 30.574 24.9419 30.7423 24.5069 30.925C24.0852 31.1029 23.7777 31.1161 23.5098 30.6485C22.9006 29.5846 21.5082 29.587 20.9111 30.6449C20.6395 31.127 20.326 31.1222 19.867 30.9346C19.3973 30.7435 19.1233 30.5391 19.2723 29.9645C19.5691 28.8213 18.5755 27.8175 17.4521 28.1469C16.8598 28.3212 16.6688 28.0423 16.473 27.5891C16.2675 27.1143 16.282 26.7849 16.7914 26.4964C17.7741 25.941 17.7621 24.5009 16.7709 23.9551C16.2555 23.6714 16.2495 23.3504 16.4526 22.8696C16.6484 22.4043 16.837 22.1399 17.4257 22.3058C18.5418 22.6195 19.5534 21.5797 19.2267 20.4641C19.0657 19.9171 19.2999 19.702 19.7457 19.5144C20.1914 19.3281 20.5434 19.2223 20.8534 19.7621C21.4517 20.8043 22.8574 20.7887 23.4593 19.732C23.7524 19.2175 24.0937 19.3065 24.5166 19.4772C24.9443 19.6503 25.2386 19.8342 25.0836 20.404C24.7616 21.5881 25.7288 22.5474 26.9218 22.2421C27.4985 22.0942 27.7076 22.3863 27.8938 22.8467C28.0776 23.2999 28.08 23.6137 27.5874 23.8878C26.571 24.4516 26.589 25.8833 27.6078 26.4639C27.9502 26.6587 28.1641 26.8907 27.9911 27.2754C27.8313 27.6288 27.8241 28.1469 27.2462 28.1529L27.2438 28.1517Z" fill="#E0263E"/>
<path d="M22.0002 46.0463C20.1608 46.0463 18.3226 46.0499 16.4832 46.0451C15.6579 46.0427 15.1641 45.6099 15.1641 44.9115C15.1641 44.2178 15.6699 43.7646 16.482 43.7634C20.18 43.7574 23.8768 43.7562 27.5748 43.7598C28.3305 43.7598 28.8424 44.2383 28.8387 44.9055C28.8363 45.5895 28.3522 46.0427 27.576 46.0463C25.7174 46.0559 23.8588 46.0487 22.0002 46.0487V46.0463Z" fill="#E0263E"/>
<path d="M21.9858 49.9999C21.1268 49.9999 20.2678 50.0072 19.4088 49.9975C18.6302 49.9891 18.1545 49.5528 18.1485 48.8639C18.1437 48.1799 18.629 47.7135 19.3884 47.7099C21.146 47.7015 22.9037 47.7003 24.6614 47.7099C25.3859 47.7147 25.8544 48.1739 25.8677 48.8411C25.8797 49.4987 25.4015 49.9795 24.6819 49.9915C23.7832 50.0072 22.8845 49.9951 21.9858 49.9951V49.9987V49.9999Z" fill="#E0263E"/>
<path d="M7.06886 5.30469C7.35841 5.32753 7.61551 5.42009 7.82336 5.62806C8.95391 6.75565 10.0905 7.87603 11.2102 9.01324C11.6487 9.45803 11.6475 9.99298 11.2607 10.4053C10.893 10.7972 10.3115 10.808 9.87661 10.3813C8.72323 9.24886 7.58307 8.10444 6.45013 6.9528C6.16659 6.66429 6.06927 6.30726 6.24228 5.90695C6.40087 5.5379 6.69281 5.366 7.06886 5.30589V5.30469Z" fill="#E0263E"/>
<path d="M36.9237 5.3125C37.2805 5.37621 37.5941 5.50965 37.7599 5.88471C37.9485 6.30786 37.844 6.6697 37.54 6.97985C36.7002 7.83336 35.852 8.67725 35.005 9.52355C34.695 9.83369 34.3959 10.1571 34.0631 10.4432C33.6258 10.8182 33.0827 10.781 32.7235 10.3855C32.3763 10.0032 32.3606 9.49469 32.7535 9.09078C33.8925 7.91751 35.0519 6.76226 36.21 5.60702C36.3975 5.42069 36.6377 5.31851 36.9237 5.3137V5.3125Z" fill="#E0263E"/>
<path d="M22.9612 3.40692C22.9612 4.1883 22.9696 4.96848 22.9588 5.74986C22.9504 6.36535 22.5683 6.79812 22.0481 6.81254C21.4871 6.82817 21.0581 6.3954 21.0545 5.76669C21.0449 4.18469 21.0437 2.6027 21.0545 1.0219C21.0593 0.411223 21.4534 0.0073092 22.0013 9.64454e-05C22.5515 -0.00711631 22.948 0.390787 22.96 1.00628C22.9756 1.80689 22.9636 2.60751 22.9636 3.40932C22.9636 3.40932 22.9624 3.40932 22.9612 3.40932V3.40692Z" fill="#E0263E"/>
<path d="M40.62 20.2068C41.3793 20.2068 42.1398 20.1972 42.8991 20.2092C43.6152 20.22 44.0128 20.5854 43.9996 21.1901C43.9864 21.7731 43.5971 22.1157 42.9135 22.1193C41.3745 22.1254 39.8355 22.1254 38.2952 22.1193C37.626 22.1169 37.22 21.7503 37.2188 21.1769C37.2176 20.6047 37.626 20.22 38.2796 20.2104C39.0593 20.1984 39.8391 20.208 40.6188 20.208L40.62 20.2068Z" fill="#E0263E"/>
<path d="M3.41689 22.1211C2.63716 22.1211 1.85623 22.1296 1.07651 22.1199C0.402503 22.1103 0.00362774 21.7485 2.34523e-05 21.1727C-0.00358084 20.6041 0.40851 20.2146 1.06449 20.211C2.60473 20.2013 4.14496 20.2001 5.68519 20.2098C6.39644 20.2146 6.80132 20.5908 6.78931 21.1931C6.77729 21.7617 6.37241 22.1127 5.69721 22.1187C4.9367 22.126 4.1774 22.1199 3.41689 22.1211Z" fill="#E0263E"/>
<path d="M22.2036 28.3809C20.4171 28.3929 18.9958 26.9876 18.9922 25.2073C18.9898 23.4378 20.4135 22.0048 22.1808 22C23.9048 21.9952 25.3478 23.4245 25.367 25.1556C25.3874 26.9311 23.9769 28.3689 22.2036 28.3809Z" fill="#FEFEFE"/>
</g>
<defs>
<clipPath id="clip0_257_1331">
<rect width="44" height="50" fill="white"/>
</clipPath>
</defs>
</svg>
