<svg width="22" height="44" viewBox="0 0 22 44" fill="none" xmlns="http://www.w3.org/2000/svg">
<g clip-path="url(#clip0_257_1314)">
<path d="M21.0686 44C21.7676 43.6923 22.0064 43.1378 21.9999 42.3444C21.9727 39.242 21.9912 36.1397 21.9868 33.0362C21.9868 32.2049 21.5212 31.6446 20.8298 31.6182C20.095 31.5895 19.561 32.1579 19.5545 33.0064C19.5447 34.236 19.5512 35.4657 19.5512 36.6954C19.5512 38.583 19.5675 40.4706 19.5436 42.357C19.5338 43.147 19.7835 43.7107 20.4998 43.9989H21.0686V44Z" fill="#E0263E"/>
<path d="M1.58422 44C2.28322 43.6923 2.52201 43.1378 2.5155 42.3444C2.48836 39.242 2.50681 36.1397 2.50247 33.0362C2.50247 32.2049 2.03683 31.6446 1.34543 31.6182C0.610617 31.5895 0.0765991 32.1579 0.0700867 33.0064C0.0603182 34.236 0.0668306 35.4657 0.0668306 36.6954C0.0668306 38.583 0.0831108 40.4706 0.059232 42.357C0.0494635 43.147 0.299107 43.7107 1.01547 43.9989H1.58422V44Z" fill="#E0263E"/>
<path d="M16.1932 44.0039C16.8912 43.6962 17.1375 43.1428 17.1245 42.3494C17.0909 40.3643 17.1223 38.3768 17.1093 36.3905C17.1017 35.3169 16.0945 34.705 15.263 35.2492C14.8756 35.5029 14.6834 35.8899 14.6824 36.3606C14.6748 38.4755 14.6737 40.5904 14.6824 42.7054C14.6856 43.3748 15.0774 43.7605 15.6256 44.0039H16.1943H16.1932Z" fill="#E0263E"/>
<path d="M6.45105 44.0039C7.14896 43.6962 7.39535 43.1428 7.38233 42.3494C7.34868 40.3643 7.38015 38.3768 7.36713 36.3905C7.35953 35.3169 6.35228 34.705 5.52086 35.2492C5.13337 35.5029 4.94126 35.8899 4.94017 36.3606C4.93257 38.4755 4.93149 40.5904 4.94017 42.7054C4.94343 43.3747 5.33526 43.7605 5.88339 44.0039H6.45214H6.45105Z" fill="#E0263E"/>
<path d="M11.3248 43.9994C12.0206 43.6917 12.3039 43.1417 12.2518 42.3484C12.2149 41.7949 12.2518 41.2358 12.242 40.6801C12.2279 39.9028 11.7319 39.3585 11.0459 39.3517C10.3632 39.3436 9.83676 39.881 9.81397 40.6502C9.79334 41.3345 9.79986 42.02 9.81288 42.7043C9.82591 43.3725 10.2091 43.7572 10.7572 43.9994H11.3259H11.3248Z" fill="#E0263E"/>
<path d="M10.997 33.0815C11.4605 32.2215 11.9153 31.435 12.1725 30.5463C12.3028 30.0974 12.0911 29.5681 11.6993 29.2741C11.2803 28.9607 10.7127 28.9607 10.2959 29.2741C9.89969 29.5727 9.69347 30.0916 9.82371 30.5452C10.0799 31.435 10.5357 32.2203 10.9959 33.0803L10.997 33.0815Z" fill="#FEFEFE"/>
<path d="M0.00869179 21.9208C0.033656 19.737 1.01812 18.2111 2.91974 17.3614C3.13139 17.2673 3.16395 17.1616 3.11728 16.9515C3.00983 16.4647 2.92191 15.9733 2.81988 15.4853C2.10569 12.0385 2.7591 8.88795 4.75407 6.08413C6.26603 3.95888 8.14595 2.19759 10.0411 0.465011C10.7227 -0.158443 11.2632 -0.151554 11.9503 0.465011C13.5621 1.91055 15.0925 3.4468 16.5025 5.11278C18.3118 7.25296 19.3495 9.733 19.4471 12.6298C19.4949 14.065 19.1823 15.4405 18.8892 16.8206C18.8252 17.1237 18.8567 17.2604 19.1736 17.4085C20.9048 18.2179 21.8806 19.6302 21.9707 21.6533C22.0141 22.6246 21.9783 23.5994 21.9783 24.573C21.9805 24.573 21.9837 24.573 21.9859 24.573C21.9859 25.5467 21.987 26.5203 21.9859 27.4928C21.9837 28.5549 21.5279 29.0371 20.5239 29.0383C18.6157 29.0383 16.7076 29.0371 14.8005 29.0417C14.6573 29.0417 14.4033 28.9349 14.5107 29.292C14.7745 30.1681 14.6399 31.0142 14.3197 31.8432C13.7141 33.4128 12.8816 34.8491 11.9676 36.2304C11.4738 36.9778 10.4969 36.9606 10.0031 36.2051C9.12715 34.8652 8.32178 33.4794 7.72155 31.9707C7.39376 31.1474 7.20599 30.3047 7.44695 29.4252C7.54138 29.0819 7.47625 29.0279 7.15823 29.0302C5.23707 29.044 3.31591 29.0394 1.39366 29.036C0.494951 29.0348 0.00760687 28.5296 0.00435066 27.5881C9.05665e-06 25.6982 -0.0141015 23.8084 0.00760651 21.9196L0.00869179 21.9208ZM19.3364 26.4652C19.5351 26.4675 19.5513 26.363 19.5503 26.2C19.5437 24.6844 19.5557 23.1688 19.5286 21.6533C19.5144 20.8978 19.1291 20.3398 18.5376 19.9356C18.4062 19.846 18.3086 19.7955 18.263 20.0275C17.8451 22.1619 17.4218 24.2952 16.9931 26.4618C17.7984 26.4618 18.5669 26.456 19.3364 26.4652ZM5.21102 14.9927C5.97406 18.6898 6.68065 22.3996 7.39593 26.107C7.45129 26.3963 7.54572 26.4721 7.81056 26.4675C8.86557 26.4526 9.92058 26.4618 10.9756 26.4618C12.0306 26.4618 13.1127 26.456 14.1819 26.4664C14.4011 26.4687 14.5173 26.4308 14.5683 26.1678C15.3194 22.3226 16.0933 18.482 16.8368 14.6345C17.3632 11.9088 16.6978 9.47122 15.0762 7.32989C13.9149 5.79709 12.544 4.47096 11.1666 3.15746C11.0483 3.04379 10.9734 3.0059 10.8356 3.13909C9.43649 4.49048 8.0233 5.83383 6.85215 7.41486C5.19148 9.65608 4.62925 12.1763 5.21102 14.9927ZM2.70483 26.4664C3.38103 26.4514 4.05833 26.4549 4.73453 26.4652C4.94184 26.4687 4.97115 26.4147 4.92882 26.1977C4.52396 24.1712 4.12888 22.1435 3.74247 20.1124C3.68278 19.7967 3.56555 19.8357 3.37669 19.9792C2.83073 20.3949 2.48015 20.9379 2.45844 21.6601C2.43565 22.4179 2.45302 23.1769 2.45302 23.9358C2.44867 23.9358 2.44433 23.9358 2.43999 23.9358C2.43999 24.6798 2.4465 25.425 2.43674 26.169C2.43348 26.3848 2.48341 26.471 2.70592 26.4664H2.70483Z" fill="#E0263E"/>
<path d="M10.9809 10.0168C12.9856 10.0018 14.6463 11.7517 14.6484 13.8792C14.6495 16.0113 13.0051 17.7462 10.9863 17.7405C8.96419 17.7347 7.33175 15.9987 7.33934 13.862C7.34694 11.7505 8.97504 10.0317 10.9809 10.0156V10.0168ZM10.9809 15.1628C11.6451 15.1697 12.1987 14.6048 12.2106 13.9056C12.2226 13.1937 11.6571 12.5887 10.9852 12.5944C10.3275 12.6001 9.77607 13.1857 9.77499 13.8804C9.77499 14.5807 10.3155 15.156 10.9809 15.164V15.1628Z" fill="#E0263E"/>
</g>
<defs>
<clipPath id="clip0_257_1314">
<rect width="22" height="44" fill="white" transform="matrix(-1 0 0 1 22 0)"/>
</clipPath>
</defs>
</svg>
