<svg width="45" height="44" viewBox="0 0 45 44" fill="none" xmlns="http://www.w3.org/2000/svg">
<g clip-path="url(#clip0_257_1348)">
<path d="M21.0966 1.17966C21.7506 1.15432 22.4047 1.10083 23.0559 1.11491C23.8402 1.13461 24.517 1.205 25.1852 0.481469C25.9808 -0.377191 27.3682 -0.0337275 27.8552 1.08675C28.1299 1.72019 28.5687 1.99046 29.0926 2.26636C28.9793 2.53944 28.6452 2.59574 28.5149 2.85193C29.4323 4.71846 30.9245 6.22464 31.8136 8.09962C33.082 9.45939 34.2486 10.8783 34.4779 12.8208C34.3052 13.2234 34.2684 13.6457 34.3987 14.0567C35.0046 15.9852 35.2877 17.9784 35.5879 19.9914C36.4826 19.966 36.8394 18.6682 37.8502 19.1693C37.9776 19.3551 38.0144 19.5606 37.9918 19.7802C37.8927 20.2616 37.6095 20.667 37.2046 20.8754C35.8087 21.5961 35.4236 22.7616 35.5652 24.2115C35.5879 24.4367 35.5227 24.6703 35.4718 24.8956C35.4548 24.9885 35.435 25.0814 35.401 25.1658C35.2538 25.5403 35.3076 26.1962 34.8319 26.1793C34.2373 26.1596 34.359 25.5037 34.2911 25.0673C34.2769 24.7041 34.2656 24.3353 34.3194 23.9778C34.4525 23.0769 33.9541 22.8798 33.2038 22.9136C32.9575 22.7363 32.8187 22.5167 32.8952 22.2042C34.09 21.1428 34.1268 19.8393 33.8324 18.3838C33.5832 17.1536 33.3029 15.9317 33.0028 14.6789C33.0169 14.5269 32.7026 14.7465 32.881 14.6874C32.8244 16.2864 32.3742 17.7842 31.6833 19.2172C31.2614 19.6394 30.9302 19.6254 30.7121 19.0257C30.4941 17.9137 31.0208 16.9143 31.2728 15.8923C31.7683 13.8738 31.6918 12.9672 28.7499 12.5393C28.4866 12.3985 28.3309 12.193 28.3507 11.8833C28.4328 11.599 28.7358 11.4808 28.9 11.1373C27.8439 10.5461 26.4678 11.0078 25.5108 10.1604C25.406 9.86479 25.4966 9.63394 25.7515 9.46221C26.7793 9.02866 27.8382 9.85916 28.8859 9.41998C28.1695 8.38396 26.632 8.51064 26.0488 7.3423C26.1479 6.91157 26.4735 6.85245 26.8416 6.86371C27.9543 7.06641 28.8944 7.6914 29.9703 8.12214C29.3247 6.64693 28.4781 5.32938 27.3541 4.23142C26.7453 3.63458 24.9643 3.78942 24.2451 4.34403C24.0583 4.48761 23.8884 4.64527 23.6307 4.63964C23.4325 4.56644 23.2909 4.43131 23.206 4.23987C23.1975 4.19482 23.1947 4.14978 23.1805 4.10473C22.9738 3.43751 24.2197 3.04619 23.6109 2.4212C23.1664 1.96512 22.3792 2.13404 21.7365 2.05803C21.5496 2.0355 21.3741 1.98201 21.207 1.89755C20.9607 1.68922 20.8389 1.464 21.0966 1.18247V1.17966Z" fill="#E0263E"/>
<path d="M34.1942 4.79755C35.9582 5.92085 37.1814 7.78738 39.2823 8.46586C39.6419 8.58129 39.9788 8.97261 39.9081 9.32734C39.5938 10.8673 40.9444 11.7316 41.3153 12.9816C41.4654 13.4911 41.9071 13.4545 42.295 13.6009C43.3454 13.9923 43.8749 14.9326 43.3143 15.8222C42.6715 16.8441 42.9179 17.7169 43.0679 18.7078C43.2123 19.6679 43.3483 20.6448 43.2067 21.6245C43.2208 22.303 42.8782 22.165 42.496 21.9313C42.0458 20.9404 42.0146 19.8649 41.9014 18.8092C41.8221 18.066 41.6352 17.4213 40.715 17.365C40.4262 17.2749 40.2592 17.0637 40.1544 16.7963C40.0723 15.4646 39.1974 14.7721 38.1214 14.1696C37.2607 13.6882 36.3858 13.2547 35.4797 12.8718C35.3013 12.7535 35.1654 12.6015 35.0861 12.4044C35.0352 12.1933 35.0606 11.9962 35.1881 11.8189C36.3716 11.3938 37.2352 12.2102 38.195 12.6128C38.8293 12.8802 39.3531 13.4039 40.0893 13.4883C39.6447 11.3628 38.532 10.6083 35.6581 10.4647C35.2928 10.3577 35.0408 10.1635 35.1031 9.73555C35.2503 9.39209 35.5845 9.32171 35.8874 9.20347C37.0681 8.74458 37.02 8.78399 36.1791 7.7902C35.3976 6.8696 34.1064 6.45575 33.6562 5.22266C33.7185 4.9355 33.7695 4.63427 34.1914 4.79474L34.1942 4.79755Z" fill="#E0263E"/>
<path d="M42.5674 21.6888C42.8166 22.0548 43.0176 21.9563 43.1989 21.6269C43.6604 22.1477 44.4843 22.2744 44.7448 22.9951C45.0818 23.9298 45.2035 25.1544 44.2946 25.5317C42.4797 26.289 42.4287 27.9641 41.752 29.3295C41.2027 29.397 41.2225 28.9607 41.1262 28.6313C41.0866 28.2062 41.1659 27.7923 41.3103 27.3982C41.5425 26.7676 41.4547 26.2524 40.9733 25.74C40.2372 24.9545 40.1267 24.0283 40.4722 23.0064C40.7468 22.1984 40.0248 20.1798 39.3934 19.7435C38.813 19.3409 38.3571 20.1657 37.8021 19.8701C37.7795 19.6168 37.754 19.3634 37.7314 19.11C38.3203 17.9952 37.8248 17.1956 37.1339 16.2694C36.2873 15.1292 34.9226 14.3944 34.4922 12.9389C34.6281 12.6124 34.7583 12.2745 35.2312 12.4294C35.3218 12.5251 35.4096 12.6236 35.5002 12.7193C36.8847 13.4119 37.6691 14.7041 38.5355 15.8724C39.031 16.5425 39.5038 16.8719 40.3136 16.6579C40.4155 16.8719 40.5175 17.0858 40.6194 17.2998C40.3278 19.172 41.483 20.4079 42.5589 21.6804L42.5674 21.6888Z" fill="#E0263E"/>
<path d="M34.6112 24.7344C34.6452 25.1313 34.6791 25.5283 34.7159 25.9618C35.1548 25.6634 34.7556 25.0497 35.2143 24.8048C35.6588 25.2045 35.605 25.7394 35.5257 26.2321C35.152 28.5575 35.8032 30.5902 37.1623 32.4736C37.5814 33.0563 38.0146 33.4336 38.7507 33.3801C39.048 33.4167 39.2632 33.58 39.4246 33.8221C39.8748 36.1672 38.8328 37.2173 36.5026 37.1526C36.4629 37.1526 36.4205 37.1892 36.378 37.2089C35.9731 37.3159 35.9278 37.0146 35.8485 36.75C35.9193 35.9251 35.8542 35.1002 36.0892 34.2725C36.2931 33.5462 35.8004 32.7889 34.614 31.5811C33.8722 32.5749 34.0959 34.0727 32.9038 34.8131C32.6886 34.8609 32.4904 34.8272 32.3149 34.6864C32.0232 34.2303 32.1818 33.7799 32.3828 33.3632C33.3965 31.2461 33.0142 29.3289 31.6014 27.5356C31.372 27.2456 31.1398 26.9472 31.1172 26.553C31.1427 26.3278 31.2559 26.173 31.4739 26.097C32.179 26.0632 32.5187 26.6291 32.9746 27.0063C33.1841 27.1809 33.3682 27.4905 33.6711 27.3948C34.059 27.2738 33.9599 26.8712 34.0222 26.5643C34.1497 25.9337 33.7448 25.1285 34.6112 24.7344Z" fill="#E0263E"/>
<path d="M7.77917 36.6181C6.21055 35.3709 5.14877 33.7211 4.16343 32.0263C3.82082 31.4379 3.52069 31.0579 2.73638 30.9368C1.36031 30.7257 0.493886 28.9211 1.34615 27.902C2.11913 26.9757 1.89828 26.1537 1.76803 25.2162C1.67176 24.5264 1.63212 23.8282 1.56983 23.1329C2.53252 23.1244 2.35697 23.9887 2.64295 24.5039C2.86663 25.5399 3.27152 26.3367 4.4041 26.7899C5.56216 27.2544 5.91325 28.6396 5.32148 30.0556C4.98737 30.8552 5.14877 31.4267 5.53101 32.1305C6.24453 33.4424 7.45639 34.4109 8.0255 35.8129C8.06514 36.1169 8.02834 36.4013 7.782 36.6181H7.77917Z" fill="#E0263E"/>
<path d="M32.3218 34.645C32.5313 34.6506 32.738 34.6563 32.9475 34.6619C33.3864 35.2531 32.9022 35.7092 32.7012 36.1934C32.3303 37.083 31.7413 37.8798 31.512 38.8454C32.1321 39.2029 32.6106 38.516 33.157 38.7328C33.4345 38.8623 33.5874 39.0565 33.511 39.3775C32.5568 40.0222 31.4157 40.4895 31.5006 41.9732C31.5205 42.342 31.1184 42.6854 30.688 42.8178C30.0368 42.936 29.5809 42.6517 29.3488 42.0745C28.9354 41.0441 28.2785 40.1123 28.0859 38.9946C28.9863 38.0036 29.1789 36.7931 29.1817 35.5177C29.1817 34.4564 29.1506 33.3838 29.7395 32.4237C29.9179 32.2689 30.1217 32.2323 30.3454 32.2942C31.2288 33.8849 30.6399 35.5487 30.6597 37.0464C31.2345 36.382 31.1864 35.1123 32.3218 34.6422V34.645Z" fill="#E0263E"/>
<path d="M35.2433 12.4288C34.9574 12.5414 34.7563 12.7413 34.6516 13.0313C34.4392 13.0763 34.3514 12.9834 34.3599 12.7779C33.5926 11.9164 33.6464 10.6861 32.9329 9.76553C32.4997 9.20529 31.5058 9.1152 31.5653 8.16364C31.9306 6.23235 31.067 4.38553 29.3766 3.46212C28.9377 3.22282 28.3573 3.17214 28.1562 2.59783C28.3771 2.23747 28.7622 2.33038 29.0878 2.26562C30.042 2.41483 30.9084 3.01449 31.9815 2.57249C32.5223 2.35008 33.1736 2.8146 33.2132 3.39455C33.2613 4.13497 33.8191 4.36301 34.19 4.79375C33.9494 4.88947 33.8389 5.07527 33.8191 5.32302C32.7941 5.9649 32.6837 7.26275 33.6436 7.99472C34.2721 8.47332 34.9489 8.88153 35.232 9.67262C35.2462 10.0527 35.501 10.1653 35.8238 10.2019C35.7133 10.7593 35.2547 11.1929 35.266 11.7925C35.2575 12.0065 35.249 12.2176 35.2405 12.4316L35.2433 12.4288Z" fill="#E0263E"/>
<path d="M9.99453 2.47215C11.1186 1.49806 12.254 1.61912 13.3441 2.49748C13.6159 2.71426 13.8453 2.87473 14.1907 2.82687C14.5305 2.69455 14.6466 2.9057 14.7315 3.17034C14.7627 3.40682 14.6947 3.6433 14.7174 3.87979C14.7768 4.26266 15.3658 4.44566 15.1251 4.94115C14.774 5.23957 14.5107 5.53517 15.0883 5.87582C15.4026 6.06163 15.7112 6.26151 15.7905 6.65847C15.6574 6.91466 15.8726 7.23841 15.6319 7.4749C15.4535 7.54809 15.2412 7.58751 15.1053 7.4749C14.2728 6.78515 13.3554 6.94281 12.4239 7.17366C10.9034 5.96872 9.86995 4.51604 9.99453 2.47215Z" fill="#E0263E"/>
<path d="M24.167 42.5099C23.4563 42.6253 22.8051 42.6619 22.2331 43.3432C21.4177 44.3144 19.8151 44.1765 19.0902 43.1067C18.6938 42.5239 18.1983 42.2987 17.6377 42.0538C17.5075 41.3584 18.4192 41.3866 18.49 40.8291C19.9453 38.667 21.9104 38.8444 23.3516 41.2599C23.5356 41.547 23.8584 41.6174 24.1387 41.7582C24.5747 41.9806 24.6823 42.2396 24.1642 42.507L24.167 42.5099Z" fill="#E0263E"/>
<path d="M18.7632 41.0988C18.8764 41.98 17.8033 41.4986 17.6391 42.0616C15.9516 41.7379 14.3575 41.1607 12.8681 40.3049C12.3302 39.8573 11.829 39.3674 11.6393 38.672C11.3788 37.7205 10.603 37.1912 9.96875 36.5409C10.5294 35.4851 10.5775 34.2971 10.8465 33.1653C11.0504 32.3151 11.0475 31.3776 11.7554 30.7104C12.064 30.7329 12.3896 30.5696 12.6869 30.7836C13.0409 31.7042 12.5737 32.5375 12.3472 33.3709C11.7384 35.6146 11.8771 36.6619 14.8785 37.1377C15.0229 37.301 15.0738 37.4924 15.0597 37.7036C14.8417 38.5256 13.777 38.6805 13.6213 39.5448C15.2664 40.2373 16.9511 40.8708 18.7632 41.1016V41.0988Z" fill="#E0263E"/>
<path d="M0.953125 16.3129C2.383 16.0905 2.68596 14.8771 3.17297 13.8214C3.34286 13.6919 3.52973 13.6525 3.73643 13.7201C4.26307 14.1452 4.00824 14.6435 3.83553 15.1024C3.51557 15.961 4.03656 16.0286 4.6623 16.0286C4.89165 16.1862 5.00491 16.4115 5.05587 16.6733C4.81237 17.6586 5.75807 17.3743 6.15164 17.684C6.37249 17.8782 6.5084 18.1034 6.42063 18.4103C5.22576 18.9199 4.2744 19.8968 2.95778 20.1755C1.59586 19.2436 1.45429 17.6868 0.953125 16.3129Z" fill="#E0263E"/>
<path d="M9.98411 36.6171C10.6014 36.5833 11.094 36.8114 11.38 37.3575C11.8897 38.3316 12.3738 39.317 12.8665 40.2995C10.7231 41.1131 9.07522 40.6289 8.97612 38.9791C8.91099 37.9121 8.37302 37.3069 7.78125 36.6199C7.78691 36.3299 7.78974 36.04 7.79541 35.75C8.63068 35.7725 9.12618 36.6453 9.98411 36.6171Z" fill="#E0263E"/>
<path d="M0.951923 16.3125C2.09582 17.3344 1.94859 19.0405 2.98489 20.1188C2.58283 21.1351 2.41011 22.1598 2.69042 23.2522C2.80368 23.6942 2.79519 24.1897 2.36481 24.5359C1.92877 24.1643 2.27987 23.3507 1.56634 23.1339C1.54369 22.4357 1.50405 21.7375 1.50405 21.0394C1.50405 20.6058 1.42477 20.2989 1.03403 19.9724C-0.333548 18.8322 -0.327886 17.6723 0.951923 16.3125Z" fill="#E0263E"/>
<path d="M28.1883 39.1747C29.0491 39.6899 29.0745 40.7118 29.4539 41.4804C29.7654 42.1167 30.0542 42.5643 30.68 42.8177C29.1708 43.6566 28.7971 43.575 27.0331 42.0294C26.7867 41.8633 26.5829 41.6662 26.5942 41.3368C26.8264 40.3993 26.7811 39.2563 28.1883 39.1719V39.1747Z" fill="#E0263E"/>
<path d="M10 2.46875C10.5408 4.15229 11.1184 5.81612 12.5851 6.9732C11.529 7.93884 10.4615 7.24346 9.39691 6.99572C8.92122 6.79302 8.99484 6.3651 8.97785 5.97377C8.96936 4.70408 8.48802 3.30207 10 2.47157V2.46875Z" fill="#E0263E"/>
<path d="M3.82594 13.8417C3.60792 13.8333 3.3899 13.8277 3.17188 13.8192C3.80329 11.795 5.05761 10.134 6.33176 8.48707C6.80461 8.35193 6.9575 8.63909 7.03962 9.01634C6.16187 10.7505 5.23316 12.4566 3.82311 13.8417H3.82594Z" fill="#E0263E"/>
<path d="M39.4249 33.8217C39.1616 33.7964 38.9521 33.6922 38.8558 33.4276C38.6718 33.087 38.8303 32.7885 38.9974 32.5126C39.6741 31.395 40.2772 30.2435 40.7699 29.033C40.886 28.7514 40.9992 28.3939 41.4438 28.4615C41.4834 28.7711 41.3984 29.1259 41.7552 29.3257C41.4296 31.0571 40.4244 32.4366 39.4249 33.8217Z" fill="#E0263E"/>
<path d="M14.5634 3.37188C14.5492 3.11569 14.4501 2.91862 14.1953 2.82008C15.5431 2.06559 16.9984 1.65174 18.5274 1.46875C18.5416 1.78406 18.9861 1.96705 18.7907 2.34712C17.4005 2.77504 16.1122 3.59992 14.5634 3.37188Z" fill="#E0263E"/>
<path d="M33.5082 39.3805C33.4091 39.1835 33.31 38.9892 33.2109 38.7921C33.831 37.6379 34.8079 36.9453 36.0707 36.6328C36.082 36.8749 36.1443 37.0889 36.3821 37.2128C35.578 38.1362 34.6125 38.8484 33.5082 39.3805Z" fill="#E0263E"/>
<path d="M26.737 41.4646C26.8361 41.6532 26.9352 41.8418 27.0343 42.0333C26.0999 42.3345 25.1627 42.5991 24.1632 42.5119C24.3161 41.4674 23.2345 42.3711 23.0703 41.8278C24.2227 41.0057 25.46 41.0423 26.737 41.4674V41.4646Z" fill="#E0263E"/>
<path d="M18.8989 2.07784C18.4742 2.06095 18.3099 1.8864 18.5223 1.47537C19.3547 1.17414 20.2155 1.1122 21.0904 1.18258C21.0649 1.46411 21.2008 1.65274 21.4358 1.78787C20.6912 2.76196 19.8049 2.50577 18.896 2.07784H18.8989Z" fill="#E0263E"/>
<path d="M8.9798 5.97656C9.65651 6.05258 9.10155 6.48894 9.20348 6.73387C9.03643 7.48555 8.5296 7.89658 7.81608 8.1021C7.51028 8.08239 7.2866 7.95007 7.1875 7.64884C7.67168 6.97317 8.28893 6.43827 8.97697 5.97656H8.9798Z" fill="#E0263E"/>
<path d="M7.18537 7.64062C7.41188 7.75042 7.63557 7.8574 7.86208 7.9672C7.76298 8.51618 7.73467 9.13272 6.89656 8.99196C6.70969 8.82304 6.52281 8.65694 6.33594 8.48802C6.61908 8.2065 6.90222 7.92497 7.1882 7.64344L7.18537 7.64062Z" fill="#E0263E"/>
<path d="M23.3368 6.25575C22.3656 5.9517 22.1759 6.92015 21.6238 7.2974C21.318 7.23265 21.1934 7.00743 21.1198 6.73716C21.0547 6.0812 20.5394 5.97985 20.0297 5.83908C19.3587 5.65609 18.6338 5.61668 18.076 5.12119C17.7221 4.10206 18.3903 4.44834 18.866 4.53561C20.3412 4.62288 21.8956 5.82782 23.2575 4.23438C23.3991 4.38077 23.5407 4.52435 23.6823 4.67074C23.6285 5.00576 23.1556 5.22535 23.4133 5.64483C23.3482 5.8419 23.4784 6.06431 23.3397 6.25575H23.3368Z" fill="#E0263E"/>
<path d="M23.3413 6.25935C23.2903 6.04821 23.0553 5.81172 23.4149 5.64844C24.6635 5.97783 25.9235 6.27906 26.9655 7.10675C26.6512 7.10394 26.3228 7.06734 26.15 7.42206C25.2128 7.03356 24.2785 6.64786 23.3413 6.25935Z" fill="#E0263E"/>
<path d="M25.3496 13.5685C26.2925 12.8422 27.3316 12.296 28.45 11.8906C28.5435 12.0821 28.6397 12.2707 28.7332 12.4621C27.6912 13.0139 26.6464 13.5657 25.6044 14.1175C25.4034 13.988 25.327 13.8022 25.3468 13.5685H25.3496Z" fill="#E0263E"/>
<path d="M31.5076 19.1785C31.216 20.3806 30.7856 21.5292 30.1598 22.6019C29.888 22.6019 29.6672 22.5146 29.5312 22.264C30.0013 21.1126 30.4741 19.9639 30.9441 18.8125C30.9838 19.1588 31.0659 19.4403 31.5076 19.1785Z" fill="#E0263E"/>
<path d="M33.2624 22.8649C32.5772 23.4083 31.7957 23.7517 30.9548 23.977C30.7566 24.1431 30.5272 24.1402 30.4225 23.9178C30.3234 23.7067 30.4678 23.5181 30.6886 23.4195C31.4503 23.0479 32.2119 22.6763 32.9736 22.3047C33.0698 22.4905 33.1633 22.6763 33.2596 22.8621L33.2624 22.8649Z" fill="#E0263E"/>
<path d="M22.125 9.58301C23.4048 9.28459 24.6818 9.3043 25.9616 9.58864C25.7294 9.72096 25.5963 9.90958 25.6275 10.1883C24.7752 10.177 23.9201 10.163 23.065 10.1517C23.334 9.4704 23.8267 9.86454 24.1665 9.8392C23.603 9.38031 22.7394 10.2868 22.125 9.58301Z" fill="#E0263E"/>
<path d="M22.1223 9.57907H24.6423C24.0618 10.1168 23.4219 9.67479 23.0652 10.1478C22.4649 10.1984 21.9128 10.1984 21.5956 10.9276C21.2276 11.7694 22.1138 11.6061 22.3177 11.9861C22.9519 13.1629 24.0675 13.5542 25.3501 13.5711C25.5625 13.695 25.6021 13.9005 25.6078 14.1201C25.1378 15.0492 25.2992 15.8543 25.8966 16.7214C26.9046 18.1882 27.6889 19.7985 28.309 21.4652C28.5496 22.1099 28.8611 22.3942 29.535 22.2647C29.7926 22.2872 30.0333 22.3436 30.1636 22.6026C30.1749 22.9826 30.3476 23.2585 30.7015 23.4162C30.577 23.7005 30.4694 23.9792 30.9649 23.9736C30.1268 25.0378 31.1914 25.5107 31.6557 26.1695C31.5113 26.3187 31.3669 26.4679 31.2225 26.6171C30.7185 26.6143 30.1579 26.4651 30.3674 27.3604C30.6534 28.5878 30.4326 29.8716 30.71 31.1131C30.8091 31.5608 30.8261 32.0478 30.4184 32.411C30.2174 32.411 30.0163 32.411 29.8181 32.411C29.0395 31.7776 29.283 30.8795 29.1811 30.063C29.0282 28.8412 29.2887 27.4927 28.1646 26.5496C27.7795 26.3328 27.5756 25.9387 27.284 25.6318C27.2189 25.567 27.1226 25.5023 27.1056 25.4207C26.7715 23.9004 25.9561 22.763 24.5092 22.0986C24.3959 22.0479 24.3733 21.865 24.3535 21.727C24.3959 21.3948 24.6196 21.2681 24.9197 21.2203C25.755 21.2174 26.3581 21.8593 27.25 22.062C26.7885 20.1026 25.7125 18.5232 24.6677 16.9664C23.9486 15.8937 22.8698 16.6764 21.9411 16.8031C21.7259 16.7637 21.5843 16.6426 21.5164 16.4371C21.4937 16.2485 21.5192 16.0598 21.6268 15.905C22.4564 14.7057 22.4224 13.5908 21.3323 12.552C21.1341 12.3634 21.0039 12.1044 20.8708 11.8595C20.3498 10.5926 19.4551 9.51714 18.9766 8.22774C19.6589 7.5746 20.4829 7.13823 21.3182 6.71875C21.4229 6.91019 21.5277 7.10163 21.6296 7.29588C20.8736 8.25589 21.0662 9.01039 22.1251 9.57907H22.1223Z" fill="#E0263E"/>
<path d="M15.802 6.76562C16.8213 7.42722 17.6962 8.41256 19.0949 8.22394C19.95 9.33316 20.7627 10.4621 21.0769 11.8613C20.437 12.6777 19.5055 12.7059 18.8429 12.1935C17.6736 11.2898 16.4787 11.2926 15.1762 11.5854C14.6637 11.4756 14.2475 11.3292 14.8591 10.7802C15.5302 10.3213 16.3853 10.5944 17.0931 10.189C17.9539 9.69352 18.0445 9.15017 17.2488 8.58148C16.7279 8.20705 16.204 7.83825 15.6802 7.46944C15.6689 7.22733 15.4084 6.94299 15.802 6.76844V6.76562Z" fill="#E0263E"/>
<path d="M18.2531 5.07825C17.2083 4.98253 16.1635 4.884 15.1215 4.78828C14.8837 4.48423 14.4052 4.43074 14.2891 4C15.8237 4.11543 17.3725 4.10698 18.8703 4.5349C18.624 4.67004 17.9218 4.29279 18.2559 5.07825H18.2531Z" fill="#E0263E"/>
<path d="M15.1598 24.9148C14.3358 26.8715 13.1721 28.6817 12.5718 30.7368C12.3538 30.8072 12.116 30.993 11.9688 30.6383C12.518 28.3354 13.5685 26.2493 14.769 24.2279C15.3523 24.2026 15.2985 24.5348 15.1598 24.9148Z" fill="#E0263E"/>
<path d="M14.8281 37.1426C16.4052 36.2079 17.9823 35.2732 19.5595 34.3386C20.0436 34.3104 20.1371 34.5103 19.8964 34.9044C18.3844 36.1572 16.7082 37.1229 14.8649 37.8098C14.8536 37.5874 14.8395 37.365 14.8281 37.1426Z" fill="#E0263E"/>
<path d="M9.15823 13.8233C7.75667 14.7692 6.35228 15.718 4.95072 16.6639C4.71571 16.54 4.66758 16.3233 4.65625 16.0868C5.80581 15.0029 7.12809 14.1752 8.53248 13.4658C8.8128 13.4601 9.18372 13.2968 9.1554 13.8233H9.15823Z" fill="#E0263E"/>
<path d="M6.08096 17.788C7.68921 17.7148 9.27482 17.239 10.9029 17.5149C11.0784 17.6585 11.4324 17.6388 11.4522 17.8837C11.4777 18.1821 11.1804 18.1906 10.9454 18.199C9.91472 18.2356 8.88408 18.1343 7.85344 18.2553C7.35227 18.2891 6.85111 18.3257 6.34994 18.3595C6.25934 18.1681 6.16873 17.9766 6.07812 17.788H6.08096Z" fill="#E0263E"/>
<path d="M38.566 27.5532C39.0954 27.5729 39.3078 27.8967 39.2795 28.3669C39.2512 28.8483 38.9709 29.1213 38.4584 29.0791C37.9572 29.0369 37.7137 28.7385 37.7448 28.2542C37.776 27.7616 38.0563 27.5138 38.566 27.5504V27.5532Z" fill="#E0263E"/>
<path d="M22.0298 16.7104C19.9629 18.8613 19.9714 18.8416 22.7122 20.0803C23.5475 20.4576 24.4535 20.7335 25.1387 21.3951C24.8782 21.4457 24.6064 21.4823 24.462 21.7526C23.7797 21.4429 23.0944 21.1417 22.4177 20.8236C21.4692 20.3759 20.549 19.7397 19.507 20.6631C19.1389 20.9897 18.6972 20.6349 18.2895 20.6321C17.9384 20.7363 17.7232 20.5843 17.5901 20.2718C17.4259 19.8298 17.2617 19.3878 17.0975 18.9458C16.9417 18.7177 16.9446 18.4981 17.1201 18.2814C18.4622 17.2819 20.4754 17.7521 21.5938 16.2656C21.741 16.4148 21.8883 16.5612 22.0355 16.7104H22.0298Z" fill="#E0263E"/>
<path d="M23.3128 31.2129C24.6096 29.8053 25.8837 28.3807 26.954 26.7901C27.2286 26.3819 27.6647 26.0131 27.5033 25.4219C27.9761 25.5035 27.7949 26.1116 28.1913 26.2552C27.0587 28.2597 25.6204 30.022 23.9159 31.5733C23.5308 31.7591 23.2816 31.7168 23.3156 31.2129H23.3128Z" fill="#E0263E"/>
<path d="M9.38637 28.6965C8.42368 28.505 7.76679 28.0067 7.79794 27.0214C7.82625 26.1092 8.42368 25.5405 9.3439 25.5715C10.3094 25.6025 10.9238 26.1796 10.8955 27.1762C10.87 28.1109 10.2103 28.5247 9.38637 28.6965Z" fill="#E0263E"/>
<path d="M17.114 18.2781C17.1055 18.5005 17.0999 18.7229 17.0914 18.9425C15.9588 18.7454 14.8291 18.5484 13.6965 18.3513C13.4247 17.7939 12.4563 18.3991 12.3516 17.5574C13.9796 17.5236 15.5596 17.8108 17.114 18.2753V18.2781Z" fill="#E0263E"/>
<path d="M12.3557 17.5579C12.6756 18.0365 13.6497 17.4227 13.7006 18.3518C11.7526 18.318 9.80457 18.287 7.85938 18.2532C8.83056 17.8844 9.84138 18.1603 10.8296 18.0646C11.628 17.9858 10.9003 17.6986 10.9088 17.5156C11.393 17.5297 11.8744 17.5466 12.3585 17.5607L12.3557 17.5579Z" fill="#E0263E"/>
<path d="M15.1564 24.9146C15.1082 24.6387 15.0714 24.3571 14.7656 24.2276C15.1818 23.5801 15.5981 22.9354 16.0171 22.2879C16.2918 22.2344 16.5947 21.5925 16.8297 22.3245C16.2719 23.1888 15.7142 24.0503 15.1564 24.9146Z" fill="#E0263E"/>
<path d="M16.8282 22.323C16.5734 21.9429 16.2818 22.3793 16.0156 22.2864C16.463 21.5572 16.9358 20.8478 17.5842 20.2734C17.8192 20.3917 18.0514 20.5127 18.2836 20.6338C17.7994 21.1968 17.3124 21.7627 16.8282 22.3258V22.323Z" fill="#E0263E"/>
<path d="M24.2584 36.5784C24.2443 37.164 23.8139 37.6989 23.0013 37.713C22.2198 37.7242 21.6478 37.285 21.6563 36.4292C21.6648 35.6296 22.1094 35.0441 22.9248 35.0469C23.6808 35.0469 24.2669 35.4467 24.2584 36.5812V36.5784Z" fill="#E0263E"/>
<path d="M19.8994 34.9121C19.9249 34.6419 19.8145 34.4532 19.5625 34.3434C20.259 33.8001 20.9527 33.2567 21.6493 32.7134C21.8503 32.5445 22.0513 32.5332 22.224 32.7416C22.3571 32.902 22.3118 33.0653 22.1787 33.2117C21.4397 33.8057 20.8083 34.5433 19.8966 34.9093L19.8994 34.9121Z" fill="#E0263E"/>
<path d="M22.1807 33.207C22.1807 32.8522 21.9797 32.7115 21.6484 32.7087C22.2006 32.2104 22.7555 31.7092 23.3077 31.2109C23.4153 31.484 23.6418 31.56 23.9079 31.5713C23.3983 32.1878 22.8433 32.7537 22.1779 33.207H22.1807Z" fill="#E0263E"/>
<path d="M13.6943 11.867C12.7571 12.2415 11.8199 12.6159 10.8799 12.9875C10.6109 12.8214 10.1975 13.0523 10.0078 12.6722C11.0413 12.0106 12.1937 11.6334 13.3574 11.2899C13.9124 11.228 13.8756 11.5067 13.6943 11.867Z" fill="#E0263E"/>
<path d="M10.0093 12.6747C10.3179 12.7366 10.6775 12.6465 10.8813 12.99C10.3292 13.3138 9.82805 13.7417 9.157 13.8177C8.94747 13.6995 8.74078 13.5812 8.53125 13.4602C8.9588 13.0773 9.46562 12.8436 10.0064 12.6719L10.0093 12.6747Z" fill="#E0263E"/>
<path d="M13.6963 11.8708C13.7076 11.6061 13.6227 11.4006 13.3594 11.2936C13.8096 10.9755 14.3107 10.8178 14.8572 10.7812C14.6137 11.1782 14.8119 11.3162 15.1913 11.3471C14.7355 11.6455 14.2343 11.8173 13.6935 11.8708H13.6963Z" fill="#E0263E"/>
<path d="M23.3333 24.5341C23.9648 24.5988 24.33 24.9592 24.3215 25.5307C24.3102 26.1388 24.0044 26.5892 23.2767 26.5611C22.6396 26.5385 22.3254 26.136 22.3055 25.587C22.2829 24.9338 22.7161 24.5988 23.3362 24.5312L23.3333 24.5341Z" fill="#E0263E"/>
<path d="M16.231 14.3308C16.1659 15.0403 15.829 15.502 15.1069 15.5104C14.3793 15.5189 13.9914 15.0797 14.0083 14.373C14.0225 13.7424 14.3934 13.3173 15.039 13.2835C15.7468 13.2469 16.1404 13.6523 16.2339 14.3308H16.231Z" fill="#E0263E"/>
</g>
<defs>
<clipPath id="clip0_257_1348">
<rect width="45" height="44" fill="white"/>
</clipPath>
</defs>
</svg>
