<svg width="44" height="44" viewBox="0 0 44 44" fill="none" xmlns="http://www.w3.org/2000/svg">
<path d="M37.0408 6.25014C37.3303 6.25321 37.5553 6.37187 37.6863 6.63685C37.8216 6.91044 37.7576 7.22584 37.5086 7.47791C36.9473 8.04538 36.3792 8.6067 35.8148 9.1711C34.8305 10.1554 33.8456 11.1391 32.8631 12.1259C32.6443 12.3454 32.3983 12.4628 32.0891 12.3638C31.5825 12.2015 31.4349 11.599 31.8173 11.2012C32.3633 10.6331 32.9252 10.0804 33.4829 9.52277C34.4819 8.5237 35.4828 7.52771 36.4807 6.52803C36.6374 6.37064 36.8047 6.24522 37.0408 6.25014Z" fill="#E0263E"/>
<path d="M6.25005 6.99576C6.24698 6.65454 6.37486 6.43013 6.64107 6.3084C6.91466 6.18298 7.18825 6.21372 7.41143 6.42522C7.74527 6.74246 8.0662 7.07322 8.39143 7.39846C9.63642 8.64345 10.8826 9.8872 12.1258 11.134C12.4473 11.4562 12.4891 11.8238 12.2512 12.1226C11.9672 12.4792 11.511 12.4885 11.1532 12.1337C10.448 11.4347 9.74893 10.7295 9.04682 10.0274C8.20699 9.18755 7.36778 8.34834 6.52672 7.50974C6.36994 7.35358 6.24268 7.18635 6.25067 6.99576H6.25005Z" fill="#E0263E"/>
<path d="M6.95066 37.7556C6.65985 37.7525 6.43729 37.6345 6.31556 37.3609C6.18461 37.0676 6.22826 36.7965 6.45205 36.569C6.93959 36.0729 7.43451 35.5828 7.92697 35.091C9.00535 34.0126 10.0813 32.9318 11.1639 31.8577C11.5679 31.4569 12.1489 31.5559 12.345 32.0495C12.4704 32.3649 12.3665 32.625 12.136 32.8549C11.3816 33.6062 10.6309 34.3606 9.87838 35.1138C9.08958 35.9026 8.29955 36.6907 7.51259 37.4808C7.35582 37.6388 7.18613 37.7611 6.95127 37.7556H6.95066Z" fill="#E0263E"/>
<path d="M37.7545 37.1128C37.7478 37.3452 37.6285 37.5672 37.3573 37.6926C37.0758 37.8229 36.7862 37.7695 36.5427 37.5285C35.8953 36.8872 35.2522 36.2423 34.6079 35.598C33.7029 34.693 32.7973 33.7898 31.8954 32.8817C31.5296 32.5135 31.5062 32.1077 31.8204 31.804C32.1266 31.5082 32.5207 31.5359 32.8766 31.8913C34.4198 33.4314 35.9599 34.9752 37.5031 36.5152C37.6555 36.6671 37.7539 36.8362 37.7545 37.1128Z" fill="#E0263E"/>
<path d="M4.04924 21.3144C5.17557 21.3144 6.30128 21.3107 7.42761 21.3162C7.78112 21.3181 8.04672 21.5431 8.11005 21.8628C8.1746 22.1917 8.01229 22.504 7.70858 22.6461C7.60221 22.6959 7.49216 22.7026 7.37904 22.7026C5.16819 22.7039 2.95672 22.7063 0.74587 22.7045C0.317349 22.7045 0.00625538 22.4081 0.000107299 22.0134C-0.00665559 21.6064 0.306897 21.3144 0.763699 21.3138C1.85929 21.3113 2.95426 21.3132 4.04985 21.3132V21.3144H4.04924Z" fill="#E0263E"/>
<path d="M39.981 21.3137C41.0556 21.3137 42.1303 21.3124 43.2056 21.3143C43.6882 21.3149 44.003 21.5959 44 22.0139C43.9969 22.4209 43.6919 22.7019 43.2234 22.7025C41.0329 22.7056 38.8423 22.705 36.6518 22.7007C36.1685 22.7001 35.8648 22.4105 35.8753 21.985C35.8857 21.5793 36.1956 21.3137 36.6647 21.313C37.7701 21.3118 38.8755 21.313 39.981 21.313V21.3143V21.3137Z" fill="#E0263E"/>
<path d="M22.6959 4.07018C22.6959 5.15532 22.6978 6.24046 22.6947 7.32559C22.6935 7.82113 22.4285 8.11992 22.0018 8.12238C21.5758 8.12484 21.3065 7.82174 21.3059 7.32928C21.3046 5.14917 21.304 2.96844 21.3059 0.788334C21.3059 0.306324 21.5924 -0.0078435 22.0129 0.000149011C22.415 0.00752671 22.6941 0.323538 22.6953 0.784645C22.6978 1.88023 22.6959 2.97521 22.6953 4.0708L22.6959 4.07018Z" fill="#E0263E"/>
<path d="M22.6978 39.9396C22.6978 41.045 22.6978 42.1504 22.6978 43.2559C22.6978 43.5454 22.5853 43.7772 22.3265 43.9149C22.08 44.0459 21.8297 44.0262 21.6004 43.8676C21.3674 43.7071 21.3041 43.4723 21.3047 43.1981C21.309 41.1102 21.3065 39.0217 21.3065 36.9338C21.3065 36.8213 21.3035 36.7088 21.3065 36.5962C21.3194 36.1696 21.5918 35.88 21.9828 35.8751C22.3941 35.8695 22.6911 36.156 22.6935 36.5926C22.7009 37.7084 22.696 38.8243 22.696 39.9396H22.6978Z" fill="#E0263E"/>
<path d="M10.0828 14.7112C10.0865 15.2793 9.50058 15.5849 8.97553 15.2842C8.08775 14.7764 7.20304 14.263 6.3171 13.7509C6.06011 13.6027 5.79943 13.4607 5.55044 13.3003C5.21229 13.0826 5.11023 12.6891 5.29222 12.3657C5.48281 12.0264 5.89288 11.8936 6.2464 12.0946C7.41085 12.7568 8.56792 13.4324 9.72621 14.1063C9.95492 14.2391 10.0785 14.442 10.0828 14.7112Z" fill="#E0263E"/>
<path d="M12.7196 5.20321C12.9625 5.21059 13.1629 5.31203 13.284 5.51923C13.9751 6.70273 14.6667 7.88624 15.3412 9.07897C15.5299 9.41219 15.3725 9.82473 15.0405 9.99933C14.7055 10.1752 14.3188 10.0737 14.1116 9.72206C13.53 8.73529 12.9606 7.74114 12.3864 6.75007C12.2837 6.57301 12.1706 6.40148 12.0827 6.21703C11.8497 5.72765 12.1878 5.19522 12.719 5.20321H12.7196Z" fill="#E0263E"/>
<path d="M8.62366 18.2387C8.6169 18.6912 8.21112 19.0226 7.75801 18.9052C6.46076 18.5695 5.16659 18.2197 3.87426 17.8649C3.47218 17.7542 3.27114 17.3891 3.36766 17.0109C3.46296 16.6378 3.82631 16.4134 4.22716 16.5179C5.5238 16.856 6.81858 17.2034 8.11091 17.5569C8.44291 17.6473 8.62858 17.9172 8.62366 18.2387Z" fill="#E0263E"/>
<path d="M10.0788 29.347C10.0726 29.5622 9.95029 29.7632 9.72097 29.8966C8.57127 30.5637 7.42343 31.2338 6.26943 31.8929C5.91161 32.0976 5.49354 31.9821 5.30295 31.6562C5.10191 31.3131 5.21012 30.8914 5.57716 30.6768C6.7164 30.0122 7.8581 29.3507 9.00594 28.7002C9.51562 28.4119 10.0831 28.7365 10.0794 29.3464L10.0788 29.347Z" fill="#E0263E"/>
<path d="M25.7558 8.62306C25.3211 8.61753 24.9799 8.21606 25.0918 7.78077C25.4305 6.46324 25.7865 5.14939 26.1511 3.83862C26.2562 3.46051 26.6306 3.273 26.9977 3.36829C27.353 3.46051 27.586 3.82387 27.4877 4.2032C27.1489 5.5109 26.7985 6.81491 26.4419 8.11769C26.3509 8.44907 26.0835 8.62736 25.7564 8.62306H25.7558Z" fill="#E0263E"/>
<path d="M31.302 38.7908C31.0321 38.7933 30.8237 38.6746 30.6909 38.4459C30.0183 37.287 29.3463 36.1287 28.6866 34.963C28.4806 34.5991 28.603 34.1982 28.9418 34.0076C29.2799 33.817 29.6851 33.9222 29.8953 34.2812C30.5673 35.4285 31.2362 36.5775 31.8928 37.7334C32.1701 38.2215 31.8436 38.7859 31.302 38.7915V38.7908Z" fill="#E0263E"/>
<path d="M7.8887 25.0703C8.27172 25.0777 8.55761 25.3193 8.61294 25.6384C8.67627 26.0067 8.48629 26.3331 8.11126 26.4426C7.58129 26.5975 7.04456 26.7297 6.51091 26.8729C5.78974 27.0666 5.06919 27.2633 4.3474 27.4558C3.86355 27.5849 3.46945 27.3937 3.36801 26.9861C3.26411 26.5692 3.49773 26.2372 3.99634 26.1032C5.22104 25.773 6.44636 25.446 7.67167 25.1183C7.75959 25.0949 7.84996 25.0789 7.8887 25.0703Z" fill="#E0263E"/>
<path d="M38.7991 31.2696C38.788 31.8604 38.2089 32.161 37.7017 31.8727C36.8569 31.3925 36.0183 30.9019 35.1772 30.4156C34.8852 30.2465 34.5889 30.0842 34.2999 29.9102C33.9316 29.6889 33.8191 29.2807 34.0214 28.9339C34.2181 28.597 34.6165 28.4826 34.9799 28.6892C36.1357 29.3464 37.286 30.0135 38.4363 30.68C38.6761 30.8189 38.7991 31.0335 38.7991 31.2696Z" fill="#E0263E"/>
<path d="M25.8026 35.3752C26.0983 35.4034 26.3449 35.5418 26.4303 35.8541C26.7937 37.1759 27.1515 38.4996 27.4958 39.8264C27.5886 40.1842 27.3445 40.5426 26.9996 40.6318C26.6074 40.7332 26.249 40.5272 26.1321 40.1049C25.8567 39.1089 25.5948 38.1092 25.3267 37.1114C25.2499 36.8249 25.1614 36.5408 25.0974 36.2513C24.9929 35.7803 25.3249 35.3659 25.8032 35.3752H25.8026Z" fill="#E0263E"/>
<path d="M29.3328 10.0828C28.7346 10.076 28.418 9.51897 28.6952 9.02159C29.1225 8.25308 29.5695 7.49564 30.0085 6.73389C30.223 6.36193 30.4364 5.98936 30.6559 5.61986C30.8919 5.22208 31.286 5.09604 31.6426 5.29831C31.9955 5.49813 32.0976 5.91804 31.8713 6.31213C31.2246 7.43846 30.5704 8.55987 29.9218 9.68497C29.7773 9.93581 29.5744 10.0809 29.3328 10.0828Z" fill="#E0263E"/>
<path d="M36.1335 18.9267C35.7364 18.9328 35.4425 18.693 35.3865 18.3573C35.3244 17.9866 35.5157 17.6651 35.8931 17.5587C36.7004 17.3312 37.5119 17.1185 38.3216 16.9002C38.7858 16.7754 39.2488 16.6463 39.7154 16.5301C40.1618 16.4188 40.5356 16.6236 40.6315 17.0164C40.7298 17.4191 40.5097 17.761 40.0603 17.8827C38.8159 18.2196 37.5703 18.5516 36.3254 18.8842C36.2467 18.9051 36.1661 18.9187 36.1335 18.926V18.9267Z" fill="#E0263E"/>
<path d="M17.1966 3.34375C17.5139 3.34559 17.7795 3.53741 17.8705 3.87003C18.224 5.16297 18.5726 6.45714 18.9107 7.75377C19.0103 8.13557 18.7847 8.50076 18.43 8.59667C18.0506 8.69873 17.6719 8.50322 17.5643 8.11159C17.2089 6.81926 16.8603 5.52571 16.5259 4.22784C16.4029 3.7526 16.7331 3.34129 17.1966 3.34436V3.34375Z" fill="#E0263E"/>
<path d="M38.7953 12.7564C38.7935 12.9629 38.6779 13.1738 38.4498 13.3066C37.2915 13.9792 36.1332 14.6524 34.9669 15.3109C34.598 15.5193 34.2058 15.3982 34.0121 15.0601C33.8172 14.7201 33.9162 14.3186 34.2795 14.1053C35.4256 13.432 36.5746 12.7631 37.7317 12.1084C38.2235 11.8305 38.7873 12.1551 38.7947 12.7564H38.7953Z" fill="#E0263E"/>
<path d="M36.1074 25.0703C36.1443 25.0771 36.2254 25.0869 36.3041 25.1078C37.559 25.4435 38.8144 25.7786 40.0686 26.1186C40.432 26.2169 40.6219 26.4309 40.6484 26.7481C40.6742 27.05 40.5193 27.3193 40.2463 27.4465C40.0809 27.5234 39.9118 27.5259 39.7366 27.4785C38.4621 27.1355 37.1864 26.7979 35.9137 26.4493C35.527 26.3436 35.3315 26.0343 35.3832 25.6636C35.4305 25.3279 35.7188 25.0758 36.1074 25.0703Z" fill="#E0263E"/>
<path d="M12.7856 38.7922C12.1591 38.7959 11.8345 38.2204 12.1204 37.7163C12.6553 36.7738 13.2031 35.8387 13.7453 34.8998C13.8628 34.6963 13.974 34.4885 14.0982 34.2887C14.3189 33.9334 14.7223 33.8153 15.0512 34.0016C15.4047 34.2014 15.5234 34.6004 15.3082 34.9798C14.6522 36.1362 13.9851 37.2859 13.3187 38.4362C13.1865 38.6649 12.9805 38.786 12.785 38.7922H12.7856Z" fill="#E0263E"/>
<path d="M18.9275 36.1731C18.8635 36.411 18.7762 36.7363 18.6889 37.0615C18.4215 38.0593 18.1546 39.0578 17.8854 40.0556C17.7649 40.502 17.4255 40.7252 17.0216 40.6317C16.6281 40.5407 16.4147 40.1688 16.5322 39.7199C16.866 38.4436 17.2085 37.1691 17.5577 35.8971C17.6616 35.5177 17.985 35.3265 18.3545 35.3855C18.6883 35.439 18.9311 35.7335 18.9275 36.1731Z" fill="#E0263E"/>
<path d="M26.8367 23.3156C27.6753 22.6116 28.4992 21.8898 29.3279 21.1736C30.2643 20.3645 31.2006 19.5554 32.1929 18.6977C32.07 18.683 32.022 18.6756 31.9741 18.6719C29.6993 18.4819 27.4251 18.2901 25.1497 18.1051C24.9486 18.0885 24.83 18.0294 24.7445 17.8247C23.8777 15.7362 22.9991 13.6526 22.1205 11.569C22.0892 11.4946 22.0978 11.3803 21.9693 11.3594C21.9392 11.4258 21.9084 11.4897 21.8808 11.5549C21.0077 13.6292 20.1316 15.7024 19.2666 17.7804C19.1774 17.9956 19.0692 18.0928 18.8282 18.1106C17.2254 18.2311 15.6238 18.3682 14.0223 18.5016C13.3048 18.5612 12.5873 18.6246 11.8594 18.6867C11.9049 18.8281 12.0045 18.8717 12.0789 18.9363C13.7733 20.4032 15.4671 21.8708 17.1689 23.3285C17.3238 23.4613 17.3668 23.5732 17.3195 23.7699C16.8959 25.5412 16.4815 27.3149 16.0653 29.0886C15.9454 29.5983 15.8292 30.1092 15.6995 30.6724C15.8476 30.5881 15.9368 30.5402 16.0241 30.4873C17.9331 29.3333 19.8433 28.1812 21.748 27.0198C21.9263 26.911 22.0511 26.8944 22.2398 27.0106C23.9496 28.0582 25.668 29.0935 27.3833 30.1319C27.6686 30.3047 27.9544 30.4756 28.2428 30.649C28.2871 30.55 28.2545 30.4824 28.2385 30.4135C27.7208 28.2119 27.2062 26.0096 26.6812 23.8099C26.6301 23.5971 26.6584 23.4637 26.8361 23.3143L26.8367 23.3156ZM24.5595 23.0961C24.83 24.1984 25.0808 25.3057 25.3372 26.4117C25.355 26.488 25.4048 26.563 25.3458 26.6656C24.5847 26.2052 23.8248 25.7459 23.0649 25.286C22.7937 25.1219 22.5171 24.9657 22.2546 24.7893C22.083 24.6743 21.9521 24.662 21.7633 24.7794C20.8251 25.3629 19.8752 25.9273 18.9291 26.4978C18.835 26.5544 18.7403 26.6091 18.5921 26.6958C18.7176 26.1511 18.8282 25.6654 18.9407 25.1797C19.103 24.4825 19.2574 23.7828 19.4357 23.0893C19.4861 22.8913 19.4523 22.7764 19.2961 22.6442C18.4686 21.9439 17.6515 21.2307 16.8319 20.5219C16.7342 20.437 16.6401 20.3485 16.4969 20.2188C17.1658 20.1604 17.772 20.1056 18.3788 20.054C18.9807 20.003 19.582 19.9446 20.1845 19.9132C20.3917 19.9021 20.4864 19.8259 20.5626 19.6402C20.993 18.5901 21.4362 17.545 21.8758 16.4986C21.9066 16.4254 21.941 16.3547 22.0025 16.2201C22.2183 16.7279 22.4126 17.181 22.6038 17.636C22.8847 18.3055 23.1719 18.9725 23.4368 19.6482C23.5137 19.8437 23.6219 19.8991 23.8192 19.9144C25.023 20.0048 26.225 20.1093 27.4534 20.2114C27.3925 20.3731 27.2591 20.4376 27.1589 20.5249C26.3486 21.2301 25.5364 21.9335 24.7169 22.6282C24.5576 22.7635 24.5078 22.884 24.5601 23.0973L24.5595 23.0961Z" fill="#E0263E"/>
</svg>
