<svg width="42" height="42" viewBox="0 0 42 42" fill="none" xmlns="http://www.w3.org/2000/svg">
<path d="M21 0.734375C17.3734 0.734375 13.9703 1.67969 11.0312 3.34687C4.87813 6.83594 0.71875 13.4359 0.71875 20.9984C0.71875 32.1875 9.79375 41.2625 21 41.2625C32.2062 41.2625 41.2812 32.1875 41.2812 20.9984C41.2812 9.80938 32.2062 0.734375 21 0.734375ZM21 38.7188C11.2031 38.7188 3.2625 30.7953 3.24531 20.9984C3.24531 11.2016 11.2031 3.27812 21 3.27812C30.7969 3.27812 38.7375 11.2016 38.7375 20.9984C38.7375 30.7953 30.7969 38.7188 21 38.7188Z" fill="#E0263E"/>
<path d="M30.0438 10.1016H24.2687C22.9281 10.1016 21.725 10.7547 20.9688 11.7516C20.2125 10.7547 19.0094 10.1016 17.6687 10.1016H11.8766C10.9656 10.1016 10.2266 10.8406 10.2266 11.7516V27.0313C10.2266 27.9422 10.9656 28.6813 11.8766 28.6813H17.9437C18.7516 29.4719 19.8344 29.9188 20.9516 29.9188C22.0687 29.9188 23.1516 29.4719 23.9594 28.6813H30.0266C30.9375 28.6813 31.6766 27.9422 31.6766 27.0313V11.7516C31.6938 10.8406 30.9547 10.1016 30.0438 10.1016ZM30.0438 27.0141H23.6156C23.375 27.0141 23.1516 27.1172 22.9797 27.3063C22.4641 27.9078 21.725 28.2516 20.9516 28.2516C20.1781 28.2516 19.4391 27.9078 18.9234 27.3063C18.7688 27.1172 18.5453 27.0141 18.2875 27.0141H11.8766V11.7516H17.6516C19.0094 11.7516 20.1266 12.8688 20.1266 14.2266V21.2391C20.1266 21.6859 20.4875 22.0641 20.9516 22.0641C21.3984 22.0641 21.7766 21.7031 21.7766 21.2391V14.2266C21.7766 12.8688 22.8937 11.7516 24.2516 11.7516H30.0266L30.0438 27.0141Z" fill="#E0263E"/>
</svg>
