<svg width="43" height="26" viewBox="0 0 43 26" fill="none" xmlns="http://www.w3.org/2000/svg">
<g clip-path="url(#clip0_257_1309)">
<path d="M36.5877 18.2269C36.5877 19.2416 36.5969 20.254 36.5854 21.2687C36.5693 22.5365 36.2478 22.7709 35.0304 22.4029C32.2188 21.5546 29.4578 20.5352 26.5475 20.0407C21.8662 19.2463 17.2676 19.5603 12.7241 20.9125C11.1162 21.3906 9.51748 21.9085 7.90957 22.3912C6.75188 22.7404 6.43719 22.5131 6.428 21.3086C6.41422 19.2041 6.43489 17.0974 6.41422 14.9929C6.40733 14.318 6.62554 13.9337 7.29627 13.7064C9.46465 12.9776 11.5963 12.1339 13.8083 11.527C14.6628 11.2926 15.1911 11.4496 15.7355 12.1902C16.9024 13.779 18.1726 15.2906 19.4015 16.8302C20.867 18.6628 22.1395 18.6745 23.5821 16.87C24.8615 15.2695 26.1754 13.697 27.3974 12.0519C27.8752 11.4074 28.3484 11.302 29.0489 11.4895C31.3391 12.0941 33.5419 12.9658 35.7815 13.7322C36.4063 13.9454 36.6038 14.3368 36.5923 14.9531C36.5762 16.0451 36.5877 17.1372 36.5877 18.2269Z" fill="#E0263E"/>
<path d="M7.53638 25.4949C5.39787 25.4949 3.25935 25.4949 1.12084 25.4949C0.693594 25.4949 0.268647 25.5183 0.0596195 25.0168C-0.131032 24.5622 0.176767 24.2833 0.404171 23.9857C0.966938 23.2498 1.51133 22.4929 2.12922 21.8063C2.56566 21.3212 2.61619 20.9673 2.16138 20.4517C1.49984 19.6995 0.918701 18.8769 0.307696 18.0778C0.0963716 17.8013 -0.11725 17.5224 0.0802925 17.1311C0.275538 16.7421 0.622387 16.7585 0.966938 16.7467C1.00599 16.7467 1.04274 16.7444 1.08179 16.7467C2.36122 16.8264 4.03344 16.196 4.80294 16.9975C5.42084 17.6419 4.97292 19.3574 4.9913 20.597C4.99819 21.0259 4.96833 21.4547 5.00048 21.8813C5.10844 23.4115 6.34423 24.3325 7.79824 23.9177C9.84947 23.3319 11.8961 22.7155 13.929 22.064C14.7536 21.7992 15.1165 21.8156 15.0866 22.9007C15.0085 25.8019 15.3049 25.4878 12.576 25.4949C10.8969 25.4996 9.2155 25.4949 7.53638 25.4949Z" fill="#E0263E"/>
<path d="M27.946 21.8381C30.1902 22.2717 32.3081 22.9208 34.3432 23.7152C36.6655 24.6245 38.2826 23.2934 38.0345 20.9125C37.9174 19.797 38.0414 18.6557 38.0023 17.5285C37.9817 16.9473 38.1149 16.6966 38.7466 16.7294C39.8124 16.7833 40.8828 16.7411 41.9532 16.7458C42.3322 16.7458 42.7227 16.7153 42.9248 17.1747C43.1247 17.6269 42.849 17.9152 42.617 18.2152C42.006 19.0119 41.4019 19.8157 40.7565 20.5844C40.4326 20.9711 40.3958 21.2429 40.7473 21.6507C41.4019 22.4099 41.9968 23.2208 42.6032 24.0222C42.8284 24.3199 43.1362 24.6034 42.9294 25.058C42.7296 25.5033 42.3506 25.4963 41.9601 25.4939C37.6463 25.4916 33.3325 25.4822 29.0187 25.501C28.2286 25.5033 27.9116 25.1705 27.9391 24.3831C27.969 23.57 27.946 22.7544 27.946 21.8358V21.8381Z" fill="#E0263E"/>
<path d="M30.7889 3.38143C28.0141 1.36137 25.1382 -0.178283 21.5205 0.834091C18.0129 -0.171253 15.0751 1.21842 12.3347 3.3205C12.275 3.36737 12.2107 3.41424 12.1441 3.44705C11.2919 3.88059 11.3286 4.40318 11.8937 5.10621C14.8247 8.75263 17.7373 12.4108 20.6361 16.083C21.2448 16.8563 21.7272 16.8938 22.3543 16.0994C25.2531 12.4272 28.1634 8.76669 31.099 5.12496C31.7261 4.34693 31.5653 3.94386 30.7889 3.37909V3.38143ZM19.3865 2.16283C18.4379 4.42661 16.6049 3.19864 15.1807 3.48923C16.3154 2.20736 17.712 1.81834 19.3865 2.16283ZM13.7336 5.07575C15.3277 5.07575 16.8713 4.64924 17.9348 5.19761C18.9754 5.73192 18.9111 7.50357 19.3544 8.71982C19.9746 10.4212 20.4868 12.1624 20.8543 14.0114C18.516 11.0773 16.1776 8.14568 13.7313 5.07575H13.7336ZM27.8579 3.36502C25.5563 3.96026 24.479 3.65561 23.6521 2.14877C25.3036 1.82303 26.6864 2.23782 27.8579 3.36502ZM22.143 14.0231C22.0763 13.9832 22.0097 13.9434 21.9431 13.9036C22.8596 11.1172 23.783 8.33315 24.6788 5.53975C24.796 5.17417 24.9637 5.03357 25.3174 5.03591C26.5601 5.04294 27.8028 5.03825 29.3027 5.03825C26.8059 8.16911 24.4744 11.0961 22.1407 14.0231H22.143Z" fill="#E0263E"/>
</g>
<defs>
<clipPath id="clip0_257_1309">
<rect width="43" height="25" fill="white" transform="translate(0 0.5)"/>
</clipPath>
</defs>
</svg>
