<svg width="93" height="100" viewBox="0 0 93 100" fill="none" xmlns="http://www.w3.org/2000/svg">
<g clip-path="url(#clip0_4843_14024)">
<path d="M63.3652 19.7844C68.205 17.3657 72.8877 15.5216 78.026 15.0829C78.8667 15.013 79.7152 15.0247 80.5598 15.0014C81.6283 14.9703 81.9779 15.4634 81.9976 16.531C82.1154 22.5797 79.9038 27.9373 77.1539 33.3998C73.033 28.279 68.5468 23.8298 63.3652 19.7844Z" fill="#D2D4DB"/>
<path d="M12.1434 83.989C12.8191 81.1782 14.0644 78.8255 15.6593 76.5117C14.2844 76.3447 12.9959 76.2283 11.9941 75.1334C13.3573 74.4113 14.7126 73.7863 15.9579 72.9982C16.9007 72.4003 18.366 71.8334 17.9771 70.4785C17.5921 69.1391 16.1425 70.3388 15.0976 69.8418C16.4372 67.7997 18.091 66.1652 20.3027 65.1054C21.0609 64.7443 21.5873 64.7327 21.878 65.7576C23.1901 70.3465 26.2503 73.2854 30.8661 74.5472C32.0564 74.8733 31.7461 75.3392 31.4357 76.0341C30.4536 78.2393 28.7212 79.7689 26.6745 81.2404C26.4428 80.262 27.5191 79.1633 26.1088 78.3519C25.3978 80.8133 23.854 82.6729 21.7444 84.1249C21.6462 83.9774 21.5244 83.8765 21.5401 83.8105C21.8151 82.6263 22.424 81.2714 21.2612 80.3785C19.9923 79.4001 18.6213 80.2426 17.4428 80.8676C15.6908 81.7955 14.0173 82.8748 12.1395 83.9929L12.1434 83.989Z" fill="#D2D4DB"/>
<path d="M49.494 83.6632C48.5865 78.985 46.5398 75.2579 44.1121 71.7328C43.3657 70.6496 43.2557 70.1837 44.5678 69.4771C49.2701 66.9303 53.5245 63.7352 57.5511 60.2372C58.0225 59.8256 58.5214 59.4413 59.3228 58.7891C57.7357 67.897 54.5223 75.9218 49.494 83.6593V83.6632Z" fill="#D2D4DB"/>
<path d="M12.4648 47.1437C20.3098 42.2287 28.2727 38.9714 37.5515 37.5C36.703 38.5366 36.2159 39.1733 35.6856 39.7789C32.2914 43.638 29.2312 47.7377 26.7249 52.2141C26.1906 53.1691 25.8882 53.3283 24.91 52.6605C21.2605 50.1719 17.4225 48.0328 12.4648 47.1437Z" fill="#D2D4DB"/>
<path d="M39.9661 69.4534C38.0215 70.3425 36.128 71.1384 34.3053 72.0701C33.5314 72.4661 33.2407 72.0546 32.8596 71.6159C30.3533 68.7197 27.6623 65.9943 24.6807 63.5717C23.9422 62.9699 24.0443 62.4652 24.3861 61.7858C24.8182 60.924 25.2189 60.0427 25.6274 59.1691C26.4891 57.3341 27.6728 57.0558 29.1787 58.3344C33.0953 61.6655 36.7212 65.2722 39.9661 69.4496V69.4534Z" fill="#D2D4DB"/>
<path d="M75.5271 34.6052C71.6341 29.7056 67.2068 25.3341 62.2648 21.4596C61.542 20.8927 61.0431 21.0209 60.3674 21.4324C47.062 29.5465 36.2628 40.0948 28.3393 53.4694C27.7893 54.3973 27.9464 54.8399 28.7635 55.4727C33.2144 58.9047 37.1939 62.8259 40.7058 67.1857C41.5937 68.2883 42.1633 68.5562 43.4989 67.7681C56.7965 59.9529 67.3285 49.4085 75.425 36.4299C75.6292 36.1037 75.8178 35.766 76.0574 35.3506C75.8846 35.106 75.7117 34.8459 75.5192 34.6013L75.5271 34.6052ZM61.2985 42.0476C57.5351 42.0981 54.5141 39.1669 54.5573 35.5059C54.6006 31.9962 57.4958 29.1893 61.0942 29.166C64.779 29.1427 67.745 32.0079 67.7489 35.5951C67.7528 39.0698 64.8262 42.001 61.2985 42.0476Z" fill="#D2D4DB"/>
</g>
<defs>
<clipPath id="clip0_4843_14024">
<rect width="70" height="69.125" fill="white" transform="translate(12 15)"/>
</clipPath>
</defs>
</svg>
