<svg width="93" height="100" viewBox="0 0 93 100" fill="none" xmlns="http://www.w3.org/2000/svg">
<g clip-path="url(#clip0_4843_14032)">
<path d="M26.0099 75.0625C24.0998 73.355 22.5282 71.4078 21.5275 69.0183C21.2581 68.3733 21.2507 67.978 21.7622 67.4096C23.1584 65.8553 24.6855 64.4394 26.1508 62.9568C26.1879 62.4156 26.5462 62.0746 26.9069 61.7386C29.1086 59.6925 31.6983 58.4965 34.6908 58.1802C35.5877 58.0394 36.4971 57.9999 37.3817 57.7775C38.6024 57.4785 39.8404 57.3129 41.0908 57.2066C41.6171 57.1992 42.1558 57.2487 42.6006 56.8706C44.8789 55.2446 47.0436 53.463 49.3565 51.884C50.2535 51.37 51.101 50.7646 52.0598 50.3544C53.2928 49.9195 54.5234 49.9096 55.754 50.3594C56.3397 50.7127 57.1576 50.9129 56.7943 51.9038C55.5143 53.4531 54.1132 54.9012 52.9148 56.5222C52.1982 57.4933 51.2172 58.1704 50.1596 58.756C47.7453 60.0904 45.3904 61.5137 43.4852 63.5597C43.0923 63.9823 42.692 64.4024 42.4894 64.9534C42.3016 65.4649 42.3708 65.9369 42.8304 66.2779C43.3073 66.6337 43.8262 66.5571 44.1574 66.1296C46.3368 63.3102 49.4677 61.7781 52.3983 59.9718C53.3892 59.3614 54.1824 58.5188 54.8842 57.602C56.0851 56.0354 57.3454 54.5206 58.744 53.1269C59.2802 52.5932 59.7695 52.0372 59.5471 51.1872C59.3618 50.2531 58.3214 49.791 58.2275 48.8051C58.8972 47.9476 59.8016 47.4312 60.79 47.0358C62.0725 46.5045 63.4242 46.3241 64.7956 46.25C65.3837 46.3142 66.0114 46.2179 66.508 46.6627C67.0962 47.1544 67.9956 47.2804 68.2625 48.1502C68.5343 49.5909 67.6917 50.5101 66.7453 51.3799C66.4883 51.6987 66.2313 52.0199 65.9768 52.3387C65.747 53.1838 65.0032 53.636 64.467 54.2266C62.8509 56.0032 61.215 57.7626 59.5866 59.527C58.2028 61.0813 57.0834 62.8481 55.628 64.348C54.7112 65.2895 53.7006 66.1074 52.68 66.9253C50.9923 68.1905 49.0377 68.5834 46.9867 68.6575C45.9835 68.7119 44.9926 68.8379 44.0313 69.1443C43.7299 69.4828 43.2999 69.473 42.907 69.5471C40.8634 69.9276 38.8224 70.3205 36.8134 70.8642C35.4741 71.1236 34.246 71.6821 33.0352 72.2801C31.3573 73.1968 29.761 74.2396 28.229 75.3837C27.2257 76.1324 26.9564 76.0855 26.0174 75.0575L26.0099 75.0625Z" fill="#D2D4DB"/>
<path d="M32.6716 53.9149C30.9344 54.4907 29.175 55.0294 27.3316 54.5549C26.3185 54.293 25.2337 53.9817 25.209 52.5929C25.6291 51.434 26.1579 50.3368 26.9906 49.4102C27.0796 49.1878 27.1883 48.9802 27.4305 48.8839C28.3546 47.9078 29.2788 46.9293 30.203 45.9532C30.3537 45.4664 30.6675 45.1303 31.1346 44.9327C31.9772 43.9541 32.8174 42.9781 33.66 41.9995C33.7737 41.5844 33.9713 41.2236 34.3469 40.9839C35.5874 39.4568 36.7216 37.8457 38.0881 36.4174C39.8574 34.5691 42.027 33.5065 44.5178 33.0395C46.2747 32.145 48.2343 32.1326 50.1098 31.757C53.2036 31.1368 56.3418 30.6969 59.2799 29.4663C61.3679 28.5224 63.283 27.2893 65.1066 25.9055C65.5934 25.5374 66.0802 25.1123 66.7598 25.4929C68.4252 26.5653 69.7077 28.0257 70.879 29.5973C71.309 30.3831 71.687 31.1936 72.075 31.9992C72.4234 32.7232 72.4333 33.4052 71.9045 34.0501C71.5956 34.4702 71.2052 34.8162 70.8469 35.1942C70.0067 36.0047 69.1913 36.8424 68.3659 37.6702C67.8693 38.1027 67.3627 38.5227 66.8685 38.9552C66.1519 39.6718 65.3587 40.297 64.5556 40.9123C63.965 41.3052 63.3596 41.6684 62.7072 41.955C61.8275 42.2763 60.9305 42.5456 60.0162 42.7532C58.7486 42.9805 57.4958 43.2746 56.2158 43.413C55.0791 43.5217 53.9597 43.7688 52.8107 43.791C51.7506 43.8108 50.8585 44.2531 50.0307 44.9228C47.745 46.7711 45.4543 48.6219 42.9042 50.112C42.1011 50.7026 41.1596 50.9126 40.2132 51.1103C39.3632 51.224 38.5131 51.3203 37.6952 50.9447C36.2521 49.9489 36.2546 49.8179 37.3666 48.5626C38.4958 47.29 39.6325 46.0174 40.6135 44.6213C40.9718 44.2383 41.3425 43.8676 41.7255 43.5093C43.821 42.0613 46.1709 41.0062 48.1527 39.3728C49.0448 38.6364 49.9022 37.8679 50.6065 36.9512C51.0784 36.3359 51.4417 35.6069 50.6633 34.9916C49.9047 34.3936 49.3685 34.9595 48.9212 35.5402C47.8216 36.9685 46.3736 37.9791 44.8934 38.9576C42.8573 40.2994 40.4826 41.1791 38.9406 43.198C37.4506 45.1501 35.8147 46.9688 34.1468 48.7603C33.6526 49.425 33.9367 50.0329 34.2481 50.6655C34.515 51.2091 35.0487 51.565 35.2291 52.158C34.7522 53.2873 33.7984 53.7197 32.679 53.9125L32.6716 53.9149Z" fill="#D2D4DB"/>
<path d="M79.0739 22.7364C79.9314 24.1523 80.8062 25.5608 81.6315 26.9965C81.797 27.2856 82.2641 27.5994 81.7995 28.0417C80.0401 29.7146 78.5081 31.6371 76.3681 32.88C75.4118 33.3149 74.8559 32.8603 74.4679 32.0275C74.1936 31.0292 73.5684 30.1989 73.1286 29.2797C71.8436 26.7963 69.9854 24.8689 67.5465 23.4974C67.2178 23.3319 66.8744 23.1787 66.9386 22.7116C66.8348 22.215 66.9065 21.8418 67.3389 21.4514C68.4657 20.4358 69.5159 19.3337 70.5958 18.2662C72.1822 16.6526 71.6583 16.707 73.9094 17.772C74.4778 18.1946 75.0461 18.6146 75.6145 19.0372C76.2174 19.7489 76.8228 20.458 77.6111 20.9819C78.3969 21.3204 78.7626 22.0074 79.0715 22.7413L79.0739 22.7364Z" fill="#D2D4DB"/>
<path d="M23.5719 82.4992C23.7449 82.3484 23.9377 82.2274 24.123 82.0939C24.8742 81.4687 25.5167 80.7299 26.2283 80.0652C26.6212 79.6328 26.8584 79.1583 26.6361 78.5578C26.2432 77.9771 25.6674 77.6806 25.0076 77.52C22.1091 75.6099 20.1866 72.9065 18.8596 69.7634C18.1826 68.1572 17.1966 67.9076 15.882 69.1258C14.5971 70.3144 13.2948 71.4857 12 72.6644C13.2034 77.9327 17.162 82.1532 22.2845 83.7174C22.5465 83.4851 22.8479 83.1886 23.2161 82.8278C23.3323 82.7142 23.4533 82.6054 23.5719 82.4942V82.4992Z" fill="#D2D4DB"/>
</g>
<defs>
<clipPath id="clip0_4843_14032">
<rect width="70" height="66.7184" fill="white" transform="translate(12 17)"/>
</clipPath>
</defs>
</svg>
