<svg width="93" height="100" viewBox="0 0 93 100" fill="none" xmlns="http://www.w3.org/2000/svg">
<g clip-path="url(#clip0_4843_14017)">
<path d="M47.261 31.2359C47.6518 31.1837 47.7309 31.1489 47.7923 31.1706C51.7969 32.4613 53.7991 35.2269 53.7991 39.4673C53.7991 40.8421 53.8386 42.2212 53.786 43.5917C53.6894 46.1629 52.2623 47.5638 49.6409 47.6073C46.3521 47.6595 43.0633 47.6247 39.7745 47.6377C36.152 47.6464 34.9972 48.8124 34.9972 52.4843C34.9928 63.6306 35.006 74.7813 34.984 85.9276C34.9797 89.2645 33.4604 91.7922 30.4131 93.2148C27.5195 94.5635 24.7005 94.1459 22.2021 92.1794C20.1164 90.5436 19.2777 88.2769 19.2733 85.6883C19.2602 81.1288 19.2426 76.565 19.2821 72.0056C19.2909 70.8831 19.2646 70.2479 17.7453 70.1696C14.4214 69.9999 12.1732 67.7028 12.0942 64.4398C11.9888 60.1762 11.8922 55.8865 12.2171 51.6403C12.5728 46.9634 15.1898 43.4568 19.0933 40.8638C19.7739 40.4114 20.3359 40.4027 21.0824 40.7029C25.1879 42.3735 29.311 42.33 33.4121 40.6506C35.2475 39.898 37.1663 40.3679 39.0413 40.2982C41.3026 40.2112 43.5727 40.2112 45.834 40.2982C47.0152 40.3461 47.3181 39.9502 47.283 38.8277C47.1996 36.3 47.2567 33.768 47.2567 31.2316L47.261 31.2359Z" fill="#D2D4DB"/>
<path d="M81.9897 20.3465C82.0951 23.344 81.4365 26.0719 80.106 28.6126C77.3354 33.8943 72.2551 36.074 66.5161 34.3424C58.6432 31.967 50.9855 28.9824 43.297 26.098C42.6164 25.8413 41.8963 25.6673 41.2552 25.3366C40.0872 24.7406 39.7359 24.8885 39.6393 26.3286C39.2749 31.732 36.5832 35.7085 31.3932 37.5271C26.5412 39.2238 22.0142 38.2667 18.2775 34.5947C13.7988 30.1919 13.4475 23.157 17.3993 18.1886C21.2677 13.3246 28.4776 12.0368 33.7291 15.4738C35.1211 16.3874 36.1749 16.4614 37.6854 15.9436C47.038 12.7459 56.439 9.68309 65.8575 6.67246C74.0773 4.04469 80.0621 9.51777 81.5506 16.1612C81.8712 17.5838 82.0424 19.0108 81.9897 20.3508V20.3465Z" fill="#D2D4DB"/>
<path fill-rule="evenodd" clip-rule="evenodd" d="M69.4462 9.4853C63.6633 9.56796 58.6138 14.6582 58.6094 20.4054L58.6138 20.401C58.605 26.3092 63.6941 31.4255 69.5603 31.4124C74.8865 31.3994 79.1193 26.5658 79.1062 20.5185C79.0886 14.3014 74.8075 9.40699 69.4462 9.4853ZM61.405 21.3832C61.4035 21.3827 61.4019 21.3823 61.4004 21.3818H61.4048C61.4049 21.3823 61.4049 21.3827 61.405 21.3832ZM61.405 21.3832C62.0816 25.2893 64.7203 27.9861 68.2063 28.5168C71.2712 28.9823 73.9189 27.6032 75.3986 24.7709C77.1945 21.3296 76.6105 16.9311 74.0111 14.3294C71.9737 12.2934 69.3523 11.8539 66.7266 13.1069C68.7464 15.7565 69.0274 17.9927 67.5916 19.9853C66.2443 21.8551 64.4407 22.2906 61.405 21.3832Z" fill="#FDFDFD"/>
</g>
<defs>
<clipPath id="clip0_4843_14017">
<rect width="70" height="88" fill="white" transform="translate(12 6)"/>
</clipPath>
</defs>
</svg>
