<svg width="28" height="28" viewBox="0 0 28 28" fill="none" xmlns="http://www.w3.org/2000/svg">
<path fill-rule="evenodd" clip-rule="evenodd" d="M8.92248 2.79567C5.6725 2.79567 3.03786 5.43031 3.03786 8.68029V19.7572C3.03786 23.0072 5.6725 25.6418 8.92248 25.6418H19.9994C23.2494 25.6418 25.884 23.0072 25.884 19.7572V8.68029C25.884 5.43031 23.2494 2.79567 19.9994 2.79567H8.92248ZM0.960938 8.68029C0.960938 4.28326 4.52544 0.71875 8.92248 0.71875H19.9994C24.3964 0.71875 27.9609 4.28325 27.9609 8.68029V19.7572C27.9609 24.1542 24.3964 27.7188 19.9994 27.7188H8.92248C4.52544 27.7188 0.960938 24.1542 0.960938 19.7572V8.68029Z" fill="white"/>
<path d="M20.2233 9.97473C20.1659 9.75034 20.0036 9.58105 19.8177 9.52882C19.4874 9.43672 17.8837 9.22533 14.4939 9.22533C11.104 9.22533 9.50069 9.43681 9.16904 9.52908C8.98487 9.58031 8.82256 9.74957 8.76441 9.97473C8.68245 10.2944 8.46752 11.6328 8.46752 13.7451C8.46752 15.8573 8.68245 17.1958 8.76464 17.5164C8.82178 17.7399 8.98412 17.9091 9.16924 17.9611C9.50069 18.0534 11.104 18.2648 14.4939 18.2648C17.8837 18.2648 19.4874 18.0535 19.8187 17.9611C20.0029 17.9099 20.1652 17.7406 20.2233 17.5155C20.3053 17.1958 20.5202 15.8543 20.5202 13.7451C20.5202 11.6359 20.3053 10.2944 20.2233 9.97473ZM21.6827 9.60061C22.0268 10.9428 22.0268 13.7451 22.0268 13.7451C22.0268 13.7451 22.0268 16.5473 21.6827 17.8896C21.491 18.6319 20.9315 19.2153 20.2224 19.4126C18.9354 19.7714 14.4939 19.7714 14.4939 19.7714C14.4939 19.7714 10.055 19.7714 8.76537 19.4126C8.05357 19.2126 7.49413 18.6291 7.30501 17.8896C6.96094 16.5473 6.96094 13.7451 6.96094 13.7451C6.96094 13.7451 6.96094 10.9428 7.30501 9.60061C7.49675 8.85828 8.0562 8.27482 8.76537 8.07759C10.055 7.71875 14.4939 7.71875 14.4939 7.71875C14.4939 7.71875 18.9354 7.71875 20.2224 8.07759C20.9341 8.27756 21.4936 8.86101 21.6827 9.60061ZM12.9873 16.3816V11.1086L17.507 13.7451L12.9873 16.3816Z" fill="white"/>
</svg>
