<svg width="307" height="125" viewBox="0 0 307 125" fill="none" xmlns="http://www.w3.org/2000/svg">
<rect width="307.001" height="124.283" rx="11" fill="white"/>
<path d="M102.143 47.8597C102.143 53.0559 102.23 58.2558 102.12 63.4483C101.983 69.8139 100.739 75.9515 98.527 81.8501C96.6454 86.8698 94.0686 91.4077 90.8902 95.5522C87.5916 99.8548 83.7983 103.547 79.6139 106.783C75.57 109.909 71.2486 112.461 66.7368 114.649C65.5236 115.237 64.2569 115.693 63.0237 116.23C62.7964 116.33 62.6393 116.271 62.4288 116.19C58.5853 114.712 54.9057 112.851 51.3196 110.725C47.7468 108.607 44.378 106.165 41.203 103.403C40.578 102.859 39.9029 102.94 39.2512 102.833C34.1478 101.988 30.5048 98.9648 28.1854 93.9562C28.0183 93.5921 27.8278 93.4597 27.4802 93.3935C25.2042 92.9633 22.9316 92.5036 20.659 92.055C19.3522 91.7975 18.0488 91.507 16.7387 91.2864C16.1404 91.1871 15.9967 90.8855 16.0001 90.2457C16.0235 83.5233 16.0134 76.801 16.0134 70.075C16.0134 66.1107 16.0268 62.1465 16.0001 58.1859C16.0001 57.5607 16.1538 57.4026 16.7153 57.421C18.129 57.4688 19.5494 57.4026 20.9631 57.4504C21.6549 57.4725 21.9022 57.3107 21.8989 56.4575C21.8655 48.1502 21.8889 39.8392 21.8621 31.5319C21.8621 30.7964 22.0693 30.5501 22.691 30.3919C25.6721 29.6381 28.7001 29.2004 31.7114 28.6525C35.7486 27.9133 39.7926 27.2477 43.8533 26.6593C51.1324 25.6039 58.4282 24.8684 65.7742 25.1442C69.4739 25.284 73.167 25.6223 76.85 26.0967C81.2883 26.6704 85.7166 27.3066 90.1216 28.1119C93.5238 28.7334 96.9127 29.4431 100.308 30.1198C100.903 30.2375 101.699 30.1786 102.03 30.5758C102.414 31.0355 102.147 31.9217 102.147 32.6204C102.157 37.699 102.153 42.7775 102.153 47.856H102.14H102.143V47.8597Z" fill="#1D2C4E"/>
<path d="M62.297 8.00368C63.3297 9.39007 64.319 10.6919 65.2849 12.0194C68.7272 16.7412 74.4289 17.5061 78.7837 13.7993C79.9768 12.7843 81.1298 11.7179 82.45 10.5448C82.3096 12.1518 82.2027 13.5639 82.0623 14.9724C81.815 17.4436 81.5242 19.9112 81.3003 22.3824C81.2501 22.923 81.1399 23.0921 80.6385 23.0002C77.517 22.4302 74.3721 22.0478 71.2271 21.6874C66.6819 21.1652 62.1265 21.0696 57.5646 21.3527C55.0112 21.5109 52.4645 21.7683 49.9278 22.1103C47.8189 22.3971 45.6934 22.5405 43.6012 22.9671C43.1433 23.059 42.8258 23.1436 42.7556 22.3309C42.4181 18.4328 41.9803 14.5421 41.5625 10.4933C42.368 11.2472 43.0999 11.9091 43.8084 12.6005C45.289 14.042 46.8096 15.399 48.7614 16.0168C52.411 17.1788 56.3581 15.855 58.7644 12.6078C59.9074 11.067 61.0337 9.51142 62.297 8V8.00368Z" fill="#E0263E"/>
<path d="M158.923 42.6946C157.653 46.0301 156.386 49.3692 155.11 52.7009C153.873 55.9297 152.623 59.1511 151.383 62.3725C151.293 62.6079 151.286 62.9425 150.982 62.9535C150.685 62.9609 150.645 62.652 150.551 62.4056C148.84 57.978 147.125 53.5504 145.398 49.1301C144.562 46.9935 143.69 44.8717 142.707 42.7424V43.375C142.707 48.7477 142.747 54.1204 142.684 59.4931C142.667 61.0817 143.516 62.3063 145.077 62.2806C145.13 62.2806 145.184 62.2879 145.237 62.2879C145.491 62.2879 145.735 62.31 145.712 62.6998C145.688 63.0749 145.418 62.9719 145.227 62.9756C143.329 62.983 141.434 62.9756 139.535 62.9756H138.894C138.693 62.9756 138.529 62.9609 138.539 62.6557C138.546 62.3799 138.68 62.31 138.894 62.31C139.027 62.31 139.161 62.2953 139.295 62.2843C140.765 62.1592 141.457 61.3833 141.464 59.7432C141.484 56.1908 141.474 52.6384 141.474 49.086C141.474 47.0009 141.484 44.9158 141.454 42.8344C141.434 41.3928 140.849 40.8302 139.512 40.7677C139.198 40.7529 138.616 41.0435 138.606 40.4698C138.593 39.7564 139.225 40.1131 139.552 40.1094C141.821 40.0726 144.094 40.1094 146.367 40.0763C146.922 40.0689 147.192 40.2528 147.416 40.8412C149.184 45.4674 150.996 50.0752 152.794 54.6904C152.824 54.7676 152.871 54.8412 152.964 55.0177C153.282 54.227 153.589 53.5099 153.863 52.7781C155.344 48.8139 156.828 44.8496 158.278 40.8706C158.489 40.2969 158.746 40.0763 159.324 40.0873C161.674 40.1278 164.026 40.0984 166.379 40.1168C166.627 40.1168 167.041 39.9035 167.071 40.4293C167.105 41.0067 166.663 40.764 166.429 40.7713C164.705 40.8228 164.184 41.3597 164.177 43.2646C164.164 48.8433 164.164 54.4219 164.174 59.9969C164.174 61.74 164.688 62.2696 166.302 62.2953H166.784C167.038 62.2953 167.085 62.4645 167.085 62.6998C167.085 62.9535 166.941 62.9756 166.77 62.9756H165.006C162.309 62.9756 159.608 62.9866 156.911 62.9609C156.674 62.9609 156.189 63.2698 156.193 62.6299C156.196 62.082 156.624 62.3174 156.864 62.31C158.649 62.2475 159.097 61.8062 159.104 59.8498C159.124 54.2417 159.114 48.6337 159.114 43.0293C159.114 42.9226 159.087 42.816 159.073 42.7093L158.926 42.6983V42.6909L158.923 42.6946Z" fill="#E0263E"/>
<path d="M177.202 62.9821C174.424 62.9821 171.644 62.9821 168.866 62.971C168.626 62.971 168.198 63.1807 168.228 62.6143C168.251 62.1399 168.622 62.3238 168.85 62.3128C169.648 62.2723 170.484 62.3532 170.932 61.3861C171.152 60.9043 171.199 60.3638 171.199 59.8452C171.216 54.2372 171.226 48.6328 171.199 43.0247C171.193 41.5022 170.477 40.8072 169.084 40.7852C168.896 40.7852 168.709 40.7852 168.522 40.7815C168.372 40.7778 168.268 40.7079 168.268 40.5241C168.268 40.3402 168.298 40.16 168.502 40.1342C168.686 40.1122 168.876 40.1122 169.06 40.1122C174.324 40.1122 179.588 40.1269 184.848 40.0938C185.54 40.0901 185.684 40.3144 185.664 41.0242C185.617 42.7563 185.657 44.4883 185.64 46.2204C185.64 46.4594 185.848 46.8419 185.433 46.9412C184.965 47.0515 185.036 46.6175 184.955 46.3381C184.541 44.8634 184.237 43.3299 182.877 42.4473C182.008 41.881 181.089 41.5464 180.093 41.5133C178.973 41.4765 177.847 41.5133 176.727 41.4802C176.306 41.4655 176.192 41.6052 176.196 42.0649C176.212 44.7641 176.216 47.467 176.179 50.1663C176.172 50.762 176.386 50.8355 176.837 50.8061C178.532 50.6921 179.722 49.6257 180.206 47.7355C180.37 47.0919 180.564 46.4484 180.54 45.7644C180.53 45.4739 180.644 45.3378 180.921 45.3562C181.209 45.3746 181.175 45.5989 181.175 45.7975V56.8923C181.175 57.1019 181.249 57.374 180.891 57.3703C180.52 57.3703 180.55 57.1092 180.534 56.8408C180.47 55.8037 180.183 54.8366 179.732 53.9283C179.06 52.5676 177.95 52.0859 176.607 52.0565C176.296 52.0491 176.186 52.1557 176.189 52.5014C176.206 54.9947 176.162 57.4917 176.236 59.985C176.276 61.364 176.757 61.7649 178.041 61.7391C179.287 61.717 180.527 61.8053 181.774 61.4633C184.103 60.8198 185.4 59.073 186.289 56.7967C186.319 56.7157 186.306 56.6054 186.352 56.5466C186.546 56.2855 186.413 55.6272 186.937 55.7964C187.332 55.9251 187.118 56.4142 187.081 56.7084C186.847 58.5876 186.54 60.4594 186.326 62.3422C186.262 62.9012 186.072 62.9931 185.624 62.9931C182.82 62.9747 180.012 62.9821 177.208 62.9821H177.202Z" fill="#E0263E"/>
<path d="M287.138 54.0263V51.2682C287.138 48.922 287.158 46.5721 287.131 44.2259C287.104 41.9386 286.362 40.8611 284.467 40.8022C284.263 40.7949 284.1 40.7765 284.106 40.475C284.113 40.1881 284.273 40.1366 284.477 40.1366H290.647C290.861 40.1366 290.994 40.1918 291.001 40.475C291.008 40.7728 290.841 40.7544 290.654 40.817C288.491 41.5672 288.281 41.8724 288.281 44.4282C288.274 50.4739 288.281 56.5196 288.271 62.5652C288.271 62.8778 288.468 63.3265 288.097 63.4993C287.686 63.6905 287.492 63.2492 287.281 62.9661C284.033 58.5532 280.804 54.1219 277.529 49.731C276.262 48.0321 274.775 46.5353 273.692 44.6672C273.465 44.8364 273.529 44.9982 273.529 45.1269C273.525 49.823 273.515 54.519 273.529 59.2151C273.535 61.3554 274.331 62.2416 276.316 62.4365C276.516 62.4549 276.857 62.2527 276.877 62.6903C276.901 63.2051 276.51 63.0065 276.296 63.0102C274.187 63.0249 272.075 63.0249 269.966 63.0102C269.752 63.0102 269.371 63.2235 269.371 62.7087C269.371 62.2379 269.762 62.385 269.976 62.3446C270.601 62.2232 271.253 62.2232 271.724 61.6422C272.255 60.9839 272.392 60.1749 272.396 59.3548C272.412 54.0446 272.409 48.7308 272.402 43.4206C272.402 42.4313 271.052 41.0707 269.889 40.817C269.695 40.7728 269.354 40.9714 269.368 40.5044C269.381 40.0263 269.718 40.1477 269.959 40.1477C272.095 40.1403 274.234 40.1624 276.369 40.133C276.851 40.1256 277.085 40.3977 277.339 40.7544C280.457 45.0938 283.582 49.4295 286.706 53.7615C286.797 53.8865 286.833 54.1035 287.138 54.0336V54.0263Z" fill="#E0263E"/>
<path d="M244.021 57.8626C244.569 59.4843 243.717 60.3743 242.768 61.1686C241.007 62.6469 239.011 63.4192 236.786 63.5295C234.169 63.6582 231.662 63.1912 229.443 61.6577C226.489 59.6167 224.938 56.5351 224.801 52.7363C224.6 47.1209 226.973 43.0904 231.542 40.6854C233.761 39.5159 236.161 39.4497 238.574 39.9572C239.73 40.1999 240.803 40.7111 241.909 41.1193C242.875 41.4797 243.299 41.2627 243.747 40.2183C243.851 39.9756 243.864 39.6005 244.259 39.7145C244.603 39.8175 244.483 40.1374 244.483 40.3728C244.493 42.513 244.503 44.657 244.483 46.7972C244.483 47.0694 244.663 47.5217 244.222 47.5916C243.751 47.6688 243.791 47.187 243.704 46.8745C242.848 43.8296 241.09 41.8548 238.186 41.2186C235.522 40.6376 232.324 42.6528 231.325 45.4366C229.824 49.6215 229.968 53.7807 231.371 57.9214C232.19 60.3338 233.858 61.6467 236.181 61.9225C239.342 62.3013 241.742 60.7714 243.717 58.2193C243.801 58.1127 243.891 58.0097 244.021 57.8516V57.8626Z" fill="#E0263E"/>
<path d="M217.335 63.0164C215.704 63.0164 214.077 63.0238 212.449 63.0054C212.235 63.0054 211.841 63.204 211.844 62.7038C211.844 62.2368 212.208 62.3765 212.449 62.3692C212.904 62.3581 213.345 62.2809 213.786 62.1669C214.291 62.0345 214.571 61.6705 214.682 61.1593C214.778 60.707 214.845 60.2326 214.849 59.7692C214.862 54.3414 214.865 48.9098 214.855 43.4819C214.855 41.3932 214.344 40.8526 212.429 40.7864C212.202 40.779 211.831 40.9592 211.844 40.4554C211.857 39.981 212.215 40.1208 212.449 40.1208C215.734 40.1134 219.02 40.1134 222.305 40.1208C222.512 40.1208 222.823 39.9957 222.843 40.4297C222.866 40.9445 222.509 40.768 222.282 40.7901C221.964 40.8232 221.63 40.7643 221.326 40.8415C220.25 41.1063 219.832 41.805 219.828 43.3643C219.818 48.1192 219.822 52.8741 219.818 57.6253C219.818 58.3865 219.812 59.1514 219.825 59.9127C219.852 61.6741 220.3 62.2037 221.891 62.3692C221.997 62.3802 222.108 62.3618 222.211 62.3839C222.439 62.4391 222.823 62.2221 222.833 62.6891C222.846 63.1709 222.459 63.0017 222.231 63.0054C221.296 63.0238 220.363 63.0127 219.427 63.0127H217.335V63.0164Z" fill="#E0263E"/>
<path d="M131.181 74.0223C129.968 77.2106 128.758 80.4026 127.444 83.8631C126.104 80.4284 124.858 77.229 123.608 74.026C123.554 74.037 123.504 74.0517 123.451 74.0628V80.9653C123.451 82.1972 123.982 83.0504 125.048 83.5284H121.539C121.616 83.1607 121.893 83.3078 122.06 83.2269C122.538 82.9952 122.829 82.6569 122.826 82.0317C122.812 79.3325 122.809 76.6296 122.826 73.9304C122.832 73.2611 122.525 72.9853 122 72.8492C121.843 72.8088 121.616 72.9522 121.492 72.5072H125.382C125.683 72.5072 125.65 72.794 125.73 73.0037C126.596 75.2175 127.471 77.4313 128.4 79.7848C128.818 78.6853 129.202 77.7034 129.57 76.7105C130.018 75.4969 130.449 74.276 130.894 73.0625C131.001 72.772 131.071 72.4815 131.482 72.4925C132.628 72.5293 133.778 72.5072 134.927 72.5109C135.028 72.5109 135.141 72.5109 135.155 72.6764C135.085 72.9117 134.904 72.8345 134.76 72.8455C134.069 72.886 133.751 73.3457 133.748 74.048C133.734 76.7473 133.748 79.4502 133.741 82.1494C133.741 83.2048 134.476 83.249 135.135 83.5174H129.924C129.954 83.4365 129.968 83.3519 129.991 83.3446C131.355 83.0798 131.361 83.0798 131.365 81.4838C131.371 79.0015 131.365 76.5193 131.365 74.037C131.305 74.037 131.244 74.0297 131.184 74.026H131.181V74.0223Z" fill="#1D2C4E"/>
<path d="M151.284 75.0296V80.8252C150.89 80.623 150.924 80.2957 150.86 80.0088C150.643 79.0012 150.075 78.3871 149.356 78.3135C149.062 78.2841 148.912 78.3466 148.918 78.7181C148.942 79.8912 148.945 81.0643 148.952 82.2374C148.952 82.6566 149.135 82.8699 149.516 82.9397C150.783 83.1714 152.852 82.9471 153.591 80.9061C153.691 80.6266 153.824 80.3619 154.045 79.8581C154.189 81.2408 153.768 82.2925 153.748 83.381C153.744 83.6201 153.54 83.609 153.383 83.609H145.148C145.155 83.484 145.145 83.3847 145.162 83.381C146.007 83.1052 146.432 82.4764 146.435 81.4872V75.151C146.435 73.9411 145.991 73.1026 145.102 72.6319C145.289 72.4334 145.506 72.5106 145.7 72.5106C148.076 72.5032 150.452 72.5179 152.829 72.4922C153.306 72.4922 153.49 72.5988 153.46 73.1652C153.413 74.0294 153.447 74.9009 153.447 75.7504C153.176 75.8203 153.159 75.6768 153.123 75.5297C152.692 73.8014 152.006 73.2166 150.395 73.1983C149.416 73.1872 148.928 73.7057 148.928 74.7538C148.928 75.5445 148.952 76.3388 148.922 77.1294C148.902 77.5928 149.075 77.659 149.436 77.6259C150.115 77.5597 150.663 76.9566 150.86 75.971C150.92 75.6695 150.867 75.3275 151.288 75.0406V75.0296H151.284Z" fill="#1D2C4E"/>
<path d="M234.869 83.4409C234.993 83.1762 235.234 83.3049 235.418 83.2571C235.889 83.1357 236.166 82.8489 236.163 82.2826C236.159 79.4656 236.156 76.6487 236.166 73.8318C236.166 73.2361 235.839 73.0191 235.411 72.8536C235.23 72.7838 234.98 72.9603 234.859 72.6551C235.003 72.3866 235.24 72.5006 235.431 72.5006C237.807 72.4896 240.183 72.508 242.56 72.4822C243.038 72.4822 243.231 72.5999 243.208 73.1589C243.171 74.0157 243.198 74.8762 243.198 75.7625C242.847 75.6816 242.857 75.4499 242.834 75.3138C242.556 73.8723 241.654 73.1846 240.033 73.1809C238.596 73.1809 238.596 73.1736 238.596 74.7144C238.596 75.4756 238.633 76.2442 238.586 77.0018C238.546 77.6233 238.803 77.6784 239.251 77.6012C239.909 77.4835 240.267 77.0165 240.474 76.3766C240.601 75.9795 240.685 75.5676 240.929 75.1814V80.7123C240.594 80.7307 240.718 80.4144 240.665 80.2232C240.434 79.359 240.15 78.5426 239.211 78.3293C238.803 78.2374 238.556 78.2852 238.586 78.8699C238.639 79.8922 238.633 80.9182 238.643 81.9442C238.653 82.7349 239.08 83.0438 239.722 83.0254C241.791 82.9739 242.867 82.437 243.515 80.4181C243.559 80.2894 243.542 80.1165 243.826 80.1092C243.87 81.2051 243.576 82.2568 243.492 83.3306C243.472 83.6064 243.258 83.6064 243.064 83.6064C240.367 83.5991 237.67 83.588 234.976 83.5733C234.946 83.5733 234.916 83.5035 234.869 83.4409Z" fill="#1D2C4E"/>
<path d="M217.399 72.5828C216.44 73.1712 215.959 74.0574 215.959 75.2452C215.959 77.8305 215.959 80.412 215.952 82.9972C215.952 83.273 216.056 83.5783 215.778 83.9313C213.532 80.9011 211.307 77.8967 209.081 74.8959C209.024 74.9069 208.964 74.9143 208.907 74.9253V76.2602C208.907 77.9923 208.907 79.7243 208.91 81.4564C208.91 82.7987 209.087 83.0193 210.334 83.2878C210.391 83.2988 210.438 83.3834 210.581 83.5305H207.019C208.489 83.2069 208.402 81.9749 208.402 80.8018C208.402 79.0698 208.376 77.3377 208.412 75.6056C208.439 74.3075 208.469 73.0572 206.828 72.7409C206.882 72.6637 206.935 72.5865 206.992 72.5129C208.118 72.5129 209.244 72.4945 210.367 72.5276C210.605 72.535 210.712 72.8586 210.855 73.0645C212.326 75.1055 213.8 77.1391 215.371 79.1543C215.391 77.2862 215.618 75.4328 215.287 73.5977C215.163 72.9101 214.462 72.9947 213.83 72.5865H217.403H217.399V72.5828Z" fill="#1D2C4E"/>
<path d="M195.984 72.5703H201.208C201.175 72.6806 201.165 72.7652 201.141 72.7726C199.824 73.0373 199.784 73.0631 199.808 74.5929C199.838 76.7626 199.764 78.9323 199.861 81.1019C199.918 82.367 200.72 82.8708 201.499 83.0252C202.498 83.2275 203.564 82.617 203.975 81.694C204.323 80.907 204.376 80.0612 204.39 79.2191C204.417 77.8106 204.413 76.4022 204.393 74.9901C204.37 73.1513 204.243 73.1697 203.003 72.5997H206.422C206.398 72.8461 206.258 72.8241 206.128 72.8388C205.339 72.9086 205.018 73.4272 205.018 74.2472C205.018 75.5086 205.028 76.7736 205.008 78.035C204.995 78.9727 204.981 79.9141 204.894 80.8445C204.774 82.161 204.062 83.0804 202.986 83.5437C201.846 84.0328 200.64 84.0439 199.457 83.6136C198.167 83.1429 197.401 81.9625 197.375 80.3223C197.348 78.5608 197.365 76.7993 197.365 75.0379C197.365 73.8868 196.907 73.0631 195.988 72.574L195.984 72.5703Z" fill="#1D2C4E"/>
<path d="M262.558 72.3134C262.672 73.5932 262.799 74.7589 262.602 75.9724C262.364 75.4503 262.157 74.9097 261.883 74.4095C261.268 73.2843 260.078 72.74 259.029 72.9937C258.484 73.1224 258.183 73.5049 258.02 74.005C257.846 74.5493 258.03 75.031 258.424 75.4208C259.27 76.263 260.382 76.5829 261.322 77.2485C261.749 77.5501 262.174 77.8406 262.521 78.2524C264.022 80.025 263.41 82.772 261.332 83.6031C260.336 84.0003 259.333 84.0113 258.371 83.5443C257.659 83.1986 257.03 83.0257 256.419 83.9966V79.5837C256.76 79.933 256.743 80.2714 256.833 80.5472C257.381 82.2277 258.578 83.2979 259.918 83.2685C260.697 83.2537 261.338 82.9265 261.606 82.077C261.86 81.2679 261.499 80.6354 260.924 80.1831C259.975 79.4366 258.832 79.0541 257.879 78.2966C257.07 77.653 256.429 76.9102 256.365 75.7518C256.228 73.1703 258.518 71.5559 260.87 72.5745C261.017 72.637 261.165 72.7179 261.302 72.8025C261.836 73.1298 262.311 73.2364 262.558 72.3171V72.3134Z" fill="#1D2C4E"/>
<path d="M288.41 83.5589H282.829C282.986 83.1397 283.29 83.3015 283.514 83.2757C284.116 83.2096 284.4 82.8859 284.443 82.2019C284.55 80.5361 284.373 78.9805 283.478 77.5426C282.866 76.5608 282.445 75.4428 281.913 74.3984C281.539 73.6703 281.185 72.8981 280.336 72.5892H285.105C285.098 72.6333 285.102 72.7289 285.082 72.7363C283.952 73.1261 283.942 73.1334 284.517 74.3102C285.155 75.6194 285.817 76.9175 286.532 78.3443C287.338 76.763 288.31 75.3619 288.965 73.7402C289.106 73.3872 288.975 73.1812 288.701 73.0452C288.451 72.9238 288.187 72.8319 287.949 72.5781H290.874C289.052 74.3065 288.083 76.7226 286.98 78.9842C286.485 79.9992 286.786 81.3966 286.917 82.6138C286.963 83.0367 287.291 83.2353 287.675 83.2574C287.926 83.2721 288.177 83.2574 288.424 83.2574C288.421 83.353 288.417 83.4523 288.414 83.5479V83.5589H288.41Z" fill="#1D2C4E"/>
<path d="M279.625 75.4883C279.23 75.4257 279.24 75.1683 279.18 75.0028C278.629 73.451 278.057 73.0648 276.577 73.1752C276.186 73.2046 276.102 73.3627 276.102 73.7599C276.119 76.4554 276.102 79.1547 276.119 81.8502C276.122 82.6887 276.557 83.1667 277.309 83.2697C277.436 83.2881 277.556 83.3359 277.68 83.3763C277.686 83.3763 277.683 83.4278 277.69 83.5308H272.285C272.336 83.4168 272.349 83.3359 272.376 83.3285C273.729 83.0969 273.736 83.0969 273.739 81.5634C273.743 79.0407 273.723 76.5216 273.753 73.9989C273.759 73.3701 273.662 73.1347 273.027 73.1715C271.751 73.245 271.246 73.6312 270.812 75.0985C270.765 75.2529 270.818 75.4883 270.574 75.4588C270.324 75.4294 270.444 75.1941 270.414 75.047C270.404 74.9918 270.404 74.9293 270.407 74.8705C270.414 74.1092 270.157 73.12 270.497 72.653C270.852 72.1675 271.794 72.5059 272.479 72.4985C274.588 72.4801 276.697 72.5353 278.803 72.4691C279.548 72.447 279.712 72.7081 279.645 73.4473C279.588 74.1056 279.631 74.7748 279.631 75.4883H279.625Z" fill="#1D2C4E"/>
<path d="M182.972 83.6104C183.895 83.1213 184.356 82.2718 184.359 81.0546C184.359 79.1166 184.366 77.1786 184.359 75.2443C184.352 74.0895 184.673 72.7105 182.969 72.5781H188.216C188.192 72.6774 188.189 72.7694 188.169 72.773C187.25 72.9716 186.792 73.5968 186.789 74.6485C186.789 77.0536 186.806 79.4623 186.782 81.8673C186.775 82.669 187.073 83.011 187.785 82.9485C187.838 82.9485 187.892 82.9485 187.945 82.9485C190.559 82.9595 190.846 82.7462 191.855 80.0801C191.902 79.9587 191.886 79.7785 192.203 79.7344C192.153 80.5876 192.113 81.426 192.049 82.2608C192.026 82.5807 191.932 82.8933 191.919 83.2132C191.906 83.5185 191.789 83.6178 191.528 83.6178C188.677 83.6178 185.826 83.6178 182.979 83.6178L182.972 83.6104Z" fill="#1D2C4E"/>
<path d="M229.825 80.2345C230.771 78.1641 231.509 76.1379 232.258 74.1153C232.458 73.571 232.268 73.1408 231.716 72.9679C231.492 72.8981 231.272 72.8245 231.061 72.6002H234.417C232.535 73.8689 232.221 76.0974 231.375 77.9582C230.57 79.7307 229.892 81.5731 229.156 83.3824C229.083 83.5626 229.046 83.8274 228.815 83.8053C228.555 83.7832 228.545 83.4743 228.468 83.2794C227.251 80.1757 226.095 77.0425 224.805 73.9682C224.537 73.332 224.126 73.001 223.648 72.5781H228.411C228.378 72.6737 228.368 72.762 228.341 72.7657C227.138 73.0599 227.057 73.2364 227.565 74.5198C228.301 76.3843 229.039 78.2487 229.825 80.2345Z" fill="#1D2C4E"/>
<path d="M217.883 83.5313C218.15 83.1378 218.414 83.3217 218.631 83.2629C219.076 83.1415 219.343 82.8841 219.343 82.3582C219.343 79.4825 219.357 76.6067 219.333 73.731C219.327 72.7565 218.508 72.9403 217.98 72.6094H223.157C223.147 72.6645 223.143 72.7565 223.123 72.7602C221.796 73.0874 221.78 73.1132 221.78 74.6062V80.8578C221.78 82.1486 222.288 83.0422 223.304 83.535H217.883V83.5313Z" fill="#1D2C4E"/>
<path d="M120.824 83.5447H115.624C115.637 83.4601 115.637 83.3681 115.657 83.3608C116.57 83.1217 117.028 82.4525 117.028 81.3566V75.0167C117.028 73.8179 116.556 73.0088 115.617 72.5859H120.811C119.076 72.6705 119.41 74.0716 119.404 75.2263C119.397 77.2526 119.404 79.2752 119.404 81.3014C119.404 82.4451 119.878 83.1916 120.821 83.541L120.824 83.5447Z" fill="#1D2C4E"/>
<path d="M166.016 72.5506H171.38C171.353 72.6609 171.346 72.7528 171.326 72.7565C170.414 72.9735 169.956 73.606 169.956 74.6467V81.0638C169.956 82.292 170.431 83.1084 171.376 83.5093H166.169C166.183 83.432 166.183 83.3364 166.199 83.3328C167.098 83.1452 167.55 82.52 167.55 81.461V74.4297C167.55 73.0948 167.52 73.0617 166.296 72.808C166.236 72.7969 166.189 72.7124 166.016 72.5469V72.5506Z" fill="#1D2C4E"/>
<path d="M269.501 72.5256C269.494 72.6617 269.501 72.7095 269.487 72.7131C268.558 73.0809 268.094 73.8384 268.094 74.9858V81.3257C268.094 82.4473 268.558 83.1717 269.491 83.499H264.304C264.337 83.4218 264.35 83.3372 264.38 83.3335C265.677 83.0835 265.704 83.0651 265.714 81.6051C265.727 79.3729 265.714 77.1444 265.714 74.9122C265.714 73.7502 265.243 72.9853 264.297 72.6175C266.025 72.441 267.756 72.4925 269.494 72.5256H269.501Z" fill="#1D2C4E"/>
<path d="M48.144 58.9819C47.4088 59.5592 46.6367 60.0851 45.9449 60.7176C43.2445 63.1889 41.7673 66.3956 41.3061 70.2789C40.9819 69.6096 41.0521 68.9109 40.8916 68.2747C39.5214 62.8358 36.3664 59.3349 31.4301 57.8198C30.1233 57.419 28.7464 57.3859 27.3861 57.4447C26.8982 57.4668 26.7578 57.3234 26.7578 56.7718C26.7745 49.7037 26.7745 42.6321 26.7578 35.5641C26.7578 35.0529 26.945 34.9132 27.3226 34.847C30.7817 34.2439 34.2408 33.6261 37.6999 33.034C40.3769 32.578 43.0573 32.1183 45.741 31.7211C48.7991 31.2688 51.8738 30.9857 54.9519 30.7503C56.8369 30.6069 58.7252 30.4488 60.6168 30.4708C60.8274 30.8128 60.6034 31.0886 60.4865 31.3644C58.8789 35.1669 57.1276 38.8958 55.5067 42.6909C53.5783 47.2031 51.4828 51.627 49.5945 56.1613C49.1868 57.1432 48.7824 58.1361 48.1474 58.9819H48.144Z" fill="#F1F7FD"/>
<path d="M66.577 67.7161C66.577 65.278 66.577 62.8399 66.5837 60.4018C66.821 59.6516 67.3657 59.1404 67.8403 58.6072C69.8924 56.3051 71.8007 53.8596 73.7592 51.4693C76.4463 48.1854 79.2069 44.9676 81.8338 41.6248C83.5583 39.4331 85.3931 37.3517 87.1711 35.2151C87.6992 34.5789 88.0434 33.7184 88.8556 33.3984C90.6804 33.5382 92.455 34.0493 94.2598 34.3399C95.0986 34.4759 95.9275 34.6635 96.7663 34.8106C97.1106 34.8731 97.3479 34.954 97.3412 35.4468C97.3111 38.4586 97.3078 41.4741 97.2944 44.4859C96.9368 45.1588 96.2784 45.4236 95.7403 45.8428C90.5567 49.8733 85.2929 53.7787 80.0758 57.765C75.848 60.9975 71.6169 64.2189 67.3524 67.3962C67.1184 67.5691 66.9112 67.8449 66.5703 67.7198H66.577V67.7161Z" fill="#F1F7FD"/>
<path d="M62.6337 57.3625C59.8229 57.4912 57.0122 57.5022 54.2015 57.3625C54.0444 57.0499 54.2282 56.7962 54.3385 56.5424C55.7556 53.196 57.2829 49.9047 58.7167 46.5693C60.7888 41.7482 62.9946 36.9969 65.0467 32.1648C65.2906 31.5911 65.4577 30.9476 65.9891 30.5762C68.2217 30.4732 70.4375 30.7637 72.6533 30.9586C75.0262 31.1682 77.3958 31.4734 79.7587 31.8118C80.8582 31.9699 81.9812 32.0067 83.054 32.3744C83.1509 32.7458 82.9437 32.9959 82.7432 33.2239C80.6276 35.5811 78.6625 38.0891 76.6472 40.542C74.7221 42.8882 72.7636 45.2049 70.8887 47.6026C69.6387 49.1986 68.2618 50.6769 67.0219 52.284C65.8154 53.8506 64.4317 55.237 63.2787 56.8513C63.1049 57.0941 62.8743 57.2228 62.6403 57.3588H62.6337V57.3625Z" fill="#F1F7FD"/>
<path d="M74.9734 103.766C73.1686 105.126 71.277 106.318 69.2984 107.348C68.9509 107.421 68.6133 107.373 68.2724 107.274C62.6777 105.645 57.0696 104.075 51.4883 102.402C50.7163 102.17 49.9275 102.015 49.1522 101.791C48.7745 101.681 48.3501 101.637 48.1328 101.188C50.8733 99.4007 52.9923 96.9736 54.3859 93.8074C55.1279 93.4985 55.9066 93.5316 56.6719 93.5279C65.9363 93.5205 75.204 93.5205 84.4683 93.5279C84.9095 93.5279 85.3874 93.4212 85.755 93.8368C84.2745 95.6314 82.7404 97.3634 80.9624 98.816C80.558 98.9925 80.1336 99.0146 79.7025 99.0146C72.8912 99.0146 66.0766 99.0146 59.2654 99.0146C58.7674 99.0146 58.2728 98.9116 57.7748 98.919C57.6679 98.9558 57.8016 99.1029 57.7548 98.9999C57.7414 98.9668 57.7648 98.9558 57.8183 98.9484C58.1993 98.8749 58.5669 98.9705 58.9212 99.0771C64.0246 100.611 69.1882 101.872 74.3016 103.361C74.5489 103.435 74.8497 103.424 74.9667 103.762H74.9734V103.766Z" fill="#E0263E"/>
<path d="M97.2844 51.1356C97.2944 55.3426 97.3044 59.5495 97.3044 63.7565C97.3044 63.9514 97.2209 64.15 97.1741 64.3449C96.3118 65.1319 95.2256 65.4187 94.2197 65.8453C89.5641 67.8274 84.9586 69.9346 80.3265 71.9719C75.9884 73.8768 71.6537 75.7853 67.3223 77.705C67.0817 77.8116 66.8444 77.9992 66.5703 77.7969V74.2372C67.1418 73.3913 67.9907 72.9133 68.7561 72.347C71.8977 70.0228 75.0192 67.6693 78.1374 65.3047C81.0551 63.0909 83.9761 60.8771 86.9004 58.6743C90.0921 56.2729 93.2371 53.798 96.489 51.4923C96.7329 51.3195 96.9602 51.0915 97.2844 51.1393V51.1356Z" fill="#F1F7FD"/>
<path d="M41.2685 74.7918C47.408 74.6778 52.488 80.1682 52.5481 87.0302C52.615 94.4035 47.164 99.699 41.1615 99.6438C35.0054 99.5886 29.8652 93.9585 29.8986 87.1369C29.932 80.5175 34.8249 74.6447 41.2685 74.7918Z" fill="#F1F7FD"/>
<path d="M97.2844 51.1253C94.5606 53.1737 91.8334 55.2257 89.1096 57.274C81.904 62.6982 74.7017 68.1224 67.4961 73.5466C67.1886 73.7783 66.8778 73.9989 66.5703 74.2232V67.7068C70.7613 64.5148 74.9457 61.3192 79.1434 58.1382C82.7328 55.4206 86.3323 52.7213 89.9284 50.0148C92.3815 48.1687 94.8346 46.3226 97.2877 44.4766V51.1253H97.2844Z" fill="#E0263E"/>
<path d="M66.5703 77.7958C71.4665 75.6261 76.3627 73.4527 81.2623 71.2904C86.4593 68.9957 91.6596 66.7047 96.8599 64.4173C96.9569 64.3732 97.0671 64.3695 97.1741 64.3438C97.1741 66.3884 96.8934 68.3999 96.5291 70.3968C96.2985 70.6983 95.991 70.8749 95.6601 71.0036C92.5653 72.2134 89.5741 73.7101 86.5194 75.034C80.136 77.7994 73.7759 80.6311 67.4125 83.4553C67.1452 83.573 66.8778 83.7422 66.5703 83.584V77.7958Z" fill="#E0263E"/>
<path d="M62.6328 57.3631C65.1561 54.2704 67.6794 51.1777 70.2061 48.0886C73.4245 44.1575 76.643 40.2263 79.8715 36.3025C80.9409 35.0044 82.0906 33.7835 83.0498 32.375C84.9916 32.6251 86.9267 32.9229 88.835 33.401C86.9367 35.6994 85.0384 37.9941 83.1467 40.2925C81.0211 42.8777 78.9089 45.474 76.78 48.0592C73.7387 51.7513 70.694 55.4435 67.6426 59.1246C67.285 59.5548 67.0143 60.077 66.5598 60.4043C66.5498 59.7056 66.4863 58.9995 66.5464 58.3045C66.6066 57.5764 66.2991 57.4256 65.731 57.3888C64.6982 57.319 63.6655 57.5984 62.6328 57.3594V57.3631Z" fill="#E0263E"/>
<path d="M66.5737 83.582C71.8575 81.2395 77.1448 78.897 82.4287 76.5544C86.5595 74.7231 90.687 72.8917 94.8179 71.0677C95.3794 70.8177 95.9609 70.6191 96.5324 70.3984C96.2182 72.7557 95.6033 75.0246 94.8914 77.2642C94.6073 78.1615 94.467 79.125 93.9456 79.9193C93.6849 80.2025 93.344 80.2834 92.9998 80.3532C86.3389 81.758 79.6881 83.2326 73.0072 84.5308C71.1925 84.8838 69.3877 85.2846 67.5763 85.6597C67.2387 85.7296 66.8912 85.8436 66.5703 85.5936V83.5857H66.5737V83.582Z" fill="#F1F7FD"/>
<path d="M65.9964 30.5737C64.058 34.9608 62.1162 39.3443 60.1845 43.7352C58.1859 48.2768 56.2007 52.8221 54.2088 57.3637C52.9054 57.6138 51.5485 57.5145 50.2851 58.0514C49.5666 58.3566 48.8514 58.6729 48.1328 58.9818C49.1522 56.6429 50.1682 54.3004 51.1942 51.9653C53.5103 46.6918 55.8331 41.4221 58.1491 36.145C58.978 34.2585 59.7868 32.3609 60.6056 30.467C62.4037 30.4229 64.2017 30.3347 65.9964 30.5737Z" fill="#E0263E"/>
<path d="M66.5591 85.5925C68.8017 85.1365 71.0476 84.6915 73.2868 84.2245C79.8841 82.8528 86.4781 81.4701 93.0721 80.0947C93.3596 80.0359 93.647 79.9807 93.9311 79.9219C93.1991 82.0952 92.1932 84.1068 91.0568 86.0485C90.7794 86.2948 90.4553 86.4015 90.1077 86.4787C82.6447 88.0674 75.155 89.5273 67.6888 91.0939C67.3078 91.1748 66.9067 91.355 66.5391 91.0203L66.5558 85.5961L66.5591 85.5925Z" fill="#E0263E"/>
<path d="M66.5336 91.0124C68.1178 90.8248 69.6618 90.4056 71.2226 90.0893C75.2833 89.273 79.3473 88.4676 83.4046 87.6328C85.8511 87.129 88.2875 86.5774 90.7306 86.0515C90.8342 86.0295 90.9445 86.0442 91.0481 86.0405C89.641 88.931 87.7394 91.4169 85.7475 93.8293C81.2122 93.8219 76.677 93.8109 72.1417 93.8072C66.2195 93.8072 60.2972 93.8072 54.375 93.7999C54.4619 93.4174 54.7593 93.4726 55.0133 93.4211C58.7599 92.6672 62.5064 91.9097 66.2529 91.1484C66.3498 91.1301 66.4367 91.0565 66.5303 91.005V91.0124H66.5336Z" fill="#F1F7FD"/>
<path d="M48.1335 101.183C50.2825 101.809 52.4282 102.434 54.5771 103.055C58.0329 104.055 61.482 105.078 64.9477 106.045C66.4049 106.453 67.8654 106.847 69.3025 107.339C67.3307 108.623 65.2184 109.579 63.1029 110.517C62.7787 110.66 62.4345 110.55 62.0969 110.403C59.8009 109.402 57.565 108.259 55.3625 107.038C52.6521 105.534 50.0352 103.868 47.5687 101.919C47.4852 101.853 47.4083 101.772 47.3047 101.672C47.5955 101.481 47.8127 101.227 48.1369 101.18H48.1335V101.183Z" fill="#F1F7FD"/>
<path d="M74.9847 103.763C72.5918 103.112 70.1955 102.465 67.8025 101.81C64.5105 100.909 61.2185 100.001 57.9265 99.0888C57.7561 99.041 57.5656 99.0042 57.4219 98.7578H58.879C65.9777 98.7578 73.0764 98.7578 80.175 98.7688C80.4424 98.7688 80.7064 98.7983 80.9738 98.8167C79.9177 99.953 78.7713 100.964 77.5414 101.865C76.6858 102.494 75.8336 103.13 74.9814 103.766H74.9847V103.763Z" fill="#F1F7FD"/>
<path d="M211.18 62.2843C210.344 62.2365 209.836 61.6555 209.388 60.9752C207.614 58.2686 205.846 55.5583 204.068 52.8554C203.74 52.3553 203.83 52.1935 204.379 52.0096C208.64 50.5754 209.061 46.0338 207.487 43.2647C206.257 41.095 204.255 40.4404 202.082 40.2603C199.74 40.0653 197.387 40.0948 195.037 40.1095H193.754C192.444 40.1095 191.137 40.1021 189.827 40.1168C189.566 40.1168 189.172 39.955 189.172 40.4883C189.172 41.0215 189.56 40.7089 189.77 40.7898C189.844 40.8155 189.931 40.7972 190.011 40.8008C191.287 40.8523 191.842 41.3855 192.029 42.7572C192.073 43.0735 192.073 43.4008 192.076 43.7244V59.3093C192.076 59.8094 192.003 60.2985 191.956 60.795C191.866 61.7769 191.304 62.1336 190.529 62.266C190.265 62.3101 189.994 62.288 189.73 62.3211C189.483 62.3505 189.125 62.277 189.179 62.7367C189.229 63.1375 189.56 62.9757 189.763 62.9794C192.033 62.9904 194.305 62.9867 196.575 62.9867H199.379C199.549 62.9867 199.773 63.0566 199.783 62.7293C199.793 62.4609 199.659 62.3726 199.442 62.3579C199.282 62.3469 199.125 62.3174 198.964 62.3064C197.343 62.1777 196.912 61.6959 196.899 59.9161C196.882 57.7721 196.886 55.6319 196.899 53.4879C196.899 53.2048 196.708 52.7377 197.123 52.6752C197.544 52.609 198.039 52.4215 198.406 52.8738C198.617 53.1349 198.807 53.4217 198.988 53.7086C200.709 56.4188 202.4 59.1512 204.161 61.8283C204.462 62.288 204.616 63.0272 205.405 63.0125C207.3 62.9757 209.198 63.0125 211.093 63.0198C211.28 63.0198 211.554 63.1265 211.567 62.7403C211.577 62.4425 211.41 62.3174 211.17 62.3027L211.18 62.2843ZM203.088 48.2807C202.627 50.2408 201.26 51.2631 199.048 51.3587C197.614 51.4212 196.899 50.6857 196.899 49.1486V46.4236C196.899 44.9894 196.929 43.5515 196.885 42.1173C196.869 41.5106 197.063 41.3451 197.567 41.3855C198.336 41.4444 199.118 41.4003 199.88 41.5106C201.397 41.7239 202.48 42.5881 202.982 44.2319C203.389 45.5704 203.406 46.9274 203.088 48.2807Z" fill="#E0263E"/>
<path d="M137.052 62.2629C136.407 62.1306 135.975 61.6782 135.631 61.0899C134.893 59.8285 134.375 58.4495 133.83 57.0888C131.591 51.5065 129.371 45.9168 127.139 40.3308C127.049 40.1028 127.029 39.7498 126.731 39.7424C126.394 39.7314 126.35 40.1322 126.257 40.3639C125.294 42.7064 124.385 45.071 123.416 47.4062C121.628 51.7087 120.01 56.0959 118.035 60.3029C117.587 61.259 116.986 61.9835 115.996 62.2335C115.759 62.2924 115.408 62.2335 115.488 62.7079C115.558 63.1124 115.859 62.969 116.07 62.969C117.834 62.98 119.596 62.9984 121.357 62.9506C121.678 62.9433 122.293 63.322 122.323 62.6307C122.353 61.9945 121.758 62.3181 121.451 62.2666C119.917 62.0019 119.425 61.27 119.806 59.7145C120.057 58.6922 120.552 57.7802 120.899 56.8057C121.033 56.4342 121.304 56.4894 121.564 56.4894C123.646 56.4894 125.732 56.5004 127.814 56.482C128.185 56.482 128.396 56.5924 128.539 56.9785C128.887 57.9236 129.301 58.8429 129.632 59.7954C130.314 61.7518 130.026 62.1968 128.111 62.3108C127.884 62.3255 127.513 62.1526 127.51 62.6417C127.51 63.1271 127.877 62.9727 128.108 62.9727C129.579 62.9874 131.046 62.98 132.516 62.98V62.9911C133.987 62.9911 135.454 63.0021 136.925 62.98C137.138 62.98 137.496 63.2117 137.56 62.7226C137.623 62.2629 137.306 62.3181 137.048 62.2666L137.052 62.2629ZM122.045 55.2391C121.594 55.2391 121.651 55.0368 121.785 54.7022C122.737 52.3413 123.68 49.9767 124.723 47.3694C125.799 50.1275 126.771 52.6281 127.787 55.2317C125.809 55.2317 123.927 55.2244 122.045 55.2317V55.2391Z" fill="#E0263E"/>
<path d="M268.052 62.2921C267.22 62.1965 266.772 61.6155 266.397 60.8469C265.027 58.0337 263.944 55.0807 262.771 52.1719C261.187 48.2517 259.653 44.3095 258.089 40.3784C257.999 40.1504 257.962 39.7973 257.691 39.7679C257.347 39.7311 257.314 40.1467 257.213 40.382C256.398 42.3127 255.592 44.2507 254.814 46.1997C252.965 50.8222 251.121 55.4448 249.135 59.9974C248.681 61.0344 248.066 61.9722 246.943 62.2701C246.686 62.3363 246.361 62.3252 246.432 62.7592C246.505 63.2188 246.856 63.0055 247.083 63.0092C248.791 63.0276 250.502 63.046 252.21 63.0092C252.578 63.0019 253.25 63.3402 253.283 62.7408C253.32 62.031 252.604 62.3436 252.22 62.2921C250.883 62.1082 250.482 61.4721 250.706 59.9643C250.877 58.8133 251.468 57.8572 251.812 56.7944C251.906 56.5039 252.1 56.5039 252.32 56.5039C254.456 56.5039 256.592 56.5149 258.731 56.4965C259.082 56.4965 259.262 56.6326 259.392 56.9672C259.847 58.1513 260.352 59.3097 260.763 60.5122C261.15 61.6375 260.816 62.1561 259.737 62.3032C259.473 62.3399 259.205 62.3767 258.944 62.4282C258.761 62.465 258.477 62.3142 258.463 62.704C258.447 63.1637 258.767 63.0166 258.971 63.0166C260.465 63.0276 261.962 63.0166 263.456 63.0239C264.95 63.0313 266.448 63.0313 267.941 63.0166C268.152 63.0166 268.466 63.16 268.513 62.7481C268.553 62.3841 268.309 62.3215 268.052 62.2921ZM257.825 55.2388H252.488C253.544 52.6242 254.563 50.1015 255.626 47.4684C256.575 49.8367 257.484 52.0652 258.366 54.3121C258.724 55.2241 258.697 55.2388 257.825 55.2388Z" fill="#E0263E"/>
<path d="M142.099 72.7611C140.054 72.2352 137.982 72.6029 135.916 72.5846C136.829 73.0038 137.283 73.7981 137.283 74.9639C137.283 77.163 137.286 79.362 137.283 81.5611C137.283 83.0027 137.276 82.999 135.983 83.3116C135.94 83.3226 135.916 83.444 135.883 83.5249H141.1C140.124 83.091 139.636 82.3003 139.639 81.1493V80.7962C139.656 80.0975 139.435 79.1635 139.76 78.77C140.074 78.3875 140.946 78.553 141.574 78.4979C142.985 78.3765 144.211 77.185 144.315 75.8097C144.429 74.3313 143.593 73.1472 142.099 72.7611ZM140.191 77.9573C139.793 77.983 139.613 77.8911 139.626 77.3983C139.656 76.1664 139.663 74.9344 139.633 73.7025C139.623 73.2538 139.756 73.1582 140.131 73.1803C141.237 73.2428 141.798 74.0371 141.798 75.5817C141.798 77.1262 141.224 77.8948 140.194 77.9573H140.191Z" fill="#1D2C4E"/>
<path d="M181.114 81.7952C180.335 79.8167 179.556 77.842 178.761 75.8709C178.283 74.6867 177.778 73.5173 177.29 72.3516C177.066 72.4288 177.033 72.5722 176.979 72.7083C176.197 74.6536 175.482 76.6321 174.607 78.526C173.814 80.2396 173.557 82.3284 171.812 83.5162H175.151C175.081 83.2367 174.931 83.2735 174.807 83.2478C173.851 83.0712 173.681 82.652 173.961 81.6702C174.242 80.6883 174.717 80.2249 175.676 80.4161C175.987 80.4787 176.314 80.4272 176.635 80.4272C177.588 80.4272 178.239 80.9236 178.587 81.9165C178.968 82.9977 178.918 83.0896 177.838 83.2845C177.711 83.3066 177.671 83.3985 177.691 83.5052H182.444C181.692 83.1705 181.388 82.5049 181.11 81.7989L181.114 81.7952ZM177.327 79.8682C176.605 79.8609 175.887 79.8572 175.165 79.8682C174.744 79.8756 174.827 79.6365 174.937 79.3644C175.372 78.3053 175.806 77.2462 176.278 76.0952C176.722 77.2205 177.147 78.2869 177.568 79.3534C177.678 79.6329 177.725 79.8682 177.324 79.8645H177.327V79.8682Z" fill="#1D2C4E"/>
<path d="M41.3262 39.6471C41.7774 41.1989 42.2419 42.7508 42.6764 44.31C42.7967 44.744 43.0039 44.8764 43.4184 44.869C44.8588 44.8359 46.3026 44.858 47.9937 44.858C46.9744 45.7038 46.1322 46.4209 45.2732 47.1122C43.8696 48.2486 43.8696 48.2412 44.3876 50.0579C44.7118 51.1905 45.0226 52.3231 45.3702 53.5624C44.04 52.7681 42.9772 51.7421 41.8309 50.8595C41.3529 50.4918 41.0521 50.5286 40.6076 50.8853C39.478 51.7936 38.4018 52.8012 37.0449 53.5845C37.5396 51.9517 37.9807 50.4366 38.462 48.9326C38.6191 48.4435 38.5489 48.175 38.1412 47.8624C36.9748 46.9615 35.8518 45.9943 34.7656 44.8617C36.1125 44.8617 37.4594 44.8065 38.8029 44.8837C39.5114 44.9242 39.7487 44.63 39.9225 43.9313C40.2801 42.4787 40.7413 41.0592 41.1591 39.625C41.2159 39.636 41.2727 39.6471 41.3262 39.6544V39.6471Z" fill="#E0263E"/>
<path d="M41.1897 96.3211C36.611 96.255 32.8344 92.0517 32.8913 87.0908C32.9481 82.13 36.7915 77.9929 41.28 78.0554C46.0525 78.1216 49.7222 82.3286 49.5651 87.6645C49.4281 92.3753 45.608 96.3837 41.1897 96.3175V96.3211Z" fill="#E0263E"/>
<path d="M41.272 85.9133C39.6277 85.9133 39.611 85.9133 39.7814 84.1297C39.8917 82.9934 40.2092 81.9196 40.7974 80.9561C41.0614 80.5259 41.3589 80.4229 41.653 80.9046C42.522 82.3278 42.7592 83.9642 42.9297 85.6191C42.9631 85.928 42.7292 85.9096 42.5453 85.9096C42.1209 85.9096 41.6931 85.9096 41.2687 85.9096H41.272V85.9133Z" fill="#F1F7FD"/>
<path d="M41.3192 88.4804C42.5056 88.4804 42.9669 89.1203 42.7028 90.3963C42.4856 91.4444 42.255 92.4888 41.6701 93.3861C41.3693 93.8458 41.0953 93.9303 40.7677 93.3861C39.9356 92.0291 39.735 90.4809 39.6047 88.907C39.5746 88.5282 39.7651 88.4731 40.0392 88.4767C40.4636 88.4841 40.8914 88.4767 41.3192 88.4767V88.4804Z" fill="#F1F7FD"/>
<path d="M37.9022 92.6737C36.5653 91.8205 35.937 90.5003 35.4658 89.0514C35.3354 88.6506 35.4457 88.4888 35.8635 88.4667C37.2371 88.3858 37.2103 88.3711 37.3908 89.8494C37.5044 90.7651 37.715 91.6661 37.9022 92.6773V92.6737Z" fill="#F1F7FD"/>
<path d="M44.4877 92.7085C44.8386 91.4103 45.0692 90.3071 45.1227 89.1818C45.1528 88.5419 45.4101 88.4574 45.9148 88.461C47.3252 88.4794 47.3686 88.5052 46.737 89.9026C46.2524 90.9801 45.624 91.9472 44.4844 92.7085H44.4877Z" fill="#F1F7FD"/>
<path d="M44.5547 81.7188C45.8982 82.6749 46.6201 83.9289 47.088 85.3888C47.1983 85.7308 47.1281 85.8963 46.7337 85.9294C45.2265 86.0544 45.2231 86.0397 45.0493 84.3555C44.9624 83.528 44.7452 82.7153 44.5547 81.7188Z" fill="#F1F7FD"/>
<path d="M37.945 81.7188C37.6142 83.0757 37.407 84.2709 37.3167 85.4844C37.2933 85.8044 37.1663 85.9588 36.8622 85.9257C36.3943 85.8742 35.7326 86.1611 35.502 85.7897C35.2312 85.3557 35.6524 84.7526 35.8696 84.2635C36.3041 83.2817 36.9023 82.4432 37.9484 81.7188H37.945Z" fill="#F1F7FD"/>
<path d="M165.712 83.1921C165.384 83.1002 165.114 82.9163 164.913 82.6074C163.987 81.1879 163.058 79.7721 162.092 78.3011C162.219 78.2607 162.303 78.235 162.386 78.2055C163.513 77.8231 164.442 76.9037 164.308 75.2084C164.211 73.9581 163.416 73.0093 162.219 72.7004C161.524 72.5202 160.809 72.4761 160.094 72.4761C158.677 72.4761 157.256 72.4761 155.836 72.4688H155.274C155.164 72.4688 155.117 72.5129 155.117 72.6379C155.117 72.7409 155.157 72.7924 155.254 72.796C155.408 72.8034 155.562 72.8107 155.716 72.8291C156.177 72.8843 156.387 73.1233 156.458 73.6235C156.501 73.925 156.511 74.2266 156.511 74.5281C156.511 76.08 156.528 77.6282 156.504 79.18C156.488 80.2428 156.554 81.3093 156.451 82.3757C156.414 82.7508 156.254 82.9715 155.946 83.0965C155.759 83.1701 155.565 83.1995 155.368 83.2215C155.278 83.2326 155.124 83.137 155.117 83.3429C155.111 83.5709 155.274 83.4973 155.381 83.4973C156.481 83.4973 157.581 83.4973 158.68 83.4973H160.034C160.141 83.4973 160.238 83.4973 160.231 83.3319C160.224 83.1774 160.117 83.2215 160.037 83.2105C159.984 83.2031 159.927 83.2105 159.873 83.2105C159.155 83.1517 158.927 82.909 158.881 82.1257C158.817 81.0739 158.857 80.0185 158.857 78.9631C158.857 78.4188 158.75 78.496 159.318 78.4666C159.566 78.4556 159.626 78.6689 159.723 78.8197C160.685 80.3164 161.638 81.8168 162.59 83.3208C162.674 83.4532 162.771 83.5047 162.918 83.5047C163.83 83.5047 164.743 83.5047 165.658 83.5047C165.745 83.5047 165.862 83.5562 165.882 83.3797C165.902 83.2142 165.802 83.2142 165.705 83.1884L165.712 83.1958V83.1921ZM161.818 76.3448C161.614 77.242 161.086 77.7164 160.281 77.8268C159.89 77.8782 159.492 77.8709 159.098 77.904C158.907 77.9187 158.854 77.8415 158.854 77.6355C158.861 76.9221 158.857 76.205 158.857 75.4916C158.857 74.8113 158.874 74.1346 158.851 73.458C158.841 73.1417 158.937 73.0645 159.205 73.0866C159.522 73.116 159.843 73.0976 160.161 73.1123C160.993 73.1491 161.578 73.6749 161.795 74.5538C161.939 75.1496 161.955 75.7343 161.818 76.3374V76.3448Z" fill="#1D2C4E"/>
<path d="M255.603 83.2702C255.275 83.1783 255.004 82.9944 254.804 82.6855C253.878 81.266 252.949 79.8502 251.983 78.3793C252.11 78.3388 252.194 78.3131 252.277 78.2837C253.403 77.9012 254.333 76.9818 254.199 75.2866C254.102 74.0362 253.306 73.0875 252.11 72.7786C251.415 72.5984 250.7 72.5542 249.984 72.5542C248.567 72.5542 247.147 72.5542 245.727 72.5469H245.165C245.055 72.5469 245.008 72.591 245.008 72.716C245.008 72.819 245.048 72.8705 245.145 72.8742C245.299 72.8815 245.453 72.8889 245.606 72.9073C246.067 72.9624 246.278 73.2015 246.348 73.7016C246.392 74.0031 246.402 74.3047 246.402 74.6062C246.402 76.1581 246.418 77.7063 246.395 79.2582C246.378 80.3209 246.445 81.3874 246.342 82.4539C246.305 82.8289 246.144 83.0496 245.837 83.1746C245.65 83.2482 245.456 83.2776 245.259 83.2997C245.168 83.3107 245.015 83.2151 245.008 83.421C245.001 83.649 245.165 83.5755 245.272 83.5755C246.372 83.5755 247.471 83.5755 248.571 83.5755H249.924C250.031 83.5755 250.128 83.5755 250.121 83.41C250.115 83.2555 250.008 83.2997 249.928 83.2886C249.874 83.2813 249.817 83.2886 249.764 83.2886C249.045 83.2298 248.818 82.9871 248.771 82.2038C248.708 81.152 248.748 80.0966 248.748 79.0412C248.748 78.4969 248.641 78.5742 249.209 78.5448C249.456 78.5337 249.517 78.747 249.613 78.8978C250.576 80.3945 251.528 81.8949 252.481 83.3989C252.565 83.5313 252.661 83.5828 252.809 83.5828C253.721 83.5828 254.633 83.5828 255.549 83.5828C255.636 83.5828 255.753 83.6343 255.773 83.4578C255.793 83.2923 255.693 83.2923 255.596 83.2666L255.603 83.2739V83.2702ZM251.709 76.4229C251.505 77.3202 250.977 77.7946 250.172 77.9049C249.781 77.9564 249.383 77.949 248.988 77.9821C248.798 77.9968 248.744 77.9196 248.744 77.7137C248.751 77.0002 248.748 76.2831 248.748 75.5697C248.748 74.8894 248.765 74.2127 248.741 73.5361C248.731 73.2198 248.828 73.1426 249.095 73.1647C249.413 73.1941 249.734 73.1757 250.051 73.1904C250.883 73.2272 251.468 73.7531 251.686 74.632C251.829 75.2277 251.846 75.8124 251.709 76.4155V76.4229Z" fill="#1D2C4E"/>
</svg>
