<svg width="73" height="75" viewBox="0 0 73 75" fill="none" xmlns="http://www.w3.org/2000/svg">
<path d="M36.5 43.75H6.08333C4.46993 43.75 2.92261 43.0915 1.78177 41.9194C0.640921 40.7473 0 39.1576 0 37.5V6.25C0 4.5924 0.640921 3.00268 1.78177 1.83058C2.92261 0.65848 4.46993 0 6.08333 0H36.5C38.1134 0 39.6607 0.65848 40.8016 1.83058C41.9424 3.00268 42.5833 4.5924 42.5833 6.25V37.5C42.5833 39.1576 41.9424 40.7473 40.8016 41.9194C39.6607 43.0915 38.1134 43.75 36.5 43.75ZM6.08333 6.25V37.5H36.5V6.25H6.08333ZM66.9167 25V37.5H54.75V25H66.9167ZM66.9167 18.75H54.75C53.1366 18.75 51.5893 19.4085 50.4484 20.5806C49.3076 21.7527 48.6667 23.3424 48.6667 25V37.5C48.6667 39.1576 49.3076 40.7473 50.4484 41.9194C51.5893 43.0915 53.1366 43.75 54.75 43.75H66.9167C68.5301 43.75 70.0774 43.0915 71.2182 41.9194C72.3591 40.7473 73 39.1576 73 37.5V25C73 23.3424 72.3591 21.7527 71.2182 20.5806C70.0774 19.4085 68.5301 18.75 66.9167 18.75ZM66.9167 56.25V68.75H54.75V56.25H66.9167ZM66.9167 50H54.75C53.1366 50 51.5893 50.6585 50.4484 51.8306C49.3076 53.0027 48.6667 54.5924 48.6667 56.25V68.75C48.6667 70.4076 49.3076 71.9973 50.4484 73.1694C51.5893 74.3415 53.1366 75 54.75 75H66.9167C68.5301 75 70.0774 74.3415 71.2182 73.1694C72.3591 71.9973 73 70.4076 73 68.75V56.25C73 54.5924 72.3591 53.0027 71.2182 51.8306C70.0774 50.6585 68.5301 50 66.9167 50ZM36.5 56.25V68.75H24.3333V56.25H36.5ZM36.5 50H24.3333C22.7199 50 21.1726 50.6585 20.0318 51.8306C18.8909 53.0027 18.25 54.5924 18.25 56.25V68.75C18.25 70.4076 18.8909 71.9973 20.0318 73.1694C21.1726 74.3415 22.7199 75 24.3333 75H36.5C38.1134 75 39.6607 74.3415 40.8016 73.1694C41.9424 71.9973 42.5833 70.4076 42.5833 68.75V56.25C42.5833 54.5924 41.9424 53.0027 40.8016 51.8306C39.6607 50.6585 38.1134 50 36.5 50Z" fill="#E0263E"/>
</svg>
