<svg width="83" height="83" viewBox="0 0 83 83" fill="none" xmlns="http://www.w3.org/2000/svg">
<path d="M83 26.6786C83 30.1821 82.3099 33.6512 80.9692 36.888C79.6285 40.1248 77.6634 43.0658 75.186 45.5432C72.7087 48.0205 69.7677 49.9856 66.5309 51.3264C63.2941 52.6671 59.8249 53.3571 56.3214 53.3571C52.8179 53.3571 49.3488 52.6671 46.112 51.3264C42.8752 49.9856 39.9342 48.0205 37.4568 45.5432C34.9795 43.0658 33.0144 40.1248 31.6736 36.888C30.3329 33.6512 29.6429 30.1821 29.6429 26.6786C29.6429 19.603 32.4536 12.8172 37.4568 7.81397C42.46 2.81077 49.2458 0 56.3214 0C63.397 0 70.1828 2.81077 75.186 7.81397C80.1892 12.8172 83 19.603 83 26.6786ZM70.2773 15.687C70.0019 15.4109 69.6748 15.1919 69.3147 15.0425C68.9545 14.893 68.5685 14.8161 68.1786 14.8161C67.7887 14.8161 67.4026 14.893 67.0425 15.0425C66.6823 15.1919 66.3552 15.4109 66.0799 15.687L50.3929 31.3799L46.563 27.5441C46.2874 27.2685 45.9602 27.0499 45.6001 26.9008C45.24 26.7516 44.8541 26.6748 44.4643 26.6748C44.0745 26.6748 43.6886 26.7516 43.3285 26.9008C42.9684 27.0499 42.6412 27.2685 42.3656 27.5441C42.09 27.8197 41.8713 28.1469 41.7222 28.507C41.573 28.8671 41.4963 29.2531 41.4963 29.6429C41.4963 30.0326 41.573 30.4186 41.7222 30.7787C41.8713 31.1388 42.09 31.466 42.3656 31.7416L48.2941 37.6701C48.5695 37.9462 48.8966 38.1652 49.2567 38.3147C49.6169 38.4641 50.0029 38.541 50.3929 38.541C50.7828 38.541 51.1688 38.4641 51.529 38.3147C51.8891 38.1652 52.2162 37.9462 52.4916 37.6701L70.2773 19.8844C70.5533 19.6091 70.7724 19.282 70.9218 18.9218C71.0712 18.5617 71.1482 18.1756 71.1482 17.7857C71.1482 17.3958 71.0712 17.0097 70.9218 16.6496C70.7724 16.2895 70.5533 15.9624 70.2773 15.687ZM65.2143 71.1429V58.0585C67.2853 57.4696 69.2615 56.6929 71.1429 55.7286V71.1429C71.1429 74.2876 69.8936 77.3035 67.67 79.5271C65.4463 81.7508 62.4304 83 59.2857 83H11.8571C8.71243 83 5.69652 81.7508 3.47288 79.5271C1.24923 77.3035 0 74.2876 0 71.1429V35.5714C0 32.4267 1.24923 29.4108 3.47288 27.1872C5.69652 24.9635 8.71243 23.7143 11.8571 23.7143H23.8447C23.6679 25.6865 23.6679 27.6706 23.8447 29.6429H11.8571C10.2848 29.6429 8.77683 30.2675 7.66501 31.3793C6.55319 32.4911 5.92857 33.9991 5.92857 35.5714V39.9586L35.5714 55.9183L38.7966 54.1812C40.84 55.4895 43.0217 56.5605 45.3417 57.3945L36.9824 61.9002C36.5498 62.1337 36.066 62.256 35.5744 62.256C35.0828 62.256 34.5989 62.1337 34.1664 61.9002L5.92857 46.6875V71.1429C5.92857 72.7152 6.55319 74.2232 7.66501 75.335C8.77683 76.4468 10.2848 77.0714 11.8571 77.0714H59.2857C60.8581 77.0714 62.366 76.4468 63.4778 75.335C64.5897 74.2232 65.2143 72.7152 65.2143 71.1429Z" fill="#E0263E"/>
</svg>
