<svg width="92" height="77" viewBox="0 0 92 77" fill="none" xmlns="http://www.w3.org/2000/svg">
<path fill-rule="evenodd" clip-rule="evenodd" d="M13.2749 0C9.99141 0 6.84242 1.34468 4.52065 3.73824C2.19889 6.13179 0.894531 9.37814 0.894531 12.7631V63.8157C0.894531 67.2007 2.19889 70.447 4.52065 72.8406C6.84242 75.2341 9.99141 76.5788 13.2749 76.5788H79.3035C82.5869 76.5788 85.7359 75.2341 88.0577 72.8406C90.3795 70.447 91.6838 67.2007 91.6838 63.8157V12.7631C91.6838 9.37814 90.3795 6.13179 88.0577 3.73824C85.7359 1.34468 82.5869 0 79.3035 0H13.2749ZM79.3035 8.50875H13.2749C12.1804 8.50875 11.1307 8.95698 10.3568 9.75483C9.58289 10.5527 9.1481 11.6348 9.1481 12.7631V63.8157C9.1481 64.944 9.58289 66.0261 10.3568 66.824C11.1307 67.6218 12.1804 68.07 13.2749 68.07H79.3035C80.3979 68.07 81.4476 67.6218 82.2215 66.824C82.9955 66.0261 83.4302 64.944 83.4302 63.8157V12.7631C83.4302 11.6348 82.9955 10.5527 82.2215 9.75483C81.4476 8.95698 80.3979 8.50875 79.3035 8.50875Z" fill="#E0263E"/>
<path d="M17.1211 44.427C17.1211 43.322 17.5483 42.2622 18.3088 41.4808C19.0692 40.6994 20.1007 40.2604 21.1761 40.2604H53.6162C54.6917 40.2604 55.7231 40.6994 56.4836 41.4808C57.244 42.2622 57.6712 43.322 57.6712 44.427C57.6712 45.5321 57.244 46.5919 56.4836 47.3733C55.7231 48.1547 54.6917 48.5937 53.6162 48.5937H21.1761C20.1007 48.5937 19.0692 48.1547 18.3088 47.3733C17.5483 46.5919 17.1211 45.5321 17.1211 44.427ZM69.8363 23.5938C70.9118 23.5938 71.9432 24.0327 72.7036 24.8141C73.4641 25.5955 73.8913 26.6553 73.8913 27.7604C73.8913 28.8655 73.4641 29.9253 72.7036 30.7067C71.9432 31.4881 70.9118 31.9271 69.8363 31.9271H37.3962C36.3207 31.9271 35.2893 31.4881 34.5288 30.7067C33.7684 29.9253 33.3412 28.8655 33.3412 27.7604C33.3412 26.6553 33.7684 25.5955 34.5288 24.8141C35.2893 24.0327 36.3207 23.5938 37.3962 23.5938H69.8363ZM61.7263 44.427C61.7263 43.322 62.1535 42.2622 62.9139 41.4808C63.6744 40.6994 64.7058 40.2604 65.7813 40.2604H69.8363C70.9118 40.2604 71.9432 40.6994 72.7036 41.4808C73.4641 42.2622 73.8913 43.322 73.8913 44.427C73.8913 45.5321 73.4641 46.5919 72.7036 47.3733C71.9432 48.1547 70.9118 48.5937 69.8363 48.5937H65.7813C64.7058 48.5937 63.6744 48.1547 62.9139 47.3733C62.1535 46.5919 61.7263 45.5321 61.7263 44.427ZM25.2311 23.5938C26.3066 23.5938 27.338 24.0327 28.0985 24.8141C28.8589 25.5955 29.2861 26.6553 29.2861 27.7604C29.2861 28.8655 28.8589 29.9253 28.0985 30.7067C27.338 31.4881 26.3066 31.9271 25.2311 31.9271H21.1761C20.1007 31.9271 19.0692 31.4881 18.3088 30.7067C17.5483 29.9253 17.1211 28.8655 17.1211 27.7604C17.1211 26.6553 17.5483 25.5955 18.3088 24.8141C19.0692 24.0327 20.1007 23.5938 21.1761 23.5938H25.2311Z" fill="#E0263E"/>
</svg>
