<svg width="107" height="75" viewBox="0 0 107 75" fill="none" xmlns="http://www.w3.org/2000/svg">
<path d="M103.533 6.81818C105.017 6.81818 106.22 8.02141 106.22 9.50566V72.3125C106.22 73.7968 105.017 75 103.533 75H9.48738C8.00313 75 6.7999 73.7968 6.7999 72.3125V64.0511C6.7999 62.5669 5.59668 61.3636 4.11243 61.3636H2.85935C1.3751 61.3636 0.171875 60.1604 0.171875 58.6762V2.68747C0.171875 1.20322 1.3751 0 2.85935 0H90.2768C91.761 0 92.9642 1.20322 92.9642 2.68747V4.13071C92.9642 5.61496 94.1675 6.81818 95.6517 6.81818H103.533ZM82.3957 6.81818C80.9114 6.81818 79.6407 8.06965 80.209 9.44081C80.2146 9.4544 80.2203 9.46798 80.226 9.48153C80.5712 10.2983 81.0372 11.0085 81.6241 11.6122C82.211 12.2159 82.9186 12.7131 83.7471 13.1037C83.7732 13.116 83.7993 13.128 83.8254 13.1399C85.1392 13.7365 86.3362 12.496 86.3362 11.0531V9.50566C86.3362 8.02141 85.133 6.81818 83.6487 6.81818H82.3957ZM6.7999 10.9732C6.7999 12.444 8.04631 13.7042 9.38897 13.1037C10.183 12.7486 10.8734 12.2692 11.4602 11.6655C12.0471 11.0618 12.5304 10.3338 12.9101 9.48153C12.9303 9.43617 12.95 9.3907 12.969 9.34513C13.5261 8.01167 12.2842 6.81818 10.8391 6.81818H9.48738C8.00313 6.81818 6.7999 8.02141 6.7999 9.50566V10.9732ZM6.7999 38.2216C6.7999 39.7059 8.01624 40.8748 9.46906 41.1786C10.318 41.3562 11.137 41.6214 11.9263 41.9744C13.5142 42.6847 14.9296 43.6612 16.1723 44.9041C17.4151 46.147 18.3644 47.5852 19.0203 49.2188C19.3662 50.0801 19.6257 50.981 19.7988 51.9214C20.064 53.3626 21.2301 54.5455 22.6955 54.5455H70.3927C71.8769 54.5455 73.0483 53.3311 73.3278 51.8734C73.5004 50.9738 73.763 50.1067 74.1158 49.272C74.8062 47.6385 75.7555 46.1825 76.9638 44.9041C78.172 43.6257 79.5701 42.6492 81.1581 41.9744C81.9747 41.6274 82.8279 41.365 83.7176 41.187C85.1535 40.8999 86.3362 39.7366 86.3362 38.2723V23.142C86.3362 21.6578 85.1199 20.4889 83.6671 20.185C82.8181 20.0075 81.9991 19.7422 81.2099 19.3892C79.6219 18.679 78.2065 17.7024 76.9638 16.4595C75.721 15.2166 74.7717 13.7784 74.1158 12.1449C73.7699 11.2835 73.5104 10.3826 73.3374 9.44221C73.0721 8.00103 71.906 6.81818 70.4406 6.81818H22.7434C21.2592 6.81818 20.0878 8.03254 19.8083 9.49023C19.6358 10.3898 19.3731 11.2569 19.0203 12.0916C18.3299 13.7251 17.3806 15.1811 16.1723 16.4595C14.9641 17.7379 13.566 18.7145 11.978 19.3892C11.1614 19.7362 10.3082 19.9987 9.41852 20.1766C7.98266 20.4638 6.7999 21.627 6.7999 23.0913V38.2216ZM86.3362 50.3905C86.3362 48.9196 85.0898 47.6594 83.7471 48.2599C82.9532 48.6151 82.2627 49.0945 81.6759 49.6982C81.089 50.3018 80.6057 51.0298 80.226 51.8821C80.2058 51.9275 80.1862 51.9729 80.1671 52.0185C79.61 53.352 80.8519 54.5455 82.2971 54.5455H83.6488C85.133 54.5455 86.3362 53.3422 86.3362 51.858V50.3905ZM6.7999 51.858C6.7999 53.3422 8.00312 54.5455 9.48738 54.5455H10.7405C12.2247 54.5455 13.4954 53.294 12.9272 51.9228C12.9215 51.9092 12.9158 51.8957 12.9101 51.8821C12.5649 51.0653 12.0989 50.3551 11.512 49.7514C10.9252 49.1477 10.2175 48.6506 9.38897 48.2599C9.36294 48.2477 9.33686 48.2356 9.31075 48.2237C7.99697 47.6271 6.7999 48.8676 6.7999 50.3105V51.858ZM99.5923 16.3238C99.5923 14.8396 98.3891 13.6364 96.9048 13.6364H95.6517C94.1675 13.6364 92.9642 14.8396 92.9642 16.3238V58.6762C92.9642 60.1604 91.761 61.3636 90.2768 61.3636H16.1154C14.6312 61.3636 13.4279 62.5669 13.4279 64.0511V65.4943C13.4279 66.9786 14.6312 68.1818 16.1154 68.1818H96.9048C98.389 68.1818 99.5923 66.9786 99.5923 65.4943V16.3238ZM23.37 34.0909C22.4724 34.0909 21.6957 33.7536 21.0398 33.0788C20.3839 32.4041 20.056 31.6051 20.056 30.6818C20.056 29.7585 20.3839 28.9595 21.0398 28.2848C21.6957 27.6101 22.4724 27.2727 23.37 27.2727C24.2675 27.2727 25.0442 27.6101 25.7001 28.2848C26.356 28.9595 26.684 29.7585 26.684 30.6818C26.684 31.6051 26.356 32.4041 25.7001 33.0788C25.0442 33.7536 24.2675 34.0909 23.37 34.0909ZM69.7662 34.0909C68.8686 34.0909 68.0919 33.7536 67.436 33.0788C66.7801 32.4041 66.4521 31.6051 66.4521 30.6818C66.4521 29.7585 66.7801 28.9595 67.436 28.2848C68.0919 27.6101 68.8686 27.2727 69.7662 27.2727C70.6637 27.2727 71.4404 27.6101 72.0963 28.2848C72.7522 28.9595 73.0802 29.7585 73.0802 30.6818C73.0802 31.6051 72.7522 32.4041 72.0963 33.0788C71.4404 33.7536 70.6637 34.0909 69.7662 34.0909ZM46.5681 47.7273C44.7384 47.7273 43.0297 47.3722 41.4417 46.6619C39.8537 45.9517 38.4384 44.9751 37.1956 43.7322C35.9529 42.4893 35.0035 41.0511 34.3476 39.4176C33.6917 37.7841 33.3465 36.0085 33.312 34.0909V27.2727C33.312 25.3906 33.6572 23.6328 34.3476 21.9993C35.0381 20.3658 35.9874 18.9098 37.1956 17.6314C38.4039 16.353 39.8019 15.3764 41.3899 14.7017C42.9779 14.027 44.7039 13.6719 46.5681 13.6364C48.3977 13.6364 50.1065 13.9915 51.6944 14.7017C53.2824 15.4119 54.6978 16.3885 55.9405 17.6314C57.1833 18.8743 58.1326 20.3125 58.7885 21.946C59.4444 23.5795 59.7896 25.3551 59.8241 27.2727V34.0909C59.8241 35.973 59.4789 37.7308 58.7885 39.3643C58.0981 40.9979 57.1487 42.4538 55.9405 43.7322C54.7323 45.0107 53.3342 45.9872 51.7462 46.6619C50.1582 47.3367 48.4322 47.6918 46.5681 47.7273ZM39.94 34.0909C39.94 35.0497 40.1126 35.9375 40.4578 36.7543C40.8031 37.571 41.2691 38.2812 41.8559 38.8849C42.4428 39.4886 43.1505 39.9858 43.979 40.3764C44.8075 40.767 45.6705 40.9446 46.5681 40.9091C47.5001 40.9091 48.3632 40.7315 49.1571 40.3764C49.9511 40.0213 50.6415 39.5419 51.2284 38.9382C51.8152 38.3345 52.2985 37.6065 52.6783 36.7543C53.058 35.902 53.2306 35.0142 53.1961 34.0909V27.2727C53.1961 26.3139 53.0235 25.4261 52.6783 24.6094C52.3331 23.7926 51.867 23.0824 51.2802 22.4787C50.6933 21.875 49.9856 21.3778 49.1571 20.9872C48.3286 20.5966 47.4656 20.419 46.5681 20.4545C45.636 20.4545 44.773 20.6321 43.979 20.9872C43.185 21.3423 42.4946 21.8217 41.9077 22.4254C41.3209 23.0291 40.8376 23.7571 40.4578 24.6094C40.0781 25.4616 39.9055 26.3494 39.94 27.2727V34.0909Z" fill="#E0263E"/>
</svg>
