<svg width="29" height="24" viewBox="0 0 29 24" fill="none" xmlns="http://www.w3.org/2000/svg">
<g clip-path="url(#clip0_3031_9112)">
<path d="M14.5087 1.33539e-05C18.7468 1.33539e-05 22.985 1.33539e-05 27.2231 0.000828558C27.4387 0.000828558 27.6575 -0.00324746 27.869 0.0293607C28.5391 0.132077 28.9694 0.631797 28.9962 1.31575C29.0002 1.42418 28.9994 1.5326 28.9994 1.64184C28.9994 6.95126 28.9994 12.2607 28.9994 17.5709C28.9994 18.7571 28.5383 19.2201 27.356 19.2201C24.3058 19.2209 21.2549 19.2266 18.2047 19.2136C17.8133 19.2119 17.5564 19.3285 17.3271 19.6554C16.6343 20.6418 15.9106 21.607 15.1991 22.5795C14.6708 23.3018 14.3029 23.2953 13.7721 22.5575C13.0922 21.6111 12.3929 20.6785 11.7381 19.7157C11.478 19.3326 11.1798 19.2095 10.7317 19.2119C7.74877 19.2291 4.76587 19.2209 1.78297 19.2209C1.6209 19.2209 1.45883 19.225 1.29757 19.216C0.52693 19.1695 0.00506469 18.6478 0.00425434 17.8766C-0.00141811 12.3634 -0.00141811 6.85018 0.00425434 1.33695C0.00506469 0.613862 0.473447 0.109251 1.18818 0.0212087C1.4013 -0.00487787 1.61928 0.000828558 1.83484 1.33539e-05C6.05919 1.33539e-05 10.2844 1.33539e-05 14.5087 1.33539e-05Z" fill="#111D3A"/>
<path d="M10.1737 10.7696C8.51899 10.7713 7.20946 9.46449 7.20703 7.81126C7.20541 6.15721 8.51575 4.81701 10.1478 4.80478C11.7928 4.79174 13.1274 6.13683 13.1266 7.80636C13.1258 9.47264 11.8349 10.7688 10.1737 10.7704V10.7696Z" fill="white"/>
<path d="M10.182 11.1614C10.857 11.1614 11.5312 11.1508 12.2063 11.163C13.6681 11.1891 14.8918 12.3222 15.0449 13.7855C15.0692 14.0146 15.1057 14.2926 14.7791 14.3219C14.4372 14.3031 14.1527 14.3257 13.8006 14.3257C12.778 14.3099 13.4737 14.3415 12.2249 14.3211C10.7999 14.3211 10.0374 14.3257 8.10114 14.3257C6.87255 14.3257 6.86578 14.3257 5.90741 14.3257C5.77545 14.3257 5.85897 14.3219 5.55653 14.3219C5.28506 14.2893 5.28749 14.0594 5.30208 13.8483C5.40013 12.3875 6.64321 11.1956 8.11886 11.1638C8.80684 11.1483 9.49483 11.1614 10.1836 11.1614H10.182Z" fill="white"/>
<path d="M21.5429 10.0123C21.5429 10.949 21.5372 11.8856 21.5469 12.8215C21.5502 13.15 21.5024 13.3628 21.0923 13.3603C20.6701 13.3579 20.6523 13.1182 20.6531 12.8044C20.658 11.2025 20.6564 9.60143 20.6531 7.99955C20.6523 7.48679 20.6045 7.46152 20.1572 7.69956C20.0502 7.75662 19.9473 7.82347 19.8355 7.87157C19.7115 7.92455 19.5664 8.08433 19.453 7.88461C19.3533 7.70852 19.2561 7.4501 19.4579 7.32701C19.9692 7.0156 20.4465 6.61207 21.0931 6.5868C21.4238 6.57376 21.551 6.70745 21.5469 7.04006C21.5348 8.03053 21.5429 9.02182 21.5429 10.0123Z" fill="white"/>
<path d="M10.1581 5.42971C11.4822 5.424 12.5462 6.47562 12.547 7.78891C12.547 9.09242 11.4709 10.1709 10.1686 10.1709C8.88019 10.1709 7.81944 9.11688 7.80485 7.82071C7.78946 6.50823 8.84615 5.43542 10.1589 5.42971H10.1581Z" fill="white"/>
</g>
<defs>
<clipPath id="clip0_3031_9112">
<rect width="29" height="23.1159" fill="white"/>
</clipPath>
</defs>
</svg>
