<svg width="20" height="20" viewBox="0 0 20 20" fill="none" xmlns="http://www.w3.org/2000/svg">
<path fill-rule="evenodd" clip-rule="evenodd" d="M3.33073 5.00521C3.77276 5.00521 4.19668 4.82961 4.50924 4.51705C4.8218 4.20449 4.9974 3.78057 4.9974 3.33854C4.9974 2.89651 4.8218 2.47259 4.50924 2.16003C4.19668 1.84747 3.77276 1.67188 3.33073 1.67188C2.8887 1.67188 2.46478 1.84747 2.15222 2.16003C1.83966 2.47259 1.66406 2.89651 1.66406 3.33854C1.66406 3.78057 1.83966 4.20449 2.15222 4.51705C2.46478 4.82961 2.8887 5.00521 3.33073 5.00521ZM4.16406 17.5052C4.8271 17.5052 5.46299 17.2418 5.93183 16.773C6.40067 16.3041 6.66406 15.6682 6.66406 15.0052C6.66406 14.3422 6.40067 13.7063 5.93183 13.2374C5.46299 12.7686 4.8271 12.5052 4.16406 12.5052C3.50102 12.5052 2.86514 12.7686 2.3963 13.2374C1.92745 13.7063 1.66406 14.3422 1.66406 15.0052C1.66406 15.6682 1.92745 16.3041 2.3963 16.773C2.86514 17.2418 3.50102 17.5052 4.16406 17.5052ZM15.8307 18.3385C16.4938 18.3385 17.1297 18.0751 17.5985 17.6063C18.0673 17.1375 18.3307 16.5016 18.3307 15.8385C18.3307 15.1755 18.0673 14.5396 17.5985 14.0708C17.1297 13.6019 16.4938 13.3385 15.8307 13.3385C15.1677 13.3385 14.5318 13.6019 14.063 14.0708C13.5941 14.5396 13.3307 15.1755 13.3307 15.8385C13.3307 16.5016 13.5941 17.1375 14.063 17.6063C14.5318 18.0751 15.1677 18.3385 15.8307 18.3385ZM9.16406 11.6719C10.0481 11.6719 10.896 11.3207 11.5211 10.6956C12.1462 10.0704 12.4974 9.2226 12.4974 8.33854C12.4974 7.45449 12.1462 6.60664 11.5211 5.98152C10.896 5.3564 10.0481 5.00521 9.16406 5.00521C8.28001 5.00521 7.43216 5.3564 6.80704 5.98152C6.18192 6.60664 5.83073 7.45449 5.83073 8.33854C5.83073 9.2226 6.18192 10.0704 6.80704 10.6956C7.43216 11.3207 8.28001 11.6719 9.16406 11.6719ZM14.1641 5.00521C14.6061 5.00521 15.03 4.82961 15.3426 4.51705C15.6551 4.20449 15.8307 3.78057 15.8307 3.33854C15.8307 2.89651 15.6551 2.47259 15.3426 2.16003C15.03 1.84747 14.6061 1.67188 14.1641 1.67188C13.722 1.67188 13.2981 1.84747 12.9856 2.16003C12.673 2.47259 12.4974 2.89651 12.4974 3.33854C12.4974 3.78057 12.673 4.20449 12.9856 4.51705C13.2981 4.82961 13.722 5.00521 14.1641 5.00521Z" fill="#E0263E" stroke="#E0263E" stroke-linecap="round" stroke-linejoin="round"/>
<path d="M4.57812 4.59375L6.24479 6.26042M12.4948 5.01042L11.6615 5.84375M14.1615 13.9687L11.6615 10.8437M5.82812 12.9271L7.49479 11.2604" stroke="#E0263E" stroke-linecap="round" stroke-linejoin="round"/>
</svg>
