<svg width="40" height="41" viewBox="0 0 40 41" fill="none" xmlns="http://www.w3.org/2000/svg">
<g clip-path="url(#clip0_4185_4634)">
<path d="M29.756 0.570127L30.452 2.71318C30.668 3.36522 31.0336 3.95764 31.5195 4.44303C32.0053 4.92843 32.598 5.29333 33.25 5.50854L35.392 6.20488L35.434 6.21689C35.5992 6.27507 35.7423 6.38313 35.8435 6.52613C35.9447 6.66914 35.9991 6.84005 35.9991 7.01528C35.9991 7.19051 35.9447 7.36142 35.8435 7.50443C35.7423 7.64743 35.5992 7.75549 35.434 7.81367L33.292 8.51001C32.64 8.72523 32.0473 9.09013 31.5615 9.57552C31.0756 10.0609 30.71 10.6533 30.494 11.3054L29.798 13.4464C29.7398 13.6117 29.6318 13.7549 29.4889 13.8561C29.346 13.9574 29.1751 14.0118 29 14.0118C28.8249 14.0118 28.654 13.9574 28.5111 13.8561C28.3682 13.7549 28.2602 13.6117 28.202 13.4464L27.504 11.3054C27.2897 10.6519 26.9253 10.0577 26.44 9.57053C25.9545 9.0824 25.3612 8.71505 24.708 8.49801L22.566 7.80166C22.4008 7.74348 22.2577 7.63543 22.1565 7.49242C22.0553 7.34942 22.0009 7.1785 22.0009 7.00327C22.0009 6.82804 22.0553 6.65713 22.1565 6.51413C22.2577 6.37112 22.4008 6.26307 22.566 6.20488L24.708 5.50854C25.3519 5.2875 25.9358 4.92 26.4136 4.43494C26.8915 3.94989 27.2504 3.36051 27.462 2.71318L28.158 0.572128C28.2157 0.406145 28.3237 0.262258 28.4669 0.160435C28.61 0.0586133 28.7813 0.00390625 28.957 0.00390625C29.1327 0.00390625 29.304 0.0586133 29.4471 0.160435C29.5903 0.262258 29.6983 0.404144 29.756 0.570127ZM39.566 16.4419L38.034 15.9456C37.5691 15.7902 37.1468 15.5286 36.8004 15.1817C36.454 14.8347 36.1929 14.4119 36.038 13.9467L35.538 12.4179C35.4966 12.2997 35.4195 12.1973 35.3174 12.1249C35.2153 12.0524 35.0932 12.0135 34.968 12.0135C34.8428 12.0135 34.7207 12.0524 34.6186 12.1249C34.5165 12.1973 34.4394 12.2997 34.398 12.4179L33.902 13.9467C33.7499 14.4089 33.4931 14.8298 33.1518 15.1766C32.8104 15.5233 32.3937 15.7865 31.934 15.9456L30.404 16.4419C30.2868 16.4842 30.1854 16.5617 30.1138 16.6638C30.0422 16.7658 30.0038 16.8875 30.0038 17.0122C30.0038 17.1369 30.0422 17.2585 30.1138 17.3606C30.1854 17.4626 30.2868 17.5401 30.404 17.5824L31.934 18.0807C32.4003 18.2363 32.8238 18.4985 33.171 18.8465C33.5182 19.1946 33.7794 19.6189 33.934 20.0857L34.43 21.6144C34.4714 21.7326 34.5485 21.835 34.6506 21.9075C34.7527 21.9799 34.8748 22.0188 35 22.0188C35.1252 22.0188 35.2473 21.9799 35.3494 21.9075C35.4515 21.835 35.5286 21.7326 35.57 21.6144L36.068 20.0857C36.2232 19.6202 36.4845 19.1973 36.8312 18.8503C37.178 18.5034 37.6008 18.2419 38.066 18.0867L39.596 17.5905C39.7132 17.5481 39.8146 17.4706 39.8862 17.3686C39.9578 17.2665 39.9962 17.1449 39.9962 17.0202C39.9962 16.8955 39.9578 16.7738 39.8862 16.6718C39.8146 16.5697 39.7132 16.4922 39.596 16.4499L39.566 16.4419ZM31.75 20.2718C31.87 20.3718 31.944 20.5019 32 20.6339V29.02C32.0002 29.1515 31.9746 29.2817 31.9245 29.4033C31.8744 29.5248 31.8008 29.6353 31.708 29.7284L31.704 29.7304L31.7 29.7344L31.686 29.7484L31.64 29.7924L31.48 29.9405C31.2848 30.1124 31.084 30.2779 30.878 30.4367C30.1602 30.9894 29.3968 31.48 28.596 31.9035C25.9487 33.3069 22.996 34.0348 20 34.0225C17.004 34.0348 14.0513 33.3069 11.404 31.9035C10.6039 31.48 9.84116 30.9893 9.124 30.4367C8.8605 30.2327 8.60562 30.0177 8.36 29.7924C8.24987 29.6956 8.16101 29.5769 8.09904 29.444C8.03708 29.3111 8.00335 29.1667 8 29.02V20.0396L4 17.7425V27.0191C4 27.2844 3.89464 27.5389 3.70711 27.7265C3.51957 27.9141 3.26522 28.0196 3 28.0196C2.73478 28.0196 2.48043 27.9141 2.29289 27.7265C2.10536 27.5389 2 27.2844 2 27.0191V16.0137C1.99987 15.834 2.04808 15.6577 2.13958 15.5031C2.23108 15.3485 2.36248 15.2215 2.52 15.1353L17.012 6.81118C17.9719 6.25984 19.0656 5.9849 20.172 6.01679C20.0561 6.33198 19.9979 6.66545 20 7.00127C20 7.36012 20.062 7.69962 20.186 8.01977C19.4247 7.98402 18.6691 8.1666 18.008 8.54603L5.008 16.0137L18.008 23.4813C18.6142 23.8296 19.301 24.0129 20 24.0129C20.699 24.0129 21.3858 23.8296 21.992 23.4813L29.322 19.2713C29.4673 19.354 29.6227 19.426 29.788 19.4874L31.31 19.9876C31.47 20.0477 31.63 20.1477 31.75 20.2678M22.988 25.2142C22.0787 25.7366 21.0485 26.0115 20 26.0115C18.9515 26.0115 17.9213 25.7366 17.012 25.2142L10 21.1882V28.5738C10.0933 28.6539 10.2087 28.7472 10.346 28.854C10.9751 29.3381 11.6441 29.7679 12.346 30.1386C14.106 31.079 16.696 32.0215 20 32.0215C22.6674 32.0339 25.2965 31.3871 27.654 30.1386C28.4866 29.6973 29.2726 29.1731 30 28.5738V21.1882L22.988 25.2142Z" fill="#E0263E"/>
</g>
<defs>
<clipPath id="clip0_4185_4634">
<rect width="40" height="40.0196" fill="white" transform="translate(0 0.00390625)"/>
</clipPath>
</defs>
</svg>
