<svg width="23" height="18" viewBox="0 0 23 18" fill="none" xmlns="http://www.w3.org/2000/svg">
<path d="M3.5 0.25H18.6667C19.5949 0.25 20.4852 0.618749 21.1415 1.27513C21.7979 1.9315 22.1667 2.82174 22.1667 3.75V14.25C22.1667 15.1783 21.7979 16.0685 21.1415 16.7249C20.4852 17.3813 19.5949 17.75 18.6667 17.75H3.5C2.57174 17.75 1.6815 17.3813 1.02513 16.7249C0.368749 16.0685 0 15.1783 0 14.25V3.75C0 2.82174 0.368749 1.9315 1.02513 1.27513C1.6815 0.618749 2.57174 0.25 3.5 0.25ZM3.5 1.41667C2.91667 1.41667 2.40333 1.615 2.00667 1.965L11.0833 7.83333L20.16 1.965C19.7633 1.615 19.25 1.41667 18.6667 1.41667H3.5ZM11.0833 9.245L1.31833 2.91C1.225 3.16667 1.16667 3.45833 1.16667 3.75V14.25C1.16667 14.8688 1.4125 15.4623 1.85008 15.8999C2.28767 16.3375 2.88116 16.5833 3.5 16.5833H18.6667C19.2855 16.5833 19.879 16.3375 20.3166 15.8999C20.7542 15.4623 21 14.8688 21 14.25V3.75C21 3.45833 20.9417 3.16667 20.8483 2.91L11.0833 9.245Z" fill="#E0263E"/>
</svg>
