<svg width="100" height="100" viewBox="0 0 100 100" fill="none" xmlns="http://www.w3.org/2000/svg">
<circle cx="50" cy="50" r="50" fill="white"/>
<path fill-rule="evenodd" clip-rule="evenodd" d="M29.3488 43.3023C29.3488 37.8861 30.4423 34.5303 32.4863 32.4863C34.5303 30.4423 37.8861 29.3488 43.3023 29.3488H56.6977C62.1139 29.3488 65.4697 30.4423 67.5137 32.4863C69.5577 34.5303 70.6512 37.8861 70.6512 43.3023V56.6977C70.6512 62.1139 69.5577 65.4697 67.5137 67.5137C65.4697 69.5577 62.1139 70.6512 56.6977 70.6512H56.1392V57.7032H59.3764C59.8997 57.7032 60.3686 57.4978 60.6565 57.3251C60.8243 57.2243 61.0422 57.0691 61.2382 56.8429C61.3932 56.6641 61.6346 56.323 61.7023 55.8432L62.6136 51.5148V51.3404C62.6136 50.8688 62.5008 50.3014 62.1649 49.7977C61.796 49.2443 61.1422 48.773 60.2694 48.773H56.1392V44.9776H60.4927C60.974 44.9776 61.6426 44.8562 62.179 44.3198C62.7154 43.7834 62.8369 43.1148 62.8369 42.6334V37.2753C62.8369 36.794 62.7154 36.1254 62.179 35.589C61.6426 35.0526 60.974 34.9311 60.4927 34.9311H54.4648C49.7447 34.9311 46.0927 38.5831 46.0927 43.3032V48.9962H43.9717C43.4904 48.9962 42.8218 49.1177 42.2854 49.6541C41.749 50.1905 41.6276 50.8591 41.6276 51.3404V55.5823C41.6276 56.0636 41.749 56.7322 42.2854 57.2686C42.8218 57.805 43.4904 57.9265 43.9717 57.9265H46.0927V70.6512H43.3023C37.8861 70.6512 34.5303 69.5577 32.4863 67.5137C30.4423 65.4697 29.3488 62.1139 29.3488 56.6977V43.3023ZM52.7903 70.6512H49.4415V54.5776H44.9764V52.3451H49.4415V43.3032C49.4415 40.4326 51.5942 38.28 54.4648 38.28H59.488V41.6288H55.1345C54.6532 41.6288 53.9846 41.7503 53.4482 42.2867C52.9118 42.8231 52.7903 43.4916 52.7903 43.973V52.1218H59.0636L58.5935 54.3544H52.7903V70.6512ZM46.0927 74H43.3023C37.5558 74 33.0976 72.8609 30.1183 69.8817C27.1391 66.9024 26 62.4442 26 56.6977V43.3023C26 37.5558 27.1391 33.0976 30.1183 30.1183C33.0976 27.1391 37.5558 26 43.3023 26H56.6977C62.4442 26 66.9024 27.1391 69.8817 30.1183C72.8609 33.0976 74 37.5558 74 43.3023V56.6977C74 62.4442 72.8609 66.9024 69.8817 69.8817C66.9024 72.8609 62.4442 74 56.6977 74H56.1392V74.0009H46.0927V74Z" fill="#E0263E"/>
</svg>
