<svg width="25" height="25" viewBox="0 0 25 25" fill="none" xmlns="http://www.w3.org/2000/svg">
<mask id="mask0_3031_8783" style="mask-type:alpha" maskUnits="userSpaceOnUse" x="0" y="0" width="25" height="25">
<rect x="0.742188" y="0.640625" width="23.6561" height="23.6561" fill="#515152"/>
</mask>
<g mask="url(#mask0_3031_8783)">
<path d="M19.964 22.8143L18.4855 21.3358L21.4426 18.3788L18.4855 15.4218L19.964 13.9433L24.3996 18.3788L19.964 22.8143ZM8.62886 21.3358V19.3645H4.68618C4.14406 19.3645 3.67998 19.1714 3.29392 18.7854C2.90787 18.3993 2.71484 17.9352 2.71484 17.3931V5.56509C2.71484 5.02297 2.90787 4.55888 3.29392 4.17283C3.67998 3.78678 4.14406 3.59375 4.68618 3.59375H20.4569C20.999 3.59375 21.4631 3.78678 21.8491 4.17283C22.2352 4.55888 22.4282 5.02297 22.4282 5.56509V12.4648H20.4569V5.56509H4.68618V17.3931H17.4999V19.3645H15.5285V21.3358H8.62886ZM11.5859 15.4218H13.5572V12.4648H16.5142V10.4934H13.5572V7.53643H11.5859V10.4934H8.62886V12.4648H11.5859V15.4218Z" fill="#515152"/>
</g>
</svg>
