<svg width="100" height="100" viewBox="0 0 100 100" fill="none" xmlns="http://www.w3.org/2000/svg">
<circle cx="50" cy="50" r="50" fill="white"/>
<path d="M49.5 26C42.9757 26 42.1626 26.0315 39.6093 26.1395C37.0454 26.2655 35.3112 26.6631 33.781 27.2572C32.2028 27.8752 30.8587 28.6958 29.531 30.031C28.1943 31.3587 27.3662 32.7028 26.7572 34.281C26.1631 35.8112 25.7655 37.5454 25.6395 40.1093C25.524 42.6641 25.5 43.4757 25.5 50C25.5 56.5243 25.5315 57.3374 25.6395 59.8907C25.7655 62.4471 26.1631 64.1888 26.7572 65.719C27.3752 67.2972 28.1958 68.6413 29.531 69.969C30.8587 71.3057 32.2028 72.1338 33.781 72.7429C35.3112 73.3294 37.0529 73.7345 39.6093 73.8605C42.1641 73.976 42.9757 74 49.5 74C56.0243 74 56.8374 73.9685 59.3907 73.8605C61.9471 73.7345 63.6888 73.3279 65.219 72.7429C66.7972 72.1248 68.1413 71.3042 69.469 69.969C70.8057 68.6413 71.6338 67.3047 72.2428 65.719C72.8294 64.1888 73.2345 62.4471 73.3605 59.8907C73.476 57.3359 73.5 56.5243 73.5 50C73.5 43.4757 73.4685 42.6626 73.3605 40.1093C73.2345 37.5529 72.8279 35.8022 72.2428 34.281C71.6248 32.7028 70.8042 31.3587 69.469 30.031C68.1413 28.6943 66.8047 27.8662 65.219 27.2572C63.6888 26.6631 61.9471 26.2655 59.3907 26.1395C56.8359 26.024 56.0243 26 49.5 26ZM49.5 30.3205C55.9073 30.3205 56.6724 30.352 59.2047 30.4601C61.5405 30.5696 62.8127 30.9596 63.6573 31.2897C64.7839 31.7262 65.5715 32.2423 66.4236 33.0854C67.2592 33.921 67.7753 34.7176 68.2118 35.8442C68.5419 36.6888 68.9319 37.961 69.0414 40.2968C69.1495 42.8291 69.181 43.5957 69.181 50.0015C69.181 56.4073 69.1495 57.1739 69.0324 59.7062C68.9064 62.042 68.5164 63.3142 68.1878 64.1588C67.7333 65.2854 67.2262 66.073 66.3891 66.9251C65.5445 67.7607 64.7404 68.2768 63.6228 68.7133C62.7887 69.0434 61.4985 69.4334 59.1537 69.5429C56.6079 69.651 55.8578 69.6825 49.434 69.6825C43.0102 69.6825 42.2616 69.651 39.7128 69.5339C37.377 69.4079 36.0883 69.0179 35.2437 68.6893C34.1036 68.2348 33.322 67.7277 32.4849 66.8906C31.6403 66.046 31.1032 65.2419 30.6891 64.1243C30.3531 63.2902 29.9691 62 29.8445 59.6552C29.759 57.1394 29.7185 56.3593 29.7185 49.9655C29.7185 43.5747 29.759 42.7931 29.8445 40.2458C29.9691 37.901 30.3531 36.6138 30.6891 35.7767C31.1032 34.6351 31.6418 33.855 32.4849 33.0104C33.3205 32.1748 34.1036 31.6347 35.2437 31.2117C36.0883 30.8831 37.3455 30.4931 39.6903 30.376C42.2361 30.2845 42.9862 30.2515 49.401 30.2515L49.5 30.3205ZM49.5 37.682C42.6877 37.682 37.179 43.1982 37.179 50.003C37.179 56.8154 42.6952 62.324 49.5 62.324C56.3124 62.324 61.821 56.8079 61.821 50.003C61.821 43.1907 56.3049 37.682 49.5 37.682ZM49.5 58.0035C45.0774 58.0035 41.4995 54.4256 41.4995 50.003C41.4995 45.5805 45.0774 42.0025 49.5 42.0025C53.9226 42.0025 57.5005 45.5805 57.5005 50.003C57.5005 54.4256 53.9226 58.0035 49.5 58.0035ZM65.198 37.1899C65.198 38.7846 63.9003 40.0718 62.3131 40.0718C60.7184 40.0718 59.4312 38.7831 59.4312 37.1899C59.4312 35.6042 60.7274 34.314 62.3131 34.314C63.8988 34.314 65.198 35.6042 65.198 37.1899Z" fill="#E0263E"/>
</svg>
