<svg width="100" height="100" viewBox="0 0 100 100" fill="none" xmlns="http://www.w3.org/2000/svg">
<circle cx="50" cy="50" r="50" fill="white"/>
<path fill-rule="evenodd" clip-rule="evenodd" d="M40.1538 29.6923C34.3761 29.6923 29.6923 34.3761 29.6923 40.1538V59.8462C29.6923 65.6239 34.3761 70.3077 40.1538 70.3077H59.8462C65.6238 70.3077 70.3077 65.6238 70.3077 59.8462V40.1538C70.3077 34.3761 65.6239 29.6923 59.8462 29.6923H40.1538ZM26 40.1538C26 32.3369 32.3369 26 40.1538 26H59.8462C67.663 26 74 32.3369 74 40.1538V59.8462C74 67.6631 67.6631 74 59.8462 74H40.1538C32.3369 74 26 67.663 26 59.8462V40.1538Z" fill="#E0263E"/>
<path d="M41.3892 36.6719C39.5491 36.6719 38.4453 37.7863 38.4453 39.2703C38.4453 40.7543 39.5493 41.8645 41.2047 41.8645C43.0448 41.8645 44.1486 40.7543 44.1486 39.2703C44.1486 37.7863 43.0446 36.6719 41.3892 36.6719ZM38.5921 44.6403V59.783H44.0102V44.6403H38.5921ZM48.4805 44.6403V59.783H53.8986V51.5061C53.8986 49.0422 55.6435 48.688 56.1674 48.688C56.6913 48.688 58.0922 49.2174 58.0922 51.5061V59.783H63.3342V51.5061C63.3342 46.7535 61.2381 44.6403 58.6164 44.6403C55.9948 44.6403 54.5965 45.5198 53.8986 46.7529V44.6403H48.4805Z" fill="#E0263E"/>
</svg>
