<svg width="22" height="22" viewBox="0 0 22 22" fill="none" xmlns="http://www.w3.org/2000/svg">
<path d="M20.8217 14.646L15.6691 12.4116L15.6549 12.4052C15.3874 12.2945 15.0956 12.2501 14.8058 12.276C14.5161 12.3018 14.2377 12.3972 13.9956 12.5534C13.9671 12.5716 13.9397 12.5914 13.9136 12.6127L11.2514 14.809C9.56485 14.0162 7.8236 12.3438 7.00438 10.7329L9.2772 8.11738C9.29907 8.09092 9.31985 8.06445 9.33954 8.03588C9.49751 7.80227 9.59335 7.5345 9.61854 7.25639C9.64373 6.97828 9.59748 6.69846 9.48392 6.44182V6.42912L7.16845 1.43421C7.01832 1.09896 6.76018 0.819681 6.43256 0.638072C6.10494 0.456464 5.72541 0.382265 5.35063 0.42655C3.86857 0.615282 2.50817 1.31965 1.52353 2.4081C0.538886 3.49655 -0.00266977 4.89465 9.89695e-06 6.34127C9.89695e-06 14.7455 7.06563 21.5832 15.75 21.5832C17.2448 21.5858 18.6895 21.0617 19.8143 20.1088C20.939 19.1559 21.6669 17.8394 21.8619 16.4052C21.9077 16.0426 21.8312 15.6754 21.6438 15.3584C21.4563 15.0414 21.168 14.7915 20.8217 14.646ZM15.75 19.8897C12.0382 19.8857 8.47962 18.4571 5.85499 15.9171C3.23036 13.3771 1.75406 9.93332 1.75001 6.34127C1.74589 5.30766 2.13069 4.30795 2.83253 3.52882C3.53438 2.74969 4.50528 2.24443 5.56392 2.1074C5.56348 2.11162 5.56348 2.11588 5.56392 2.1201L7.86079 7.0949L5.60001 9.71355C5.57702 9.73906 5.55617 9.76632 5.53767 9.79505C5.37307 10.0395 5.27652 10.3209 5.25735 10.612C5.23819 10.9032 5.29707 11.1942 5.42829 11.4568C6.41923 13.4182 8.46126 15.3795 10.5099 16.3374C10.7833 16.4632 11.0857 16.5182 11.3876 16.4971C11.6896 16.4759 11.9807 16.3794 12.2325 16.2168C12.2607 16.1985 12.2877 16.1788 12.3134 16.1575L14.9724 13.9622L20.113 16.1903H20.125C19.9851 17.2162 19.4638 18.1577 18.6586 18.8386C17.8533 19.5195 16.8193 19.8931 15.75 19.8897Z" fill="#E0263E"/>
</svg>
