<svg width="29" height="30" viewBox="0 0 29 30" fill="none" xmlns="http://www.w3.org/2000/svg">
<path d="M0.0242884 13.5745C-0.0705329 13.2276 0.129715 12.8976 0.323724 12.5607C1.58323 10.3786 3.21952 8.50713 5.07228 6.81782C6.29435 5.70367 7.54137 4.60511 8.97804 3.78104C12.24 1.91019 15.6948 0.553996 19.4552 0.0798897C19.6922 0.0499462 19.9312 0.0393411 20.1688 0.011269C20.5094 -0.0286557 20.8164 0.0380935 21.1245 0.202159C22.4084 0.886495 23.5537 1.72491 24.3385 2.98254C24.5543 3.32814 24.7047 3.70244 24.8344 4.08859C24.9648 4.47723 24.8943 4.82033 24.6735 5.15283C24.2848 5.73735 23.7533 6.16779 23.1663 6.53023C21.9835 7.26136 20.696 7.76416 19.3803 8.18836C18.5955 8.44101 17.6111 7.95443 17.1127 7.13597C16.7715 6.57577 16.5825 5.96068 16.5032 5.31752C16.4714 5.06238 16.361 4.96256 16.1296 4.9058C15.1389 4.6625 14.2044 4.88958 13.3049 5.27011C11.3567 6.09418 9.59126 7.21956 8.00425 8.61693C7.27874 9.25572 6.67426 9.98872 6.4241 10.9581C6.348 11.2545 6.35673 11.4628 6.66178 11.6593C7.26128 12.0461 7.73663 12.5732 8.09658 13.1946C8.55883 13.9912 8.52639 14.8259 7.92877 15.4753C6.94936 16.5389 5.90945 17.5432 4.66055 18.2981C4.15962 18.6006 3.62687 18.8283 3.04609 18.9337C2.62813 19.0098 2.27505 18.9132 1.95565 18.6218C0.99184 17.7422 0.505257 16.6131 0.23327 15.3723C0.108505 14.8034 0.0355172 14.2264 0.0255361 13.5745H0.0242884Z" fill="#111D3A"/>
<path d="M17.8447 23.562C17.818 23.1262 17.9746 22.9586 18.3144 23.0592C20.2863 23.6394 22.2595 24.2152 24.2283 24.8041C24.4909 24.8827 24.6057 24.8483 24.688 24.5651C25.7123 21.0468 26.746 17.5309 27.7878 14.0169C27.8676 13.7468 27.7971 13.6544 27.542 13.5796C22.7804 12.1835 18.0199 10.7823 13.262 9.37313C12.9888 9.29203 12.8859 9.3513 12.8066 9.62391C12.0094 12.3656 11.1928 15.1017 10.4018 17.8447C10.2989 18.2009 10.1591 18.4479 9.77299 18.4966C9.74304 18.5003 9.71497 18.5196 9.6844 18.5259C9.50849 18.5596 9.31198 18.7754 9.18035 18.6407C9.05871 18.5165 9.22465 18.2926 9.2758 18.1185C10.1392 15.1691 11.0069 12.2203 11.8753 9.27207C12.1423 8.36565 12.5571 8.13546 13.4567 8.39934C18.3075 9.82416 23.1578 11.2496 28.008 12.6757C28.7354 12.8896 29.0099 13.3781 28.7971 14.1036C27.7254 17.7598 26.6518 21.4161 25.5757 25.071C25.3736 25.7579 24.8752 26.0255 24.179 25.8221C22.1759 25.2376 20.1771 24.6381 18.1703 24.0679C17.7885 23.9594 17.8453 23.7055 17.844 23.5614L17.8447 23.562Z" fill="#111D3A"/>
<path d="M27.0043 14.5135C26.9949 14.7799 26.8271 14.9159 26.605 15.0188C25.5501 15.5085 24.4971 16.0032 23.4435 16.4954C21.9376 17.1978 20.4285 17.894 18.9276 18.6064C18.6737 18.7268 18.5352 18.705 18.3687 18.4635C16.7055 16.0525 15.03 13.6495 13.3581 11.244C13.3344 11.2097 13.3094 11.1767 13.2882 11.1411C13.1142 10.8491 13.1604 10.5547 13.4036 10.4C13.6382 10.2509 13.9202 10.3114 14.1092 10.5784C14.6132 11.2908 15.1073 12.0095 15.6051 12.7262C16.6482 14.2278 17.6943 15.7268 18.7292 17.234C18.8783 17.4511 19.0025 17.4729 19.2383 17.3619C21.5109 16.2889 23.7897 15.229 26.0673 14.1666C26.2076 14.1011 26.3461 14.0263 26.5089 14.0263C26.789 14.0263 27.0074 14.2396 27.0049 14.5147L27.0043 14.5135Z" fill="#111D3A"/>
<path d="M24.5452 23.6965C24.5396 23.9679 24.4311 24.1213 24.2265 24.1981C24.005 24.281 23.8116 24.218 23.6725 24.0352C23.5795 23.913 23.5128 23.7689 23.4423 23.6304C22.728 22.2374 22.0156 20.8425 21.3001 19.4501C21.194 19.2443 21.1448 19.0415 21.2882 18.8344C21.3999 18.6728 21.5596 18.6198 21.7492 18.6354C21.9327 18.6504 22.058 18.7527 22.1379 18.9093C22.9239 20.4408 23.7081 21.9729 24.4903 23.5062C24.5265 23.5774 24.5359 23.6628 24.5446 23.6965H24.5452Z" fill="#111D3A"/>
<path d="M13.043 18.1512C13.1403 17.9965 13.2738 17.9547 13.3873 17.8904C13.9718 17.5586 14.5564 17.2261 15.1465 16.9048C15.4541 16.7376 15.7323 16.8037 15.8758 17.0533C16.0205 17.3047 15.9375 17.5816 15.6387 17.7619C15.2669 17.9859 14.8839 18.1917 14.5058 18.4051C14.4229 18.4519 14.3349 18.4831 14.2388 18.4587C13.8508 18.3602 13.4634 18.2597 13.043 18.1518V18.1512Z" fill="#111D3A"/>
<path d="M14.1496 19.4942C13.2725 19.1324 12.3517 19.0588 11.4241 19.1567C9.49083 19.3607 8.01299 20.2753 7.13278 22.0482C6.49773 23.3276 6.39105 24.6776 6.69298 26.0581C7.02174 27.5622 7.945 28.5765 9.38915 29.0706C10.8608 29.574 12.3548 29.5085 13.8327 29.0581C14.3766 28.8921 14.3716 28.8759 14.371 28.2951C14.371 28.191 14.3623 28.0862 14.3723 27.9832C14.3997 27.7044 14.3105 27.6414 14.0379 27.7424C13.1128 28.0868 12.1539 28.2309 11.1646 28.1922C9.6811 28.1342 8.56321 27.3301 8.15336 26.0032C8.04543 25.6533 7.99678 25.2927 7.97868 24.9296C7.84394 22.2147 9.37356 20.3233 12.0529 20.3158C14.0984 20.3102 15.4066 21.5491 15.459 23.5934C15.4758 24.2484 15.4459 24.9084 15.0872 25.4936C14.9562 25.7075 14.769 25.8697 14.4952 25.803C14.23 25.7381 14.1695 25.5035 14.1333 25.2721C14.114 25.1498 14.1202 25.0232 14.1196 24.8984C14.1184 24.473 14.1196 24.0475 14.1196 23.6221C14.1358 23.6221 14.1521 23.6221 14.1689 23.6221C14.1938 23.1555 14.2076 22.6876 14.2469 22.2216C14.2693 21.9571 14.1826 21.8236 13.9162 21.7668C13.2849 21.6315 12.6518 21.5223 12.0042 21.5204C10.0604 21.5148 8.80525 22.8604 8.95497 24.7992C9.01486 25.5715 9.30681 26.2278 9.97991 26.6676C10.8695 27.249 12.0978 27.1754 12.9088 26.4773C13.0766 26.3326 13.1589 26.3338 13.2949 26.5104C13.4621 26.7269 13.6929 26.8791 13.9674 26.9352C14.8907 27.1249 15.7178 26.7768 16.2362 25.9895C16.6305 25.39 16.7784 24.7175 16.8382 24.0151C17.0092 22.0057 15.9655 20.2428 14.1521 19.4949L14.1496 19.4942ZM12.7603 23.6851C12.6898 24.128 12.6929 24.5765 12.5501 25.0057C12.3554 25.5915 11.94 25.8728 11.3492 25.8154C10.8077 25.7624 10.5133 25.4424 10.4241 24.8186C10.3792 24.5054 10.3991 24.196 10.4709 23.8916C10.6929 22.9496 11.6823 22.4069 12.6062 22.7051C12.7547 22.7531 12.7597 22.8535 12.7609 22.9689C12.7628 23.2072 12.7609 23.4455 12.7609 23.6838L12.7603 23.6851Z" fill="#111D3A"/>
</svg>
