<svg width="100" height="100" viewBox="0 0 100 100" fill="none" xmlns="http://www.w3.org/2000/svg">
<circle cx="50" cy="50" r="50" fill="white"/>
<path fill-rule="evenodd" clip-rule="evenodd" d="M50.1281 26H49.8719C44.7183 26 40.6795 26 37.5283 26.4236C34.3028 26.8573 31.7577 27.7622 29.7599 29.7599C27.7622 31.7577 26.8573 34.3028 26.4236 37.5283C26 40.6795 26 44.7183 26 49.8719V50.1281C26 55.2818 26 59.3205 26.4236 62.4717C26.8573 65.6971 27.7622 68.2425 29.7599 70.2402C31.7577 72.2378 34.3028 73.1427 37.5283 73.5765C40.6795 74 44.7183 74 49.8719 74H50.1281C55.2818 74 59.3205 74 62.4717 73.5765C65.6971 73.1427 68.2425 72.2378 70.2402 70.2402C72.2378 68.2425 73.1427 65.6971 73.5765 62.4717C74 59.3205 74 55.2818 74 50.1281V49.8719C74 44.7183 74 40.6795 73.5765 37.5283C73.1427 34.3028 72.2378 31.7577 70.2402 29.7599C68.2425 27.7622 65.6971 26.8573 62.4717 26.4236C59.3205 26 55.2818 26 50.1281 26ZM32.1279 32.1279C33.3997 30.8561 35.1204 30.1263 37.9745 29.7426C40.8768 29.3524 44.6905 29.3488 50 29.3488C55.3095 29.3488 59.1231 29.3524 62.0255 29.7426C64.8796 30.1263 66.6002 30.8561 67.8721 32.1279C69.144 33.3997 69.8738 35.1204 70.2573 37.9745C70.6476 40.8768 70.6512 44.6905 70.6512 50C70.6512 55.3095 70.6476 59.1231 70.2573 62.0255C69.8738 64.8796 69.144 66.6002 67.8721 67.8721C66.6002 69.144 64.8796 69.8738 62.0255 70.2573C59.1231 70.6476 55.3095 70.6512 50 70.6512C44.6905 70.6512 40.8768 70.6476 37.9745 70.2573C35.1204 69.8738 33.3997 69.144 32.1279 67.8721C30.8561 66.6002 30.1263 64.8796 29.7426 62.0255C29.3524 59.1231 29.3488 55.3095 29.3488 50C29.3488 44.6905 29.3524 40.8768 29.7426 37.9745C30.1263 35.1204 30.8561 33.3997 32.1279 32.1279Z" fill="#E0263E"/>
<path d="M56.0143 39.6953H62.8799L44.7797 62.1645H37.9141L56.0143 39.6953Z" fill="#E0263E"/>
<path fill-rule="evenodd" clip-rule="evenodd" d="M36.7864 39.1548C36.9938 38.7212 37.4318 38.4453 37.9124 38.4453H44.778C45.1557 38.4453 45.5131 38.6164 45.7501 38.9105L63.8503 61.3797C64.1518 61.754 64.2116 62.2682 64.0042 62.7017C63.7967 63.1352 63.3588 63.4111 62.8782 63.4111H56.0126C55.6348 63.4111 55.2774 63.2401 55.0405 62.9459L36.9403 40.4767C36.6388 40.1024 36.5789 39.5883 36.7864 39.1548ZM40.5209 40.9419L56.6099 60.9145H60.2697L44.1806 40.9419H40.5209Z" fill="#E0263E"/>
</svg>
