<svg width="100" height="100" viewBox="0 0 100 100" fill="none" xmlns="http://www.w3.org/2000/svg">
<circle cx="50" cy="50" r="50" fill="white"/>
<path fill-rule="evenodd" clip-rule="evenodd" d="M39.3333 31.3846C33.0741 31.3846 28 35.6781 28 40.9744V59.0256C28 64.3219 33.0741 68.6154 39.3333 68.6154H60.6667C66.9258 68.6154 72 64.3219 72 59.0256V40.9744C72 35.6781 66.9258 31.3846 60.6667 31.3846H39.3333ZM24 40.9744C24 33.8088 30.865 28 39.3333 28H60.6667C69.135 28 76 33.8088 76 40.9744V59.0256C76 66.1911 69.135 72 60.6667 72H39.3333C30.865 72 24 66.1911 24 59.0256V40.9744Z" fill="#E0263E"/>
<path d="M60.6483 43.1179C60.5416 42.7083 60.2399 42.3993 59.8944 42.304C59.2805 42.1359 56.3 41.75 50 41.75C43.7 41.75 40.7202 42.136 40.1038 42.3044C39.7615 42.3979 39.4598 42.7069 39.3518 43.1179C39.1994 43.7014 38.8 46.1444 38.8 50C38.8 53.8555 39.1994 56.2986 39.3522 56.8838C39.4584 57.2918 39.7601 57.6007 40.1041 57.6956C40.7202 57.864 43.7 58.25 50 58.25C56.3 58.25 59.2805 57.8642 59.8962 57.6956C60.2385 57.6021 60.5402 57.2931 60.6483 56.8821C60.8006 56.2986 61.2 53.85 61.2 50C61.2 46.15 60.8006 43.7014 60.6483 43.1179ZM63.3605 42.435C64 44.885 64 50 64 50C64 50 64 55.115 63.3605 57.565C63.0042 58.92 61.9644 59.985 60.6464 60.3449C58.2545 61 50 61 50 61C50 61 41.7503 61 39.3535 60.3449C38.0307 59.98 36.9909 58.915 36.6395 57.565C36 55.115 36 50 36 50C36 50 36 44.885 36.6395 42.435C36.9958 41.08 38.0356 40.015 39.3535 39.655C41.7503 39 50 39 50 39C50 39 58.2545 39 60.6464 39.655C61.9693 40.02 63.0091 41.085 63.3605 42.435ZM47.2 54.8125V45.1875L55.6 50L47.2 54.8125Z" fill="#E0263E"/>
</svg>
