<?xml version="1.0" encoding="UTF-8"?>
<svg id="Layer_1" data-name="Layer 1" xmlns="http://www.w3.org/2000/svg" width="72" height="72" viewBox="0 0 72 72">
  <path d="m38.34,72c-.64,0-1.12-.18-1.33-.25-2.47-.9-4.93-2.06-7.54-3.53-2.25-1.27-4.42-2.75-6.45-4.39-.05,0-.1-.01-.16-.02-3.78-.6-6.79-2.65-8.78-5.96-.68-.13-3.15-.59-3.15-.59l-.82-.16c-.53-.1-1.06-.21-1.59-.29-1.92-.3-3.16-1.79-3.15-3.79.01-3.14.01-6.28,0-9.43v-4.57c0-1.8,0-3.6,0-5.4,0-2.14,1.51-3.67,3.59-3.67.03,0,.15,0,.16,0,0-1.82,0-3.65,0-5.47,0-2.34,0-4.69,0-7.03,0-1.9,1.13-3.35,2.96-3.79,1.52-.37,3.03-.61,4.48-.85.49-.08.98-.16,1.47-.25,2.64-.46,5.28-.87,7.84-1.22,4.93-.68,8.75-.98,12.38-.98.71,0,1.41.01,2.12.04,2.32.08,4.72.28,7.32.6,3.44.42,6.1.81,8.61,1.24,1.58.27,3.17.58,4.71.88l1.82.35h.06c.56.06,1.86.19,2.83,1.31,1.09,1.24.93,2.73.87,3.29v.1c0,2.48,0,4.97,0,7.45v1.73c0,.07,0,.14,0,.2,0,.89,0,1.78.01,2.67.01,2.17.02,4.42-.03,6.65-.09,4.14-.94,8.26-2.51,12.25-1.28,3.24-3.07,6.32-5.34,9.14-2.2,2.73-4.74,5.14-7.77,7.37-2.59,1.9-5.45,3.57-8.75,5.09-.57.26-1.12.47-1.65.68-.28.11-.56.22-.83.33-.44.18-.9.27-1.37.27Z" style="fill: #fff; stroke-width: 0px;"/>
  <path d="m63.31,16.87c-.21-.24-.72-.21-1.1-.28-2.16-.41-4.32-.84-6.48-1.22-2.8-.49-5.62-.87-8.45-1.22-2.34-.29-4.69-.49-7.05-.58-4.68-.17-9.32.28-13.95.92-2.58.36-5.16.76-7.73,1.21-1.92.33-3.84.6-5.74,1.05-.4.1-.53.25-.53.69.02,5.04,0,10.07.02,15.11,0,.52-.16.62-.6.6-.9-.03-1.8.01-2.7-.02-.36-.01-.46.08-.46.46.02,2.4,0,4.8,0,7.21,0,4.08,0,8.15,0,12.23,0,.39.09.57.47.63.83.13,1.66.31,2.5.47,1.45.27,2.89.55,4.34.81.22.04.34.12.45.34,1.48,3.04,3.79,4.87,7.04,5.38.41.06.84.02,1.24.35,2.02,1.67,4.16,3.15,6.44,4.44,2.28,1.29,4.62,2.42,7.07,3.31.13.05.23.08.38.02.78-.33,1.59-.6,2.36-.96,2.87-1.33,5.62-2.87,8.2-4.77,2.66-1.96,5.08-4.2,7.18-6.81,2.02-2.51,3.66-5.26,4.86-8.31,1.41-3.58,2.2-7.3,2.29-11.15.07-3.15.01-6.3.01-9.45h0s0,0,0,0c0-3.08,0-6.16,0-9.23,0-.42.17-.96-.07-1.24Z" style="fill: #fff; stroke-width: 0px;"/>
  <path d="m25.88,15.47c-1.52,0-3.26-1.04-3.46-3.32-.15-1.7-.34-3.39-.54-5.18l-.21-1.94c-.14-1.31.54-2.57,1.71-3.17.46-.24.96-.35,1.46-.35.76,0,1.52.28,2.12.81l.46.41c.36.31.69.61,1.02.92.79.73,1.35,1.19,1.9,1.35.26.08.51.12.77.12.84,0,1.63-.4,2.16-1.09l.29-.38c.65-.83,1.32-1.7,2.07-2.56.62-.7,1.49-1.08,2.39-1.08.38,0,.76.07,1.12.2.59.22,1.08.61,1.44,1.09l.56.72c.44.56.88,1.12,1.3,1.67.62.81,1.41,1.25,2.24,1.25.62,0,1.24-.25,1.82-.71.48-.39.96-.8,1.46-1.23.27-.23.54-.46.83-.7.59-.5,1.32-.75,2.06-.75.5,0,1.01.12,1.47.36,1.15.6,1.82,1.83,1.7,3.11l-.08.95c-.05.61-.11,1.19-.17,1.77-.06.6-.13,1.2-.2,1.79-.1.89-.2,1.78-.28,2.67-.22,2.25-1.94,3.27-3.45,3.27-.23,0-.45-.02-.69-.06-1.92-.33-3.91-.56-5.79-.77-1.69-.19-3.43-.28-5.17-.28-.98,0-1.99.03-2.99.09-1.51.09-3.07.24-4.64.44-.47.06-.94.11-1.42.16-.85.09-1.66.18-2.41.32-.18.04-.48.09-.85.09h0Z" style="fill: #fff; stroke-width: 0px;"/>
  <path d="m26.12,12.25c1.33-.26,2.68-.35,4.03-.52,1.61-.21,3.24-.36,4.86-.46,2.9-.17,5.8-.11,8.7.2,2,.22,4,.45,5.99.8.32.06.39-.05.42-.37.14-1.5.33-2.99.49-4.49.09-.85.16-1.71.25-2.68-.84.71-1.57,1.36-2.33,1.97-2.77,2.25-6.4,1.78-8.59-1.08-.61-.8-1.24-1.59-1.9-2.43h0c-.8.91-1.52,1.86-2.25,2.79-1.53,1.97-4.04,2.77-6.37,2.07-1.24-.37-2.21-1.2-3.15-2.07-.45-.42-.92-.82-1.43-1.28.27,2.45.54,4.81.76,7.18.04.49.25.44.54.39Z" style="fill: #fff; stroke-width: 0px;"/>
  <path d="m63.39,27.34c0,3.15.06,6.3-.01,9.45-.09,3.86-.88,7.58-2.29,11.15-1.2,3.04-2.84,5.79-4.86,8.31-2.1,2.61-4.51,4.85-7.18,6.81-2.57,1.89-5.32,3.44-8.2,4.77-.77.36-1.58.63-2.36.96-.14.06-.24.02-.38-.02-2.45-.9-4.79-2.02-7.07-3.31-2.27-1.28-4.42-2.76-6.44-4.44-.4-.33-.83-.28-1.24-.35-3.25-.51-5.57-2.34-7.04-5.38-.11-.22-.23-.3-.45-.34-1.45-.26-2.9-.54-4.34-.81-.83-.16-1.66-.33-2.5-.47-.38-.06-.47-.24-.47-.63.01-4.07,0-8.15,0-12.23,0-2.4,0-4.81,0-7.21,0-.38.1-.47.46-.46.9.03,1.8-.01,2.7.02.44.01.6-.08.6-.6-.02-5.04,0-10.07-.02-15.11,0-.45.13-.6.53-.69,1.9-.46,3.82-.72,5.74-1.05,2.57-.45,5.14-.85,7.73-1.21,4.63-.64,9.28-1.09,13.95-.92,2.35.08,4.71.29,7.05.58,2.82.35,5.64.73,8.45,1.22,2.17.38,4.32.81,6.48,1.22.38.07.88.04,1.1.28.24.28.07.82.07,1.24,0,3.08,0,6.16,0,9.23h0,0Z" style="fill: #1d2c4e; stroke-width: 0px;"/>
  <path d="m38.02,3.18c.66.84,1.29,1.63,1.9,2.43,2.19,2.86,5.82,3.33,8.59,1.08.76-.62,1.49-1.26,2.33-1.97-.09.97-.16,1.83-.25,2.68-.16,1.5-.34,2.99-.48,4.49-.03.33-.1.43-.42.37-1.99-.35-3.99-.58-5.99-.8-2.89-.32-5.79-.37-8.7-.2-1.63.1-3.25.25-4.86.46-1.34.17-2.7.26-4.03.52-.29.06-.49.11-.54-.39-.21-2.36-.49-4.72-.76-7.18.51.46.98.86,1.43,1.28.94.87,1.91,1.7,3.15,2.07,2.32.7,4.84-.1,6.37-2.07.73-.93,1.44-1.88,2.25-2.79h0Z" style="fill: #e0263e; stroke-width: 0px;"/>
  <path d="m29.02,34.08c-.47.35-.96.67-1.4,1.05-1.72,1.5-2.66,3.44-2.95,5.8-.21-.41-.16-.83-.26-1.21-.87-3.3-2.88-5.42-6.02-6.34-.83-.24-1.71-.26-2.57-.23-.31.01-.4-.07-.4-.41.01-4.28.01-8.57,0-12.85,0-.31.12-.39.36-.43,2.2-.37,4.4-.74,6.6-1.1,1.7-.28,3.41-.56,5.12-.8,1.95-.27,3.9-.45,5.86-.59,1.2-.09,2.4-.18,3.61-.17.13.21,0,.37-.08.54-1.02,2.3-2.14,4.57-3.17,6.87-1.23,2.73-2.56,5.42-3.76,8.16-.26.6-.52,1.2-.92,1.71h0Z" style="fill: #f1f7fd; stroke-width: 0px;"/>
  <path d="m40.75,39.38c0-1.48,0-2.96,0-4.43.15-.45.5-.76.8-1.09,1.31-1.4,2.52-2.88,3.77-4.33,1.71-1.99,3.47-3.94,5.14-5.97,1.1-1.33,2.27-2.59,3.4-3.89.34-.39.56-.91,1.07-1.1,1.16.08,2.29.39,3.44.57.53.08,1.06.2,1.6.29.22.04.37.09.37.39-.02,1.83-.02,3.65-.03,5.48-.23.41-.65.57-.99.82-3.3,2.44-6.65,4.81-9.97,7.23-2.69,1.96-5.38,3.91-8.1,5.84-.15.1-.28.27-.5.2h0Z" style="fill: #f1f7fd; stroke-width: 0px;"/>
  <path d="m38.24,33.1c-1.79.08-3.58.08-5.37,0-.1-.19.02-.34.09-.5.9-2.03,1.87-4.02,2.79-6.05,1.32-2.92,2.72-5.8,4.03-8.73.16-.35.26-.74.6-.96,1.42-.06,2.83.11,4.24.23,1.51.13,3.02.31,4.52.52.7.1,1.41.12,2.1.34.06.23-.07.38-.2.51-1.35,1.43-2.6,2.95-3.88,4.44-1.23,1.42-2.47,2.83-3.67,4.28-.8.97-1.67,1.86-2.46,2.84-.77.95-1.65,1.79-2.38,2.77-.11.15-.26.23-.41.31h0Z" style="fill: #f1f7fd; stroke-width: 0px;"/>
  <path d="m46.09,61.23c-1.15.82-2.35,1.55-3.61,2.17-.22.04-.44.02-.65-.04-3.56-.99-7.13-1.94-10.68-2.95-.49-.14-.99-.23-1.49-.37-.24-.07-.51-.09-.65-.37,1.74-1.08,3.09-2.55,3.98-4.47.47-.19.97-.17,1.45-.17,5.9,0,11.8,0,17.69,0,.28,0,.58-.06.82.19-.94,1.09-1.92,2.14-3.05,3.02-.26.11-.53.12-.8.12h-13.01c-.32,0-.63-.06-.95-.06-.07.02.02.11-.01.05,0-.02,0-.03.04-.03.24-.04.48.01.7.08,3.25.93,6.53,1.69,9.79,2.6.16.04.35.04.42.24h0Z" style="fill: #e0263e; stroke-width: 0px;"/>
  <path d="m60.29,29.33c0,2.55.01,5.1.01,7.65,0,.12-.05.24-.08.36-.55.48-1.24.65-1.88.91-2.96,1.2-5.89,2.48-8.84,3.71-2.76,1.15-5.52,2.31-8.28,3.47-.15.06-.3.18-.48.06v-2.16c.36-.51.9-.8,1.39-1.15,2-1.41,3.99-2.84,5.97-4.27,1.86-1.34,3.72-2.68,5.58-4.02,2.03-1.46,4.03-2.96,6.1-4.35.16-.1.3-.24.51-.21h0Z" style="fill: #f1f7fd; stroke-width: 0px;"/>
  <path d="m24.64,43.66c3.91-.07,7.14,3.26,7.18,7.42.04,4.47-3.43,7.68-7.25,7.65-3.92-.03-7.19-3.45-7.17-7.58.02-4.01,3.14-7.57,7.24-7.48Z" style="fill: #f1f7fd; stroke-width: 0px;"/>
  <path d="m60.29,29.33c-1.73,1.24-3.47,2.49-5.2,3.73-4.59,3.29-9.17,6.58-13.76,9.86-.2.14-.39.27-.59.41v-3.95c2.67-1.93,5.33-3.87,8-5.8,2.28-1.65,4.58-3.28,6.86-4.92,1.56-1.12,3.12-2.24,4.68-3.36v4.03h0Z" style="fill: #e0263e; stroke-width: 0px;"/>
  <path d="m40.74,45.49c3.12-1.32,6.23-2.63,9.35-3.94,3.31-1.39,6.62-2.78,9.93-4.17.06-.03.13-.03.2-.04,0,1.24-.18,2.46-.41,3.67-.15.18-.34.29-.55.37-1.97.73-3.87,1.64-5.82,2.44-4.06,1.68-8.11,3.39-12.16,5.1-.17.07-.34.17-.54.08v-3.51Z" style="fill: #e0263e; stroke-width: 0px;"/>
  <path d="m38.24,33.1c1.61-1.87,3.21-3.75,4.82-5.62,2.05-2.38,4.1-4.77,6.15-7.14.68-.79,1.41-1.53,2.02-2.38,1.24.15,2.47.33,3.68.62-1.21,1.39-2.42,2.78-3.62,4.18-1.35,1.57-2.7,3.14-4.05,4.71-1.94,2.24-3.87,4.48-5.82,6.71-.23.26-.4.58-.69.78,0-.42-.05-.85,0-1.27.04-.44-.16-.53-.52-.56-.66-.04-1.31.13-1.97-.02h0Z" style="fill: #e0263e; stroke-width: 0px;"/>
  <path d="m40.75,48.99c3.36-1.42,6.73-2.84,10.09-4.26,2.63-1.11,5.26-2.22,7.89-3.33.36-.15.73-.27,1.09-.41-.2,1.43-.59,2.8-1.04,4.16-.18.54-.27,1.13-.6,1.61-.17.17-.38.22-.6.26-4.24.85-8.47,1.75-12.72,2.53-1.15.21-2.3.46-3.46.68-.21.04-.44.11-.64-.04v-1.22h0Z" style="fill: #f1f7fd; stroke-width: 0px;"/>
  <path d="m40.38,16.86c-1.23,2.66-2.47,5.32-3.7,7.98-1.27,2.75-2.54,5.51-3.8,8.26-.83.15-1.69.09-2.5.42-.46.18-.91.38-1.37.56.65-1.42,1.3-2.84,1.95-4.25,1.47-3.2,2.95-6.39,4.43-9.59.53-1.14,1.04-2.29,1.56-3.44,1.14-.03,2.29-.08,3.43.06Z" style="fill: #e0263e; stroke-width: 0px;"/>
  <path d="m40.74,50.21c1.43-.28,2.86-.55,4.28-.83,4.2-.83,8.4-1.67,12.59-2.5.18-.04.37-.07.55-.1-.47,1.32-1.11,2.54-1.83,3.71-.18.15-.38.21-.6.26-4.75.96-9.52,1.85-14.27,2.8-.24.05-.5.16-.73-.04v-3.29s.01,0,.01,0Z" style="fill: #e0263e; stroke-width: 0px;"/>
  <path d="m40.72,53.5c1.01-.11,1.99-.37,2.98-.56,2.58-.49,5.17-.98,7.75-1.49,1.56-.31,3.11-.64,4.66-.96.07-.01.14,0,.2,0-.9,1.75-2.11,3.26-3.37,4.72-2.89,0-5.77-.01-8.66-.01-3.77,0-7.54,0-11.31,0,.06-.23.24-.2.41-.23,2.38-.46,4.77-.92,7.15-1.38.06-.01.12-.06.18-.09h0s0,0,0,0Z" style="fill: #f1f7fd; stroke-width: 0px;"/>
  <path d="m29.01,59.67c1.37.38,2.73.76,4.1,1.13,2.2.61,4.39,1.23,6.6,1.81.93.25,1.86.49,2.77.78-1.25.78-2.6,1.36-3.95,1.93-.21.09-.43.02-.64-.07-1.46-.61-2.88-1.3-4.29-2.04-1.73-.91-3.39-1.92-4.96-3.1-.05-.04-.1-.09-.17-.15.19-.12.32-.27.53-.3h0Z" style="fill: #f1f7fd; stroke-width: 0px;"/>
  <path d="m46.1,61.23c-1.52-.39-3.05-.79-4.57-1.18-2.1-.55-4.19-1.1-6.29-1.65-.11-.03-.23-.05-.32-.2h.93c4.52,0,9.04,0,13.55,0,.17,0,.34.02.51.03-.67.69-1.4,1.3-2.18,1.85-.54.38-1.09.77-1.63,1.15h0Z" style="fill: #f1f7fd; stroke-width: 0px;"/>
  <path d="m24.68,22.36c.29.94.58,1.88.86,2.83.08.26.21.34.47.34.92-.02,1.84,0,2.91,0-.65.51-1.18.95-1.73,1.37-.89.69-.89.68-.56,1.79.21.69.4,1.37.63,2.12-.85-.48-1.52-1.1-2.25-1.64-.3-.22-.5-.2-.78.02-.72.55-1.4,1.16-2.27,1.64.31-.99.6-1.91.9-2.82.1-.3.06-.46-.2-.65-.74-.55-1.46-1.13-2.15-1.82.86,0,1.71-.03,2.57.01.45.02.6-.15.71-.58.23-.88.52-1.74.79-2.61.04,0,.07.01.11.02h0Z" style="fill: #e0263e; stroke-width: 0px;"/>
  <path d="m24.59,56.72c-2.91-.04-5.32-2.59-5.28-5.59.04-3.01,2.48-5.51,5.34-5.48,3.04.04,5.37,2.59,5.27,5.82-.09,2.86-2.52,5.28-5.33,5.24h0Z" style="fill: #e0263e; stroke-width: 0px;"/>
  <path d="m24.64,50.41c-1.05,0-1.06,0-.95-1.08.07-.69.27-1.34.65-1.92.17-.26.36-.32.54-.03.55.86.7,1.85.81,2.86.02.19-.13.18-.24.18h-.81,0Z" style="fill: #f1f7fd; stroke-width: 0px;"/>
  <path d="m24.67,51.96c.76,0,1.05.39.88,1.16-.14.64-.29,1.27-.66,1.81-.19.28-.37.33-.57,0-.53-.82-.66-1.76-.74-2.71-.02-.23.1-.26.28-.26.27,0,.54,0,.81,0h0Z" style="fill: #f1f7fd; stroke-width: 0px;"/>
  <path d="m22.5,54.5c-.85-.52-1.25-1.32-1.55-2.2-.08-.24-.01-.34.25-.35.87-.05.86-.06.97.84.07.55.21,1.1.33,1.71h0Z" style="fill: #f1f7fd; stroke-width: 0px;"/>
  <path d="m26.69,54.53c.22-.79.37-1.46.4-2.14.02-.39.18-.44.5-.44.9.01.93.03.52.87-.31.65-.71,1.24-1.43,1.7h0Z" style="fill: #f1f7fd; stroke-width: 0px;"/>
  <path d="m26.73,47.86c.86.58,1.31,1.34,1.61,2.22.07.21.03.31-.23.33-.96.08-.96.07-1.07-.95-.06-.5-.19-.99-.31-1.6Z" style="fill: #f1f7fd; stroke-width: 0px;"/>
  <path d="m22.52,47.86c-.21.82-.34,1.55-.4,2.28-.01.19-.1.29-.29.27-.3-.03-.72.14-.87-.08-.17-.26.1-.63.23-.93.28-.6.66-1.1,1.32-1.54h0Z" style="fill: #f1f7fd; stroke-width: 0px;"/>
</svg>