<?xml version="1.0" encoding="UTF-8"?>
<svg id="Layer_1" data-name="Layer 1" xmlns="http://www.w3.org/2000/svg" width="822.82" height="294.46" viewBox="0 0 822.82 294.46">
  <path d="m257.73,108.39c0,14.13.26,28.27-.07,42.39-.41,17.31-4.13,34-10.75,50.04-5.63,13.65-13.34,25.99-22.85,37.26-9.87,11.7-21.22,21.74-33.74,30.54-12.1,8.5-25.03,15.44-38.53,21.39-3.63,1.6-7.42,2.84-11.11,4.3-.68.27-1.15.11-1.78-.11-11.5-4.02-22.51-9.08-33.24-14.86-10.69-5.76-20.77-12.4-30.27-19.91-1.87-1.48-3.89-1.26-5.84-1.55-15.27-2.3-26.17-10.52-33.11-24.14-.5-.99-1.07-1.35-2.11-1.53-6.81-1.17-13.61-2.42-20.41-3.64-3.91-.7-7.81-1.49-11.73-2.09-1.79-.27-2.22-1.09-2.21-2.83.07-18.28.04-36.56.04-54.85,0-10.78.04-21.56-.04-32.33-.01-1.7.46-2.13,2.14-2.08,4.23.13,8.48-.05,12.71.08,2.07.06,2.81-.38,2.8-2.7-.1-22.59-.03-45.19-.11-67.78,0-2,.62-2.67,2.48-3.1,8.92-2.05,17.98-3.24,26.99-4.73,12.08-2.01,24.18-3.82,36.33-5.42,21.78-2.87,43.61-4.87,65.59-4.12,11.07.38,22.12,1.3,33.14,2.59,13.28,1.56,26.53,3.29,39.71,5.48,10.18,1.69,20.32,3.62,30.48,5.46,1.78.32,4.16.16,5.15,1.24,1.15,1.25.35,3.66.35,5.56.03,13.81.02,27.62.02,41.43-.01,0-.03,0-.04,0Z" style="fill: #072543; stroke-width: 0px;"/>
  <g>
    <path d="m427.59,94.35c-3.8,9.07-7.59,18.15-11.41,27.21-3.7,8.78-7.44,17.54-11.15,26.3-.27.64-.29,1.55-1.2,1.58-.89.02-1.01-.82-1.29-1.49-5.12-12.04-10.25-24.08-15.42-36.1-2.5-5.81-5.11-11.58-8.05-17.37,0,.57,0,1.15,0,1.72,0,14.61.12,29.22-.07,43.83-.05,4.32,2.49,7.65,7.16,7.58.16,0,.32.02.48.02.76,0,1.49.06,1.42,1.12-.07,1.02-.88.74-1.45.75-5.68.02-11.35.01-17.03.01-.64,0-1.28,0-1.92,0-.6,0-1.09-.04-1.06-.87.02-.75.42-.94,1.06-.94.4,0,.8-.04,1.2-.07,4.4-.34,6.47-2.45,6.49-6.91.06-9.66.03-19.32.03-28.98,0-5.67.03-11.34-.06-17-.06-3.92-1.81-5.45-5.81-5.62-.94-.04-2.68.75-2.71-.81-.04-1.94,1.85-.97,2.83-.98,6.79-.1,13.59,0,20.39-.09,1.66-.02,2.47.48,3.14,2.08,5.29,12.58,10.71,25.11,16.09,37.66.09.21.23.41.51.89.95-2.15,1.87-4.1,2.69-6.09,4.43-10.78,8.87-21.56,13.21-32.38.63-1.56,1.4-2.16,3.13-2.13,7.03.11,14.07.03,21.11.08.74,0,1.98-.58,2.07.85.1,1.57-1.22.91-1.92.93-5.16.14-6.72,1.6-6.74,6.78-.04,15.17-.04,30.34-.01,45.5,0,4.74,1.54,6.18,6.37,6.25.48,0,.96,0,1.44,0,.76,0,.9.46.9,1.1,0,.69-.43.75-.94.75-1.76,0-3.52,0-5.28,0-8.07,0-16.15.03-24.22-.04-.71,0-2.16.84-2.15-.9.01-1.49,1.29-.85,2.01-.87,5.34-.17,6.68-1.37,6.7-6.69.06-15.25.03-30.5.03-45.74,0-.29-.08-.58-.12-.87l-.44-.03Z" style="fill: #b51919; stroke-width: 0px;"/>
    <path d="m482.33,149.5c-8.31,0-16.63.01-24.94-.03-.72,0-2,.57-1.91-.97.07-1.29,1.18-.79,1.86-.82,2.39-.11,4.89.11,6.23-2.52.66-1.31.8-2.78.8-4.19.05-15.25.08-30.49,0-45.74-.02-4.14-2.16-6.03-6.33-6.09-.56,0-1.12,0-1.68-.01-.45-.01-.76-.2-.76-.7,0-.5.09-.99.7-1.06.55-.06,1.12-.06,1.67-.06,15.75,0,31.5.04,47.24-.05,2.07-.01,2.5.6,2.44,2.53-.14,4.71-.02,9.42-.07,14.13,0,.65.62,1.69-.62,1.96-1.4.3-1.19-.88-1.43-1.64-1.24-4.01-2.15-8.18-6.22-10.58-2.6-1.54-5.35-2.45-8.33-2.54-3.35-.1-6.72,0-10.07-.09-1.26-.04-1.6.34-1.59,1.59.05,7.34.06,14.69-.05,22.03-.02,1.62.62,1.82,1.97,1.74,5.07-.31,8.63-3.21,10.08-8.35.49-1.75,1.07-3.5,1-5.36-.03-.79.31-1.16,1.14-1.11.86.05.76.66.76,1.2,0,10.06,0,20.12,0,30.17,0,.57.22,1.31-.85,1.3-1.11,0-1.02-.71-1.07-1.44-.19-2.82-1.05-5.45-2.4-7.92-2.01-3.7-5.33-5.01-9.35-5.09-.93-.02-1.26.27-1.25,1.21.05,6.78-.08,13.57.14,20.35.12,3.75,1.56,4.84,5.4,4.77,3.73-.06,7.44.18,11.17-.75,6.97-1.75,10.85-6.5,13.51-12.69.09-.22.05-.52.19-.68.58-.71.18-2.5,1.75-2.04,1.18.35.54,1.68.43,2.48-.7,5.11-1.62,10.2-2.26,15.32-.19,1.52-.76,1.77-2.1,1.77-8.39-.05-16.79-.03-25.18-.03Z" style="fill: #b51919; stroke-width: 0px;"/>
    <path d="m811.25,125.14c0-2.46,0-4.98,0-7.5,0-6.38.06-12.77-.02-19.15-.08-6.22-2.3-9.15-7.97-9.31-.61-.02-1.1-.07-1.08-.89.02-.78.5-.92,1.11-.92,6.15,0,12.31,0,18.46,0,.64,0,1.04.15,1.06.92.02.81-.48.76-1.04.93-6.47,2.04-7.1,2.87-7.1,9.82-.02,16.44,0,32.88-.03,49.32,0,.85.59,2.07-.52,2.54-1.23.52-1.81-.68-2.44-1.45-9.72-12-19.38-24.05-29.18-35.99-3.79-4.62-8.24-8.69-11.48-13.77-.68.46-.49.9-.49,1.25-.01,12.77-.04,25.54,0,38.31.02,5.82,2.4,8.23,8.34,8.76.6.05,1.62-.5,1.68.69.07,1.4-1.1.86-1.74.87-6.31.04-12.63.04-18.94,0-.64,0-1.78.58-1.78-.82,0-1.28,1.17-.88,1.81-.99,1.87-.33,3.82-.33,5.23-1.91,1.59-1.79,2-3.99,2.01-6.22.05-14.44.04-28.89.02-43.33,0-2.69-4.04-6.39-7.52-7.08-.58-.12-1.6.42-1.56-.85.04-1.3,1.05-.97,1.77-.97,6.39-.02,12.79.04,19.18-.04,1.44-.02,2.14.72,2.9,1.69,9.33,11.8,18.68,23.59,28.03,35.37.27.34.38.93,1.29.74Z" style="fill: #b51919; stroke-width: 0px;"/>
    <path d="m682.23,135.59c1.64,4.41-.91,6.83-3.75,8.99-5.27,4.02-11.24,6.12-17.9,6.42-7.83.35-15.33-.92-21.97-5.09-8.84-5.55-13.48-13.93-13.89-24.26-.6-15.27,6.5-26.23,20.17-32.77,6.64-3.18,13.82-3.36,21.04-1.98,3.46.66,6.67,2.05,9.98,3.16,2.89.98,4.16.39,5.5-2.45.31-.66.35-1.68,1.53-1.37,1.03.28.67,1.15.67,1.79.03,5.82.06,11.65,0,17.47,0,.74.54,1.97-.78,2.16-1.41.21-1.29-1.1-1.55-1.95-2.56-8.28-7.82-13.65-16.51-15.38-7.97-1.58-17.54,3.9-20.53,11.47-4.49,11.38-4.06,22.69.14,33.95,2.45,6.56,7.44,10.13,14.39,10.88,9.46,1.03,16.64-3.13,22.55-10.07.25-.29.52-.57.91-1Z" style="fill: #b51919; stroke-width: 0px;"/>
    <path d="m602.39,149.59c-4.88,0-9.75.02-14.62-.03-.64,0-1.82.54-1.81-.82,0-1.27,1.09-.89,1.81-.91,1.36-.03,2.68-.24,4-.55,1.51-.36,2.35-1.35,2.68-2.74.29-1.23.49-2.52.5-3.78.04-14.76.05-29.53.02-44.29,0-5.68-1.53-7.15-7.26-7.33-.68-.02-1.79.47-1.75-.9.04-1.29,1.11-.91,1.81-.91,9.83-.02,19.66-.02,29.49,0,.62,0,1.55-.34,1.61.84.07,1.4-1,.92-1.68.98-.95.09-1.95-.07-2.86.14-3.22.72-4.47,2.62-4.48,6.86-.03,12.93-.02,25.86-.03,38.78,0,2.07-.02,4.15.02,6.22.08,4.79,1.42,6.23,6.18,6.68.32.03.65-.02.96.04.68.15,1.83-.44,1.86.83.04,1.31-1.12.85-1.8.86-2.8.05-5.59.02-8.39.02-2.08,0-4.16,0-6.23,0Z" style="fill: #b51919; stroke-width: 0px;"/>
    <path d="m583.99,147.61c-2.5-.13-4.02-1.71-5.36-3.56-5.31-7.36-10.6-14.73-15.92-22.08-.98-1.36-.71-1.8.93-2.3,12.75-3.9,14.01-16.25,9.3-23.78-3.68-5.9-9.67-7.68-16.17-8.17-7.01-.53-14.05-.45-21.08-.41-1.28,0-2.56,0-3.84,0-3.92,0-7.83-.02-11.75.02-.78,0-1.96-.44-1.96,1.01,0,1.4,1.16.6,1.79.82.22.07.48.02.72.03,3.82.14,5.48,1.59,6.04,5.32.13.86.13,1.75.14,2.63,0,14.13,0,28.25,0,42.38,0,1.36-.22,2.69-.36,4.04-.27,2.67-1.95,3.64-4.27,4-.79.12-1.6.06-2.39.15-.74.08-1.81-.12-1.65,1.13.15,1.09,1.14.65,1.75.66,6.79.03,13.59.02,20.38.02,2.8,0,5.6,0,8.39,0,.51,0,1.18.19,1.21-.7.03-.73-.37-.97-1.02-1.01-.48-.03-.95-.11-1.43-.14-4.85-.35-6.14-1.66-6.18-6.5-.05-5.83-.04-11.65,0-17.48,0-.77-.57-2.04.67-2.21,1.26-.18,2.74-.69,3.84.54.63.71,1.2,1.49,1.74,2.27,5.15,7.37,10.21,14.8,15.48,22.08.9,1.25,1.36,3.26,3.72,3.22,5.67-.1,11.35.01,17.02.02.56,0,1.38.29,1.42-.76.03-.81-.47-1.15-1.19-1.19Zm-24.21-38.08c-1.38,5.33-5.47,8.11-12.09,8.37q-6.43.26-6.43-6.01c0-2.47,0-4.94,0-7.41,0-3.9.09-7.81-.04-11.71-.05-1.65.53-2.1,2.04-1.99,2.3.16,4.64.04,6.92.34,4.54.58,7.78,2.93,9.28,7.4,1.22,3.64,1.27,7.33.32,11.01Z" style="fill: #b51919; stroke-width: 0px;"/>
    <path d="m362.18,147.53c-1.93-.36-3.22-1.59-4.25-3.19-2.21-3.43-3.76-7.18-5.39-10.88-6.7-15.18-13.34-30.38-20.02-45.57-.27-.62-.33-1.58-1.22-1.6-1.01-.03-1.14,1.06-1.42,1.69-2.88,6.37-5.6,12.8-8.5,19.15-5.35,11.7-10.19,23.63-16.1,35.07-1.34,2.6-3.14,4.57-6.1,5.25-.71.16-1.76.01-1.52,1.29.21,1.1,1.11.71,1.74.71,5.28.03,10.55.08,15.82-.05.96-.02,2.8,1.01,2.89-.87.09-1.73-1.69-.85-2.61-.99-4.59-.72-6.06-2.71-4.92-6.94.75-2.78,2.23-5.26,3.27-7.91.4-1.01,1.21-.86,1.99-.86,6.23,0,12.47.03,18.7-.02,1.11,0,1.74.3,2.17,1.35,1.04,2.57,2.28,5.07,3.27,7.66,2.04,5.32,1.18,6.53-4.55,6.84-.68.04-1.79-.43-1.8.9,0,1.32,1.1.9,1.79.9,4.4.04,8.79.02,13.19.02v.03c4.4,0,8.79.03,13.19-.03.64,0,1.71.63,1.9-.7.19-1.25-.76-1.1-1.53-1.24Zm-44.9-19.1c-1.35,0-1.18-.55-.78-1.46,2.85-6.42,5.67-12.85,8.79-19.94,3.22,7.5,6.13,14.3,9.17,21.38-5.92,0-11.55-.02-17.18.01Z" style="fill: #b51919; stroke-width: 0px;"/>
    <path d="m754.16,147.61c-2.49-.26-3.83-1.84-4.95-3.93-4.1-7.65-7.34-15.68-10.85-23.59-4.74-10.66-9.33-21.38-14.01-32.07-.27-.62-.38-1.58-1.19-1.66-1.03-.1-1.13,1.03-1.43,1.67-2.44,5.25-4.85,10.52-7.18,15.82-5.53,12.57-11.05,25.14-16.99,37.52-1.36,2.82-3.2,5.37-6.56,6.18-.77.18-1.74.15-1.53,1.33.22,1.25,1.27.67,1.95.68,5.11.05,10.23.1,15.34,0,1.1-.02,3.11.9,3.21-.73.11-1.93-2.03-1.08-3.18-1.22-4-.5-5.2-2.23-4.53-6.33.51-3.13,2.28-5.73,3.31-8.62.28-.79.86-.79,1.52-.79,6.39,0,12.78.03,19.18-.02,1.05,0,1.59.37,1.98,1.28,1.36,3.22,2.87,6.37,4.1,9.64,1.16,3.06.16,4.47-3.07,4.87-.79.1-1.59.2-2.37.34-.55.1-1.4-.31-1.44.75-.05,1.25.91.85,1.52.85,4.47.03,8.95.01,13.42.02s8.95.02,13.42-.02c.63,0,1.57.39,1.71-.73.12-.99-.61-1.16-1.38-1.24Zm-30.6-19.18c-5.24,0-10.48,0-15.97,0,3.16-7.11,6.21-13.97,9.39-21.13,2.84,6.44,5.56,12.5,8.2,18.61,1.07,2.48.99,2.52-1.62,2.52Z" style="fill: #b51919; stroke-width: 0px;"/>
  </g>
  <g>
    <path d="m344.61,179.52c-3.63,8.67-7.25,17.35-11.18,26.76-4.01-9.34-7.74-18.04-11.48-26.75-.16.03-.31.07-.47.1,0,5.14,0,10.28,0,15.42,0,1.12,0,2.24,0,3.35q0,5.02,4.78,6.97h-10.5c.23-1,1.06-.6,1.56-.82,1.43-.63,2.3-1.55,2.29-3.25-.04-7.34-.05-14.69,0-22.03.02-1.82-.9-2.57-2.47-2.94-.47-.11-1.15.28-1.52-.93,3.97,0,7.8,0,11.64,0,.9,0,.8.78,1.04,1.35,2.59,6.02,5.21,12.04,7.99,18.44,1.25-2.99,2.4-5.66,3.5-8.36,1.34-3.3,2.63-6.62,3.96-9.92.32-.79.53-1.58,1.76-1.55,3.43.1,6.87.04,10.31.05.3,0,.64.01.68.45-.21.64-.75.43-1.18.46-2.07.11-3.02,1.36-3.03,3.27-.04,7.34,0,14.69-.02,22.03,0,2.87,2.2,2.99,4.17,3.72h-15.59c.09-.22.13-.45.2-.47,4.08-.72,4.1-.72,4.11-5.06.02-6.75,0-13.5,0-20.25-.18-.01-.36-.02-.54-.03Z" style="fill: #082644; stroke-width: 0px;"/>
    <path d="m404.76,182.26v15.76c-1.18-.55-1.08-1.44-1.27-2.22-.65-2.74-2.35-4.41-4.5-4.61-.88-.08-1.33.09-1.31,1.1.07,3.19.08,6.38.1,9.57,0,1.14.55,1.72,1.69,1.91,3.79.63,9.98.02,12.19-5.53.3-.76.7-1.48,1.36-2.85.43,3.76-.83,6.62-.89,9.58-.01.65-.62.62-1.09.62-8.21,0-16.42,0-24.64,0,.02-.34-.01-.61.04-.62q3.79-1.12,3.81-5.15c0-5.74,0-11.49,0-17.23q0-4.93-3.99-6.85c.56-.54,1.21-.33,1.79-.33,7.11-.02,14.22.02,21.33-.05,1.43-.01,1.98.29,1.89,1.83-.14,2.35-.04,4.72-.04,7.03-.81.19-.86-.2-.97-.6-1.29-4.7-3.34-6.29-8.16-6.34q-4.39-.04-4.39,4.23c0,2.15.07,4.31-.02,6.46-.06,1.26.46,1.44,1.54,1.35,2.03-.18,3.67-1.82,4.26-4.5.18-.82.02-1.75,1.28-2.53Z" style="fill: #082644; stroke-width: 0px;"/>
    <path d="m654.88,205.14c.37-.72,1.09-.37,1.64-.5,1.41-.33,2.24-1.11,2.23-2.65-.01-7.66-.02-15.32.01-22.98,0-1.62-.98-2.21-2.26-2.66-.54-.19-1.29.29-1.65-.54.43-.73,1.14-.42,1.71-.42,7.11-.03,14.22.02,21.33-.05,1.43-.01,2.01.32,1.94,1.84-.11,2.33-.03,4.67-.03,7.08-1.05-.22-1.02-.85-1.09-1.22-.83-3.92-3.53-5.79-8.38-5.8-4.3,0-4.3-.02-4.3,4.17,0,2.07.11,4.16-.03,6.22-.12,1.69.65,1.84,1.99,1.63,1.97-.32,3.04-1.59,3.66-3.33.38-1.08.63-2.2,1.36-3.25v15.04c-1,.05-.63-.81-.79-1.33-.69-2.35-1.54-4.57-4.35-5.15-1.22-.25-1.96-.12-1.87,1.47.16,2.78.14,5.57.17,8.36.03,2.15,1.31,2.99,3.23,2.94,6.19-.14,9.41-1.6,11.35-7.09.13-.35.08-.82.93-.84.13,2.98-.75,5.84-1,8.76-.06.75-.7.75-1.28.75-8.07-.02-16.14-.05-24.2-.09-.09,0-.18-.19-.32-.36Z" style="fill: #082643; stroke-width: 0px;"/>
    <path d="m602.62,175.61q-4.31,2.4-4.31,7.24c0,7.03,0,14.05-.02,21.08,0,.75.31,1.58-.52,2.54-6.72-8.24-13.38-16.41-20.04-24.57-.17.03-.35.05-.52.08,0,1.21,0,2.42,0,3.63,0,4.71,0,9.42.01,14.13,0,3.65.53,4.25,4.26,4.98.17.03.31.26.74.66h-10.66c4.4-.88,4.14-4.23,4.14-7.42,0-4.71-.08-9.42.03-14.13.08-3.53.17-6.93-4.74-7.79.16-.21.32-.42.49-.62,3.37,0,6.74-.05,10.1.04.71.02,1.03.9,1.46,1.46,4.4,5.55,8.81,11.08,13.51,16.56.06-5.08.74-10.12-.25-15.11-.37-1.87-2.47-1.64-4.36-2.75h10.69Z" style="fill: #092644; stroke-width: 0px;"/>
    <path d="m538.52,175.57h15.63c-.1.3-.13.53-.2.55-3.94.72-4.06.79-3.99,4.95.09,5.9-.13,11.8.16,17.7.17,3.44,2.57,4.81,4.9,5.23,2.99.55,6.18-1.11,7.41-3.62,1.04-2.14,1.2-4.44,1.24-6.73.08-3.83.07-7.66.01-11.5-.07-5-.45-4.95-4.16-6.5h10.23c-.07.67-.49.61-.88.65-2.36.19-3.32,1.6-3.32,3.83,0,3.43.03,6.87-.03,10.3-.04,2.55-.08,5.11-.34,7.64-.36,3.58-2.49,6.08-5.71,7.34-3.41,1.33-7.02,1.36-10.56.19-3.86-1.28-6.15-4.49-6.23-8.95-.08-4.79-.03-9.58-.03-14.37q0-4.7-4.12-6.7Z" style="fill: #082643; stroke-width: 0px;"/>
    <path d="m737.74,174.88c.34,3.48.72,6.65.13,9.95-.71-1.42-1.33-2.89-2.15-4.25-1.84-3.06-5.4-4.54-8.54-3.85-1.63.35-2.53,1.39-3.02,2.75-.52,1.48.03,2.79,1.21,3.85,2.53,2.29,5.86,3.16,8.67,4.97,1.28.82,2.55,1.61,3.59,2.73,4.49,4.82,2.66,12.29-3.56,14.55-2.98,1.08-5.98,1.11-8.86-.16-2.13-.94-4.01-1.41-5.84,1.23v-12c1.02.95.97,1.87,1.24,2.62,1.64,4.57,5.22,7.48,9.23,7.4,2.33-.04,4.25-.93,5.05-3.24.76-2.2-.32-3.92-2.04-5.15-2.84-2.03-6.26-3.07-9.11-5.13-2.42-1.75-4.34-3.77-4.53-6.92-.41-7.02,6.44-11.41,13.48-8.64.44.17.88.39,1.29.62,1.6.89,3.02,1.18,3.76-1.32Z" style="fill: #0a2745; stroke-width: 0px;"/>
    <path d="m815.03,205.44h-16.7c.47-1.14,1.38-.7,2.05-.77,1.8-.18,2.65-1.06,2.78-2.92.32-4.53-.21-8.76-2.89-12.67-1.83-2.67-3.09-5.71-4.68-8.55-1.12-1.98-2.18-4.08-4.72-4.92h14.27c-.02.12-.01.38-.07.4-3.38,1.06-3.41,1.08-1.69,4.28,1.91,3.56,3.89,7.09,6.03,10.97,2.41-4.3,5.32-8.11,7.28-12.52.42-.96.03-1.52-.79-1.89-.75-.33-1.54-.58-2.25-1.27h8.75c-5.45,4.7-8.35,11.27-11.65,17.42-1.48,2.76-.58,6.56-.19,9.87.14,1.15,1.12,1.69,2.27,1.75.75.04,1.5,0,2.24,0-.01.26-.02.53-.03.79Z" style="fill: #082643; stroke-width: 0px;"/>
    <path d="m788.77,183.51c-1.18-.17-1.15-.87-1.33-1.32-1.65-4.22-3.36-5.27-7.79-4.97-1.17.08-1.42.51-1.42,1.59.05,7.33,0,14.67.05,22,.01,2.28,1.31,3.58,3.56,3.86.38.05.74.18,1.11.29.02,0,.01.14.03.42h-16.17c.15-.31.19-.53.27-.55,4.05-.63,4.07-.63,4.08-4.8.01-6.86-.05-13.71.04-20.57.02-1.71-.27-2.35-2.17-2.25-3.82.2-5.33,1.25-6.63,5.24-.14.42.02,1.06-.71.98-.75-.08-.39-.72-.48-1.12-.03-.15-.03-.32-.02-.48.02-2.07-.75-4.76.27-6.03,1.06-1.32,3.88-.4,5.93-.42,6.31-.05,12.62.1,18.92-.08,2.23-.06,2.72.65,2.52,2.66-.17,1.79-.04,3.61-.04,5.55Z" style="fill: #082543; stroke-width: 0px;"/>
    <path d="m499.6,205.58q4.14-1.99,4.15-6.95c0-5.27.02-10.54,0-15.8-.02-3.14.94-6.89-4.16-7.25h15.7c-.07.27-.08.52-.14.53q-4.12.81-4.13,5.1c0,6.54.05,13.09-.02,19.63-.02,2.18.87,3.11,3,2.94.16-.01.32,0,.48,0,7.82.03,8.68-.55,11.7-7.8.14-.33.09-.82,1.04-.94-.15,2.32-.27,4.6-.46,6.87-.07.87-.35,1.72-.39,2.59-.04.83-.39,1.1-1.17,1.1-8.53-.01-17.06,0-25.58,0Z" style="fill: #072543; stroke-width: 0px;"/>
    <path d="m639.81,196.41c2.83-5.63,5.04-11.14,7.28-16.64.6-1.48.03-2.65-1.62-3.12-.67-.19-1.33-.39-1.96-1h10.04c-5.63,3.45-6.57,9.51-9.1,14.57-2.41,4.82-4.44,9.83-6.64,14.75-.22.49-.33,1.21-1.02,1.15-.78-.06-.81-.9-1.04-1.43-3.64-8.44-7.1-16.96-10.96-25.32-.8-1.73-2.03-2.63-3.46-3.78h14.25c-.1.26-.13.5-.21.51-3.6.8-3.84,1.28-2.32,4.77,2.2,5.07,4.41,10.14,6.76,15.54Z" style="fill: #092644; stroke-width: 0px;"/>
    <path d="m604.01,205.39c.8-1.07,1.59-.57,2.24-.73,1.33-.33,2.13-1.03,2.13-2.46,0-7.82.04-15.64-.03-23.46-.02-2.65-2.47-2.15-4.05-3.05h15.49c-.03.15-.04.4-.1.41-3.97.89-4.02.96-4.02,5.02,0,5.67,0,11.33,0,17q0,5.27,4.56,7.28h-16.22Z" style="fill: #072543; stroke-width: 0px;"/>
    <path d="m313.62,205.42h-15.56c.04-.23.04-.48.1-.5q4.1-.98,4.1-5.45c0-5.75,0-11.49,0-17.24q0-4.89-4.22-6.61h15.54c-5.19.23-4.19,4.04-4.21,7.18-.02,5.51,0,11.01,0,16.52q.01,4.67,4.24,6.09Z" style="fill: #082644; stroke-width: 0px;"/>
    <path d="m448.81,175.53h16.05c-.08.3-.1.55-.16.56q-4.1.89-4.1,5.14c0,5.82,0,11.63,0,17.45q0,5.01,4.25,6.65h-15.58c.04-.21.04-.47.09-.48q4.04-.77,4.04-5.09c0-6.37,0-12.75,0-19.12,0-3.63-.09-3.72-3.75-4.41-.18-.03-.32-.26-.84-.71Z" style="fill: #082643; stroke-width: 0px;"/>
    <path d="m758.48,175.46c-.02.37,0,.5-.04.51q-4.17,1.5-4.17,6.18c0,5.75,0,11.49,0,17.24q0,4.57,4.18,5.91h-15.52c.1-.21.14-.44.23-.45,3.88-.68,3.96-.73,3.99-4.7.04-6.07,0-12.13,0-18.2q0-4.74-4.24-6.24c5.17-.48,10.35-.34,15.55-.25Z" style="fill: #082543; stroke-width: 0px;"/>
    <path d="m706.1,191.4c.06-.05.12-.11.19-.13,4.87-1.89,6.67-4.39,6.17-8.6-.44-3.74-3.36-6.19-8.01-6.84-6.37-.9-12.76-.28-19.14-.4-.15,0-.31.27-.5.44,4.21,1.45,4.22,1.45,4.24,6.2.02,5.27.05,10.54-.01,15.8-.04,3.15,1.26,7.15-4.11,7.43h15.18q-3.93-1.3-3.93-5.52c0-1.92-.07-3.83.03-5.74.04-.76-.62-1.85.56-2.26,1.19-.41,1.65.65,2.18,1.4,2.61,3.71,5.19,7.43,7.82,11.13.34.48.49,1.24,1.3,1.24,3.04,0,6.08,0,9.72,0-3.3-2.01-8.77-8.81-11.69-14.14Zm-1.91-3.69c-1.25,2-4.62,3.1-7.27,2.53-1.02-.22-.73-.88-.74-1.44-.03-1.75-.01-3.5-.01-5.26,0-.72-.08-1.45.02-2.15.21-1.4-.78-3.19.58-4.15,1.36-.97,5.64.32,6.87,1.68,1.73,1.92,2.02,6.44.56,8.78Z" style="fill: #082644; stroke-width: 0px;"/>
    <path d="m437.25,191.47c5.14-1.74,6.85-4.07,6.65-8.63-.15-3.26-2.73-6.13-6.59-6.8-6.86-1.2-13.8-.68-20.71-.46-.02,0-.03.15-.05.22,4.68,2.03,3.71.69,3.84,6.61.12,5.5.03,11,.03,16.51q0,4.65-4.13,6.38h15.48q-4.26-1.38-4.26-6.02c0-1.75-.07-3.51.02-5.26.04-.76-.6-1.89.6-2.24,1.09-.32,1.69.51,2.27,1.35,2.53,3.66,5.1,7.29,7.67,10.93.36.51.8,1.35,1.22,1.37,3.08.12,6.16.06,9.25.06-4.89-4.03-7.32-9.55-11.29-14.01Zm-1.64-3.63c-1.19,1.87-4.76,2.96-7.35,2.39-1.01-.22-.74-.88-.76-1.43-.04-1.75-.01-3.51-.01-5.26,0-.72-.08-1.45.02-2.15.21-1.4-.79-3.2.61-4.13,1.51-1,5.9.34,7.09,1.78,1.7,2.05,1.9,6.44.4,8.81Z" style="fill: #082644; stroke-width: 0px;"/>
    <path d="m377.25,176.1c-6.12-1.43-12.32-.43-18.5-.48q4.09,1.71,4.09,6.47c0,5.98.01,11.96,0,17.94,0,3.92-.02,3.91-3.89,4.76-.13.03-.2.36-.3.58h15.61q-4.38-1.77-4.37-6.46c0-.32,0-.64,0-.96.05-1.9-.61-4.44.36-5.51.94-1.04,3.55-.59,5.43-.74,4.22-.33,7.89-3.57,8.2-7.31.34-4.02-2.16-7.24-6.63-8.29Zm-5.71,14.13c-1.19.07-1.73-.18-1.69-1.52.09-3.35.11-6.7.02-10.05-.03-1.22.37-1.48,1.49-1.42,3.31.17,4.99,2.33,4.99,6.53,0,4.03-1.72,6.29-4.8,6.46Z" style="fill: #082643; stroke-width: 0px;"/>
    <path d="m494.01,200.66c-2.33-5.38-4.66-10.75-7.04-16.11-1.43-3.22-2.94-6.4-4.4-9.57-.67.21-.77.6-.93.97-2.34,5.29-4.48,10.67-7.1,15.82-2.37,4.66-3.14,10.34-8.36,13.57h9.99c-.21-.76-.66-.66-1.03-.73-2.86-.48-3.37-1.62-2.53-4.29.84-2.67,2.26-3.93,5.13-3.41.93.17,1.91.03,2.87.03q4.28,0,5.84,4.05c1.14,2.94.99,3.19-2.24,3.72-.38.06-.5.31-.44.6h14.22c-2.25-.91-3.16-2.72-3.99-4.64Zm-11.33-5.24c-2.16-.02-4.31-.03-6.47,0-1.26.02-1.01-.63-.68-1.37,1.3-2.88,2.6-5.76,4.01-8.89,1.33,3.06,2.6,5.96,3.86,8.86.33.76.47,1.4-.73,1.39Z" style="fill: #092644; stroke-width: 0px;"/>
  </g>
  <g>
    <path d="m75.61,181.6c18.37-.31,33.57,14.62,33.75,33.28.2,20.05-16.11,34.45-34.07,34.3-18.42-.15-33.8-15.46-33.7-34.01.1-18,14.74-33.97,34.02-33.57Z" style="fill: #fefefe; stroke-width: 0px;"/>
    <g>
      <path d="m96.12,138.62c-2.2,1.57-4.51,3-6.58,4.72-8.08,6.72-12.5,15.44-13.88,26-.97-1.82-.76-3.72-1.24-5.45-4.1-14.79-13.54-24.31-28.31-28.43-3.91-1.09-8.03-1.18-12.1-1.02-1.46.06-1.88-.33-1.88-1.83.05-19.22.05-38.45-.01-57.67,0-1.39.56-1.77,1.69-1.95,10.35-1.64,20.7-3.32,31.05-4.93,8.01-1.24,16.03-2.49,24.06-3.57,9.15-1.23,18.35-2,27.56-2.64,5.64-.39,11.29-.82,16.95-.76.63.93-.04,1.68-.39,2.43-4.81,10.34-10.05,20.48-14.9,30.8-5.77,12.27-12.04,24.3-17.69,36.63-1.22,2.67-2.43,5.37-4.33,7.67Z" style="fill: #fefefe; stroke-width: 0px;"/>
      <path d="m151.26,162.38c0-6.63.01-13.26.02-19.89.71-2.04,2.34-3.43,3.76-4.88,6.14-6.26,11.85-12.91,17.71-19.41,8.04-8.93,16.3-17.68,24.16-26.77,5.16-5.96,10.65-11.62,15.97-17.43,1.58-1.73,2.61-4.07,5.04-4.94,5.46.38,10.77,1.77,16.17,2.56,2.51.37,4.99.88,7.5,1.28,1.03.17,1.74.39,1.72,1.73-.09,8.19-.1,16.39-.14,24.58-1.07,1.83-3.04,2.55-4.65,3.69-15.51,10.96-31.26,21.58-46.87,32.42-12.65,8.79-25.31,17.55-38.07,26.19-.7.47-1.32,1.22-2.34.88Z" style="fill: #fefefe; stroke-width: 0px;"/>
      <path d="m139.53,134.21c-8.41.35-16.82.38-25.23.01-.47-.85.08-1.54.41-2.23,4.24-9.1,8.81-18.05,13.1-27.12,6.2-13.11,12.8-26.03,18.94-39.17.73-1.56,1.23-3.31,2.82-4.32,6.68-.28,13.31.51,19.94,1.04,7.1.57,14.19,1.4,21.26,2.32,3.29.43,6.65.53,9.86,1.53.29,1.01-.33,1.69-.93,2.31-6.33,6.41-12.21,13.23-18.24,19.9-5.76,6.38-11.62,12.68-17.23,19.2-3.74,4.34-7.86,8.36-11.57,12.73-3.61,4.26-7.75,8.03-11.2,12.42-.52.66-1.21,1.01-1.91,1.38Z" style="fill: #fefefe; stroke-width: 0px;"/>
      <path d="m243.17,117.28c.03,11.44.06,22.88.06,34.32,0,.53-.25,1.07-.39,1.6-2.58,2.14-5.83,2.92-8.84,4.08-13.93,5.39-27.71,11.12-41.57,16.66-12.98,5.18-25.95,10.37-38.91,15.59-.72.29-1.43.8-2.25.25,0-3.23,0-6.46,0-9.68,1.71-2.3,4.25-3.6,6.54-5.14,9.4-6.32,18.74-12.72,28.07-19.15,8.73-6.02,17.47-12.04,26.22-18.03,9.55-6.53,18.96-13.26,28.69-19.53.73-.47,1.41-1.09,2.38-.96Z" style="fill: #fefefe; stroke-width: 0px;"/>
      <path d="m151.27,205.52c15.81-6.37,31.63-12.74,47.44-19.11,12.36-4.98,24.71-9.96,37.07-14.92,1.68-.68,3.42-1.22,5.13-1.82-.94,6.41-2.78,12.58-4.91,18.67-.85,2.44-1.27,5.06-2.83,7.22-.78.77-1.8.99-2.83,1.18-19.93,3.82-39.83,7.83-59.82,11.36-5.43.96-10.83,2.05-16.25,3.07-1.01.19-2.05.5-3.01-.18,0-1.82,0-3.64,0-5.46Z" style="fill: #fefefe; stroke-width: 0px;"/>
      <path d="m151.2,225.73c4.74-.51,9.36-1.65,14.03-2.51,12.15-2.22,24.31-4.41,36.45-6.68,7.32-1.37,14.61-2.87,21.92-4.3.31-.06.64-.02.95-.03-4.21,7.86-9.9,14.62-15.86,21.18-13.57-.02-27.14-.05-40.71-.06-17.72-.01-35.44-.01-53.16-.02.26-1.04,1.15-.89,1.91-1.03,11.21-2.05,22.42-4.11,33.63-6.18.29-.05.55-.25.83-.39Z" style="fill: #fefefe; stroke-width: 0px;"/>
      <path d="m96.13,253.39c6.43,1.7,12.85,3.4,19.28,5.09,10.34,2.72,20.66,5.5,31.03,8.13,4.36,1.11,8.73,2.18,13.03,3.52-5.9,3.49-12.22,6.09-18.55,8.64-.97.39-2,.09-3.01-.31-6.87-2.72-13.56-5.83-20.15-9.15-8.11-4.09-15.94-8.62-23.32-13.92-.25-.18-.48-.4-.79-.67.87-.52,1.52-1.21,2.49-1.34Z" style="fill: #fefefe; stroke-width: 0px;"/>
      <path d="m176.44,260.39c-7.16-1.77-14.33-3.53-21.49-5.31-9.85-2.45-19.7-4.92-29.55-7.4-.51-.13-1.08-.23-1.51-.9,1.54,0,2.95,0,4.36,0,21.24,0,42.48.01,63.72.03.8,0,1.59.08,2.39.13-3.16,3.09-6.59,5.84-10.27,8.29-2.56,1.71-5.11,3.44-7.66,5.17Z" style="fill: #fefefe; stroke-width: 0px;"/>
    </g>
  </g>
  <g>
    <path d="m138.53,0c3.09,3.77,6.05,7.31,8.94,10.92,10.3,12.84,27.36,14.92,40.39,4.84,3.57-2.76,7.02-5.66,10.97-8.85-.42,4.37-.74,8.21-1.16,12.04-.74,6.72-1.61,13.43-2.28,20.15-.15,1.47-.48,1.93-1.98,1.68-9.34-1.55-18.75-2.59-28.16-3.57-13.6-1.42-27.23-1.68-40.88-.91-7.64.43-15.26,1.13-22.85,2.06-6.31.78-12.67,1.17-18.93,2.33-1.37.25-2.32.48-2.53-1.73-1.01-10.6-2.32-21.18-3.57-32.19,2.41,2.05,4.6,3.85,6.72,5.73,4.43,3.92,8.98,7.61,14.82,9.29,10.92,3.16,22.73-.44,29.93-9.27,3.42-4.19,6.79-8.42,10.57-12.53Z" style="fill: #b51919; stroke-width: 0px;"/>
    <path d="m176.44,260.39c-5.4,3.7-11.06,6.94-16.98,9.74-1.04.2-2.05.07-3.07-.2-16.74-4.43-33.52-8.7-50.22-13.25-2.31-.63-4.67-1.05-6.99-1.66-1.13-.3-2.4-.42-3.05-1.64,8.2-4.86,14.54-11.46,18.71-20.07,2.22-.84,4.55-.75,6.84-.76,27.72-.02,55.45-.02,83.17,0,1.32,0,2.75-.29,3.85.84-4.43,4.88-9.02,9.59-14.34,13.54-1.21.48-2.48.54-3.77.54-20.38,0-40.77-.01-61.15,0-1.49,0-2.97-.28-4.46-.26-.32.1.08.5-.06.22-.04-.09.03-.12.19-.14,1.14-.2,2.24.06,3.3.35,15.27,4.17,30.72,7.6,46.02,11.65.74.2,1.64.17,1.99,1.09Z" style="fill: #b51919; stroke-width: 0px;"/>
    <path d="m243.17,117.28c-8.15,5.57-16.31,11.15-24.46,16.72-21.56,14.75-43.11,29.5-64.67,44.25-.92.63-1.85,1.23-2.77,1.84,0-5.91,0-11.81,0-17.72,12.54-8.68,25.06-17.37,37.62-26.02,10.74-7.39,21.51-14.73,32.27-22.09,7.34-5.02,14.68-10.04,22.02-15.06,0,6.03,0,12.05,0,18.08Z" style="fill: #b51919; stroke-width: 0px;"/>
    <path d="m151.27,189.78c14.65-5.9,29.3-11.81,43.96-17.69,15.55-6.24,31.11-12.47,46.67-18.69.29-.12.62-.13.94-.2,0,5.56-.84,11.03-1.93,16.46-.69.82-1.61,1.3-2.6,1.65-9.26,3.29-18.21,7.36-27.35,10.96-19.1,7.52-38.13,15.22-57.17,22.9-.8.32-1.6.78-2.52.35,0-5.25,0-10.5,0-15.74Z" style="fill: #b51919; stroke-width: 0px;"/>
    <path d="m139.53,134.21c7.55-8.41,15.1-16.82,22.66-25.22,9.63-10.69,19.26-21.38,28.92-32.05,3.2-3.53,6.64-6.85,9.51-10.68,5.81.68,11.6,1.49,17.31,2.79-5.68,6.25-11.36,12.49-17.02,18.74-6.36,7.03-12.68,14.09-19.05,21.12-9.1,10.04-18.21,20.08-27.34,30.09-1.07,1.17-1.88,2.59-3.24,3.48-.03-1.9-.22-3.82-.04-5.71.18-1.98-.74-2.39-2.44-2.49-3.09-.19-6.18.57-9.27-.08Z" style="fill: #b51919; stroke-width: 0px;"/>
    <path d="m149.56,61.37c-5.8,11.93-11.61,23.85-17.39,35.79-5.98,12.35-11.92,24.71-17.88,37.06-3.9.68-7.96.41-11.74,1.87-2.15.83-4.29,1.69-6.44,2.53,3.05-6.36,6.09-12.73,9.16-19.08,6.93-14.34,13.88-28.67,20.81-43.02,2.48-5.13,4.9-10.29,7.35-15.44,5.38-.12,10.76-.36,16.13.29Z" style="fill: #b51919; stroke-width: 0px;"/>
    <path d="m151.26,210.98c6.71-1.24,13.43-2.45,20.13-3.72,19.74-3.73,39.47-7.49,59.2-11.23.86-.16,1.72-.31,2.57-.47-2.19,5.91-5.2,11.38-8.6,16.66-.83.67-1.8.96-2.84,1.17-22.33,4.32-44.74,8.29-67.08,12.55-1.14.22-2.34.71-3.44-.2l.05-14.75Z" style="fill: #b51919; stroke-width: 0px;"/>
    <path d="m75.76,86.04c1.35,4.22,2.74,8.44,4.04,12.68.36,1.18.98,1.54,2.22,1.52,4.31-.09,8.63-.03,13.69-.03-3.05,2.3-5.57,4.25-8.14,6.13-4.2,3.09-4.2,3.07-2.65,8.01.97,3.08,1.9,6.16,2.94,9.53-3.98-2.16-7.16-4.95-10.59-7.35-1.43-1-2.33-.9-3.66.07-3.38,2.47-6.6,5.21-10.66,7.34,1.48-4.44,2.8-8.56,4.24-12.65.47-1.33.26-2.06-.96-2.91-3.49-2.45-6.85-5.08-10.1-8.16,4.03,0,8.06-.15,12.08.06,2.12.11,2.83-.69,3.35-2.59,1.07-3.95,2.45-7.81,3.7-11.71.17.03.34.06.5.08Z" style="fill: #b51919; stroke-width: 0px;"/>
    <path d="m75.3,240.17c-13.7-.18-25-11.61-24.83-25.1.17-13.49,11.67-24.74,25.1-24.57,14.28.18,25.26,11.62,24.79,26.13-.41,12.81-11.84,23.71-25.06,23.53Z" style="fill: #b51919; stroke-width: 0px;"/>
  </g>
</svg>