<svg width="186" height="186" viewBox="0 0 186 186" fill="none" xmlns="http://www.w3.org/2000/svg">
<g filter="url(#filter0_d_4529_24649)">
<circle cx="93" cy="90" r="74" fill="white"/>
</g>
<path d="M57.4797 107.019V103.319H50.0797V107.019C50.0797 113.888 52.8084 120.476 57.6656 125.333C62.5228 130.19 69.1106 132.919 75.9797 132.919H87.0797V125.519H75.9797C71.0732 125.519 66.3676 123.57 62.8982 120.1C59.4288 116.631 57.4797 111.925 57.4797 107.019ZM124.08 70.0188V73.7188H131.48V70.0188C131.48 63.1497 128.751 56.5619 123.894 51.7047C119.037 46.8475 112.449 44.1188 105.58 44.1188H94.4797V51.5188H105.58C108.009 51.5188 110.415 51.9973 112.659 52.927C114.904 53.8567 116.943 55.2194 118.661 56.9373C120.379 58.6552 121.742 60.6946 122.671 62.9391C123.601 65.1836 124.08 67.5893 124.08 70.0188ZM75.9797 70.0188H53.7797C50.8358 70.0188 48.0125 71.1882 45.9308 73.2699C43.8491 75.3515 42.6797 78.1749 42.6797 81.1188V88.5188H50.0797V81.1188C50.0797 80.1375 50.4695 79.1964 51.1634 78.5025C51.8573 77.8086 52.7984 77.4188 53.7797 77.4188H75.9797C76.961 77.4188 77.9021 77.8086 78.596 78.5025C79.2899 79.1964 79.6797 80.1375 79.6797 81.1188V88.5188H87.0797V81.1188C87.0797 78.1749 85.9102 75.3515 83.8286 73.2699C81.7469 71.1882 78.9236 70.0188 75.9797 70.0188ZM64.8797 66.3188C67.8069 66.3188 70.6683 65.4508 73.1021 63.8245C75.536 62.1983 77.4329 59.8868 78.5531 57.1825C79.6733 54.4781 79.9664 51.5023 79.3953 48.6314C78.8243 45.7605 77.4147 43.1234 75.3449 41.0536C73.2751 38.9838 70.6379 37.5742 67.767 37.0031C64.8961 36.4321 61.9203 36.7252 59.216 37.8453C56.5116 38.9655 54.2002 40.8625 52.5739 43.2963C50.9477 45.7302 50.0797 48.5916 50.0797 51.5188C50.0797 55.444 51.639 59.2084 54.4145 61.9839C57.19 64.7595 60.9545 66.3188 64.8797 66.3188ZM64.8797 44.1188C66.3433 44.1188 67.774 44.5528 68.9909 45.3659C70.2078 46.179 71.1563 47.3347 71.7164 48.6869C72.2765 50.0391 72.423 51.527 72.1375 52.9624C71.852 54.3979 71.1472 55.7164 70.1123 56.7513C69.0774 57.7863 67.7588 58.491 66.3234 58.7766C64.8879 59.0621 63.4 58.9156 62.0478 58.3555C60.6957 57.7954 59.5399 56.8469 58.7268 55.63C57.9137 54.4131 57.4797 52.9823 57.4797 51.5188C57.4797 49.5562 58.2593 47.6739 59.6471 46.2862C61.0349 44.8984 62.9171 44.1188 64.8797 44.1188ZM135.18 121.819H112.98C110.036 121.819 107.212 122.988 105.131 125.07C103.049 127.152 101.88 129.975 101.88 132.919V140.319H109.28V132.919C109.28 131.937 109.67 130.996 110.363 130.302C111.057 129.609 111.998 129.219 112.98 129.219H135.18C136.161 129.219 137.102 129.609 137.796 130.302C138.49 130.996 138.88 131.937 138.88 132.919V140.319H146.28V132.919C146.28 129.975 145.11 127.152 143.029 125.07C140.947 122.988 138.124 121.819 135.18 121.819ZM109.28 103.319C109.28 106.246 110.148 109.107 111.774 111.541C113.4 113.975 115.712 115.872 118.416 116.992C121.12 118.112 124.096 118.405 126.967 117.834C129.838 117.263 132.475 115.854 134.545 113.784C136.615 111.714 138.024 109.077 138.595 106.206C139.166 103.335 138.873 100.359 137.753 97.655C136.633 94.9507 134.736 92.6393 132.302 91.013C129.868 89.3868 127.007 88.5188 124.08 88.5188C120.154 88.5188 116.39 90.078 113.615 92.8536C110.839 95.6291 109.28 99.3936 109.28 103.319ZM131.48 103.319C131.48 104.782 131.046 106.213 130.233 107.43C129.419 108.647 128.264 109.595 126.912 110.155C125.559 110.716 124.071 110.862 122.636 110.577C121.201 110.291 119.882 109.586 118.847 108.551C117.812 107.516 117.107 106.198 116.822 104.762C116.536 103.327 116.683 101.839 117.243 100.487C117.803 99.1347 118.752 97.979 119.968 97.1659C121.185 96.3528 122.616 95.9188 124.08 95.9188C126.042 95.9188 127.925 96.6984 129.312 98.0862C130.7 99.4739 131.48 101.356 131.48 103.319Z" fill="#E0263E"/>
<defs>
<filter id="filter0_d_4529_24649" x="0.675842" y="0.619482" width="184.648" height="184.648" filterUnits="userSpaceOnUse" color-interpolation-filters="sRGB">
<feFlood flood-opacity="0" result="BackgroundImageFix"/>
<feColorMatrix in="SourceAlpha" type="matrix" values="0 0 0 0 0 0 0 0 0 0 0 0 0 0 0 0 0 0 127 0" result="hardAlpha"/>
<feMorphology radius="0.73591" operator="erode" in="SourceAlpha" result="effect1_dropShadow_4529_24649"/>
<feOffset dy="2.94364"/>
<feGaussianBlur stdDeviation="9.53003"/>
<feComposite in2="hardAlpha" operator="out"/>
<feColorMatrix type="matrix" values="0 0 0 0 0 0 0 0 0 0 0 0 0 0 0 0 0 0 0.15 0"/>
<feBlend mode="normal" in2="BackgroundImageFix" result="effect1_dropShadow_4529_24649"/>
<feBlend mode="normal" in="SourceGraphic" in2="effect1_dropShadow_4529_24649" result="shape"/>
</filter>
</defs>
</svg>
