<svg width="186" height="186" viewBox="0 0 186 186" fill="none" xmlns="http://www.w3.org/2000/svg">
<g filter="url(#filter0_d_4529_24652)">
<circle cx="93" cy="90" r="74" fill="white"/>
</g>
<path d="M90.5171 95.901C90.5171 96.8166 90.1534 97.6946 89.5061 98.342C88.8587 98.9894 87.9806 99.3531 87.0651 99.3531H66.3529C65.4373 99.3531 64.5593 98.9894 63.9119 98.342C63.2645 97.6946 62.9008 96.8166 62.9008 95.901C62.9008 94.9855 63.2645 94.1075 63.9119 93.4601C64.5593 92.8127 65.4373 92.449 66.3529 92.449H87.0651C87.9806 92.449 88.8587 92.8127 89.5061 93.4601C90.1534 94.1075 90.5171 94.9855 90.5171 95.901ZM87.0651 78.6408H66.3529C65.4373 78.6408 64.5593 79.0045 63.9119 79.6519C63.2645 80.2993 62.9008 81.1773 62.9008 82.0929C62.9008 83.0084 63.2645 83.8865 63.9119 84.5338C64.5593 85.1812 65.4373 85.5449 66.3529 85.5449H87.0651C87.9806 85.5449 88.8587 85.1812 89.5061 84.5338C90.1534 83.8865 90.5171 83.0084 90.5171 82.0929C90.5171 81.1773 90.1534 80.2993 89.5061 79.6519C88.8587 79.0045 87.9806 78.6408 87.0651 78.6408ZM135.394 106.891V133.873C135.399 134.482 135.244 135.081 134.943 135.61C134.642 136.139 134.207 136.58 133.681 136.886C133.155 137.193 132.558 137.355 131.949 137.357C131.341 137.358 130.743 137.198 130.216 136.894L119.859 130.965L109.503 136.894C108.976 137.198 108.378 137.358 107.77 137.357C107.161 137.355 106.564 137.193 106.038 136.886C105.512 136.58 105.077 136.139 104.776 135.61C104.475 135.081 104.32 134.482 104.325 133.873V123.517H52.5447C50.7136 123.517 48.9575 122.79 47.6628 121.495C46.368 120.2 45.6406 118.444 45.6406 116.613V61.3806C45.6406 59.5496 46.368 57.7935 47.6628 56.4987C48.9575 55.204 50.7136 54.4766 52.5447 54.4766H128.49C130.321 54.4766 132.077 55.204 133.371 56.4987C134.666 57.7935 135.394 59.5496 135.394 61.3806V74.5545C137.576 76.6442 139.312 79.154 140.499 81.9327C141.685 84.7115 142.297 87.7016 142.297 90.723C142.297 93.7444 141.685 96.7345 140.499 99.5132C139.312 102.292 137.576 104.802 135.394 106.891ZM104.325 116.613V106.891C100.563 103.264 98.1861 98.4362 97.6033 93.2426C97.0205 88.049 98.2689 82.8148 101.133 78.4433C103.997 74.0719 108.298 70.8373 113.292 69.2978C118.286 67.7583 123.661 68.0105 128.49 70.0107V61.3806H52.5447V116.613H104.325ZM128.49 111.435C125.756 112.577 122.822 113.166 119.859 113.166C116.897 113.166 113.963 112.577 111.229 111.435V127.927L118.133 123.975C118.655 123.677 119.246 123.52 119.847 123.52C120.447 123.52 121.038 123.677 121.56 123.975L128.464 127.927L128.49 111.435ZM135.394 90.723C135.394 87.6506 134.483 84.6472 132.776 82.0926C131.069 79.5381 128.643 77.547 125.804 76.3713C122.966 75.1955 119.842 74.8879 116.829 75.4873C113.816 76.0867 111.048 77.5662 108.875 79.7387C106.703 81.9111 105.223 84.6791 104.624 87.6924C104.024 90.7057 104.332 93.8291 105.508 96.6676C106.684 99.5061 108.675 101.932 111.229 103.639C113.784 105.346 116.787 106.257 119.859 106.257C121.899 106.257 123.919 105.855 125.804 105.075C127.689 104.294 129.401 103.15 130.844 101.707C132.286 100.265 133.431 98.5523 134.211 96.6676C134.992 94.783 135.394 92.763 135.394 90.723Z" fill="#E0263E"/>
<defs>
<filter id="filter0_d_4529_24652" x="0.675842" y="0.619482" width="184.648" height="184.648" filterUnits="userSpaceOnUse" color-interpolation-filters="sRGB">
<feFlood flood-opacity="0" result="BackgroundImageFix"/>
<feColorMatrix in="SourceAlpha" type="matrix" values="0 0 0 0 0 0 0 0 0 0 0 0 0 0 0 0 0 0 127 0" result="hardAlpha"/>
<feMorphology radius="0.73591" operator="erode" in="SourceAlpha" result="effect1_dropShadow_4529_24652"/>
<feOffset dy="2.94364"/>
<feGaussianBlur stdDeviation="9.53003"/>
<feComposite in2="hardAlpha" operator="out"/>
<feColorMatrix type="matrix" values="0 0 0 0 0 0 0 0 0 0 0 0 0 0 0 0 0 0 0.15 0"/>
<feBlend mode="normal" in2="BackgroundImageFix" result="effect1_dropShadow_4529_24652"/>
<feBlend mode="normal" in="SourceGraphic" in2="effect1_dropShadow_4529_24652" result="shape"/>
</filter>
</defs>
</svg>
