<svg width="36" height="36" viewBox="0 0 36 36" fill="none" xmlns="http://www.w3.org/2000/svg">
<path d="M34.1732 13.4995C33.9988 12.9614 33.6687 12.487 33.2246 12.1366C32.7805 11.7861 32.2424 11.5753 31.6785 11.5308L23.7205 10.8881L20.6493 3.46171C20.4334 2.93684 20.0665 2.48795 19.595 2.17205C19.1235 1.85616 18.5688 1.6875 18.0013 1.6875C17.4338 1.6875 16.8791 1.85616 16.4076 2.17205C15.9361 2.48795 15.5692 2.93684 15.3533 3.46171L12.2849 10.8895L4.32692 11.5308C3.76192 11.5774 3.22329 11.7899 2.77873 12.1417C2.33417 12.4935 2.00351 12.9689 1.82829 13.508C1.65308 14.0472 1.64113 14.6261 1.79396 15.172C1.94678 15.718 2.25756 16.2066 2.68723 16.5764L8.75942 21.8133L6.90317 29.6461C6.76778 30.1983 6.79981 30.7784 6.99517 31.3124C7.19053 31.8463 7.5404 32.3101 8.0002 32.6446C8.46001 32.9791 9.00896 33.1692 9.57716 33.1906C10.1454 33.2121 10.7071 33.064 11.1908 32.7651L18.0013 28.5731L24.8118 32.7651C25.2954 33.062 25.8562 33.2087 26.4232 33.1866C26.9902 33.1645 27.5379 32.9747 27.997 32.6412C28.4561 32.3077 28.8059 31.8455 29.0021 31.3131C29.1984 30.7807 29.2322 30.202 29.0994 29.6503L27.2432 21.8175L33.3154 16.5806C33.7476 16.2099 34.0599 15.7191 34.2126 15.1705C34.3654 14.6219 34.3516 14.0403 34.1732 13.4995ZM24.2633 19.9261C24.0292 20.1279 23.855 20.3902 23.7598 20.6844C23.6645 20.9785 23.6519 21.2931 23.7233 21.5939L25.536 29.2495L18.8858 25.1601C18.6198 24.9964 18.3136 24.9097 18.0013 24.9097C17.689 24.9097 17.3827 24.9964 17.1168 25.1601L10.4666 29.2495L12.2793 21.5995C12.3507 21.2987 12.3381 20.9841 12.2428 20.69C12.1476 20.3959 11.9734 20.1336 11.7393 19.9317L5.79504 14.7989L13.5857 14.1703C13.8957 14.1454 14.1928 14.0353 14.4442 13.8521C14.6956 13.669 14.8915 13.4199 15.0102 13.1325L18.0013 5.8903L20.9924 13.1325C21.1111 13.4199 21.307 13.669 21.5584 13.8521C21.8098 14.0353 22.1069 14.1454 22.4169 14.1703L30.2075 14.7989L24.2633 19.9261Z" fill="white"/>
</svg>
