<svg width="186" height="186" viewBox="0 0 186 186" fill="none" xmlns="http://www.w3.org/2000/svg">
<g filter="url(#filter0_d_4529_24650)">
<circle cx="93" cy="90" r="74" fill="white"/>
</g>
<path d="M92.9986 62.3758C87.5346 62.3758 82.1932 63.9961 77.65 67.0318C73.1069 70.0674 69.5659 74.3821 67.4749 79.4302C65.3839 84.4783 64.8368 90.0331 65.9028 95.3922C66.9687 100.751 69.5999 105.674 73.4636 109.537C77.3272 113.401 82.2499 116.032 87.6089 117.098C92.9679 118.164 98.5227 117.617 103.571 115.526C108.619 113.435 112.934 109.894 115.969 105.351C119.005 100.808 120.625 95.4665 120.625 90.0025C120.623 82.6763 117.711 75.6509 112.531 70.4705C107.35 65.2901 100.325 62.3786 92.9986 62.3758ZM72.2786 90.0025C72.2834 88.7336 72.4048 87.4678 72.6412 86.2211L84.7106 98.2905V101.053C84.7151 102.517 85.2987 103.92 86.334 104.955C87.3692 105.99 88.7719 106.574 90.2359 106.578V110.515C85.269 109.844 80.7132 107.396 77.4118 103.625C74.1105 99.854 72.2869 95.0146 72.2786 90.0025ZM104.049 101.053H101.287V92.7652C101.287 92.4024 101.215 92.0431 101.076 91.7079C100.937 91.3728 100.734 91.0682 100.477 90.8117C100.221 90.5551 99.9163 90.3516 99.5811 90.2128C99.246 90.074 98.8867 90.0025 98.5239 90.0025H81.9479V84.4772H87.4733C88.206 84.4772 88.9087 84.1861 89.4268 83.668C89.9449 83.1499 90.2359 82.4472 90.2359 81.7145V76.1892H95.7613C97.1628 76.1831 98.5097 75.6447 99.5291 74.683C100.549 73.7212 101.164 72.408 101.252 71.0092C104.237 72.2997 106.876 74.2766 108.954 76.7791C111.031 79.2815 112.488 82.2389 113.208 85.4108C113.927 88.5827 113.887 91.8795 113.092 95.0332C112.297 98.1869 110.769 101.108 108.632 103.56C108.141 102.79 107.463 102.157 106.662 101.718C105.861 101.28 104.962 101.051 104.049 101.053ZM96.4519 52.0158C96.4519 52.6988 96.2494 53.3665 95.8699 53.9344C95.4905 54.5023 94.9511 54.9449 94.3201 55.2063C93.6891 55.4677 92.9948 55.5361 92.3249 55.4028C91.655 55.2696 91.0397 54.9407 90.5567 54.4577C90.0738 53.9748 89.7449 53.3594 89.6116 52.6895C89.4784 52.0197 89.5468 51.3253 89.8081 50.6943C90.0695 50.0633 90.5121 49.5239 91.08 49.1445C91.6479 48.765 92.3156 48.5625 92.9986 48.5625C93.9145 48.5625 94.7928 48.9263 95.4405 49.574C96.0881 50.2216 96.4519 51.1 96.4519 52.0158ZM113.719 55.4692C113.719 56.1522 113.516 56.8198 113.137 57.3877C112.757 57.9556 112.218 58.3983 111.587 58.6596C110.956 58.921 110.261 58.9894 109.592 58.8561C108.922 58.7229 108.306 58.394 107.823 57.911C107.34 57.4281 107.012 56.8128 106.878 56.1429C106.745 55.473 106.813 54.7786 107.075 54.1476C107.336 53.5166 107.779 52.9773 108.347 52.5978C108.915 52.2184 109.582 52.0158 110.265 52.0158C111.181 52.0158 112.06 52.3797 112.707 53.0273C113.355 53.6749 113.719 54.5533 113.719 55.4692ZM127.532 69.2825C127.532 69.9655 127.329 70.6332 126.95 71.2011C126.57 71.769 126.031 72.2116 125.4 72.473C124.769 72.7343 124.075 72.8027 123.405 72.6695C122.735 72.5362 122.12 72.2073 121.637 71.7244C121.154 71.2414 120.825 70.6261 120.692 69.9562C120.558 69.2863 120.627 68.592 120.888 67.961C121.149 67.33 121.592 66.7906 122.16 66.4112C122.728 66.0317 123.396 65.8292 124.079 65.8292C124.994 65.8292 125.873 66.193 126.52 66.8406C127.168 67.4883 127.532 68.3666 127.532 69.2825ZM134.439 90.0025C134.439 90.6855 134.236 91.3532 133.857 91.9211C133.477 92.489 132.938 92.9316 132.307 93.193C131.676 93.4543 130.981 93.5227 130.312 93.3895C129.642 93.2562 129.026 92.9273 128.543 92.4444C128.06 91.9614 127.732 91.3461 127.598 90.6762C127.465 90.0063 127.533 89.312 127.795 88.681C128.056 88.0499 128.499 87.5106 129.067 87.1312C129.635 86.7517 130.302 86.5492 130.985 86.5492C131.901 86.5492 132.78 86.913 133.427 87.5606C134.075 88.2082 134.439 89.0866 134.439 90.0025ZM127.532 110.722C127.532 111.405 127.329 112.073 126.95 112.641C126.57 113.209 126.031 113.652 125.4 113.913C124.769 114.174 124.075 114.243 123.405 114.109C122.735 113.976 122.12 113.647 121.637 113.164C121.154 112.681 120.825 112.066 120.692 111.396C120.558 110.726 120.627 110.032 120.888 109.401C121.149 108.77 121.592 108.231 122.16 107.851C122.728 107.472 123.396 107.269 124.079 107.269C124.994 107.269 125.873 107.633 126.52 108.281C127.168 108.928 127.532 109.807 127.532 110.722ZM113.719 124.536C113.719 125.219 113.516 125.886 113.137 126.454C112.757 127.022 112.218 127.465 111.587 127.726C110.956 127.988 110.261 128.056 109.592 127.923C108.922 127.79 108.306 127.461 107.823 126.978C107.34 126.495 107.012 125.879 106.878 125.21C106.745 124.54 106.813 123.845 107.075 123.214C107.336 122.583 107.779 122.044 108.347 121.664C108.915 121.285 109.582 121.082 110.265 121.082C111.181 121.082 112.06 121.446 112.707 122.094C113.355 122.742 113.719 123.62 113.719 124.536ZM96.4519 127.989C96.4519 128.672 96.2494 129.34 95.8699 129.908C95.4905 130.476 94.9511 130.918 94.3201 131.18C93.6891 131.441 92.9948 131.509 92.3249 131.376C91.655 131.243 91.0397 130.914 90.5567 130.431C90.0738 129.948 89.7449 129.333 89.6116 128.663C89.4784 127.993 89.5468 127.299 89.8081 126.668C90.0695 126.037 90.5121 125.497 91.08 125.118C91.6479 124.738 92.3156 124.536 92.9986 124.536C93.9145 124.536 94.7928 124.9 95.4405 125.547C96.0881 126.195 96.4519 127.073 96.4519 127.989ZM79.1853 124.536C79.1853 125.219 78.9827 125.886 78.6033 126.454C78.2238 127.022 77.6845 127.465 77.0535 127.726C76.4224 127.988 75.7281 128.056 75.0582 127.923C74.3883 127.79 73.773 127.461 73.2901 126.978C72.8071 126.495 72.4782 125.879 72.3449 125.21C72.2117 124.54 72.2801 123.845 72.5415 123.214C72.8028 122.583 73.2455 122.044 73.8134 121.664C74.3813 121.285 75.0489 121.082 75.7319 121.082C76.6478 121.082 77.5262 121.446 78.1738 122.094C78.8214 122.742 79.1853 123.62 79.1853 124.536ZM65.3719 110.722C65.3719 111.405 65.1694 112.073 64.7899 112.641C64.4105 113.209 63.8711 113.652 63.2401 113.913C62.6091 114.174 61.9148 114.243 61.2449 114.109C60.575 113.976 59.9597 113.647 59.4767 113.164C58.9938 112.681 58.6649 112.066 58.5316 111.396C58.3984 110.726 58.4668 110.032 58.7281 109.401C58.9895 108.77 59.4321 108.231 60 107.851C60.5679 107.472 61.2356 107.269 61.9186 107.269C62.8345 107.269 63.7128 107.633 64.3605 108.281C65.0081 108.928 65.3719 109.807 65.3719 110.722ZM58.4653 90.0025C58.4653 90.6855 58.2627 91.3532 57.8833 91.9211C57.5038 92.489 56.9645 92.9316 56.3335 93.193C55.7024 93.4543 55.0081 93.5227 54.3382 93.3895C53.6683 93.2562 53.053 92.9273 52.5701 92.4444C52.0871 91.9614 51.7582 91.3461 51.625 90.6762C51.4917 90.0063 51.5601 89.312 51.8215 88.681C52.0828 88.0499 52.5255 87.5106 53.0934 87.1312C53.6613 86.7517 54.3289 86.5492 55.0119 86.5492C55.9278 86.5492 56.8062 86.913 57.4538 87.5606C58.1014 88.2082 58.4653 89.0866 58.4653 90.0025ZM65.3719 69.2825C65.3719 69.9655 65.1694 70.6332 64.7899 71.2011C64.4105 71.769 63.8711 72.2116 63.2401 72.473C62.6091 72.7343 61.9148 72.8027 61.2449 72.6695C60.575 72.5362 59.9597 72.2073 59.4767 71.7244C58.9938 71.2414 58.6649 70.6261 58.5316 69.9562C58.3984 69.2863 58.4668 68.592 58.7281 67.961C58.9895 67.33 59.4321 66.7906 60 66.4112C60.5679 66.0317 61.2356 65.8292 61.9186 65.8292C62.8345 65.8292 63.7128 66.193 64.3605 66.8406C65.0081 67.4883 65.3719 68.3666 65.3719 69.2825ZM79.1853 55.4692C79.1853 56.1522 78.9827 56.8198 78.6033 57.3877C78.2238 57.9556 77.6845 58.3983 77.0535 58.6596C76.4224 58.921 75.7281 58.9894 75.0582 58.8561C74.3883 58.7229 73.773 58.394 73.2901 57.911C72.8071 57.4281 72.4782 56.8128 72.3449 56.1429C72.2117 55.473 72.2801 54.7786 72.5415 54.1476C72.8028 53.5166 73.2455 52.9773 73.8134 52.5978C74.3813 52.2184 75.0489 52.0158 75.7319 52.0158C76.6478 52.0158 77.5262 52.3797 78.1738 53.0273C78.8214 53.6749 79.1853 54.5533 79.1853 55.4692Z" fill="#E0263E"/>
<defs>
<filter id="filter0_d_4529_24650" x="0.675842" y="0.619482" width="184.648" height="184.648" filterUnits="userSpaceOnUse" color-interpolation-filters="sRGB">
<feFlood flood-opacity="0" result="BackgroundImageFix"/>
<feColorMatrix in="SourceAlpha" type="matrix" values="0 0 0 0 0 0 0 0 0 0 0 0 0 0 0 0 0 0 127 0" result="hardAlpha"/>
<feMorphology radius="0.73591" operator="erode" in="SourceAlpha" result="effect1_dropShadow_4529_24650"/>
<feOffset dy="2.94364"/>
<feGaussianBlur stdDeviation="9.53003"/>
<feComposite in2="hardAlpha" operator="out"/>
<feColorMatrix type="matrix" values="0 0 0 0 0 0 0 0 0 0 0 0 0 0 0 0 0 0 0.15 0"/>
<feBlend mode="normal" in2="BackgroundImageFix" result="effect1_dropShadow_4529_24650"/>
<feBlend mode="normal" in="SourceGraphic" in2="effect1_dropShadow_4529_24650" result="shape"/>
</filter>
</defs>
</svg>
