<svg width="186" height="186" viewBox="0 0 186 186" fill="none" xmlns="http://www.w3.org/2000/svg">
<g filter="url(#filter0_d_4529_24642)">
<circle cx="93" cy="90" r="74" fill="white"/>
</g>
<path d="M131.479 48.5625H54.5186L51.5586 51.5225V128.482L54.5186 131.442H131.479L134.439 128.482V51.5225L131.479 48.5625ZM128.519 125.522H75.2386V113.682H88.8546C90.6306 117.234 94.7746 119.602 98.9186 119.602C105.431 119.602 110.759 114.274 110.759 107.762C110.759 101.25 105.431 95.9225 98.9186 95.9225C92.4066 95.9225 87.0786 101.25 87.0786 107.762H69.3186V125.522H57.4786V54.4825H69.3186V68.0985C65.7666 69.8745 63.3986 74.0185 63.3986 78.1625C63.3986 84.6745 68.7266 90.0025 75.2386 90.0025C81.7506 90.0025 87.0786 84.6745 87.0786 78.1625H98.9186C98.9186 84.6745 104.247 90.0025 110.759 90.0025C117.271 90.0025 122.599 84.6745 122.599 78.1625C122.599 71.6505 117.271 66.3225 110.759 66.3225C106.615 66.3225 102.471 68.6905 100.695 72.2425H85.3026C83.5266 68.6905 79.3826 66.3225 75.2386 66.3225V54.4825H128.519V125.522ZM92.9986 107.762C92.9986 104.21 95.3666 101.842 98.9186 101.842C102.471 101.842 104.839 104.21 104.839 107.762C104.839 111.314 102.471 113.682 98.9186 113.682C95.3666 113.682 92.9986 111.314 92.9986 107.762ZM75.2386 72.2425C78.7906 72.2425 81.1586 74.6105 81.1586 78.1625C81.1586 81.7145 78.7906 84.0825 75.2386 84.0825C71.6866 84.0825 69.3186 81.7145 69.3186 78.1625C69.3186 74.6105 71.6866 72.2425 75.2386 72.2425ZM110.759 72.2425C114.311 72.2425 116.679 74.6105 116.679 78.1625C116.679 81.7145 114.311 84.0825 110.759 84.0825C107.207 84.0825 104.839 81.7145 104.839 78.1625C104.839 74.6105 107.207 72.2425 110.759 72.2425Z" fill="#E0263E"/>
<defs>
<filter id="filter0_d_4529_24642" x="0.675842" y="0.619482" width="184.648" height="184.648" filterUnits="userSpaceOnUse" color-interpolation-filters="sRGB">
<feFlood flood-opacity="0" result="BackgroundImageFix"/>
<feColorMatrix in="SourceAlpha" type="matrix" values="0 0 0 0 0 0 0 0 0 0 0 0 0 0 0 0 0 0 127 0" result="hardAlpha"/>
<feMorphology radius="0.73591" operator="erode" in="SourceAlpha" result="effect1_dropShadow_4529_24642"/>
<feOffset dy="2.94364"/>
<feGaussianBlur stdDeviation="9.53003"/>
<feComposite in2="hardAlpha" operator="out"/>
<feColorMatrix type="matrix" values="0 0 0 0 0 0 0 0 0 0 0 0 0 0 0 0 0 0 0.15 0"/>
<feBlend mode="normal" in2="BackgroundImageFix" result="effect1_dropShadow_4529_24642"/>
<feBlend mode="normal" in="SourceGraphic" in2="effect1_dropShadow_4529_24642" result="shape"/>
</filter>
</defs>
</svg>
