<svg width="186" height="186" viewBox="0 0 186 186" fill="none" xmlns="http://www.w3.org/2000/svg">
<g filter="url(#filter0_d_4529_24651)">
<circle cx="93" cy="90" r="74" fill="white"/>
</g>
<path d="M113.114 53.7803C113.115 52.3968 112.565 51.0699 111.587 50.0914C110.609 49.1128 109.283 48.5629 107.899 48.5625C107.214 48.5623 106.536 48.697 105.903 48.959C105.27 49.221 104.695 49.605 104.211 50.0893C103.232 51.0672 102.682 52.3939 102.682 53.7773C102.682 56.6572 107.898 66.3808 107.898 66.3808C107.898 66.3808 113.114 56.6601 113.114 53.7803ZM105.405 53.7803C105.393 53.4459 105.449 53.1125 105.569 52.8001C105.689 52.4877 105.87 52.2026 106.103 51.9619C106.335 51.7211 106.613 51.5296 106.921 51.3987C107.229 51.2678 107.56 51.2002 107.895 51.2C108.23 51.1998 108.561 51.267 108.869 51.3975C109.177 51.528 109.456 51.7193 109.688 51.9597C109.921 52.2002 110.103 52.4851 110.223 52.7974C110.343 53.1096 110.399 53.4429 110.388 53.7773C110.366 54.4232 110.094 55.0355 109.63 55.4848C109.165 55.9342 108.544 56.1855 107.898 56.1859C107.252 56.1863 106.63 55.9357 106.165 55.4869C105.7 55.0381 105.428 54.4262 105.405 53.7803ZM119.296 97.3772C117.642 97.3772 116.056 97.516 114.6 97.7405L77.4096 84.0293C78.0003 83.4977 78.3311 82.9069 78.3311 82.2866C78.3236 81.9597 78.2342 81.6398 78.0712 81.3562L102.912 74.7458C104.271 75.1504 105.934 75.3956 107.774 75.3956C112.264 75.3956 115.897 73.966 115.897 72.1997C115.897 70.4274 112.264 69.0008 107.774 69.0008C103.284 69.0008 99.6511 70.4333 99.6511 72.1997C99.6511 72.4064 99.7102 72.6043 99.8106 72.7963L73.8533 78.7835C71.6769 78.1696 69.4243 77.8682 67.1631 77.8885C60.9987 77.8885 55.998 79.8587 55.998 82.2896C55.998 84.7205 60.9987 86.6906 67.1631 86.6906C68.8586 86.6906 70.4417 86.5282 71.8832 86.2623L107.298 100.635C106.737 101.202 106.394 101.817 106.394 102.475C106.394 103.037 106.678 103.55 107.092 104.05L70.3059 117.817C69.8392 117.802 69.3725 117.787 68.897 117.787C59.3269 117.787 51.5586 120.847 51.5586 124.611C51.5586 128.382 59.3269 131.442 68.897 131.442C78.467 131.442 86.2353 128.388 86.2353 124.613C86.2353 123.964 85.9902 123.337 85.556 122.744L115.879 107.343C116.972 107.461 118.103 107.535 119.29 107.535C126.418 107.535 132.198 105.261 132.198 102.446C132.198 99.6575 126.418 97.3772 119.29 97.3772H119.296Z" fill="#E0263E"/>
<defs>
<filter id="filter0_d_4529_24651" x="0.675842" y="0.619482" width="184.648" height="184.648" filterUnits="userSpaceOnUse" color-interpolation-filters="sRGB">
<feFlood flood-opacity="0" result="BackgroundImageFix"/>
<feColorMatrix in="SourceAlpha" type="matrix" values="0 0 0 0 0 0 0 0 0 0 0 0 0 0 0 0 0 0 127 0" result="hardAlpha"/>
<feMorphology radius="0.73591" operator="erode" in="SourceAlpha" result="effect1_dropShadow_4529_24651"/>
<feOffset dy="2.94364"/>
<feGaussianBlur stdDeviation="9.53003"/>
<feComposite in2="hardAlpha" operator="out"/>
<feColorMatrix type="matrix" values="0 0 0 0 0 0 0 0 0 0 0 0 0 0 0 0 0 0 0.15 0"/>
<feBlend mode="normal" in2="BackgroundImageFix" result="effect1_dropShadow_4529_24651"/>
<feBlend mode="normal" in="SourceGraphic" in2="effect1_dropShadow_4529_24651" result="shape"/>
</filter>
</defs>
</svg>
