<svg width="186" height="186" viewBox="0 0 186 186" fill="none" xmlns="http://www.w3.org/2000/svg">
<g filter="url(#filter0_d_4529_24641)">
<circle cx="93" cy="90" r="74" fill="white"/>
</g>
<path d="M131.482 62.3758H114.215V58.9225C114.215 56.1749 113.123 53.5398 111.181 51.5969C109.238 49.654 106.603 48.5625 103.855 48.5625H83.1349C80.3873 48.5625 77.7521 49.654 75.8093 51.5969C73.8664 53.5398 72.7749 56.1749 72.7749 58.9225V62.3758H55.5082C53.6765 62.3758 51.9197 63.1035 50.6245 64.3987C49.3292 65.694 48.6016 67.4507 48.6016 69.2825V124.536C48.6016 126.368 49.3292 128.124 50.6245 129.42C51.9197 130.715 53.6765 131.442 55.5082 131.442H131.482C133.313 131.442 135.07 130.715 136.365 129.42C137.661 128.124 138.388 126.368 138.388 124.536V69.2825C138.388 67.4507 137.661 65.694 136.365 64.3987C135.07 63.1035 133.313 62.3758 131.482 62.3758ZM79.6816 58.9225C79.6816 58.0066 80.0454 57.1283 80.693 56.4806C81.3406 55.833 82.219 55.4692 83.1349 55.4692H103.855C104.771 55.4692 105.649 55.833 106.297 56.4806C106.944 57.1283 107.308 58.0066 107.308 58.9225V62.3758H79.6816V58.9225ZM131.482 69.2825V87.2441C119.826 93.5887 106.766 96.9115 93.4949 96.9092C80.2247 96.911 67.1653 93.5898 55.5082 87.2485V69.2825H131.482ZM131.482 124.536H55.5082V95.0271C67.3356 100.812 80.3285 103.818 93.4949 103.816C106.662 103.816 119.654 100.809 131.482 95.0228V124.536ZM83.1349 86.5492C83.1349 85.6333 83.4987 84.7549 84.1464 84.1073C84.794 83.4597 85.6723 83.0958 86.5882 83.0958H100.402C101.317 83.0958 102.196 83.4597 102.843 84.1073C103.491 84.7549 103.855 85.6333 103.855 86.5492C103.855 87.465 103.491 88.3434 102.843 88.991C102.196 89.6387 101.317 90.0025 100.402 90.0025H86.5882C85.6723 90.0025 84.794 89.6387 84.1464 88.991C83.4987 88.3434 83.1349 87.465 83.1349 86.5492Z" fill="#E0263E"/>
<defs>
<filter id="filter0_d_4529_24641" x="0.675842" y="0.619482" width="184.648" height="184.648" filterUnits="userSpaceOnUse" color-interpolation-filters="sRGB">
<feFlood flood-opacity="0" result="BackgroundImageFix"/>
<feColorMatrix in="SourceAlpha" type="matrix" values="0 0 0 0 0 0 0 0 0 0 0 0 0 0 0 0 0 0 127 0" result="hardAlpha"/>
<feMorphology radius="0.73591" operator="erode" in="SourceAlpha" result="effect1_dropShadow_4529_24641"/>
<feOffset dy="2.94364"/>
<feGaussianBlur stdDeviation="9.53003"/>
<feComposite in2="hardAlpha" operator="out"/>
<feColorMatrix type="matrix" values="0 0 0 0 0 0 0 0 0 0 0 0 0 0 0 0 0 0 0.15 0"/>
<feBlend mode="normal" in2="BackgroundImageFix" result="effect1_dropShadow_4529_24641"/>
<feBlend mode="normal" in="SourceGraphic" in2="effect1_dropShadow_4529_24641" result="shape"/>
</filter>
</defs>
</svg>
