<svg width="186" height="186" viewBox="0 0 186 186" fill="none" xmlns="http://www.w3.org/2000/svg">
<g filter="url(#filter0_d_4529_24643)">
<circle cx="93" cy="90" r="74" fill="white"/>
</g>
<path d="M122.007 50.9286H113.719V46.7846C113.719 45.6856 113.282 44.6315 112.505 43.8544C111.728 43.0772 110.674 42.6406 109.575 42.6406C108.476 42.6406 107.421 43.0772 106.644 43.8544C105.867 44.6315 105.431 45.6856 105.431 46.7846V50.9286H80.5666V46.7846C80.5666 45.6856 80.13 44.6315 79.3528 43.8544C78.5757 43.0772 77.5217 42.6406 76.4226 42.6406C75.3235 42.6406 74.2695 43.0772 73.4923 43.8544C72.7152 44.6315 72.2786 45.6856 72.2786 46.7846V50.9286H63.9906C60.6934 50.9286 57.5313 52.2384 55.1998 54.5699C52.8684 56.9013 51.5586 60.0635 51.5586 63.3606V113.089C51.5586 116.386 52.8684 119.548 55.1998 121.879C57.5313 124.211 60.6934 125.521 63.9906 125.521H122.007C125.304 125.521 128.466 124.211 130.797 121.879C133.129 119.548 134.439 116.386 134.439 113.089V63.3606C134.439 60.0635 133.129 56.9013 130.797 54.5699C128.466 52.2384 125.304 50.9286 122.007 50.9286ZM126.151 113.089C126.151 114.188 125.714 115.242 124.937 116.019C124.16 116.796 123.106 117.233 122.007 117.233H63.9906C62.8915 117.233 61.8375 116.796 61.0603 116.019C60.2832 115.242 59.8466 114.188 59.8466 113.089V84.0806H126.151V113.089ZM126.151 75.7926H59.8466V63.3606C59.8466 62.2616 60.2832 61.2075 61.0603 60.4304C61.8375 59.6532 62.8915 59.2166 63.9906 59.2166H72.2786V63.3606C72.2786 64.4597 72.7152 65.5137 73.4923 66.2909C74.2695 67.068 75.3235 67.5046 76.4226 67.5046C77.5217 67.5046 78.5757 67.068 79.3528 66.2909C80.13 65.5137 80.5666 64.4597 80.5666 63.3606V59.2166H105.431V63.3606C105.431 64.4597 105.867 65.5137 106.644 66.2909C107.421 67.068 108.476 67.5046 109.575 67.5046C110.674 67.5046 111.728 67.068 112.505 66.2909C113.282 65.5137 113.719 64.4597 113.719 63.3606V59.2166H122.007C123.106 59.2166 124.16 59.6532 124.937 60.4304C125.714 61.2075 126.151 62.2616 126.151 63.3606V75.7926Z" fill="#E0263E"/>
<defs>
<filter id="filter0_d_4529_24643" x="0.675842" y="0.619482" width="184.648" height="184.648" filterUnits="userSpaceOnUse" color-interpolation-filters="sRGB">
<feFlood flood-opacity="0" result="BackgroundImageFix"/>
<feColorMatrix in="SourceAlpha" type="matrix" values="0 0 0 0 0 0 0 0 0 0 0 0 0 0 0 0 0 0 127 0" result="hardAlpha"/>
<feMorphology radius="0.73591" operator="erode" in="SourceAlpha" result="effect1_dropShadow_4529_24643"/>
<feOffset dy="2.94364"/>
<feGaussianBlur stdDeviation="9.53003"/>
<feComposite in2="hardAlpha" operator="out"/>
<feColorMatrix type="matrix" values="0 0 0 0 0 0 0 0 0 0 0 0 0 0 0 0 0 0 0.15 0"/>
<feBlend mode="normal" in2="BackgroundImageFix" result="effect1_dropShadow_4529_24643"/>
<feBlend mode="normal" in="SourceGraphic" in2="effect1_dropShadow_4529_24643" result="shape"/>
</filter>
</defs>
</svg>
