<svg width="186" height="186" viewBox="0 0 186 186" fill="none" xmlns="http://www.w3.org/2000/svg">
<g filter="url(#filter0_d_4529_24644)">
<circle cx="93" cy="90" r="74" fill="white"/>
</g>
<path d="M128.519 107.718C128.514 106.387 128.36 105.06 128.06 103.764L134.439 101.316L132.316 95.7893L125.787 98.2964C124.452 96.1622 122.679 94.336 120.586 92.9388L123.457 86.489L118.049 84.0825L115.175 90.5353C113.76 90.1712 112.286 89.9581 110.759 89.9581C109.231 89.9581 107.757 90.1712 106.342 90.5353L103.471 84.0825L98.0602 86.4919L100.931 92.9359C98.8378 94.333 97.065 96.1592 95.7307 98.2935L89.2009 95.7893L87.0786 101.316L93.4574 103.764C93.1567 105.06 93.0028 106.387 92.9986 107.718C92.9986 109.02 93.1466 110.284 93.413 111.507L87.0786 114.328L89.4851 119.736L95.6419 116.995C96.9435 119.121 98.6782 120.95 100.733 122.361L98.0602 129.32L103.587 131.442L106.12 124.842C107.6 125.244 109.151 125.478 110.759 125.478C112.366 125.478 113.914 125.241 115.397 124.842L117.931 131.442L123.457 129.32L120.784 122.364C122.839 120.952 124.574 119.122 125.875 116.995L132.032 119.736L134.439 114.328L128.104 111.507C128.371 110.284 128.519 109.02 128.519 107.718ZM110.759 119.558C104.229 119.558 98.9186 114.245 98.9186 107.718C98.9186 101.191 104.229 95.8781 110.759 95.8781C117.288 95.8781 122.599 101.188 122.599 107.718C122.599 114.248 117.288 119.558 110.759 119.558ZM85.5128 86.7021L89.8906 91.0799L94.076 86.8945L89.6982 82.5167C91.2503 80.3409 92.2877 77.8409 92.7322 75.2055H98.9186V69.2825H92.7322C92.2886 66.645 91.2511 64.1429 89.6982 61.9654L94.076 57.5875L89.8906 53.4021L85.5128 57.7799C83.3358 56.2285 80.8348 55.192 78.1986 54.7489V48.5625H72.2786V54.7489C69.6421 55.1929 67.1411 56.2304 64.9644 57.7829L60.5866 53.4051L56.4012 57.5905L60.779 61.9713C59.2269 64.1471 58.1895 66.6471 57.745 69.2825H51.5586V75.2025H57.745C58.189 77.839 59.2265 80.34 60.779 82.5167L56.4012 86.8945L60.5866 91.0799L64.9644 86.7021C67.1411 88.2546 69.6421 89.2921 72.2786 89.7361V95.9225H78.1986V89.7361C80.835 89.2921 83.3361 88.2546 85.5128 86.7021ZM63.3986 72.2425C63.3986 65.7127 68.7088 60.4025 75.2386 60.4025C81.7684 60.4025 87.0786 65.7127 87.0786 72.2425C87.0786 78.7723 81.7684 84.0825 75.2386 84.0825C68.7088 84.0825 63.3986 78.7723 63.3986 72.2425Z" fill="#E0263E"/>
<defs>
<filter id="filter0_d_4529_24644" x="0.675842" y="0.619482" width="184.648" height="184.648" filterUnits="userSpaceOnUse" color-interpolation-filters="sRGB">
<feFlood flood-opacity="0" result="BackgroundImageFix"/>
<feColorMatrix in="SourceAlpha" type="matrix" values="0 0 0 0 0 0 0 0 0 0 0 0 0 0 0 0 0 0 127 0" result="hardAlpha"/>
<feMorphology radius="0.73591" operator="erode" in="SourceAlpha" result="effect1_dropShadow_4529_24644"/>
<feOffset dy="2.94364"/>
<feGaussianBlur stdDeviation="9.53003"/>
<feComposite in2="hardAlpha" operator="out"/>
<feColorMatrix type="matrix" values="0 0 0 0 0 0 0 0 0 0 0 0 0 0 0 0 0 0 0.15 0"/>
<feBlend mode="normal" in2="BackgroundImageFix" result="effect1_dropShadow_4529_24644"/>
<feBlend mode="normal" in="SourceGraphic" in2="effect1_dropShadow_4529_24644" result="shape"/>
</filter>
</defs>
</svg>
