<svg width="186" height="186" viewBox="0 0 186 186" fill="none" xmlns="http://www.w3.org/2000/svg">
<g filter="url(#filter0_d_4529_24648)">
<circle cx="93" cy="90" r="74" fill="white"/>
</g>
<path fill-rule="evenodd" clip-rule="evenodd" d="M62.1864 54.6001C60.755 54.6001 59.3761 55.1742 58.3547 56.2059C57.3322 57.2387 56.7524 58.6458 56.7524 60.1193C56.7524 61.5929 57.3322 63 58.3547 64.0328C59.3761 65.0645 60.755 65.6386 62.1864 65.6386C63.6177 65.6386 64.9966 65.0645 66.0181 64.0328C67.0405 63 67.6203 61.5929 67.6203 60.1193C67.6203 58.6458 67.0405 57.2387 66.0181 56.2059C64.9966 55.1742 63.6177 54.6001 62.1864 54.6001ZM54.064 51.9582C56.213 49.7875 59.1341 48.5625 62.1864 48.5625C65.2386 48.5625 68.1597 49.7875 70.3087 51.9582C72.4566 54.1278 73.6579 57.064 73.6579 60.1193C73.6579 63.1747 72.4566 66.1109 70.3087 68.2805C68.1597 70.4512 65.2386 71.6762 62.1864 71.6762C59.1341 71.6762 56.213 70.4512 54.064 68.2805C51.9161 66.1109 50.7148 63.1747 50.7148 60.1193C50.7148 57.064 51.9161 54.1278 54.064 51.9582ZM82.4127 51.5813C82.4127 49.9141 83.7642 48.5625 85.4315 48.5625H119.243C120.91 48.5625 122.261 49.9141 122.261 51.5813C122.261 53.2485 120.91 54.6001 119.243 54.6001H85.4315C83.7642 54.6001 82.4127 53.2485 82.4127 51.5813ZM82.4127 64.3884C82.4127 62.7211 83.7642 61.3696 85.4315 61.3696H106.563C108.231 61.3696 109.582 62.7211 109.582 64.3884C109.582 66.0556 108.231 67.4072 106.563 67.4072H85.4315C83.7642 67.4072 82.4127 66.0556 82.4127 64.3884ZM55.004 82.7047C54.9952 82.7134 54.973 82.7352 54.9384 82.8203C54.8919 82.9342 54.8239 83.1591 54.7676 83.5823C54.6455 84.4989 54.6392 85.7706 54.6392 87.868V98.5405C54.6392 100.638 54.6455 101.91 54.7676 102.826C54.8239 103.249 54.8919 103.474 54.9384 103.588C54.973 103.673 54.9937 103.694 55.0026 103.702C55.0031 103.703 55.0022 103.702 55.0026 103.702C55.0031 103.703 55.005 103.705 55.0056 103.705C55.0137 103.714 55.0308 103.732 55.107 103.763C55.2126 103.807 55.4282 103.875 55.8422 103.931C56.7424 104.053 57.9942 104.06 60.0732 104.06H64.2995C66.3785 104.06 67.6303 104.053 68.5305 103.931C68.9445 103.875 69.1601 103.807 69.2657 103.763C69.3419 103.732 69.359 103.714 69.3671 103.705C69.3677 103.705 69.3666 103.706 69.3671 103.705C69.3676 103.705 69.3696 103.703 69.3701 103.702C69.379 103.694 69.3997 103.673 69.4343 103.588C69.4808 103.474 69.5488 103.249 69.6051 102.826C69.7272 101.91 69.7335 100.638 69.7335 98.5405V82.3488H60.0732C57.9942 82.3488 56.7424 82.3553 55.8422 82.4776C55.4282 82.5339 55.2126 82.6012 55.107 82.6451C55.0308 82.6767 55.0121 82.6962 55.004 82.7047ZM75.7711 82.3488H93.8842C95.5515 82.3488 96.9031 80.9972 96.9031 79.3299C96.9031 77.6627 95.5515 76.3111 93.8842 76.3111H60.0732C60.0116 76.3111 59.9503 76.3111 59.8891 76.3111C58.055 76.3109 56.3852 76.3107 55.0293 76.495C53.5376 76.6977 51.9853 77.1722 50.7134 78.4569C49.4457 79.7374 48.9815 81.293 48.7828 82.7853C48.6012 84.1487 48.6014 85.8298 48.6016 87.686V98.7225C48.6014 100.579 48.6012 102.26 48.7828 103.623C48.9815 105.115 49.4457 106.671 50.7134 107.952C51.9853 109.236 53.5376 109.711 55.0293 109.914C56.3852 110.098 58.0549 110.098 59.8891 110.097H64.4836C66.3178 110.098 67.9875 110.098 69.3434 109.914C70.8351 109.711 72.3874 109.236 73.6593 107.952C74.927 106.671 75.3912 105.115 75.5899 103.623C75.7715 102.26 75.7713 100.579 75.7711 98.7225L75.7711 82.3488ZM119.243 86.6178C117.811 86.6178 116.432 87.1918 115.411 88.2236C114.388 89.2564 113.809 90.6635 113.809 92.137C113.809 93.6105 114.388 95.0177 115.411 96.0504C116.432 97.0822 117.811 97.6562 119.243 97.6562C120.674 97.6562 122.053 97.0822 123.074 96.0504C124.097 95.0177 124.677 93.6105 124.677 92.137C124.677 90.6635 124.097 89.2564 123.074 88.2236C122.053 87.1918 120.674 86.6178 119.243 86.6178ZM111.12 83.9758C113.269 81.8052 116.19 80.5802 119.243 80.5802C122.295 80.5802 125.216 81.8052 127.365 83.9758C129.513 86.1454 130.714 89.0817 130.714 92.137C130.714 95.1924 129.513 98.1286 127.365 100.298C125.216 102.469 122.295 103.694 119.243 103.694C116.19 103.694 113.269 102.469 111.12 100.298C108.972 98.1286 107.771 95.1924 107.771 92.137C107.771 89.0817 108.972 86.1454 111.12 83.9758ZM107.357 112.012C110.863 109.609 115.004 108.329 119.243 108.329C123.483 108.329 127.622 109.614 131.126 112.015C131.298 112.131 131.526 112.276 131.794 112.447C133.108 113.287 135.401 114.751 136.951 116.475C137.935 117.57 138.952 119.102 139.137 121.027C139.334 123.086 138.53 124.993 137.026 126.621C134.73 129.11 131.67 131.442 127.526 131.442H110.959C106.815 131.442 103.755 129.11 101.459 126.621M107.357 112.012C107.184 112.129 106.955 112.275 106.685 112.448C105.371 113.289 103.081 114.753 101.533 116.475C100.55 117.57 99.5334 119.102 99.3485 121.027C99.1508 123.085 99.9557 124.993 101.459 126.621M119.243 114.367C116.22 114.367 113.266 115.28 110.764 116.996L110.751 117.006C110.369 117.264 109.977 117.518 109.585 117.771C108.276 118.618 106.96 119.469 106.024 120.511C105.465 121.133 105.369 121.493 105.358 121.604C105.355 121.64 105.353 121.696 105.396 121.806C105.444 121.93 105.57 122.173 105.894 122.525C107.74 124.526 109.305 125.405 110.959 125.405H127.526C129.18 125.405 130.743 124.528 132.589 122.526C132.914 122.175 133.041 121.93 133.089 121.806C133.132 121.696 133.13 121.64 133.127 121.604C133.116 121.493 133.021 121.134 132.461 120.512C131.524 119.469 130.203 118.616 128.892 117.769C128.503 117.518 128.115 117.267 127.737 117.012L127.721 117C125.217 115.283 122.263 114.367 119.243 114.367Z" fill="#E0263E"/>
<g filter="url(#filter1_d_4529_24648)">
<circle cx="93" cy="90" r="74" fill="white"/>
</g>
<path fill-rule="evenodd" clip-rule="evenodd" d="M62.1864 54.6001C60.755 54.6001 59.3761 55.1742 58.3547 56.2059C57.3322 57.2387 56.7524 58.6458 56.7524 60.1193C56.7524 61.5929 57.3322 63 58.3547 64.0328C59.3761 65.0645 60.755 65.6386 62.1864 65.6386C63.6177 65.6386 64.9966 65.0645 66.0181 64.0328C67.0405 63 67.6203 61.5929 67.6203 60.1193C67.6203 58.6458 67.0405 57.2387 66.0181 56.2059C64.9966 55.1742 63.6177 54.6001 62.1864 54.6001ZM54.064 51.9582C56.213 49.7875 59.1341 48.5625 62.1864 48.5625C65.2386 48.5625 68.1597 49.7875 70.3087 51.9582C72.4566 54.1278 73.6579 57.064 73.6579 60.1193C73.6579 63.1747 72.4566 66.1109 70.3087 68.2805C68.1597 70.4512 65.2386 71.6762 62.1864 71.6762C59.1341 71.6762 56.213 70.4512 54.064 68.2805C51.9161 66.1109 50.7148 63.1747 50.7148 60.1193C50.7148 57.064 51.9161 54.1278 54.064 51.9582ZM82.4127 51.5813C82.4127 49.9141 83.7642 48.5625 85.4315 48.5625H119.243C120.91 48.5625 122.261 49.9141 122.261 51.5813C122.261 53.2485 120.91 54.6001 119.243 54.6001H85.4315C83.7642 54.6001 82.4127 53.2485 82.4127 51.5813ZM82.4127 64.3884C82.4127 62.7211 83.7642 61.3696 85.4315 61.3696H106.563C108.231 61.3696 109.582 62.7211 109.582 64.3884C109.582 66.0556 108.231 67.4072 106.563 67.4072H85.4315C83.7642 67.4072 82.4127 66.0556 82.4127 64.3884ZM55.004 82.7047C54.9952 82.7134 54.973 82.7352 54.9384 82.8203C54.8919 82.9342 54.8239 83.1591 54.7676 83.5823C54.6455 84.4989 54.6392 85.7706 54.6392 87.868V98.5405C54.6392 100.638 54.6455 101.91 54.7676 102.826C54.8239 103.249 54.8919 103.474 54.9384 103.588C54.973 103.673 54.9937 103.694 55.0026 103.702C55.0031 103.703 55.0022 103.702 55.0026 103.702C55.0031 103.703 55.005 103.705 55.0056 103.705C55.0137 103.714 55.0308 103.732 55.107 103.763C55.2126 103.807 55.4282 103.875 55.8422 103.931C56.7424 104.053 57.9942 104.06 60.0732 104.06H64.2995C66.3785 104.06 67.6303 104.053 68.5305 103.931C68.9445 103.875 69.1601 103.807 69.2657 103.763C69.3419 103.732 69.359 103.714 69.3671 103.705C69.3677 103.705 69.3666 103.706 69.3671 103.705C69.3676 103.705 69.3696 103.703 69.3701 103.702C69.379 103.694 69.3997 103.673 69.4343 103.588C69.4808 103.474 69.5488 103.249 69.6051 102.826C69.7272 101.91 69.7335 100.638 69.7335 98.5405V82.3488H60.0732C57.9942 82.3488 56.7424 82.3553 55.8422 82.4776C55.4282 82.5339 55.2126 82.6012 55.107 82.6451C55.0308 82.6767 55.0121 82.6962 55.004 82.7047ZM75.7711 82.3488H93.8842C95.5515 82.3488 96.9031 80.9972 96.9031 79.3299C96.9031 77.6627 95.5515 76.3111 93.8842 76.3111H60.0732C60.0116 76.3111 59.9503 76.3111 59.8891 76.3111C58.055 76.3109 56.3852 76.3107 55.0293 76.495C53.5376 76.6977 51.9853 77.1722 50.7134 78.4569C49.4457 79.7374 48.9815 81.293 48.7828 82.7853C48.6012 84.1487 48.6014 85.8298 48.6016 87.686V98.7225C48.6014 100.579 48.6012 102.26 48.7828 103.623C48.9815 105.115 49.4457 106.671 50.7134 107.952C51.9853 109.236 53.5376 109.711 55.0293 109.914C56.3852 110.098 58.0549 110.098 59.8891 110.097H64.4836C66.3178 110.098 67.9875 110.098 69.3434 109.914C70.8351 109.711 72.3874 109.236 73.6593 107.952C74.927 106.671 75.3912 105.115 75.5899 103.623C75.7715 102.26 75.7713 100.579 75.7711 98.7225L75.7711 82.3488ZM119.243 86.6178C117.811 86.6178 116.432 87.1918 115.411 88.2236C114.388 89.2564 113.809 90.6635 113.809 92.137C113.809 93.6105 114.388 95.0177 115.411 96.0504C116.432 97.0822 117.811 97.6562 119.243 97.6562C120.674 97.6562 122.053 97.0822 123.074 96.0504C124.097 95.0177 124.677 93.6105 124.677 92.137C124.677 90.6635 124.097 89.2564 123.074 88.2236C122.053 87.1918 120.674 86.6178 119.243 86.6178ZM111.12 83.9758C113.269 81.8052 116.19 80.5802 119.243 80.5802C122.295 80.5802 125.216 81.8052 127.365 83.9758C129.513 86.1454 130.714 89.0817 130.714 92.137C130.714 95.1924 129.513 98.1286 127.365 100.298C125.216 102.469 122.295 103.694 119.243 103.694C116.19 103.694 113.269 102.469 111.12 100.298C108.972 98.1286 107.771 95.1924 107.771 92.137C107.771 89.0817 108.972 86.1454 111.12 83.9758ZM107.357 112.012C110.863 109.609 115.004 108.329 119.243 108.329C123.483 108.329 127.622 109.614 131.126 112.015C131.298 112.131 131.526 112.276 131.794 112.447C133.108 113.287 135.401 114.751 136.951 116.475C137.935 117.57 138.952 119.102 139.137 121.027C139.334 123.086 138.53 124.993 137.026 126.621C134.73 129.11 131.67 131.442 127.526 131.442H110.959C106.815 131.442 103.755 129.11 101.459 126.621M107.357 112.012C107.184 112.129 106.955 112.275 106.685 112.448C105.371 113.289 103.081 114.753 101.533 116.475C100.55 117.57 99.5334 119.102 99.3485 121.027C99.1508 123.085 99.9557 124.993 101.459 126.621M119.243 114.367C116.22 114.367 113.266 115.28 110.764 116.996L110.751 117.006C110.369 117.264 109.977 117.518 109.585 117.771C108.276 118.618 106.96 119.469 106.024 120.511C105.465 121.133 105.369 121.493 105.358 121.604C105.355 121.64 105.353 121.696 105.396 121.806C105.444 121.93 105.57 122.173 105.894 122.525C107.74 124.526 109.305 125.405 110.959 125.405H127.526C129.18 125.405 130.743 124.528 132.589 122.526C132.914 122.175 133.041 121.93 133.089 121.806C133.132 121.696 133.13 121.64 133.127 121.604C133.116 121.493 133.021 121.134 132.461 120.512C131.524 119.469 130.203 118.616 128.892 117.769C128.503 117.518 128.115 117.267 127.737 117.012L127.721 117C125.217 115.283 122.263 114.367 119.243 114.367Z" fill="#E0263E"/>
<defs>
<filter id="filter0_d_4529_24648" x="0.675842" y="0.619482" width="184.648" height="184.648" filterUnits="userSpaceOnUse" color-interpolation-filters="sRGB">
<feFlood flood-opacity="0" result="BackgroundImageFix"/>
<feColorMatrix in="SourceAlpha" type="matrix" values="0 0 0 0 0 0 0 0 0 0 0 0 0 0 0 0 0 0 127 0" result="hardAlpha"/>
<feMorphology radius="0.73591" operator="erode" in="SourceAlpha" result="effect1_dropShadow_4529_24648"/>
<feOffset dy="2.94364"/>
<feGaussianBlur stdDeviation="9.53003"/>
<feComposite in2="hardAlpha" operator="out"/>
<feColorMatrix type="matrix" values="0 0 0 0 0 0 0 0 0 0 0 0 0 0 0 0 0 0 0.15 0"/>
<feBlend mode="normal" in2="BackgroundImageFix" result="effect1_dropShadow_4529_24648"/>
<feBlend mode="normal" in="SourceGraphic" in2="effect1_dropShadow_4529_24648" result="shape"/>
</filter>
<filter id="filter1_d_4529_24648" x="0.675842" y="0.619482" width="184.648" height="184.648" filterUnits="userSpaceOnUse" color-interpolation-filters="sRGB">
<feFlood flood-opacity="0" result="BackgroundImageFix"/>
<feColorMatrix in="SourceAlpha" type="matrix" values="0 0 0 0 0 0 0 0 0 0 0 0 0 0 0 0 0 0 127 0" result="hardAlpha"/>
<feMorphology radius="0.73591" operator="erode" in="SourceAlpha" result="effect1_dropShadow_4529_24648"/>
<feOffset dy="2.94364"/>
<feGaussianBlur stdDeviation="9.53003"/>
<feComposite in2="hardAlpha" operator="out"/>
<feColorMatrix type="matrix" values="0 0 0 0 0 0 0 0 0 0 0 0 0 0 0 0 0 0 0.15 0"/>
<feBlend mode="normal" in2="BackgroundImageFix" result="effect1_dropShadow_4529_24648"/>
<feBlend mode="normal" in="SourceGraphic" in2="effect1_dropShadow_4529_24648" result="shape"/>
</filter>
</defs>
</svg>
