<svg width="38" height="38" viewBox="0 0 38 38" fill="none" xmlns="http://www.w3.org/2000/svg">
<path d="M19 20.1875C19 20.5024 18.8749 20.8045 18.6522 21.0272C18.4295 21.2499 18.1274 21.375 17.8125 21.375H10.6875C10.3726 21.375 10.0705 21.2499 9.84781 21.0272C9.62511 20.8045 9.5 20.5024 9.5 20.1875C9.5 19.8726 9.62511 19.5705 9.84781 19.3478C10.0705 19.1251 10.3726 19 10.6875 19H17.8125C18.1274 19 18.4295 19.1251 18.6522 19.3478C18.8749 19.5705 19 19.8726 19 20.1875ZM17.8125 14.25H10.6875C10.3726 14.25 10.0705 14.3751 9.84781 14.5978C9.62511 14.8205 9.5 15.1226 9.5 15.4375C9.5 15.7524 9.62511 16.0545 9.84781 16.2772C10.0705 16.4999 10.3726 16.625 10.6875 16.625H17.8125C18.1274 16.625 18.4295 16.4999 18.6522 16.2772C18.8749 16.0545 19 15.7524 19 15.4375C19 15.1226 18.8749 14.8205 18.6522 14.5978C18.4295 14.3751 18.1274 14.25 17.8125 14.25ZM34.4375 23.9682V33.25C34.4394 33.4594 34.3859 33.6655 34.2824 33.8475C34.179 34.0295 34.0292 34.1809 33.8484 34.2864C33.6676 34.3919 33.462 34.4477 33.2527 34.4482C33.0433 34.4486 32.8376 34.3938 32.6562 34.2891L29.0938 32.2495L25.5312 34.2891C25.3499 34.3938 25.1442 34.4486 24.9348 34.4482C24.7255 34.4477 24.5199 34.3919 24.3391 34.2864C24.1583 34.1809 24.0085 34.0295 23.9051 33.8475C23.8016 33.6655 23.7481 33.4594 23.75 33.25V29.6875H5.9375C5.30761 29.6875 4.70352 29.4373 4.25812 28.9919C3.81272 28.5465 3.5625 27.9424 3.5625 27.3125V8.3125C3.5625 7.68261 3.81272 7.07852 4.25812 6.63312C4.70352 6.18772 5.30761 5.9375 5.9375 5.9375H32.0625C32.6924 5.9375 33.2965 6.18772 33.7419 6.63312C34.1873 7.07852 34.4375 7.68261 34.4375 8.3125V12.8443C35.1882 13.5632 35.7856 14.4265 36.1937 15.3824C36.6018 16.3383 36.8122 17.3669 36.8122 18.4062C36.8122 19.4456 36.6018 20.4742 36.1937 21.4301C35.7856 22.386 35.1882 23.2493 34.4375 23.9682ZM23.75 27.3125V23.9682C22.4559 22.7202 21.6381 21.0596 21.4376 19.273C21.2372 17.4864 21.6666 15.6858 22.6519 14.1821C23.6372 12.6783 25.1165 11.5656 26.8345 11.036C28.5526 10.5064 30.4016 10.5932 32.0625 11.2812V8.3125H5.9375V27.3125H23.75ZM32.0625 25.5312C31.1221 25.9242 30.113 26.1265 29.0938 26.1265C28.0745 26.1265 27.0654 25.9242 26.125 25.5312V31.2045L28.5 29.8448C28.6795 29.7423 28.8826 29.6883 29.0893 29.6883C29.296 29.6883 29.4991 29.7423 29.6786 29.8448L32.0536 31.2045L32.0625 25.5312ZM34.4375 18.4062C34.4375 17.3494 34.1241 16.3162 33.5369 15.4374C32.9497 14.5586 32.1152 13.8737 31.1387 13.4693C30.1623 13.0648 29.0878 12.959 28.0512 13.1652C27.0147 13.3714 26.0625 13.8803 25.3151 14.6276C24.5678 15.375 24.0589 16.3271 23.8527 17.3637C23.6465 18.4003 23.7523 19.4748 24.1568 20.4512C24.5612 21.4277 25.2461 22.2622 26.1249 22.8494C27.0037 23.4366 28.0369 23.75 29.0938 23.75C29.7955 23.75 30.4904 23.6118 31.1387 23.3432C31.787 23.0747 32.3761 22.6811 32.8724 22.1849C33.3686 21.6886 33.7622 21.0995 34.0307 20.4512C34.2993 19.8029 34.4375 19.108 34.4375 18.4062Z" fill="#E0263E"/>
</svg>
