<svg width="32" height="32" viewBox="0 0 32 32" fill="none" xmlns="http://www.w3.org/2000/svg">
<path d="M16.2233 0.282616C16.2903 0.307048 16.3573 0.33148 16.4264 0.356652C16.5718 0.409766 16.7171 0.463312 16.8623 0.517244C17.1754 0.633583 17.4893 0.747812 17.8032 0.862135C17.9697 0.922795 18.1362 0.983541 18.3026 1.04441C19.2206 1.37972 20.1431 1.70165 21.066 2.023C21.4311 2.15015 21.7962 2.27744 22.1612 2.40482C22.2387 2.43184 22.3161 2.45886 22.3959 2.4867C23.035 2.71008 23.6727 2.93748 24.3101 3.16571C24.7571 3.32571 25.2045 3.48468 25.6528 3.64124C25.7052 3.65954 25.7576 3.67785 25.8116 3.69671C26.0459 3.7785 26.2802 3.86016 26.5146 3.94172C26.954 4.09472 27.3931 4.24883 27.8317 4.40419C27.983 4.45757 28.1345 4.51055 28.2861 4.56316C28.5084 4.64039 28.7303 4.71898 28.952 4.79785C29.0197 4.82103 29.0874 4.8442 29.1571 4.86808C29.4999 4.99162 29.7439 5.08046 29.9317 5.41279C29.9694 5.61376 29.9694 5.61376 29.9317 5.81473C29.6694 6.14078 29.3972 6.24931 29.0138 6.37733C28.9548 6.39792 28.8958 6.41851 28.835 6.43973C28.6371 6.50861 28.4387 6.57614 28.2403 6.64372C28.0982 6.69294 27.9561 6.74227 27.8141 6.7917C27.5041 6.89955 27.1939 7.00696 26.8836 7.11415C26.3591 7.29574 25.8358 7.48042 25.3126 7.66583C25.2674 7.68186 25.2222 7.69788 25.1756 7.71439C24.9449 7.79615 24.7143 7.87794 24.4836 7.95975C24.0632 8.10886 23.6427 8.25761 23.2222 8.40638C23.0846 8.45508 22.9469 8.50378 22.8093 8.55249C22.3261 8.72346 21.8429 8.89431 21.3597 9.06499C21.0899 9.16029 20.8201 9.25566 20.5504 9.35105C20.4219 9.39644 20.2935 9.4418 20.165 9.48713C19.4036 9.7558 18.6439 10.0286 17.8857 10.3061C17.654 10.3907 17.4223 10.4752 17.1906 10.5596C16.9703 10.6402 16.7503 10.7217 16.5304 10.8032C16.3961 10.8522 16.2618 10.9012 16.1275 10.9501C16.0669 10.9729 16.0062 10.9956 15.9438 11.0191C15.2977 11.2525 14.8683 11.1538 14.2361 10.9237C14.1625 10.8976 14.089 10.8715 14.0132 10.8446C13.7744 10.7597 13.5359 10.6737 13.2975 10.5877C13.1335 10.5292 12.9696 10.4708 12.8056 10.4124C12.4798 10.2963 12.1542 10.1799 11.8287 10.0632C11.4359 9.92242 11.0427 9.78299 10.649 9.64463C10.5694 9.61664 10.5694 9.61664 10.4882 9.58808C10.3876 9.55274 10.287 9.51741 10.1865 9.48209C9.96473 9.4042 9.74307 9.32613 9.52146 9.24793C9.41707 9.21114 9.41707 9.21114 9.31058 9.17361C9.15393 9.11729 8.99807 9.05974 8.84237 9.0009C8.54408 8.8886 8.24352 8.78326 7.9425 8.67852C7.85633 8.64843 7.85633 8.64843 7.76842 8.61774C7.58642 8.55421 7.4044 8.49075 7.22237 8.42731C6.9823 8.34364 6.74225 8.25989 6.50223 8.1761C6.44807 8.15725 6.3939 8.1384 6.33809 8.11899C6.10092 8.03618 5.86447 7.95224 5.6296 7.8631C5.25146 7.72021 4.86908 7.5893 4.48732 7.45649C4.36184 7.41268 4.23636 7.36887 4.11089 7.32505C3.80428 7.21796 3.49763 7.11097 3.19087 7.00428C3.01812 6.94418 2.8454 6.88395 2.67274 6.82359C2.51115 6.7671 2.3495 6.71079 2.18778 6.65469C1.96725 6.57745 1.74759 6.49825 1.52828 6.41763C1.45326 6.39038 1.37824 6.36314 1.30095 6.33507C1.19305 6.29354 1.19305 6.29354 1.08297 6.25117C0.986665 6.21468 0.986665 6.21468 0.888415 6.17746C0.687534 6.06138 0.618725 5.95749 0.523438 5.74774C0.523438 5.48637 0.532003 5.33978 0.71577 5.14801C1.01422 4.95272 1.33085 4.84685 1.66644 4.72981C1.73948 4.70377 1.81251 4.67772 1.88776 4.65089C2.12499 4.56647 2.36253 4.48301 2.60011 4.39958C2.76434 4.34137 2.92856 4.28312 3.09276 4.22481C3.95517 3.9191 4.81867 3.61657 5.68454 3.3208C6.44059 3.0622 7.19361 2.79516 7.94669 2.52807C8.04903 2.49177 8.04903 2.49177 8.15344 2.45474C8.43338 2.35543 8.71332 2.2561 8.99324 2.15674C9.48971 1.9805 9.98625 1.80451 10.4829 1.62868C10.5521 1.60416 10.6213 1.57964 10.6927 1.55438C11.0343 1.4334 11.3759 1.31254 11.7177 1.19194C12.3101 0.982724 12.9019 0.77222 13.4916 0.555284C13.6341 0.503255 13.7766 0.451298 13.9191 0.399369C14.0458 0.352838 14.1722 0.30527 14.2985 0.257659C14.3736 0.230317 14.4487 0.202976 14.526 0.174805C14.5894 0.151182 14.6528 0.127559 14.7181 0.103221C15.2691 -0.0280784 15.7032 0.0858626 16.2233 0.282616Z" fill="#E0263E"/>
<path d="M6.95316 9.23438C7.92491 9.554 8.89097 9.88767 9.85463 10.2308C9.9925 10.2798 10.1304 10.3288 10.2682 10.3778C10.4829 10.454 10.6976 10.5303 10.9123 10.6066C11.4396 10.794 11.9671 10.9807 12.4947 11.1671C12.6438 11.2198 12.7929 11.2725 12.9419 11.3252C13.158 11.4016 13.3741 11.4779 13.5902 11.5542C13.7893 11.6245 13.9884 11.6949 14.1875 11.7653C14.2469 11.7863 14.3063 11.8072 14.3676 11.8288C14.4217 11.848 14.4758 11.8671 14.5315 11.8869C14.5787 11.9035 14.6258 11.9202 14.6744 11.9373C14.7909 11.9809 14.7909 11.9809 14.9249 12.0479C15.3981 12.0878 15.7639 11.9663 16.2055 11.8048C16.2775 11.7793 16.3494 11.7538 16.4235 11.7274C16.6583 11.6439 16.8927 11.5591 17.1272 11.4743C17.2902 11.4161 17.4532 11.3579 17.6163 11.2998C18.0266 11.1534 18.4367 11.0061 18.8466 10.8585C19.3172 10.6891 19.7882 10.5208 20.2592 10.3524C20.4841 10.272 20.7088 10.1913 20.9335 10.1102C21.7841 9.80399 22.6409 9.51743 23.4995 9.23438C23.5089 9.78295 23.516 10.3315 23.5203 10.8801C23.5224 11.1349 23.5253 11.3897 23.5298 11.6445C23.5342 11.8908 23.5366 12.137 23.5376 12.3833C23.5384 12.4769 23.5398 12.5704 23.542 12.664C23.5554 13.2635 23.5109 13.6718 23.0976 14.1246C22.2461 14.9469 20.9918 15.3939 19.8821 15.7323C19.8232 15.7504 19.7644 15.7684 19.7037 15.787C18.2319 16.2277 16.7385 16.4262 15.2054 16.4273C15.1588 16.4275 15.1122 16.4276 15.0642 16.4278C14.4656 16.4276 13.8843 16.3834 13.2917 16.3016C13.0535 16.2688 12.8152 16.2429 12.5761 16.218C10.676 15.9583 8.39994 15.2713 7.10807 13.776C6.936 13.5405 6.94499 13.3262 6.94555 13.0445C6.94556 12.96 6.94556 12.8755 6.94557 12.7885C6.94591 12.6963 6.94626 12.6041 6.94662 12.5119C6.94674 12.4175 6.94684 12.3232 6.9469 12.2289C6.94716 11.9808 6.94782 11.7326 6.94856 11.4845C6.94924 11.2313 6.94955 10.978 6.94989 10.7248C6.95061 10.228 6.95175 9.73117 6.95316 9.23438Z" fill="#E0263E"/>
<path d="M16.2052 22.0187C16.2781 22.0191 16.2781 22.0191 16.3525 22.0194C16.4035 22.0194 16.4544 22.0194 16.507 22.0194C16.6762 22.0194 16.8455 22.02 17.0148 22.0205C17.1318 22.0206 17.2489 22.0207 17.3659 22.0208C17.6746 22.021 17.9833 22.0217 18.292 22.0224C18.6068 22.0231 18.9215 22.0234 19.2363 22.0238C19.8543 22.0245 20.4724 22.0256 21.0904 22.027C21.0915 22.176 21.0924 22.325 21.093 22.4739C21.0938 22.5984 21.0938 22.5984 21.0945 22.7253C21.0891 23.0396 21.0482 23.3357 20.9857 23.6431C20.9682 23.7319 20.9682 23.7319 20.9502 23.8224C20.6998 25.0109 20.232 26.2051 19.6166 27.2522C19.4464 27.2427 19.2761 27.2329 19.1058 27.2229C19.0581 27.2202 19.0103 27.2176 18.9611 27.2149C18.9141 27.2121 18.867 27.2093 18.8185 27.2064C18.7757 27.2039 18.7329 27.2015 18.6888 27.199C18.5448 27.1852 18.5448 27.1852 18.3602 27.1525C18.1097 27.113 17.8607 27.0974 17.6077 27.0847C17.5056 27.0791 17.4034 27.0736 17.3012 27.068C17.1412 27.0595 16.9813 27.0511 16.8213 27.0428C16.6662 27.0347 16.511 27.0263 16.3559 27.0177C16.3077 27.0154 16.2595 27.013 16.2098 27.0105C15.8728 26.9918 15.8728 26.9918 15.7982 26.9172C15.7916 26.7676 15.7897 26.6177 15.7896 26.4679C15.7895 26.421 15.7893 26.3741 15.7892 26.3257C15.7889 26.1698 15.7891 26.0139 15.7893 25.858C15.7893 25.7501 15.7892 25.6422 15.7892 25.5343C15.7891 25.3079 15.7892 25.0816 15.7895 24.8552C15.7899 24.5643 15.7897 24.2735 15.7893 23.9827C15.789 23.7598 15.7891 23.537 15.7893 23.3141C15.7893 23.2068 15.7893 23.0996 15.7891 22.9923C15.7889 22.8426 15.7892 22.693 15.7896 22.5433C15.7896 22.458 15.7897 22.3726 15.7897 22.2847C15.804 21.9655 15.9168 22.0193 16.2052 22.0187Z" fill="#E0263E"/>
<path d="M9.76238 22.0212C9.81027 22.0214 9.85816 22.0215 9.90749 22.0216C9.95771 22.0215 10.0079 22.0214 10.0597 22.0213C10.2264 22.021 10.3932 22.0212 10.56 22.0214C10.6754 22.0214 10.7908 22.0213 10.9062 22.0212C11.1483 22.0211 11.3905 22.0213 11.6326 22.0216C11.9437 22.022 12.2549 22.0217 12.566 22.0213C12.8043 22.0211 13.0427 22.0212 13.2811 22.0214C13.3958 22.0214 13.5106 22.0213 13.6253 22.0212C13.7854 22.021 13.9455 22.0213 14.1056 22.0216C14.1774 22.0214 14.1774 22.0214 14.2507 22.0212C14.578 22.0227 14.578 22.0227 14.6526 22.0973C14.6593 22.247 14.6612 22.3968 14.6613 22.5466C14.6615 22.617 14.6615 22.617 14.6616 22.6889C14.6619 22.8448 14.6617 23.0007 14.6615 23.1566C14.6616 23.2645 14.6616 23.3723 14.6617 23.4802C14.6618 23.7066 14.6617 23.933 14.6613 24.1594C14.661 24.4502 14.6612 24.7411 14.6616 25.0319C14.6618 25.2547 14.6617 25.4776 14.6616 25.7005C14.6615 25.8077 14.6616 25.915 14.6617 26.0223C14.6619 26.1719 14.6617 26.3216 14.6613 26.4712C14.6612 26.5566 14.6612 26.6419 14.6611 26.7298C14.6526 26.9205 14.6526 26.9205 14.5856 26.9875C14.4933 26.9957 14.4006 26.9996 14.308 27.0017C14.2483 27.0034 14.1885 27.0052 14.127 27.007C14.0614 27.0089 13.9959 27.0107 13.9283 27.0126C13.2103 27.0374 12.501 27.1049 11.7876 27.1874C11.7118 27.1961 11.6361 27.2049 11.558 27.2139C11.491 27.2219 11.424 27.2299 11.3549 27.2381C11.18 27.2545 11.0098 27.2587 10.8342 27.2555C10.074 25.7246 9.34594 24.1192 9.35209 22.3695C9.35191 22.3191 9.35174 22.2688 9.35156 22.2169C9.37055 21.9617 9.54779 22.0222 9.76238 22.0212Z" fill="#E0263E"/>
<path d="M22.629 22.0199C22.7373 22.0196 22.7373 22.0196 22.8478 22.0193C22.9263 22.0194 23.0049 22.0195 23.0859 22.0197C23.1659 22.0196 23.2459 22.0196 23.3284 22.0195C23.498 22.0194 23.6676 22.0196 23.8373 22.0198C24.0979 22.0202 24.3586 22.0198 24.6193 22.0194C24.7836 22.0195 24.948 22.0195 25.1123 22.0197C25.1909 22.0195 25.2694 22.0194 25.3504 22.0193C25.4226 22.0195 25.4948 22.0197 25.5692 22.0199C25.6331 22.02 25.697 22.02 25.7628 22.0201C25.9078 22.0286 25.9078 22.0286 25.9748 22.0956C25.9728 22.3649 25.9382 22.6321 25.9078 22.8994C25.9006 22.9644 25.9006 22.9644 25.8932 23.0307C25.6952 24.7093 24.9117 27.0051 23.6301 28.1916C23.3817 28.2648 23.2294 28.2579 22.9877 28.1696C22.9301 28.1493 22.8724 28.1289 22.813 28.1079C22.7524 28.0858 22.6919 28.0637 22.6295 28.0409C22.1269 27.8632 21.647 27.7243 21.1194 27.6423C20.9506 27.5887 20.9506 27.5887 20.847 27.4767C20.8012 27.2417 20.906 27.0835 21.0134 26.8811C21.0582 26.79 21.1027 26.6986 21.1468 26.6071C21.17 26.5592 21.1931 26.5113 21.2169 26.4619C21.8246 25.1686 22.1817 23.6824 22.2163 22.2536C22.2293 21.9638 22.3743 22.0201 22.629 22.0199Z" fill="#E0263E"/>
<path d="M4.54405 22.0237C5.058 22.022 5.57195 22.0208 6.0859 22.02C6.2609 22.0197 6.43589 22.0192 6.61089 22.0186C6.8618 22.0178 7.11271 22.0174 7.36362 22.0171C7.4424 22.0168 7.52118 22.0164 7.60235 22.0161C7.67477 22.0161 7.74718 22.0161 7.8218 22.0161C7.88591 22.0159 7.95003 22.0158 8.01608 22.0156C8.16147 22.0237 8.16147 22.0237 8.22846 22.0907C8.24163 22.2343 8.25434 22.3779 8.26485 22.5217C8.38792 24.1601 8.85434 25.6889 9.5791 27.1617C9.63523 27.3158 9.63523 27.3158 9.56824 27.5168C9.39696 27.5856 9.39696 27.5856 9.17023 27.6466C9.04725 27.6805 9.04725 27.6805 8.92177 27.7152C8.83443 27.7384 8.74707 27.7616 8.6597 27.7848C8.49069 27.8306 8.32173 27.8767 8.15283 27.9229C8.03274 27.9556 8.03274 27.9556 7.91023 27.9889C7.7292 28.042 7.55911 28.1022 7.38507 28.1741C7.14825 28.2566 7.04975 28.2878 6.82168 28.1867C5.72282 27.0778 5.13895 25.3693 4.74502 23.8994C4.73291 23.8546 4.7208 23.8098 4.70832 23.7637C4.59311 23.3262 4.5345 22.9177 4.53934 22.4649C4.54002 22.3818 4.5407 22.2988 4.5414 22.2132C4.54227 22.1507 4.54315 22.0881 4.54405 22.0237Z" fill="#E0263E"/>
<path d="M20.151 16.6676C20.6537 17.8699 21.0987 19.0853 21.0909 20.4048C21.0907 20.4513 21.0906 20.4979 21.0904 20.5458C21.09 20.6598 21.0895 20.7739 21.0888 20.8879C20.4087 20.8894 19.7286 20.8906 19.0485 20.8914C18.7327 20.8917 18.4169 20.8922 18.1012 20.8929C17.7967 20.8937 17.4922 20.8941 17.1877 20.8942C17.0713 20.8944 16.9549 20.8946 16.8384 20.895C16.6759 20.8955 16.5134 20.8955 16.3509 20.8955C16.3023 20.8957 16.2537 20.896 16.2036 20.8962C15.8713 20.8955 15.8713 20.8955 15.7967 20.8209C15.7904 20.7099 15.7888 20.5986 15.7891 20.4874C15.7891 20.4163 15.7891 20.3452 15.7891 20.272C15.7895 20.1947 15.7898 20.1174 15.7902 20.0377C15.7902 19.959 15.7903 19.8803 15.7904 19.7992C15.7908 19.5466 15.7917 19.2941 15.7925 19.0415C15.7928 18.8708 15.7931 18.7 15.7934 18.5293C15.7942 18.1097 15.7953 17.6901 15.7967 17.2705C15.877 17.2634 15.877 17.2634 15.9589 17.2563C17.1496 17.15 18.3359 17.0378 19.4942 16.7264C19.7247 16.6732 19.9159 16.6558 20.151 16.6676Z" fill="#E0263E"/>
<path d="M10.308 16.6641C10.7931 16.7 11.254 16.7843 11.7273 16.8943C12.5247 17.0729 13.3061 17.1916 14.1227 17.2366C14.1748 17.2396 14.227 17.2425 14.2807 17.2456C14.4079 17.2528 14.5351 17.2599 14.6623 17.267C14.6639 17.7714 14.6651 18.2758 14.6659 18.7802C14.6663 18.9519 14.6667 19.1237 14.6673 19.2954C14.6681 19.5417 14.6685 19.7879 14.6688 20.0342C14.6691 20.1115 14.6695 20.1888 14.6698 20.2685C14.6698 20.3396 14.6699 20.4106 14.6699 20.4839C14.67 20.5468 14.6702 20.6097 14.6703 20.6746C14.6623 20.8174 14.6623 20.8174 14.5953 20.8844C14.4322 20.8907 14.2711 20.8928 14.108 20.892C14.0315 20.892 14.0315 20.892 13.9535 20.892C13.7843 20.892 13.615 20.8915 13.4457 20.8909C13.3287 20.8908 13.2116 20.8907 13.0946 20.8906C12.7859 20.8904 12.4772 20.8897 12.1685 20.889C11.8537 20.8883 11.539 20.888 11.2242 20.8877C10.6062 20.8869 9.98814 20.8858 9.3701 20.8844C9.36929 20.7456 9.36871 20.6068 9.36824 20.468C9.36789 20.3907 9.36754 20.3134 9.36719 20.2337C9.37078 19.9619 9.39799 19.703 9.44546 19.4357C9.45411 19.3857 9.46276 19.3356 9.47166 19.2841C9.63948 18.382 9.96391 17.512 10.308 16.6641Z" fill="#E0263E"/>
<path d="M23.7722 14.8594C23.8844 15.0108 23.9883 15.1618 24.0904 15.3199C24.1356 15.3893 24.1356 15.3893 24.1818 15.4601C24.2419 15.5527 24.3018 15.6456 24.3615 15.7386C24.4267 15.8403 24.4927 15.9414 24.559 16.0424C25.4713 17.4838 25.9158 19.2024 25.9158 20.8884C24.7221 20.8884 23.5283 20.8884 22.2984 20.8884C22.2611 20.5941 22.2238 20.2998 22.1853 19.9966C22.0352 18.8816 21.7842 17.8546 21.3763 16.8054C21.3568 16.7553 21.3374 16.7051 21.3174 16.6534C21.2999 16.6093 21.2823 16.5651 21.2643 16.5196C21.2266 16.4001 21.2266 16.4001 21.2266 16.1992C21.3027 16.1675 21.3789 16.1358 21.4574 16.1031C22.1982 15.7883 22.8837 15.44 23.5215 14.9423C23.6382 14.8594 23.6382 14.8594 23.7722 14.8594Z" fill="#E0263E"/>
<path d="M6.75239 14.8594C6.94356 14.972 7.13138 15.0883 7.31683 15.21C7.93146 15.6098 8.55088 15.926 9.23099 16.1992C9.19086 16.5103 9.10344 16.768 8.98397 17.0575C8.52723 18.2301 8.30645 19.4523 8.23968 20.7051C8.22616 20.8214 8.22616 20.8214 8.15917 20.8884C8.04609 20.8947 7.93275 20.8963 7.81949 20.896C7.74708 20.896 7.67466 20.896 7.60004 20.896C7.48187 20.8955 7.48187 20.8955 7.36131 20.895C7.28112 20.8949 7.20092 20.8948 7.11829 20.8947C6.86095 20.8943 6.60361 20.8934 6.34627 20.8926C6.1723 20.8923 5.99833 20.892 5.82435 20.8917C5.39682 20.8909 4.96928 20.8898 4.54175 20.8884C4.541 20.7719 4.54047 20.6553 4.54003 20.5388C4.53955 20.4414 4.53955 20.4414 4.53906 20.3421C4.56471 18.5207 5.45297 16.1588 6.75239 14.8594Z" fill="#E0263E"/>
<path d="M28.122 13.0469C28.1806 13.0831 28.1806 13.0831 28.2403 13.1201C28.695 13.3775 29.0761 13.4606 29.5958 13.3818C29.7674 13.3238 29.9219 13.2569 30.082 13.1725C30.1987 13.1139 30.1987 13.1139 30.3327 13.1139C30.447 13.5418 30.5458 13.9694 30.6239 14.4055C30.7458 15.0711 30.897 15.7297 31.0475 16.3893C31.0832 16.5458 31.1185 16.7024 31.1538 16.859C31.1646 16.9056 31.1753 16.9522 31.1864 17.0003C31.2564 17.3117 31.3141 17.6184 31.3375 17.9371C31.2035 18.0711 31.2035 18.0711 31.0353 18.0876C30.9644 18.0875 30.8935 18.0874 30.8204 18.0873C30.7001 18.0877 30.7001 18.0877 30.5773 18.088C30.4467 18.0872 30.4467 18.0872 30.3136 18.0865C30.2238 18.0864 30.134 18.0864 30.0443 18.0864C29.8561 18.0863 29.668 18.0858 29.4799 18.0849C29.2382 18.0837 28.9966 18.0835 28.7549 18.0835C28.5696 18.0835 28.3843 18.0831 28.1989 18.0826C28.0663 18.0823 27.9337 18.0822 27.8011 18.0821C27.7211 18.0817 27.6411 18.0812 27.5586 18.0808C27.4878 18.0805 27.4169 18.0803 27.3439 18.08C27.1842 18.0711 27.1842 18.0711 27.1172 18.0041C27.1203 17.4114 27.2792 16.8156 27.3977 16.2372C27.4187 16.1339 27.4396 16.0305 27.4605 15.9272C27.5241 15.6145 27.5884 15.302 27.6531 14.9896C27.6632 14.9409 27.6732 14.8922 27.6836 14.8421C27.7481 14.531 27.8134 14.2201 27.8792 13.9094C27.896 13.8296 27.9127 13.7499 27.93 13.6677C27.9533 13.5591 27.9533 13.5591 27.9771 13.4483C27.9906 13.385 28.0041 13.3217 28.018 13.2564C28.055 13.1139 28.055 13.1139 28.122 13.0469Z" fill="#E0263E"/>
<path d="M10.3692 28.5946C10.5058 28.7377 10.5944 28.8523 10.6958 29.0175C10.7534 29.1044 10.8113 29.1912 10.8693 29.2778C10.8978 29.3211 10.9263 29.3644 10.9556 29.409C11.5019 30.2163 12.2223 30.9366 12.9282 31.6052C13.0488 31.7431 13.0488 31.7431 13.0488 31.9441C12.6344 31.9711 12.3044 31.8774 11.9142 31.7431C11.8524 31.7221 11.7906 31.7011 11.727 31.6795C11.158 31.4803 10.6284 31.2301 10.1013 30.9392C9.99415 30.8813 9.99415 30.8813 9.88486 30.8223C9.15291 30.4123 8.50483 29.9007 7.89062 29.3315C7.91273 29.2652 7.93484 29.1989 7.95761 29.1305C8.38986 28.9216 8.88634 28.8254 9.35183 28.7118C9.42262 28.6942 9.42262 28.6942 9.49483 28.6763C9.7898 28.6073 10.0665 28.5483 10.3692 28.5946Z" fill="#E0263E"/>
<path d="M20.0891 28.5938C20.9396 28.6305 21.8067 28.8092 22.5677 29.1967C22.5677 29.3976 22.5677 29.3976 22.4442 29.5232C21.1432 30.564 19.8572 31.2713 18.2804 31.8092C18.2044 31.8362 18.1283 31.8631 18.0499 31.8909C17.8522 31.9512 17.6821 31.953 17.4766 31.9432C17.4766 31.6753 17.4766 31.6753 17.5817 31.5429C17.6547 31.474 17.6547 31.474 17.7291 31.4036C17.7828 31.3519 17.8364 31.3001 17.8917 31.2468C17.9784 31.1646 17.9784 31.1646 18.0669 31.0807C18.8514 30.3168 19.4795 29.4999 20.0891 28.5938Z" fill="#E0263E"/>
<path d="M16.2172 28.1062C16.7932 28.1069 17.3662 28.1289 17.9408 28.1692C18.0469 28.1754 18.0469 28.1754 18.1552 28.1817C18.2212 28.1869 18.2873 28.1921 18.3553 28.1974C18.4143 28.2017 18.4732 28.2059 18.534 28.2102C18.6777 28.2529 18.6777 28.2529 18.7648 28.3904C18.7803 28.4334 18.7957 28.4765 18.8116 28.5209C18.1165 29.4336 17.3587 30.2691 16.534 31.0665C16.4643 31.1345 16.4643 31.1345 16.3932 31.2038C16.2702 31.3177 16.2702 31.3177 16.0651 31.4684C15.9183 31.4443 15.9183 31.4443 15.7971 31.4014C15.7954 30.9447 15.7942 30.488 15.7934 30.0313C15.7931 29.8758 15.7926 29.7203 15.7921 29.5648C15.7913 29.3418 15.7909 29.1188 15.7906 28.8959C15.7902 28.8259 15.7899 28.7559 15.7895 28.6838C15.7895 28.6194 15.7895 28.555 15.7895 28.4887C15.7894 28.4317 15.7892 28.3748 15.7891 28.3161C15.8058 28.046 15.9885 28.1087 16.2172 28.1062Z" fill="#E0263E"/>
<path d="M14.6551 28.1252C14.6551 29.2084 14.6551 30.2916 14.6551 31.4076C14.0801 31.4076 13.5682 30.7358 13.173 30.3442C12.7904 29.9592 12.4431 29.5583 12.1095 29.13C12.0623 29.0731 12.0151 29.0162 11.9664 28.9575C11.9225 28.9039 11.8785 28.8503 11.8332 28.795C11.7944 28.7481 11.7555 28.7011 11.7155 28.6527C11.6908 28.6112 11.6661 28.5698 11.6406 28.5271C11.6627 28.4608 11.6848 28.3945 11.7076 28.3261C11.9791 28.1904 12.3172 28.2116 12.6162 28.188C12.7208 28.1788 12.7208 28.1788 12.8275 28.1695C13.4424 28.12 14.0322 28.1252 14.6551 28.1252Z" fill="#E0263E"/>
<path d="M29.9302 6.95312C29.9302 8.01424 29.9302 9.07535 29.9302 10.1686C29.8197 10.1465 29.7091 10.1244 29.5953 10.1016C29.4474 10.0955 29.2994 10.0929 29.1515 10.0932C29.076 10.0931 29.0005 10.0929 28.9228 10.0927C28.7205 10.0927 28.7205 10.0927 28.5234 10.1686C28.5234 9.26225 28.5234 8.35588 28.5234 7.42205C29.6489 6.95312 29.6489 6.95312 29.9302 6.95312Z" fill="#E0263E"/>
<path d="M29.6769 10.7092C29.929 10.8791 30.128 11.0355 30.2714 11.3079C30.3327 11.6513 30.3054 11.9466 30.1919 12.2751C30.0107 12.5313 29.8326 12.6823 29.5345 12.7817C29.1958 12.8173 28.9396 12.8212 28.6344 12.6603C28.5494 12.5877 28.5494 12.5877 28.4627 12.5137C28.424 12.482 28.3853 12.4502 28.3455 12.4174C28.1459 12.168 28.093 11.9018 28.1026 11.584C28.1583 11.2692 28.331 11.0198 28.5705 10.8128C28.9358 10.5749 29.2713 10.5713 29.6769 10.7092Z" fill="#E0263E"/>
<path d="M29.7355 6.95312C29.8019 6.95312 29.8682 6.95312 29.9365 6.95312C29.9365 8.01424 29.9365 9.07535 29.9365 10.1686C29.826 10.1465 29.7154 10.1244 29.6016 10.1016C29.6679 10.0574 29.7342 10.0132 29.8025 9.96764C29.8343 9.83568 29.8343 9.83568 29.8315 9.68186C29.8328 9.62286 29.8341 9.56386 29.8355 9.50307C29.8359 9.43928 29.8364 9.3755 29.8368 9.30979C29.8386 9.21194 29.8386 9.21194 29.8405 9.11211C29.8441 8.90324 29.8464 8.69439 29.8486 8.4855C29.8508 8.34411 29.8531 8.20272 29.8555 8.06133C29.8612 7.71427 29.8658 7.3672 29.8695 7.02011C29.8253 6.99801 29.7811 6.9759 29.7355 6.95312Z" fill="#E0263E"/>
</svg>
