<svg width="119" height="119" viewBox="0 0 119 119" fill="none" xmlns="http://www.w3.org/2000/svg">
<g filter="url(#filter0_d_353_648)">
<circle cx="59.2485" cy="56.475" r="40.475" fill="white"/>
</g>
<path d="M54.6442 57.6279L58.0938 61.0774L63.8431 53.0284M73.0419 56.478C73.0419 58.422 72.0761 60.1422 70.5996 61.1817C70.7587 62.0905 70.6964 63.0242 70.4181 63.9039C70.1397 64.7835 69.6535 65.5831 69.0006 66.2349C68.3487 66.8879 67.5491 67.3741 66.6695 67.6525C65.7899 67.9308 64.8561 67.9931 63.9473 67.834C63.4172 68.5891 62.7129 69.2052 61.8941 69.6304C61.0754 70.0555 60.1662 70.2771 59.2436 70.2763C57.2996 70.2763 55.5794 69.3104 54.5399 67.834C53.6311 67.993 52.6974 67.9306 51.8178 67.6523C50.9382 67.3739 50.1386 66.8878 49.4867 66.2349C48.8338 65.5831 48.3475 64.7835 48.0692 63.9039C47.7908 63.0242 47.7285 62.0905 47.8876 61.1817C47.1326 60.6516 46.5164 59.9473 46.0913 59.1285C45.6661 58.3097 45.4446 57.4006 45.4453 56.478C45.4453 54.534 46.4112 52.8138 47.8876 51.7743C47.7285 50.8655 47.7908 49.9318 48.0692 49.0521C48.3475 48.1725 48.8338 47.3729 49.4867 46.7211C50.1386 46.0682 50.9382 45.5821 51.8178 45.3037C52.6974 45.0254 53.6311 44.963 54.5399 45.122C55.0702 44.367 55.7745 43.7509 56.5932 43.3258C57.412 42.9007 58.3211 42.6791 59.2436 42.6797C61.1877 42.6797 62.9078 43.6456 63.9473 45.122C64.8561 44.963 65.7898 45.0254 66.6694 45.3037C67.549 45.5821 68.3486 46.0682 69.0006 46.7211C69.6534 47.373 70.1395 48.1726 70.4179 49.0522C70.6962 49.9318 70.7586 50.8655 70.5996 51.7743C71.3547 52.3044 71.9709 53.0087 72.396 53.8275C72.8211 54.6463 73.0427 55.5554 73.0419 56.478Z" stroke="#E0263E" stroke-width="3.31159" stroke-linecap="round" stroke-linejoin="round"/>
<defs>
<filter id="filter0_d_353_648" x="0.449279" y="0.619482" width="117.601" height="117.601" filterUnits="userSpaceOnUse" color-interpolation-filters="sRGB">
<feFlood flood-opacity="0" result="BackgroundImageFix"/>
<feColorMatrix in="SourceAlpha" type="matrix" values="0 0 0 0 0 0 0 0 0 0 0 0 0 0 0 0 0 0 127 0" result="hardAlpha"/>
<feMorphology radius="0.73591" operator="erode" in="SourceAlpha" result="effect1_dropShadow_353_648"/>
<feOffset dy="2.94364"/>
<feGaussianBlur stdDeviation="9.53003"/>
<feComposite in2="hardAlpha" operator="out"/>
<feColorMatrix type="matrix" values="0 0 0 0 0 0 0 0 0 0 0 0 0 0 0 0 0 0 0.15 0"/>
<feBlend mode="normal" in2="BackgroundImageFix" result="effect1_dropShadow_353_648"/>
<feBlend mode="normal" in="SourceGraphic" in2="effect1_dropShadow_353_648" result="shape"/>
</filter>
</defs>
</svg>
