<svg width="36" height="36" viewBox="0 0 36 36" fill="none" xmlns="http://www.w3.org/2000/svg">
<path d="M16.5 7.5H12L18 1.5L24 7.5H19.5V14.145C18.375 14.835 17.37 15.69 16.5 16.68V7.5ZM33 16.5L27 10.5V15C24.3946 14.8929 21.8483 15.7955 19.8922 17.5197C17.936 19.244 16.7208 21.6567 16.5 24.255C15.3753 24.6543 14.4547 25.4833 13.9402 26.5602C13.4256 27.6371 13.359 28.8741 13.755 30C14.1543 31.1247 14.9833 32.0453 16.0602 32.5598C17.1371 33.0744 18.3741 33.141 19.5 32.745C20.6237 32.3443 21.5432 31.5152 22.0576 30.4387C22.5719 29.3623 22.6393 28.126 22.245 27C21.795 25.71 20.775 24.705 19.5 24.255C20.205 18.255 26.205 17.955 26.925 17.955V22.455L33 16.5ZM15.945 17.385C13.9548 15.8488 11.5141 15.0106 9 15V10.5L3 16.5L9 22.5V18C11.01 18.045 12.945 18.75 14.46 20.1C14.835 19.14 15.33 18.225 15.945 17.385Z" fill="#E0263E"/>
</svg>
