<svg width="36" height="36" viewBox="0 0 36 36" fill="none" xmlns="http://www.w3.org/2000/svg">
<g clip-path="url(#clip0_4522_12570)">
<path d="M8.25 10.5C8.25 9.90905 8.3664 9.32389 8.59254 8.77792C8.81869 8.23196 9.15016 7.73588 9.56802 7.31802C9.98588 6.90016 10.482 6.56869 11.0279 6.34254C11.5739 6.1164 12.1591 6 12.75 6C13.3409 6 13.9261 6.1164 14.4721 6.34254C15.018 6.56869 15.5141 6.90016 15.932 7.31802C16.3498 7.73588 16.6813 8.23196 16.9075 8.77792C17.1336 9.32389 17.25 9.90905 17.25 10.5C17.25 11.6935 16.7759 12.8381 15.932 13.682C15.0881 14.5259 13.9435 15 12.75 15C11.5565 15 10.4119 14.5259 9.56802 13.682C8.72411 12.8381 8.25 11.6935 8.25 10.5ZM12.75 3C10.7609 3 8.85322 3.79018 7.4467 5.1967C6.04018 6.60322 5.25 8.51088 5.25 10.5C5.25 12.4891 6.04018 14.3968 7.4467 15.8033C8.85322 17.2098 10.7609 18 12.75 18C14.7391 18 16.6468 17.2098 18.0533 15.8033C19.4598 14.3968 20.25 12.4891 20.25 10.5C20.25 8.51088 19.4598 6.60322 18.0533 5.1967C16.6468 3.79018 14.7391 3 12.75 3ZM23.25 3H21.75V6H23.25C23.8409 6 24.4261 6.1164 24.9721 6.34254C25.518 6.56869 26.0141 6.90016 26.432 7.31802C26.8498 7.73588 27.1813 8.23196 27.4075 8.77792C27.6336 9.32389 27.75 9.90905 27.75 10.5C27.75 11.0909 27.6336 11.6761 27.4075 12.2221C27.1813 12.768 26.8498 13.2641 26.432 13.682C26.0141 14.0998 25.518 14.4313 24.9721 14.6575C24.4261 14.8836 23.8409 15 23.25 15H21.75V18H23.25C25.2391 18 27.1468 17.2098 28.5533 15.8033C29.9598 14.3968 30.75 12.4891 30.75 10.5C30.75 8.51088 29.9598 6.60322 28.5533 5.1967C27.1468 3.79018 25.2391 3 23.25 3ZM0 28.5C0 26.5109 0.790176 24.6032 2.1967 23.1967C3.60322 21.7902 5.51088 21 7.5 21H18C19.9891 21 21.8968 21.7902 23.3033 23.1967C24.7098 24.6032 25.5 26.5109 25.5 28.5V31.5H22.5V28.5C22.5 27.3065 22.0259 26.1619 21.182 25.318C20.3381 24.4741 19.1935 24 18 24H7.5C6.30653 24 5.16193 24.4741 4.31802 25.318C3.47411 26.1619 3 27.3065 3 28.5V31.5H0V28.5ZM36 28.5C36 27.5151 35.806 26.5398 35.4291 25.6299C35.0522 24.7199 34.4997 23.8931 33.8033 23.1967C33.1069 22.5003 32.2801 21.9478 31.3701 21.5709C30.4602 21.194 29.4849 21 28.5 21H27V24H28.5C29.6935 24 30.8381 24.4741 31.682 25.318C32.5259 26.1619 33 27.3065 33 28.5V31.5H36V28.5Z" fill="white"/>
</g>
<defs>
<clipPath id="clip0_4522_12570">
<rect width="36" height="36" fill="white"/>
</clipPath>
</defs>
</svg>
