<svg width="76" height="75" viewBox="0 0 76 75" fill="none" xmlns="http://www.w3.org/2000/svg">
<path d="M50.0117 22.8481C51.399 24.0519 51.399 24.0519 51.636 24.4017C51.8583 24.6994 52.0292 24.8624 52.3555 25.0454C53.0091 25.1332 53.6511 25.1147 54.3078 25.0864C54.8661 25.0632 55.4246 25.056 55.9832 25.0488C56.0966 25.0472 56.2099 25.0455 56.3267 25.0438C57.4449 25.0334 58.5405 25.1176 59.6522 25.2376C59.8193 25.2549 59.9865 25.2722 60.1587 25.2901C60.9854 25.385 61.8039 25.5127 62.6202 25.6742C62.7728 25.7043 62.9253 25.7343 63.0824 25.7653C63.6094 25.9717 63.771 26.1796 64.0742 26.6567C64.1311 27.0617 64.1545 27.4082 64.1502 27.8125C64.1519 27.9857 64.1519 27.9857 64.1536 28.1624C64.1565 28.5489 64.1554 28.9352 64.1542 29.3216C64.1555 29.5988 64.157 29.876 64.1588 30.1532C64.1629 30.9056 64.1634 31.6579 64.1632 32.4102C64.1637 33.1965 64.1674 33.9828 64.1708 34.7691C64.1768 36.258 64.1797 37.7469 64.1817 39.2358C64.184 40.9309 64.1896 42.626 64.1955 44.3211C64.2076 47.808 64.2155 51.2948 64.2207 54.7817C64.4315 54.4329 64.642 54.0839 64.8524 53.7348C64.9412 53.588 64.9412 53.588 65.0317 53.4383C69.2419 46.4435 70.4422 37.9005 68.5054 29.9892C68.0821 28.3379 67.6226 26.5758 66.8574 25.0454C66.7783 24.4517 66.8073 24.2342 67.1687 23.7453C67.5898 23.434 67.5898 23.434 68.0293 23.3425C68.5988 23.4611 68.8697 23.7071 69.2012 24.1665C69.4623 24.6976 69.6577 25.2464 69.8512 25.8052C69.9079 25.967 69.9645 26.1288 70.0229 26.2954C72.9299 34.84 72.4026 44.3132 68.4249 52.4247C66.8216 55.6051 64.8643 58.4462 62.3836 61.0064C62.2404 61.1543 62.0979 61.3029 61.9562 61.4522C60.8445 62.6232 59.6548 63.6316 58.3613 64.5961C58.2794 64.6584 58.1975 64.7207 58.1131 64.7849C56.713 65.8479 55.2337 66.7178 53.6738 67.5258C53.5547 67.5878 53.4355 67.6498 53.3127 67.7137C45.3857 71.786 36.1053 72.3884 27.6177 69.7822C23.7203 68.5266 20.1031 66.557 16.9062 64.0102C16.824 63.9451 16.7418 63.8801 16.6571 63.813C14.5375 62.1216 12.6494 60.1907 11.0469 58.0043C10.9535 57.8793 10.9535 57.8793 10.8583 57.7516C5.35049 50.3627 3.19578 41.2296 4.52131 32.1315C4.96535 29.3964 5.56441 26.1044 7.09179 23.727C7.60716 23.3834 7.80338 23.3491 8.41015 23.434C8.8313 23.7453 8.8313 23.7453 9.14258 24.1665C9.24121 24.9625 8.97571 25.5679 8.68481 26.2905C7.74682 28.7356 7.1135 31.2344 6.79883 33.8344C6.78502 33.9451 6.77121 34.0557 6.75698 34.1697C6.09727 39.9867 7.22137 45.8528 9.71936 51.1104C9.78933 51.2578 9.8593 51.4051 9.9314 51.5569C10.3233 52.3595 10.7501 53.1276 11.2223 53.8848C11.2761 53.9716 11.3299 54.0585 11.3853 54.1479C11.5164 54.3594 11.6478 54.5705 11.7793 54.7817C11.7798 54.6373 11.7803 54.4929 11.7808 54.3441C11.7926 50.833 11.8061 47.322 11.8214 43.8109C11.8288 42.113 11.8356 40.4151 11.8411 38.7172C11.8459 37.2376 11.8517 35.758 11.8588 34.2784C11.8625 33.4947 11.8657 32.711 11.8677 31.9273C11.8695 31.19 11.8728 30.4528 11.8771 29.7155C11.8784 29.4446 11.8792 29.1736 11.8795 28.9027C11.88 28.5334 11.8823 28.1642 11.885 27.7949C11.8847 27.6872 11.8844 27.5794 11.8841 27.4684C11.89 26.9329 11.9104 26.5194 12.2187 26.0707C12.6783 25.7585 13.1539 25.7023 13.6973 25.6261C13.9602 25.5889 13.9602 25.5889 14.2283 25.5509C14.4111 25.5261 14.5939 25.5012 14.7822 25.4757C14.9605 25.4503 15.1387 25.4249 15.3224 25.3987C15.8499 25.3252 16.3776 25.2568 16.9062 25.1918C17.1228 25.165 17.1228 25.165 17.3437 25.1377C18.1891 25.0495 19.0105 25.0516 19.8583 25.098C22.1895 25.3368 22.1895 25.3368 24.3255 24.6734C24.7324 24.2911 25.0503 23.8528 25.3623 23.3915C25.672 22.9756 26.0596 22.6793 26.4735 22.372C26.5517 22.3134 26.6299 22.2547 26.7105 22.1942C33.6046 17.1648 43.4431 17.3591 50.0117 22.8481ZM39.1719 21.0903C39.1719 23.0239 39.1719 24.9575 39.1719 26.9497C39.6855 26.992 40.1991 27.0343 40.7283 27.0778C42.0245 27.1876 43.3074 27.3264 44.5918 27.5356C43.6899 25.1291 42.2965 22.7628 40.0508 21.3832C39.7607 21.2866 39.4707 21.1899 39.1719 21.0903ZM34.402 22.546C33.0455 23.9363 32.1603 25.6135 31.4082 27.3891C31.7741 27.5721 31.93 27.5229 32.3306 27.4589C32.5235 27.4295 32.5235 27.4295 32.7203 27.3994C32.8553 27.3779 32.9903 27.3564 33.1294 27.3342C34.3656 27.1375 35.5715 27.0394 36.8281 26.9497C36.8281 25.0161 36.8281 23.0825 36.8281 21.0903C35.9402 21.0903 34.9924 21.9813 34.402 22.546ZM44.4453 22.2622C44.4846 22.3318 44.5239 22.4015 44.5643 22.4733C44.6905 22.6987 44.8157 22.9246 44.9403 23.1508C45.1102 23.4583 45.2825 23.7645 45.4564 24.0697C45.5561 24.2483 45.6555 24.427 45.7545 24.6059C45.8062 24.6981 45.8578 24.7902 45.911 24.8851C46.186 25.3965 46.3905 25.8783 46.5327 26.4421C46.7769 27.5714 46.7769 27.5714 47.4693 28.4413C47.9724 28.68 48.4943 28.8153 49.0321 28.9529C49.7748 29.1431 50.413 29.4665 51.0829 29.8336C51.239 29.9174 51.239 29.9174 51.3983 30.0029C51.8046 30.225 52.1833 30.446 52.554 30.7245C52.7839 30.934 52.7839 30.934 53.0879 30.9047C53.0049 30.2228 52.7081 29.7044 52.3555 29.1286C52.2964 29.0317 52.2374 28.9348 52.1766 28.8349C50.3845 25.9534 47.8134 23.6865 44.7383 22.2622C44.6416 22.2622 44.5449 22.2622 44.4453 22.2622ZM26.1073 25.8876C24.9621 27.0432 22.9121 29.2241 22.9121 30.9047C23.3072 30.7097 23.6957 30.5059 24.0817 30.2936C24.3143 30.1675 24.547 30.0417 24.7798 29.916C24.9024 29.8495 25.0249 29.783 25.1512 29.7145C25.8482 29.3455 26.5233 29.0504 27.277 28.8199C28.1913 28.5474 28.1913 28.5474 28.8865 27.9218C29.0639 27.5059 29.0639 27.5059 29.1921 27.0515C29.4039 26.3581 29.7044 25.7258 30.0166 25.0728C30.0706 24.9556 30.1246 24.8384 30.1802 24.7177C30.443 24.1583 30.717 23.6474 31.0832 23.1485C31.4369 22.7542 31.4369 22.7542 31.4082 22.4086C29.6219 22.4086 27.3318 24.6917 26.1073 25.8876ZM14.2695 27.975C14.2456 31.9109 14.2275 35.8466 14.2164 39.7825C14.2111 41.61 14.2039 43.4374 14.1922 45.2649C14.182 46.8576 14.1753 48.4504 14.1731 50.0431C14.1717 50.8866 14.1686 51.7299 14.1611 52.5733C14.1542 53.3673 14.152 54.1611 14.1536 54.955C14.1533 55.2463 14.1512 55.5376 14.1473 55.8289C14.1422 56.227 14.1434 56.6247 14.1462 57.0229C14.1432 57.1379 14.1402 57.2528 14.1372 57.3713C14.1499 58.0441 14.2851 58.3894 14.7514 58.8842C15.1329 59.2471 15.3838 59.3831 15.9115 59.4099C16.1399 59.3966 16.368 59.3775 16.5955 59.3536C16.7187 59.3452 16.8418 59.3368 16.9687 59.3282C17.2309 59.3098 17.4929 59.2891 17.7547 59.2663C18.436 59.2073 19.1186 59.167 19.801 59.1236C19.9339 59.1146 20.0667 59.1057 20.2036 59.0964C25.4229 58.7507 31.5525 59.7728 36.1094 62.4435C36.4952 62.7164 36.4952 62.7164 36.8281 62.6918C36.8281 60.6132 36.8281 58.5346 36.8281 56.393C36.0063 56.248 35.1846 56.103 34.3379 55.9536C29.5468 54.9318 25.0931 52.2629 22.3811 48.0892C19.6323 43.7147 18.4684 38.5015 19.6161 33.4048C20.1282 31.2895 20.9295 29.2656 22.0332 27.3891C18.0563 27.1313 18.0563 27.1313 14.2695 27.975ZM53.9668 27.3891C54.0412 27.5205 54.1156 27.652 54.1922 27.7874C56.7508 32.3884 57.526 37.6825 56.0698 42.7882C54.5657 47.7483 51.3259 51.6797 46.7961 54.185C44.3831 55.4667 41.8493 55.9468 39.1719 56.393C39.1719 58.4716 39.1719 60.5502 39.1719 62.6918C39.6538 62.4991 40.1198 62.3036 40.5892 62.0859C45.764 59.7279 51.245 58.8238 56.9148 59.0847C57.0538 59.091 57.1928 59.0973 57.336 59.1038C57.9508 59.1353 58.5596 59.1779 59.1704 59.2552C59.2701 59.2664 59.3698 59.2777 59.4725 59.2893C59.7299 59.32 59.9864 59.3576 60.2427 59.3959C60.8556 59.2989 61.0899 59.041 61.5102 58.6013C61.8793 58.0919 61.8697 57.6352 61.8538 57.0229C61.8547 56.8982 61.8555 56.7735 61.8564 56.645C61.8581 56.229 61.8525 55.8134 61.8469 55.3974C61.8466 55.0985 61.8467 54.7996 61.8473 54.5007C61.8476 53.6906 61.8416 52.8805 61.8344 52.0704C61.828 51.2233 61.8274 50.3762 61.8262 49.5291C61.823 47.9255 61.8146 46.322 61.8043 44.7185C61.7929 42.8926 61.7872 41.0668 61.7821 39.241C61.7714 35.4856 61.7533 31.7303 61.7305 27.975C61.5235 27.9279 61.3164 27.8811 61.1093 27.8344C60.994 27.8082 60.8787 27.7821 60.76 27.7552C60.2319 27.6442 59.7032 27.5747 59.167 27.5173C59.0517 27.5048 58.9363 27.4924 58.8175 27.4796C57.2054 27.3256 55.5842 27.3634 53.9668 27.3891ZM32.9371 29.5681C32.7087 29.6063 32.7087 29.6063 32.4756 29.6453C31.4702 29.8049 31.4702 29.8049 30.5293 30.1723C30.3786 30.457 30.3786 30.457 30.3347 30.8006C30.3113 30.9265 30.2879 31.0525 30.2638 31.1823C30.2321 31.3802 30.2321 31.3802 30.1997 31.5822C30.1763 31.7108 30.1529 31.8394 30.1288 31.9719C30.0617 32.3479 30.0015 32.7245 29.9434 33.102C29.8992 33.3756 29.8992 33.3756 29.8541 33.6547C29.7722 34.5411 29.7969 35.4345 29.7969 36.3247C32.1172 36.3247 34.4375 36.3247 36.8281 36.3247C36.8281 34.0043 36.8281 31.684 36.8281 29.2934C35.4524 29.2934 34.2647 29.3279 32.9371 29.5681ZM39.1719 29.2934C39.1719 31.6137 39.1719 33.934 39.1719 36.3247C41.4922 36.3247 43.8125 36.3247 46.2031 36.3247C46.2031 34.9489 46.1686 33.7612 45.9285 32.4337C45.903 32.2814 45.8775 32.1291 45.8512 31.9722C45.6916 30.9668 45.6916 30.9668 45.3242 30.0258C45.0395 29.8752 45.0395 29.8752 44.6959 29.8313C44.57 29.8079 44.444 29.7844 44.3143 29.7603C44.1163 29.7286 44.1163 29.7286 43.9143 29.6962C43.7214 29.6611 43.7214 29.6611 43.5246 29.6253C43.1486 29.5582 42.772 29.498 42.3945 29.4399C42.1209 29.3957 42.1209 29.3957 41.8418 29.3506C40.9554 29.2687 40.062 29.2934 39.1719 29.2934ZM47.9609 30.9047C47.9735 30.9961 47.986 31.0874 47.999 31.1815C48.0571 31.6079 48.1143 32.0345 48.1715 32.4611C48.1912 32.6046 48.211 32.7481 48.2313 32.896C48.3839 34.0424 48.4641 35.1652 48.5469 36.3247C50.4805 36.3247 52.4141 36.3247 54.4062 36.3247C54.0233 35.4311 53.6926 34.8515 53.0879 34.1274C53.0176 34.043 52.9474 33.9586 52.875 33.8716C51.6207 32.5001 49.8065 31.5957 48.1074 30.9047C48.0591 30.9047 48.0107 30.9047 47.9609 30.9047ZM23.0769 33.8802C22.502 34.4748 21.5937 35.4223 21.5937 36.3247C23.5273 36.3247 25.4609 36.3247 27.4531 36.3247C27.4954 35.811 27.5377 35.2974 27.5813 34.7683C27.6911 33.4721 27.8298 32.1891 28.0391 30.9047C26.5251 30.9047 24.0817 32.9063 23.0769 33.8802ZM21.5937 38.6684C22.8085 41.5028 25.1555 42.9289 27.8926 44.0883C28.0755 43.7224 28.0263 43.5666 27.9624 43.1659C27.9329 42.973 27.9329 42.973 27.9029 42.7763C27.8813 42.6413 27.8598 42.5062 27.8376 42.3671C27.641 41.1309 27.5429 39.925 27.4531 38.6684C25.5195 38.6684 23.5859 38.6684 21.5937 38.6684ZM29.7969 38.6684C29.7969 40.0441 29.8314 41.2318 30.0715 42.5594C30.097 42.7117 30.1225 42.864 30.1488 43.0209C30.3084 44.0263 30.3084 44.0263 30.6758 44.9672C30.9605 45.1179 30.9605 45.1179 31.3041 45.1618C31.493 45.1969 31.493 45.1969 31.6857 45.2327C31.8177 45.2539 31.9497 45.275 32.0857 45.2968C32.2143 45.3202 32.3429 45.3437 32.4754 45.3678C32.8514 45.4348 33.228 45.495 33.6055 45.5532C33.7879 45.5826 33.9703 45.6121 34.1582 45.6424C35.0446 45.7244 35.938 45.6997 36.8281 45.6997C36.8281 43.3793 36.8281 41.059 36.8281 38.6684C34.5078 38.6684 32.1875 38.6684 29.7969 38.6684ZM39.1719 38.6684C39.1719 40.9887 39.1719 43.309 39.1719 45.6997C40.5476 45.6997 41.7353 45.6651 43.0629 45.425C43.2152 45.3995 43.3674 45.374 43.5243 45.3477C44.5306 45.1897 44.5306 45.1897 45.4707 44.8207C45.6218 44.519 45.6218 44.519 45.6652 44.1553C45.6887 44.0221 45.7121 43.8888 45.7362 43.7516C45.7574 43.6119 45.7785 43.4723 45.8003 43.3284C45.8354 43.1232 45.8354 43.1232 45.8712 42.9139C45.9167 42.6445 45.9602 42.3749 46.0014 42.1049C46.0447 41.8228 46.0941 41.5417 46.1459 41.2611C46.2367 40.4014 46.2031 39.5328 46.2031 38.6684C43.8828 38.6684 41.5625 38.6684 39.1719 38.6684ZM48.5469 38.6684C48.5046 39.182 48.4623 39.6956 48.4187 40.2248C48.3089 41.521 48.1702 42.8039 47.9609 44.0883C50.4242 43.1049 53.0544 41.7673 54.2598 39.2543C54.3081 39.061 54.3564 38.8676 54.4062 38.6684C52.4727 38.6684 50.5391 38.6684 48.5469 38.6684ZM22.9121 44.0883C22.9951 44.7702 23.2919 45.2887 23.6445 45.8645C23.7036 45.9614 23.7626 46.0583 23.8234 46.1581C25.504 48.8604 28.0167 51.2991 30.9687 52.5844C31.1138 52.5844 31.2588 52.5844 31.4082 52.5844C31.2254 52.095 31.0156 51.6755 30.7307 51.2386C30.2978 50.5306 29.9509 49.798 29.6138 49.0413C29.5638 48.93 29.5138 48.8186 29.4623 48.7039C29.2352 48.186 29.0644 47.7501 28.9632 47.1885C28.8234 46.7246 28.8234 46.7246 28.5239 46.5682C28.1863 46.4317 27.8483 46.3242 27.4989 46.2215C26.5394 45.9059 25.6396 45.5621 24.7523 45.0771C24.6633 45.0289 24.5744 44.9806 24.4827 44.9309C24.1226 44.7307 23.7847 44.523 23.4563 44.2737C23.2178 44.0593 23.2178 44.0593 22.9121 44.0883ZM52.1083 44.5369C51.4549 44.9594 50.7969 45.3238 50.0941 45.6539C50.0012 45.6983 49.9083 45.7427 49.8125 45.7885C49.2206 46.0613 48.666 46.2093 48.025 46.3405C47.5872 46.455 47.5872 46.455 47.2285 46.725C46.9282 47.3104 46.7497 47.8883 46.5693 48.5183C46.354 49.2552 46.0289 49.9069 45.663 50.5794C45.6071 50.6835 45.5513 50.7876 45.4938 50.8948C45.2715 51.301 45.0505 51.6798 44.772 52.0506C44.5625 52.2804 44.5625 52.2804 44.5918 52.5844C45.2737 52.5015 45.7922 52.2046 46.3679 51.852C46.4648 51.793 46.5617 51.7339 46.6616 51.6731C49.3639 49.9925 51.8026 47.4798 53.0879 44.5278C53.0879 44.3828 53.0879 44.2377 53.0879 44.0883C52.6629 44.0883 52.4586 44.2987 52.1083 44.5369ZM31.4082 47.4575C32.4263 50.0076 33.7752 52.6073 36.3984 53.7941C36.6539 53.9115 36.6539 53.9115 36.8281 53.9028C36.8281 51.9692 36.8281 50.0356 36.8281 48.0434C36.3145 48.0011 35.8009 47.9588 35.2717 47.9152C33.9755 47.8055 32.6926 47.6667 31.4082 47.4575ZM43.6694 47.5341C43.4765 47.5636 43.4765 47.5636 43.2797 47.5937C43.1447 47.6152 43.0097 47.6367 42.8706 47.6589C41.6344 47.8555 40.4285 47.9536 39.1719 48.0434C39.1719 49.977 39.1719 51.9106 39.1719 53.9028C40.0654 53.5198 40.645 53.1891 41.3691 52.5844C41.4535 52.5142 41.5379 52.4439 41.6249 52.3716C43.0098 51.105 43.8711 49.3053 44.5918 47.604C44.2259 47.421 44.07 47.4702 43.6694 47.5341ZM17.6387 61.3735C18.3075 62.0868 19.065 62.6786 19.8359 63.2778C19.9144 63.3549 19.9928 63.432 20.0736 63.5115C20.5844 63.8133 21.082 63.7749 21.6583 63.7671C21.8448 63.7672 21.8448 63.7672 22.0352 63.7673C22.4458 63.767 22.8563 63.7636 23.2669 63.7601C23.5518 63.7593 23.8367 63.7587 24.1215 63.7583C24.871 63.7566 25.6204 63.7523 26.3698 63.7474C27.1347 63.7429 27.8996 63.7409 28.6645 63.7387C30.165 63.734 31.6655 63.7265 33.166 63.7172C29.3785 60.7938 22.1988 60.9629 17.6387 61.3735ZM42.834 63.7172C44.4627 63.7513 46.0912 63.7773 47.7202 63.7931C48.4768 63.8007 49.2331 63.8111 49.9896 63.8277C50.7209 63.8438 51.4521 63.8524 52.1836 63.8562C52.4613 63.8589 52.739 63.8641 53.0166 63.8721C54.7202 63.919 55.7935 63.8052 57.0846 62.6393C57.2159 62.5116 57.3471 62.3839 57.4824 62.2524C57.645 62.1161 57.8085 61.981 57.9732 61.8473C58.1013 61.7393 58.2294 61.6312 58.3613 61.52C58.3613 61.4716 58.3613 61.4233 58.3613 61.3735C54.2621 61.0044 45.9483 60.6029 42.834 63.7172ZM24.9629 66.061C26.9679 67.5648 29.9977 68.1134 32.4336 68.5512C32.5644 68.575 32.6952 68.5988 32.83 68.6232C38.9699 69.6899 45.383 68.7984 51.0371 66.2075C51.0371 66.1591 51.0371 66.1108 51.0371 66.061C42.4326 66.061 33.8281 66.061 24.9629 66.061Z" fill="#DE2424"/>
<path d="M13.2807 14.9609C13.83 15.0891 13.83 15.0891 14.2054 15.3912C14.4891 15.9709 14.4291 16.2213 14.2695 16.8469C13.9993 17.3026 13.6775 17.7081 13.3448 18.1195C13.2596 18.2287 13.1743 18.338 13.0865 18.4505C11.9688 19.8694 11.9688 19.8694 11.4863 20.0061C10.9247 20.005 10.6831 19.9841 10.232 19.621C9.95509 19.0551 10.0283 18.7748 10.1679 18.1653C10.5457 17.5321 11.0204 16.978 11.4863 16.4075C11.5875 16.2734 11.6887 16.1393 11.793 16.0012C12.5809 15.0101 12.5809 15.0101 13.2807 14.9609Z" fill="#DE2424"/>
<path d="M47.082 4.83467C47.5684 4.95163 48.043 5.09442 48.5194 5.24665C48.6413 5.283 48.7632 5.31935 48.8887 5.3568C49.5363 5.56087 50.0418 5.72485 50.4511 6.29951C50.5659 6.70484 50.5457 7.06204 50.4511 7.47139C50.1582 7.84675 50.1582 7.84675 49.7187 8.05732C48.7503 8.00131 47.8793 7.73147 46.963 7.42561C46.8252 7.38227 46.6875 7.33894 46.5456 7.29429C46.4135 7.25057 46.2814 7.20686 46.1453 7.16182C46.0262 7.12286 45.9071 7.08391 45.7844 7.04377C45.4055 6.85258 45.2487 6.66086 45.0312 6.29951C44.9313 5.71229 44.985 5.49075 45.315 4.99031C45.9435 4.56708 46.3606 4.69983 47.082 4.83467Z" fill="#DE2424"/>
<path d="M63.3418 15.0845C63.9205 15.5374 64.3518 16.1208 64.8067 16.6958C64.9633 16.8924 64.9633 16.8924 65.1231 17.0929C65.6235 17.7609 66.0296 18.3172 65.9785 19.186C65.768 19.6163 65.768 19.6163 65.3926 19.9184C64.6941 20.0814 64.6941 20.0814 64.2207 19.9184C63.7583 19.5335 63.4107 19.0784 63.0489 18.6001C62.9072 18.4242 62.9072 18.4242 62.7627 18.2447C62.5096 17.9283 62.2652 17.607 62.0235 17.2817C61.9268 17.1548 61.8301 17.0279 61.7305 16.8972C61.5157 16.3871 61.5843 16.0501 61.7305 15.5239C62.185 14.9819 62.6687 15.0163 63.3418 15.0845Z" fill="#DE2424"/>
<path d="M55.1707 8.58594C55.8186 8.65287 56.2213 8.88235 56.7409 9.24741C56.874 9.33721 56.874 9.33721 57.0099 9.42883C57.2671 9.60364 57.5216 9.78175 57.7754 9.96152C57.9034 10.0516 58.0315 10.1417 58.1634 10.2345C58.9192 10.7843 58.9192 10.7843 59.0938 11.1334C59.1326 11.6571 59.1573 12.0318 58.9198 12.5067C58.5708 12.8196 58.3923 12.8805 57.9219 12.8912C57.004 12.629 56.3194 12.0432 55.573 11.4636C55.138 11.1247 55.138 11.1247 54.654 10.817C54.2598 10.5475 54.2598 10.5475 54.1133 10.2545C54.0532 9.71336 54.0799 9.43694 54.3422 8.95444C54.6992 8.64316 54.6992 8.64316 55.1707 8.58594Z" fill="#DE2424"/>
<path d="M21.3008 8.64617C21.6579 8.87505 21.6579 8.87505 21.8867 9.23211C21.9691 9.73565 21.9691 9.73565 21.8867 10.2575C21.3901 10.8263 20.8175 11.2506 20.193 11.6674C19.5507 12.0976 19.5507 12.0976 18.9347 12.5641C18.4764 12.8751 18.0242 12.8437 17.4922 12.7477C17.126 12.5189 17.126 12.5189 16.9063 12.1618C16.8239 11.6583 16.8239 11.6583 16.9063 11.1364C17.4262 10.5409 18.0303 10.0948 18.6732 9.6441C18.7628 9.57999 18.8524 9.51588 18.9448 9.44983C19.7685 8.86654 20.2684 8.53555 21.3008 8.64617Z" fill="#DE2424"/>
<path d="M30.5293 4.83175C30.9029 5.15719 30.959 5.36031 31.042 5.84799C30.9641 6.32538 30.8435 6.51727 30.4963 6.84581C29.9421 7.23639 29.2857 7.40147 28.6433 7.59665C28.5015 7.64348 28.3597 7.69031 28.2136 7.73855C27.408 7.99065 26.8108 8.13195 25.9883 7.90793C25.5752 7.5615 25.552 7.34717 25.4847 6.80929C25.5608 6.20112 25.6737 6.09293 26.1348 5.71066C26.6683 5.46882 27.2306 5.31802 27.7919 5.15219C27.9413 5.1047 28.0908 5.05721 28.2448 5.00828C29.067 4.76006 29.6922 4.59874 30.5293 4.83175Z" fill="#DE2424"/>
<path d="M37.9725 3.62497C38.1467 3.62195 38.3209 3.61893 38.5004 3.61581C38.6685 3.61506 38.8367 3.6143 39.0099 3.61352C39.1638 3.61215 39.3177 3.61079 39.4762 3.60938C39.967 3.66924 40.2407 3.80971 40.6367 4.10104C40.8632 4.55393 40.8262 4.92052 40.7832 5.4194C40.4603 5.86375 40.2834 5.99116 39.7366 6.08116C39.5593 6.08182 39.382 6.08248 39.1993 6.08316C39.104 6.08372 39.0087 6.08428 38.9105 6.08486C38.7096 6.08525 38.5086 6.08418 38.3077 6.08173C38.0009 6.07859 37.6946 6.0817 37.3877 6.08545C37.192 6.08506 36.9964 6.08431 36.8007 6.08316C36.6234 6.0825 36.446 6.08184 36.2634 6.08116C35.7165 5.99115 35.5417 5.86174 35.2168 5.4194C35.1436 4.90671 35.1436 4.90671 35.2168 4.39401C35.9655 3.44566 36.8518 3.62978 37.9725 3.62497Z" fill="#DE2424"/>
</svg>
