<svg width="36" height="36" viewBox="0 0 36 36" fill="none" xmlns="http://www.w3.org/2000/svg">
<path d="M10.5 12.75L13.5 9.75L10.5 6.75L7.5 9.75L10.5 12.75ZM6 21C5.175 21 4.469 20.7065 3.882 20.1195C3.295 19.5325 3.001 18.826 3 18V4.5C3 3.675 3.294 2.969 3.882 2.382C4.47 1.795 5.176 1.501 6 1.5H30C30.825 1.5 31.5315 1.794 32.1195 2.382C32.7075 2.97 33.001 3.676 33 4.5V18C33 18.825 32.7065 19.5315 32.1195 20.1195C31.5325 20.7075 30.826 21.001 30 21H25.1625C25.3125 20.5 25.4125 20 25.4625 19.5C25.5125 19 25.5125 18.5 25.4625 18H30V4.5H6V18H10.5375C10.4875 18.5 10.4875 19 10.5375 19.5C10.5875 20 10.6875 20.5 10.8375 21H6ZM24.75 10.5C25.375 10.5 25.9065 10.2815 26.3445 9.8445C26.7825 9.4075 27.001 8.876 27 8.25C26.999 7.624 26.7805 7.093 26.3445 6.657C25.9085 6.221 25.377 6.002 24.75 6C24.123 5.998 23.592 6.217 23.157 6.657C22.722 7.097 22.503 7.628 22.5 8.25C22.497 8.872 22.716 9.4035 23.157 9.8445C23.598 10.2855 24.129 10.504 24.75 10.5ZM7.5 34.5V31.35C7.5 30.475 7.744 29.6625 8.232 28.9125C8.72 28.1625 9.3635 27.6 10.1625 27.225C11.3875 26.65 12.6625 26.219 13.9875 25.932C15.3125 25.645 16.65 25.501 18 25.5C19.35 25.499 20.6875 25.643 22.0125 25.932C23.3375 26.221 24.6125 26.652 25.8375 27.225C26.6375 27.6 27.2815 28.1625 27.7695 28.9125C28.2575 29.6625 28.501 30.475 28.5 31.35V34.5H7.5ZM10.5 31.5H25.5V31.35C25.5 31.05 25.4125 30.775 25.2375 30.525C25.0625 30.275 24.8375 30.0875 24.5625 29.9625C23.5125 29.4875 22.4375 29.125 21.3375 28.875C20.2375 28.625 19.125 28.5 18 28.5C16.875 28.5 15.7625 28.625 14.6625 28.875C13.5625 29.125 12.4875 29.4875 11.4375 29.9625C11.1625 30.0875 10.9375 30.275 10.7625 30.525C10.5875 30.775 10.5 31.05 10.5 31.35V31.5ZM18 24C16.55 24 15.3125 23.4875 14.2875 22.4625C13.2625 21.4375 12.75 20.2 12.75 18.75C12.75 17.3 13.2625 16.0625 14.2875 15.0375C15.3125 14.0125 16.55 13.5 18 13.5C19.45 13.5 20.6875 14.0125 21.7125 15.0375C22.7375 16.0625 23.25 17.3 23.25 18.75C23.25 20.2 22.7375 21.4375 21.7125 22.4625C20.6875 23.4875 19.45 24 18 24ZM18 21C18.625 21 19.1565 20.7815 19.5945 20.3445C20.0325 19.9075 20.251 19.376 20.25 18.75C20.249 18.124 20.0305 17.593 19.5945 17.157C19.1585 16.721 18.627 16.502 18 16.5C17.373 16.498 16.842 16.717 16.407 17.157C15.972 17.597 15.753 18.128 15.75 18.75C15.747 19.372 15.966 19.9035 16.407 20.3445C16.848 20.7855 17.379 21.004 18 21Z" fill="#E0263E"/>
</svg>
