<svg width="76" height="75" viewBox="0 0 76 75" fill="none" xmlns="http://www.w3.org/2000/svg">
<path d="M35.9595 49.1885C36.1878 49.1872 36.1878 49.1872 36.4206 49.1859C36.7419 49.1845 37.0632 49.1836 37.3845 49.183C37.8634 49.1816 38.3422 49.1771 38.8211 49.1724C45.4031 49.1393 53.0842 50.5745 57.9619 55.3728C58.6689 56.1152 59.1904 56.9649 59.6797 57.8608C59.7494 57.9881 59.819 58.1153 59.8908 58.2465C60.5446 59.6998 60.5365 61.7862 60.0367 63.2899C58.407 66.9368 55.1393 68.9811 51.5956 70.4859C49.6754 71.2194 47.6689 71.7131 45.6538 72.1064C45.5417 72.1285 45.4296 72.1506 45.3141 72.1734C42.9022 72.6174 40.5109 72.7104 38.0641 72.7015C37.9088 72.7012 37.7536 72.7009 37.5936 72.7005C35.311 72.6931 33.0701 72.6524 30.8223 72.2163C30.6675 72.1864 30.5126 72.1565 30.3531 72.1257C25.6543 71.1863 19.9567 69.4704 17.0778 65.3024C16.8047 64.8823 16.5606 64.4531 16.3203 64.0131C16.2506 63.8859 16.181 63.7586 16.1092 63.6275C15.4535 62.1699 15.4623 60.0796 15.9724 58.5749C16.0808 58.3333 16.1967 58.0949 16.3203 57.8608C16.3807 57.7403 16.4412 57.6198 16.5034 57.4957C18.5203 53.8173 22.8435 51.7869 26.6976 50.6271C29.7103 49.7646 32.8215 49.2023 35.9595 49.1885ZM20.4219 56.6889C20.315 56.7856 20.2081 56.8823 20.098 56.9819C19.2294 57.8085 18.6089 58.5761 18.3711 59.7651C19.8696 59.7651 21.3682 59.7651 22.9121 59.7651C23.1055 59.2817 23.2988 58.7983 23.4981 58.3002C25.1932 55.5687 28.4177 54.2329 31.4082 53.4663C33.1876 53.0769 35.0067 52.805 36.8281 52.7338C36.8281 52.3955 36.8281 52.0571 36.8281 51.7084C31.4504 51.412 24.5168 52.9847 20.4219 56.6889ZM39.1719 51.7084C39.1719 52.0468 39.1719 52.3852 39.1719 52.7338C39.4565 52.7554 39.4565 52.7554 39.7469 52.7773C43.6836 53.0986 47.8126 53.8913 50.8906 56.5424C51.0175 56.63 51.1444 56.7177 51.2752 56.8079C52.1918 57.6522 52.6526 58.6043 53.0879 59.7651C54.5864 59.7651 56.085 59.7651 57.6289 59.7651C56.796 57.2664 54.7528 55.7863 52.4951 54.6187C48.453 52.605 43.6849 51.5339 39.1719 51.7084ZM26.3064 58.6979C25.6473 59.3914 25.224 59.9597 25.1643 60.937C25.2092 61.7286 25.4936 62.2362 25.9883 62.8413C26.0559 62.9268 26.1235 63.0123 26.1931 63.1005C28.7035 65.9231 33.3921 66.5515 36.914 66.7597C41.1079 66.9543 46.0717 66.3193 49.3709 63.5004C50.1565 62.7344 50.7666 62.0681 50.8357 60.937C50.7908 60.1454 50.5065 59.6378 50.0117 59.0327C49.9103 58.9044 49.9103 58.9044 49.8069 58.7735C47.1307 55.7644 42.2 55.3198 38.4875 55.0952C34.4102 54.8848 29.3471 55.7977 26.3064 58.6979ZM18.3711 62.1088C19.2393 64.7133 21.4266 66.2089 23.7802 67.3998C27.7637 69.3308 32.4107 70.2812 36.8281 70.1655C36.8281 69.8271 36.8281 69.4887 36.8281 69.1401C36.6435 69.1274 36.4588 69.1148 36.2685 69.1017C32.2477 68.793 27.2408 67.8912 24.377 64.7456C23.6778 63.8833 23.3107 63.1716 22.9121 62.1088C21.4136 62.1088 19.915 62.1088 18.3711 62.1088ZM53.0879 62.1088C52.8945 62.5922 52.7012 63.0756 52.502 63.5737C50.8068 66.3052 47.5823 67.641 44.5918 68.4077C42.8124 68.797 40.9933 69.0689 39.1719 69.1401C39.1719 69.4785 39.1719 69.8168 39.1719 70.1655C44.4183 70.3893 51.2058 68.998 55.2749 65.4677C55.3749 65.3744 55.475 65.2811 55.5781 65.185C55.6842 65.0887 55.7904 64.9924 55.8997 64.8932C56.7702 64.0677 57.391 63.2982 57.6289 62.1088C56.1304 62.1088 54.6318 62.1088 53.0879 62.1088Z" fill="#DE2424"/>
<path d="M34.7585 2.26286C35.3961 2.43134 35.7937 2.91039 36.2422 3.37065C36.386 3.51318 36.53 3.65545 36.6742 3.79751C37.0705 4.18925 37.4627 4.58473 37.8535 4.98197C38.3126 4.77895 38.6179 4.54388 38.967 4.18489C39.063 4.08736 39.1589 3.98983 39.2577 3.88935C39.4056 3.73682 39.4056 3.73682 39.5564 3.58122C39.7533 3.37929 39.9505 3.17767 40.1481 2.9764C40.2782 2.84227 40.2782 2.84227 40.4111 2.70542C40.8382 2.30093 41.2241 2.31454 41.7983 2.28289C42.2408 2.37388 42.4023 2.58759 42.6875 2.93119C42.7718 3.29435 42.7718 3.29435 42.7866 3.70657C42.7931 3.86177 42.7997 4.01698 42.8065 4.17689C42.8116 4.4284 42.8116 4.4284 42.8168 4.685C42.8209 4.85965 42.8249 5.03429 42.8291 5.21423C42.8359 5.58522 42.8409 5.95623 42.8444 6.32726C42.8522 6.88633 42.8741 7.4437 42.8964 8.00236C42.9478 10.3967 42.5653 11.7979 40.9488 13.5707C40.8458 13.6851 40.7428 13.7996 40.6367 13.9175C40.5249 14.0419 40.413 14.1662 40.2978 14.2943C39.3895 15.3902 39.1297 16.2143 39.1687 17.6499C39.1685 17.8387 39.1683 18.0276 39.1681 18.2221C39.1677 18.7343 39.1754 19.246 39.1847 19.7581C39.193 20.2953 39.1937 20.8325 39.1953 21.3697C39.1994 22.3845 39.2101 23.3991 39.2234 24.4138C39.2382 25.5701 39.2454 26.7264 39.252 27.8827C39.2658 30.259 39.2889 32.6351 39.3184 35.0113C39.4351 34.9267 39.5518 34.8421 39.672 34.7549C39.8272 34.6462 39.9824 34.5374 40.1423 34.4253C40.2953 34.3166 40.4482 34.2078 40.6058 34.0957C41.1175 33.8169 41.3828 33.7695 41.9551 33.8394C42.3762 34.05 42.3762 34.05 42.6875 34.4253C42.8506 35.7408 42.3575 36.9307 41.9442 38.159C41.867 38.3921 41.79 38.6253 41.713 38.8585C41.5519 39.3451 41.3893 39.8313 41.2257 40.3171C41.0165 40.9388 40.8113 41.5619 40.6072 42.1853C40.4492 42.6663 40.2889 43.1466 40.1279 43.6266C40.0514 43.856 39.9755 44.0857 39.9004 44.3157C39.7952 44.6369 39.6869 44.9569 39.5778 45.2768C39.5169 45.4589 39.4561 45.641 39.3934 45.8286C39.1456 46.3454 38.9199 46.571 38.4395 46.8765C37.8969 46.9669 37.6579 46.9383 37.1921 46.6429C36.761 46.2256 36.6002 45.8256 36.4246 45.2675C36.3733 45.1148 36.3733 45.1148 36.3211 44.9591C36.2093 44.6241 36.101 44.2881 35.9927 43.952C35.9155 43.718 35.8381 43.4842 35.7604 43.2504C35.557 42.6356 35.3566 42.0198 35.1567 41.4039C34.9931 40.9018 34.8275 40.4003 34.6617 39.8989C34.4638 39.3001 34.2668 38.701 34.0701 38.1017C34.0327 37.9878 33.9952 37.8739 33.9567 37.7565C33.8507 37.433 33.7454 37.1094 33.6402 36.7857C33.609 36.6906 33.5778 36.5956 33.5457 36.4976C33.121 35.1832 33.121 35.1832 33.2667 34.6267C33.4881 34.2262 33.6401 34.0531 34.0449 33.8394C34.8337 33.7461 35.2212 33.9727 35.8577 34.4253C36.0905 34.5885 36.0905 34.5885 36.328 34.7549C36.4447 34.8395 36.5614 34.9241 36.6816 35.0113C36.7367 32.5434 36.7779 30.0757 36.8031 27.6074C36.8151 26.4609 36.8314 25.3148 36.8585 24.1686C36.882 23.168 36.897 22.1677 36.9022 21.1668C36.9052 20.638 36.9121 20.11 36.9295 19.5815C37.0117 16.9696 36.7574 15.2329 34.9427 13.2559C34.8422 13.1489 34.7416 13.042 34.6381 12.9319C33.1828 11.3188 33.1828 11.3188 33.1868 10.2243C33.185 10.0621 33.1832 9.89984 33.1813 9.73269C33.1848 9.56265 33.1882 9.39262 33.1918 9.21743C33.1918 9.03882 33.1919 8.8602 33.192 8.67618C33.1932 8.30118 33.1969 7.92619 33.203 7.55124C33.2118 6.9764 33.212 6.40202 33.2109 5.82712C33.2132 5.46186 33.2159 5.0966 33.2192 4.73135C33.2194 4.55954 33.2196 4.38772 33.2198 4.2107C33.2231 4.05124 33.2264 3.89178 33.2297 3.72749C33.2315 3.58748 33.2333 3.44747 33.2351 3.30322C33.4035 2.49383 33.9588 2.21573 34.7585 2.26286ZM35.6563 6.5933C35.4301 8.38517 35.345 9.89034 36.4421 11.404C36.8941 11.9669 37.3573 12.5142 37.8535 13.0386C38.8805 12.6963 39.612 11.4401 40.1496 10.5462C40.6903 9.32861 40.4947 7.88513 40.3438 6.5933C40.1808 6.7327 40.018 6.87213 39.8551 7.01158C39.7644 7.08923 39.6737 7.16687 39.5802 7.24687C39.3635 7.4334 39.1484 7.62192 38.9338 7.81095C38.5446 8.08749 38.3309 8.19299 37.8535 8.20463C37.0734 7.94457 36.5945 7.41771 36.0425 6.8342C35.9634 6.7547 35.8843 6.67521 35.8027 6.5933C35.7544 6.5933 35.7061 6.5933 35.6563 6.5933ZM36.9746 38.3804C37.1861 39.4379 37.4987 40.4387 37.8535 41.4566C37.9502 41.4566 38.0469 41.4566 38.1465 41.4566C38.2982 41.027 38.4469 40.5965 38.5951 40.1657C38.6382 40.0436 38.6814 39.9215 38.7258 39.7958C38.766 39.6782 38.8061 39.5607 38.8474 39.4396C38.885 39.3314 38.9226 39.2232 38.9613 39.1118C39.0577 38.7917 39.0577 38.7917 38.8789 38.3804C38.7339 38.4529 38.7339 38.4529 38.5859 38.5269C37.516 38.5609 37.516 38.5609 36.9746 38.3804Z" fill="#DE2424"/>
<path d="M63.712 32.7485C63.9029 32.7477 64.0937 32.747 64.2904 32.7462C64.6931 32.7449 65.0958 32.7452 65.4985 32.7467C66.0119 32.7484 66.5252 32.7454 67.0386 32.7411C67.5319 32.7378 68.0252 32.7388 68.5185 32.7394C68.7015 32.7377 68.8845 32.7361 69.073 32.7344C70.28 32.744 71.0399 32.9033 72.0147 33.6434C72.0923 33.7226 72.1699 33.8017 72.2499 33.8832C72.3294 33.9612 72.4089 34.0392 72.4908 34.1195C73.0712 34.8998 73.2115 35.6089 73.2154 36.5685C73.2164 36.6754 73.2175 36.7822 73.2185 36.8923C73.2212 37.2426 73.2206 37.5927 73.2198 37.943C73.2204 38.1883 73.2212 38.4336 73.2221 38.679C73.2234 39.1921 73.2231 39.7051 73.2216 40.2182C73.2199 40.8734 73.2229 41.5286 73.2271 42.1838C73.2298 42.6902 73.2298 43.1965 73.229 43.7028C73.2289 43.9443 73.2298 44.1858 73.2316 44.4273C73.2408 45.8462 73.231 46.9218 72.3094 48.0819C72.2263 48.1608 72.1432 48.2397 72.0576 48.3211C71.9745 48.4023 71.8915 48.4835 71.8059 48.5671C71.5365 48.7857 71.2704 48.9218 70.959 49.0718C70.9588 49.1775 70.9586 49.2831 70.9584 49.392C70.9557 50.3919 70.9496 51.3918 70.9396 52.3916C70.9346 52.9056 70.9309 53.4195 70.9303 53.9335C70.9296 54.5255 70.923 55.1174 70.9161 55.7094C70.9167 55.8924 70.9172 56.0754 70.9178 56.2639C70.9002 57.3246 70.7943 58.0737 70.0801 58.8862C69.2809 59.6269 68.6702 59.8117 67.5921 59.8195C67.4787 59.8208 67.3653 59.8222 67.2484 59.8235C67.0085 59.8256 66.7687 59.827 66.5288 59.8275C66.1648 59.8292 65.8012 59.8364 65.4372 59.8438C63.2683 59.866 63.2683 59.866 62.3164 59.0327C61.6687 58.3339 61.4002 57.8084 61.4042 56.8545C61.4043 56.595 61.4043 56.595 61.4043 56.3303C61.4066 56.0513 61.4066 56.0513 61.4089 55.7666C61.4093 55.5756 61.4097 55.3846 61.4102 55.1878C61.4113 54.6811 61.4141 54.1744 61.4174 53.6678C61.4204 53.1503 61.4217 52.6328 61.4232 52.1154C61.4263 51.1008 61.4313 50.0863 61.4375 49.0718C61.3257 49.0295 61.2139 48.9872 61.0988 48.9436C60.1614 48.5512 59.678 47.9431 59.2475 47.0488C58.9285 46.0795 58.9925 45.0543 59.0016 44.0444C59.0015 43.7997 59.0011 43.555 59.0006 43.3103C59.0001 42.7998 59.0023 42.2894 59.0063 41.779C59.0113 41.1272 59.0104 40.4755 59.0077 39.8237C59.0061 39.3193 59.0074 38.8148 59.0096 38.3104C59.0104 38.0701 59.0103 37.8299 59.0094 37.5896C59.006 36.1756 59.0366 35.1238 59.9252 33.9536C60.0043 33.876 60.0834 33.7984 60.1649 33.7184C60.2429 33.6389 60.3209 33.5594 60.4012 33.4775C61.4401 32.7047 62.4584 32.7456 63.712 32.7485ZM61.877 35.5952C61.2659 36.5025 61.374 37.5474 61.3791 38.6073C61.3787 38.7985 61.3783 38.9897 61.3779 39.1867C61.3772 39.5901 61.3782 39.9934 61.3802 40.3967C61.3827 40.9114 61.3813 41.426 61.3786 41.9407C61.3767 42.4348 61.3781 42.9289 61.3791 43.423C61.3783 43.6067 61.3774 43.7905 61.3764 43.9798C61.3839 44.9041 61.4036 45.6285 61.877 46.4351C62.1828 46.6613 62.1828 46.6613 62.5361 46.7647C63.0121 46.9328 63.3244 47.0539 63.6348 47.4605C63.6912 47.8597 63.6912 47.8597 63.6935 48.3482C63.6954 48.531 63.6974 48.7139 63.6994 48.9023C63.6994 49.102 63.6994 49.3018 63.6994 49.5015C63.7012 49.7064 63.7031 49.9113 63.7053 50.1161C63.7106 50.6556 63.7136 51.195 63.7158 51.7345C63.7194 52.5974 63.7252 53.4603 63.7336 54.3232C63.736 54.6244 63.7366 54.9256 63.737 55.2268C63.7385 55.4101 63.74 55.5934 63.7415 55.7823C63.7421 55.9436 63.7428 56.1049 63.7434 56.2711C63.7811 56.6869 63.8454 56.9289 64.0742 57.2749C64.6754 57.5755 65.4551 57.4485 66.1159 57.4489C66.3599 57.4516 66.3599 57.4516 66.6088 57.4543C66.7647 57.4546 66.9206 57.4549 67.0812 57.4552C67.2243 57.4558 67.3674 57.4564 67.5149 57.457C67.9192 57.4471 67.9192 57.4471 68.3223 57.1284C68.4811 56.6519 68.4889 56.3004 68.4919 55.7989C68.4934 55.6156 68.4949 55.4323 68.4964 55.2434C68.4972 55.0966 68.4972 55.0966 68.4979 54.9469C68.4997 54.6403 68.5025 54.3337 68.5057 54.0271C68.5147 53.1555 68.5227 52.2839 68.5275 51.4123C68.5306 50.879 68.5358 50.3457 68.5423 49.8123C68.5444 49.6091 68.5457 49.4058 68.5461 49.2026C68.5468 48.9186 68.5505 48.6345 68.5542 48.3505C68.5554 48.1889 68.5566 48.0272 68.5578 47.8607C68.6152 47.4605 68.6152 47.4605 68.819 47.1936C69.1951 46.9182 69.619 46.7969 70.0572 46.6479C70.526 46.332 70.6727 45.9395 70.8125 45.4097C70.8765 44.7473 70.8741 44.0881 70.8709 43.423C70.8713 43.2318 70.8717 43.0406 70.8721 42.8436C70.8728 42.4402 70.8719 42.0369 70.8698 41.6336C70.8673 41.1189 70.8687 40.6043 70.8714 40.0896C70.8733 39.5955 70.872 39.1014 70.8709 38.6073C70.8718 38.4236 70.8726 38.2398 70.8736 38.0505C70.8789 36.7528 70.8789 36.7528 70.3731 35.5952C69.5685 35.0921 68.804 35.0912 67.8737 35.0974C67.6649 35.0968 67.6649 35.0968 67.4519 35.0961C67.1589 35.0958 66.8659 35.0966 66.5729 35.0985C66.1264 35.1008 65.68 35.0985 65.2335 35.0957C64.9478 35.096 64.6621 35.0966 64.3763 35.0974C64.2439 35.0965 64.1114 35.0956 63.9749 35.0947C63.1698 35.1036 62.5679 35.1632 61.877 35.5952Z" fill="#DE2424"/>
<path d="M7.46202 32.7485C7.65287 32.7477 7.84372 32.747 8.04036 32.7462C8.4431 32.7449 8.84581 32.7452 9.24855 32.7467C9.76194 32.7484 10.2752 32.7454 10.7886 32.7411C11.2819 32.7378 11.7752 32.7388 12.2685 32.7394C12.4515 32.7377 12.6345 32.7361 12.823 32.7344C14.03 32.744 14.7899 32.9033 15.7647 33.6434C15.8423 33.7226 15.9199 33.8017 15.9999 33.8832C16.0794 33.9612 16.1589 34.0392 16.2408 34.1195C16.8212 34.8998 16.9615 35.6089 16.9654 36.5685C16.9664 36.6754 16.9675 36.7822 16.9685 36.8923C16.9712 37.2426 16.9706 37.5927 16.9698 37.943C16.9704 38.1883 16.9712 38.4336 16.9721 38.679C16.9734 39.1921 16.9731 39.7051 16.9716 40.2182C16.9699 40.8734 16.9729 41.5286 16.9771 42.1838C16.9798 42.6902 16.9798 43.1965 16.979 43.7028C16.9789 43.9443 16.9798 44.1858 16.9816 44.4273C16.9908 45.8462 16.981 46.9218 16.0594 48.0819C15.9763 48.1608 15.8932 48.2397 15.8076 48.3211C15.7245 48.4023 15.6415 48.4835 15.5559 48.5671C15.2865 48.7857 15.0204 48.9218 14.709 49.0718C14.7088 49.1775 14.7086 49.2831 14.7084 49.392C14.7057 50.3919 14.6996 51.3918 14.6896 52.3916C14.6846 52.9056 14.6809 53.4195 14.6803 53.9335C14.6796 54.5255 14.673 55.1174 14.6661 55.7094C14.6667 55.8924 14.6672 56.0754 14.6678 56.2639C14.6502 57.3246 14.5443 58.0737 13.8301 58.8862C13.0309 59.6269 12.4202 59.8117 11.3421 59.8195C11.2287 59.8208 11.1153 59.8222 10.9984 59.8235C10.7585 59.8256 10.5187 59.827 10.2788 59.8275C9.91482 59.8292 9.55116 59.8364 9.18722 59.8438C7.01834 59.866 7.01834 59.866 6.06641 59.0327C5.41872 58.3339 5.15017 57.8084 5.15425 56.8545C5.15428 56.595 5.15428 56.595 5.15431 56.3303C5.15658 56.0513 5.15658 56.0513 5.1589 55.7666C5.15931 55.5756 5.15972 55.3846 5.16015 55.1878C5.16127 54.6811 5.16414 54.1744 5.16739 53.6678C5.17039 53.1503 5.17173 52.6328 5.1732 52.1154C5.17634 51.1008 5.18134 50.0863 5.18751 49.0718C5.07572 49.0295 4.96393 48.9872 4.84876 48.9436C3.91141 48.5512 3.42795 47.9431 2.99754 47.0488C2.67851 46.0795 2.7425 45.0543 2.75163 44.0444C2.75151 43.7997 2.75115 43.555 2.75056 43.3103C2.75014 42.7998 2.75228 42.2894 2.75632 41.779C2.76132 41.1272 2.76042 40.4755 2.75768 39.8237C2.75613 39.3193 2.75745 38.8148 2.75964 38.3104C2.7604 38.0701 2.76034 37.8299 2.75942 37.5896C2.75603 36.1756 2.78664 35.1238 3.67517 33.9536C3.75429 33.876 3.83341 33.7984 3.91492 33.7184C3.99291 33.6389 4.07089 33.5594 4.15124 33.4775C5.19012 32.7047 6.20845 32.7456 7.46202 32.7485ZM5.62696 35.5952C5.01592 36.5025 5.12401 37.5474 5.12914 38.6073C5.12872 38.7985 5.1283 38.9897 5.12787 39.1867C5.12722 39.5901 5.12815 39.9934 5.13021 40.3967C5.13272 40.9114 5.13127 41.426 5.12864 41.9407C5.12667 42.4348 5.12805 42.9289 5.12914 43.423C5.12825 43.6067 5.12736 43.7905 5.12645 43.9798C5.13386 44.9041 5.15362 45.6285 5.62696 46.4351C5.93283 46.6613 5.93283 46.6613 6.28614 46.7647C6.7621 46.9328 7.07443 47.0539 7.38477 47.4605C7.44121 47.8597 7.44121 47.8597 7.44346 48.3482C7.44541 48.531 7.44737 48.7139 7.44938 48.9023C7.4494 49.102 7.44942 49.3018 7.44943 49.5015C7.45116 49.7064 7.45311 49.9113 7.45529 50.1161C7.4606 50.6556 7.46355 51.195 7.46577 51.7345C7.46941 52.5974 7.47523 53.4603 7.48363 54.3232C7.48602 54.6244 7.48658 54.9256 7.487 55.2268C7.48849 55.4101 7.48999 55.5934 7.49152 55.7823C7.49215 55.9436 7.49278 56.1049 7.49342 56.2711C7.53107 56.6869 7.59542 56.9289 7.82422 57.2749C8.42545 57.5755 9.2051 57.4485 9.86585 57.4489C10.1099 57.4516 10.1099 57.4516 10.3588 57.4543C10.5147 57.4546 10.6706 57.4549 10.8312 57.4552C10.9743 57.4558 11.1174 57.4564 11.2649 57.457C11.6692 57.4471 11.6692 57.4471 12.0723 57.1284C12.2311 56.6519 12.2389 56.3004 12.2419 55.7989C12.2434 55.6156 12.2449 55.4323 12.2464 55.2434C12.2472 55.0966 12.2472 55.0966 12.2479 54.9469C12.2497 54.6403 12.2525 54.3337 12.2557 54.0271C12.2647 53.1555 12.2727 52.2839 12.2775 51.4123C12.2806 50.879 12.2858 50.3457 12.2923 49.8123C12.2944 49.6091 12.2957 49.4058 12.2961 49.2026C12.2968 48.9186 12.3005 48.6345 12.3042 48.3505C12.3054 48.1889 12.3066 48.0272 12.3078 47.8607C12.3652 47.4605 12.3652 47.4605 12.569 47.1936C12.9451 46.9182 13.369 46.7969 13.8072 46.6479C14.276 46.332 14.4227 45.9395 14.5625 45.4097C14.6265 44.7473 14.6241 44.0881 14.6209 43.423C14.6213 43.2318 14.6217 43.0406 14.6221 42.8436C14.6228 42.4402 14.6219 42.0369 14.6198 41.6336C14.6173 41.1189 14.6187 40.6043 14.6214 40.0896C14.6233 39.5955 14.622 39.1014 14.6209 38.6073C14.6218 38.4236 14.6226 38.2398 14.6236 38.0505C14.6289 36.7528 14.6289 36.7528 14.1231 35.5952C13.3185 35.0921 12.554 35.0912 11.6237 35.0974C11.4149 35.0968 11.4149 35.0968 11.2019 35.0961C10.9089 35.0958 10.6159 35.0966 10.3229 35.0985C9.87637 35.1008 9.43003 35.0985 8.98351 35.0957C8.69779 35.096 8.41207 35.0966 8.12635 35.0974C7.99387 35.0965 7.8614 35.0956 7.72491 35.0947C6.91979 35.1036 6.31791 35.1632 5.62696 35.5952Z" fill="#DE2424"/>
<path d="M48.4776 18.686C48.6685 18.6852 48.8593 18.6845 49.056 18.6837C49.4587 18.6824 49.8614 18.6827 50.2642 18.6842C50.7776 18.6859 51.2908 18.6829 51.8042 18.6786C52.2975 18.6753 52.7908 18.6763 53.2842 18.6769C53.4671 18.6752 53.6501 18.6736 53.8387 18.6719C55.0456 18.6815 55.8055 18.8408 56.7803 19.5809C56.8579 19.6601 56.9355 19.7392 57.0155 19.8207C57.095 19.8987 57.1745 19.9767 57.2564 20.057C57.8368 20.8373 57.9771 21.5464 57.9811 22.506C57.9821 22.6129 57.9831 22.7197 57.9841 22.8298C57.9868 23.1801 57.9862 23.5302 57.9854 23.8805C57.9861 24.1258 57.9868 24.3711 57.9877 24.6165C57.989 25.1296 57.9887 25.6426 57.9872 26.1557C57.9855 26.8109 57.9885 27.4661 57.9928 28.1213C57.9955 28.6277 57.9954 29.134 57.9946 29.6403C57.9946 29.8818 57.9954 30.1233 57.9973 30.3648C58.0065 31.7837 57.9966 32.8593 57.075 34.0194C56.9919 34.0983 56.9088 34.1772 56.8232 34.2586C56.7402 34.3398 56.6571 34.421 56.5715 34.5046C56.3021 34.7232 56.0361 34.8593 55.7246 35.0093C55.7244 35.115 55.7242 35.2206 55.724 35.3295C55.7214 36.3294 55.7152 37.3293 55.7053 38.3291C55.7003 38.8431 55.6966 39.357 55.696 39.871C55.6952 40.463 55.6886 41.0549 55.6817 41.6469C55.6823 41.8299 55.6828 42.0129 55.6834 42.2014C55.6658 43.2621 55.5599 44.0112 54.8457 44.8237C54.0466 45.5644 53.4358 45.7492 52.3578 45.757C52.2443 45.7583 52.1309 45.7597 52.014 45.761C51.7742 45.7631 51.5343 45.7645 51.2945 45.765C50.9304 45.7667 50.5668 45.7739 50.2028 45.7813C48.034 45.8035 48.034 45.8035 47.082 44.9702C46.4378 44.2751 46.166 43.7502 46.1704 42.8013C46.1703 42.6302 46.1702 42.4591 46.1701 42.2828C46.1712 42.0986 46.1723 41.9145 46.1734 41.7247C46.1722 41.435 46.1711 41.1453 46.1696 40.8556C46.1663 40.1417 46.1657 39.4278 46.1694 38.7138C46.1714 38.3129 46.1711 37.912 46.1682 37.5111C46.1656 37.1335 46.1664 36.7559 46.171 36.3784C46.1657 35.9055 46.1546 35.4719 46.0566 35.0093C45.6587 34.5961 45.6587 34.5961 45.1777 34.4234C44.8779 34.1355 44.8779 34.1355 44.6284 33.8466C44.5446 33.7516 44.4607 33.6566 44.3744 33.5588C43.8785 32.8725 43.8217 32.2686 43.8168 31.4326C43.8158 31.3257 43.8148 31.2189 43.8138 31.1089C43.8111 30.7571 43.8105 30.4053 43.8102 30.0534C43.8092 29.8077 43.8082 29.5619 43.8072 29.3162C43.8055 28.8014 43.8049 28.2866 43.8051 27.7717C43.8051 27.1142 43.8011 26.4567 43.7961 25.7992C43.7928 25.2916 43.7922 24.784 43.7924 24.2764C43.792 24.0341 43.7907 23.7918 43.7885 23.5495C43.7763 22.1249 43.7951 21.0707 44.6908 19.8911C44.7699 19.8135 44.849 19.7359 44.9305 19.6559C45.0085 19.5764 45.0865 19.4969 45.1669 19.415C46.2057 18.6422 47.2241 18.6831 48.4776 18.686ZM46.6426 21.5327C46.0315 22.44 46.1396 23.4849 46.1448 24.5448C46.1443 24.736 46.1439 24.9272 46.1435 25.1242C46.1428 25.5276 46.1438 25.9309 46.1458 26.3342C46.1483 26.8489 46.1469 27.3635 46.1443 27.8782C46.1423 28.3723 46.1437 28.8664 46.1448 29.3605C46.1439 29.5442 46.143 29.728 46.1421 29.9173C46.1495 30.8416 46.1692 31.566 46.6426 32.3726C46.9484 32.5988 46.9484 32.5988 47.3018 32.7022C47.7777 32.8703 48.09 32.9914 48.4004 33.398C48.4568 33.7972 48.4568 33.7972 48.4591 34.2857C48.461 34.4685 48.463 34.6514 48.465 34.8398C48.465 35.0395 48.465 35.2393 48.465 35.439C48.4668 35.6439 48.4687 35.8488 48.4709 36.0536C48.4762 36.5931 48.4792 37.1325 48.4814 37.672C48.485 38.5349 48.4908 39.3978 48.4992 40.2607C48.5016 40.5619 48.5022 40.8631 48.5026 41.1643C48.5041 41.3476 48.5056 41.5309 48.5071 41.7198C48.5078 41.8811 48.5084 42.0424 48.509 42.2086C48.5467 42.6244 48.611 42.8664 48.8398 43.2124C49.4411 43.513 50.2207 43.386 50.8815 43.3864C51.1255 43.3891 51.1255 43.3891 51.3744 43.3918C51.5303 43.3921 51.6862 43.3924 51.8468 43.3927C51.9899 43.3933 52.133 43.3939 52.2805 43.3945C52.6848 43.3846 52.6848 43.3846 53.0879 43.0659C53.2467 42.5894 53.2545 42.2379 53.2575 41.7364C53.259 41.5531 53.2605 41.3698 53.262 41.1809C53.2628 41.0341 53.2628 41.0341 53.2636 40.8844C53.2653 40.5778 53.2681 40.2712 53.2713 39.9646C53.2804 39.093 53.2883 38.2214 53.2932 37.3498C53.2962 36.8165 53.3014 36.2832 53.3079 35.7498C53.31 35.5466 53.3113 35.3433 53.3117 35.1401C53.3125 34.8561 53.3161 34.572 53.3198 34.288C53.321 34.1264 53.3222 33.9647 53.3234 33.7982C53.3809 33.398 53.3809 33.398 53.5847 33.1311C53.9607 32.8557 54.3846 32.7344 54.8228 32.5854C55.2916 32.2695 55.4383 31.877 55.5781 31.3472C55.6421 30.6848 55.6397 30.0256 55.6365 29.3605C55.6369 29.1693 55.6373 28.9781 55.6378 28.7811C55.6384 28.3777 55.6375 27.9744 55.6354 27.5711C55.6329 27.0564 55.6344 26.5418 55.637 26.0271C55.639 25.533 55.6376 25.0389 55.6365 24.5448C55.6374 24.3611 55.6383 24.1773 55.6392 23.988C55.6445 22.6903 55.6445 22.6903 55.1387 21.5327C54.3341 21.0296 53.5696 21.0287 52.6393 21.0349C52.4305 21.0343 52.4305 21.0343 52.2175 21.0336C51.9245 21.0333 51.6315 21.0341 51.3385 21.036C50.892 21.0383 50.4457 21.036 49.9991 21.0332C49.7134 21.0335 49.4277 21.0341 49.142 21.0349C49.0095 21.034 48.877 21.0331 48.7405 21.0322C47.9354 21.0411 47.3335 21.1007 46.6426 21.5327Z" fill="#DE2424"/>
<path d="M22.6964 18.686C22.8872 18.6852 23.0781 18.6845 23.2747 18.6837C23.6775 18.6824 24.0802 18.6827 24.4829 18.6842C24.9963 18.6859 25.5096 18.6829 26.0229 18.6786C26.5163 18.6753 27.0096 18.6763 27.5029 18.6769C27.6859 18.6752 27.8689 18.6736 28.0574 18.6719C29.2643 18.6815 30.0243 18.8408 30.9991 19.5809C31.0767 19.6601 31.1543 19.7392 31.2343 19.8207C31.3137 19.8987 31.3932 19.9767 31.4751 20.057C32.0556 20.8373 32.1959 21.5464 32.1998 22.506C32.2008 22.6129 32.2018 22.7197 32.2029 22.8298C32.2055 23.1801 32.205 23.5302 32.2041 23.8805C32.2048 24.1258 32.2056 24.3711 32.2065 24.6165C32.2078 25.1296 32.2074 25.6426 32.206 26.1557C32.2043 26.8109 32.2072 27.4661 32.2115 28.1213C32.2142 28.6277 32.2142 29.134 32.2133 29.6403C32.2133 29.8818 32.2142 30.1233 32.216 30.3648C32.2252 31.7837 32.2154 32.8593 31.2938 34.0194C31.2107 34.0983 31.1276 34.1772 31.042 34.2586C30.9589 34.3398 30.8758 34.421 30.7902 34.5046C30.5208 34.7232 30.2548 34.8593 29.9434 35.0093C29.9431 35.115 29.9429 35.2206 29.9427 35.3295C29.9401 36.3294 29.934 37.3293 29.924 38.3291C29.919 38.8431 29.9153 39.357 29.9147 39.871C29.914 40.463 29.9073 41.0549 29.9004 41.6469C29.901 41.8299 29.9016 42.0129 29.9022 42.2014C29.8845 43.2621 29.7786 44.0112 29.0645 44.8237C28.2653 45.5644 27.6545 45.7492 26.5765 45.757C26.4631 45.7583 26.3496 45.7597 26.2327 45.761C25.9929 45.7631 25.7531 45.7645 25.5132 45.765C25.1492 45.7667 24.7855 45.7739 24.4216 45.7813C22.2527 45.8035 22.2527 45.8035 21.3008 44.9702C20.6565 44.2751 20.3847 43.7502 20.3891 42.8013C20.389 42.6302 20.389 42.4591 20.3889 42.2828C20.39 42.0986 20.391 41.9145 20.3921 41.7247C20.391 41.435 20.3898 41.1453 20.3884 40.8556C20.385 40.1417 20.3844 39.4278 20.3882 38.7138C20.3902 38.3129 20.3898 37.912 20.3869 37.5111C20.3843 37.1335 20.3852 36.7559 20.3898 36.3784C20.3845 35.9055 20.3734 35.4719 20.2754 35.0093C19.8774 34.5961 19.8774 34.5961 19.3965 34.4234C19.0966 34.1355 19.0966 34.1355 18.8472 33.8466C18.7633 33.7516 18.6795 33.6566 18.5931 33.5588C18.0973 32.8725 18.0404 32.2686 18.0356 31.4326C18.0346 31.3257 18.0336 31.2189 18.0326 31.1089C18.0298 30.7571 18.0292 30.4053 18.0289 30.0534C18.028 29.8077 18.027 29.5619 18.026 29.3162C18.0242 28.8014 18.0237 28.2866 18.0238 27.7717C18.0239 27.1142 18.0199 26.4567 18.0148 25.7992C18.0116 25.2916 18.011 24.784 18.0111 24.2764C18.0108 24.0341 18.0095 23.7918 18.0072 23.5495C17.9951 22.1249 18.0138 21.0707 18.9095 19.8911C18.9887 19.8135 19.0678 19.7359 19.1493 19.6559C19.2273 19.5764 19.3053 19.4969 19.3856 19.415C20.4245 18.6422 21.4428 18.6831 22.6964 18.686ZM20.8613 21.5327C20.2503 22.44 20.3584 23.4849 20.3635 24.5448C20.3631 24.736 20.3627 24.9272 20.3622 25.1242C20.3616 25.5276 20.3625 25.9309 20.3646 26.3342C20.3671 26.8489 20.3656 27.3635 20.363 27.8782C20.361 28.3723 20.3624 28.8664 20.3635 29.3605C20.3626 29.5442 20.3617 29.728 20.3608 29.9173C20.3682 30.8416 20.388 31.566 20.8613 32.3726C21.1672 32.5988 21.1672 32.5988 21.5205 32.7022C21.9965 32.8703 22.3088 32.9914 22.6191 33.398C22.6756 33.7972 22.6756 33.7972 22.6778 34.2857C22.6798 34.4685 22.6817 34.6514 22.6837 34.8398C22.6838 35.0395 22.6838 35.2393 22.6838 35.439C22.6855 35.6439 22.6875 35.8488 22.6897 36.0536C22.695 36.5931 22.6979 37.1325 22.7001 37.672C22.7038 38.5349 22.7096 39.3978 22.718 40.2607C22.7204 40.5619 22.7209 40.8631 22.7214 41.1643C22.7229 41.3476 22.7244 41.5309 22.7259 41.7198C22.7265 41.8811 22.7271 42.0424 22.7278 42.2086C22.7654 42.6244 22.8298 42.8664 23.0586 43.2124C23.6598 43.513 24.4395 43.386 25.1002 43.3864C25.3442 43.3891 25.3442 43.3891 25.5932 43.3918C25.749 43.3921 25.9049 43.3924 26.0655 43.3927C26.2086 43.3933 26.3518 43.3939 26.4992 43.3945C26.9035 43.3846 26.9035 43.3846 27.3066 43.0659C27.4655 42.5894 27.4733 42.2379 27.4762 41.7364C27.4777 41.5531 27.4792 41.3698 27.4808 41.1809C27.4815 41.0341 27.4815 41.0341 27.4823 40.8844C27.484 40.5778 27.4869 40.2712 27.4901 39.9646C27.4991 39.093 27.507 38.2214 27.5119 37.3498C27.515 36.8165 27.5201 36.2832 27.5267 35.7498C27.5288 35.5466 27.53 35.3433 27.5305 35.1401C27.5312 34.8561 27.5348 34.572 27.5386 34.288C27.5398 34.1264 27.541 33.9647 27.5422 33.7982C27.5996 33.398 27.5996 33.398 27.8034 33.1311C28.1795 32.8557 28.6034 32.7344 29.0416 32.5854C29.5103 32.2695 29.657 31.877 29.7969 31.3472C29.8609 30.6848 29.8585 30.0256 29.8552 29.3605C29.8557 29.1693 29.8561 28.9781 29.8565 28.7811C29.8572 28.3777 29.8562 27.9744 29.8542 27.5711C29.8517 27.0564 29.8531 26.5418 29.8557 26.0271C29.8577 25.533 29.8563 25.0389 29.8552 24.5448C29.8561 24.3611 29.857 24.1773 29.8579 23.988C29.8633 22.6903 29.8633 22.6903 29.3574 21.5327C28.5529 21.0296 27.7883 21.0287 26.858 21.0349C26.6493 21.0343 26.6493 21.0343 26.4363 21.0336C26.1433 21.0333 25.8503 21.0341 25.5573 21.036C25.1107 21.0383 24.6644 21.036 24.2179 21.0332C23.9322 21.0335 23.6464 21.0341 23.3607 21.0349C23.2282 21.034 23.0958 21.0331 22.9593 21.0322C22.1542 21.0411 21.5523 21.1007 20.8613 21.5327Z" fill="#DE2424"/>
<path d="M43.8067 58.5571C44.4822 59.2079 44.8984 59.9985 44.9763 60.9409C44.9091 61.8149 44.5009 62.6439 43.884 63.2595C43.5926 63.4871 43.2985 63.6822 42.9805 63.8706C42.89 63.9259 42.7996 63.9812 42.7064 64.0382C41.5615 64.6737 40.1799 64.9622 38.8789 65.0425C38.7552 65.0502 38.6316 65.0579 38.5041 65.0659C36.7784 65.1198 34.8269 64.8965 33.3125 64.0171C33.1985 63.9538 33.0844 63.8906 32.9669 63.8254C32.0159 63.252 31.4668 62.5814 31.1153 61.5268C31.0062 60.4905 31.2531 59.7482 31.8477 58.8901C32.2058 58.5327 32.585 58.2682 33.0195 58.0112C33.1117 57.9559 33.2038 57.9006 33.2988 57.8436C36.3726 56.1618 41.0464 56.411 43.8067 58.5571ZM33.6055 60.7944C33.8209 61.3977 34.2216 61.6901 34.7774 61.9663C36.8741 62.7469 39.0575 62.7747 41.1592 61.9686C41.647 61.735 42.0263 61.479 42.3945 61.0874C42.1791 60.4841 41.7784 60.1917 41.2227 59.9155C38.9156 59.0565 35.444 58.8393 33.6055 60.7944Z" fill="#DE2424"/>
<path d="M69.0524 23.0447C69.9568 23.752 70.5108 24.6805 70.8125 25.781C70.9588 27.407 70.8637 28.8183 69.8237 30.1481C68.995 31.0354 67.9628 31.5805 66.7499 31.6896C65.1782 31.725 63.8827 31.5416 62.6872 30.425C61.6041 29.2204 61.3523 27.9439 61.3917 26.3652C61.4541 25.2631 61.8826 24.3324 62.6323 23.5254C64.4333 21.9609 67.043 21.7077 69.0524 23.0447ZM64.1658 25.7261C63.8429 26.3966 63.811 26.9537 63.9277 27.6853C64.269 28.3941 64.6838 28.8089 65.3926 29.1502C66.1242 29.2669 66.6813 29.235 67.3518 28.9121C67.8768 28.4371 68.263 28.0567 68.3784 27.334C68.4159 26.5014 68.3129 25.9789 67.7363 25.3416C67.099 24.765 66.5765 24.662 65.7439 24.6995C65.0212 24.8149 64.6408 25.2011 64.1658 25.7261Z" fill="#DE2424"/>
<path d="M12.8024 23.0447C13.7068 23.752 14.2608 24.6805 14.5625 25.781C14.7088 27.407 14.6137 28.8183 13.5737 30.1481C12.745 31.0354 11.7128 31.5805 10.4999 31.6896C8.92816 31.725 7.63272 31.5416 6.4372 30.425C5.35415 29.2204 5.10227 27.9439 5.14173 26.3652C5.20408 25.2631 5.63259 24.3324 6.38227 23.5254C8.1833 21.9609 10.793 21.7077 12.8024 23.0447ZM7.91578 25.7261C7.59292 26.3966 7.56097 26.9537 7.67774 27.6853C8.01901 28.3941 8.43381 28.8089 9.14259 29.1502C9.8742 29.2669 10.4313 29.235 11.1018 28.9121C11.6268 28.4371 12.013 28.0567 12.1284 27.334C12.1659 26.5014 12.0629 25.9789 11.4863 25.3416C10.849 24.765 10.3265 24.662 9.49392 24.6995C8.77122 24.8149 8.39079 25.2011 7.91578 25.7261Z" fill="#DE2424"/>
<path d="M53.818 8.98223C54.7224 9.68953 55.2764 10.618 55.5781 11.7185C55.7244 13.3445 55.6293 14.7558 54.5894 16.0856C53.7606 16.9729 52.7284 17.518 51.5155 17.6271C49.9438 17.6625 48.6483 17.4791 47.4528 16.3625C46.3698 15.1579 46.1179 13.8814 46.1574 12.3027C46.2197 11.2006 46.6482 10.2699 47.3979 9.46288C49.1989 7.89843 51.8086 7.64524 53.818 8.98223ZM48.9314 11.6636C48.6085 12.3341 48.5766 12.8912 48.6934 13.6228C49.0346 14.3316 49.4494 14.7464 50.1582 15.0877C50.8898 15.2044 51.4469 15.1725 52.1174 14.8496C52.6425 14.3746 53.0286 13.9942 53.144 13.2715C53.1815 12.4389 53.0786 11.9164 52.502 11.2791C51.8647 10.7025 51.3421 10.5995 50.5095 10.637C49.7868 10.7524 49.4064 11.1386 48.9314 11.6636Z" fill="#DE2424"/>
<path d="M28.0368 8.98223C28.9412 9.68953 29.4952 10.618 29.7969 11.7185C29.9432 13.3445 29.8481 14.7558 28.8081 16.0856C27.9794 16.9729 26.9471 17.518 25.7342 17.6271C24.1625 17.6625 22.8671 17.4791 21.6716 16.3625C20.5885 15.1579 20.3366 13.8814 20.3761 12.3027C20.4385 11.2006 20.867 10.2699 21.6166 9.46288C23.4177 7.89843 26.0273 7.64524 28.0368 8.98223ZM23.1502 11.6636C22.8273 12.3341 22.7953 12.8912 22.9121 13.6228C23.2534 14.3316 23.6682 14.7464 24.377 15.0877C25.1086 15.2044 25.6656 15.1725 26.3362 14.8496C26.8612 14.3746 27.2474 13.9942 27.3627 13.2715C27.4002 12.4389 27.2973 11.9164 26.7207 11.2791C26.0834 10.7025 25.5609 10.5995 24.7283 10.637C24.0056 10.7524 23.6252 11.1386 23.1502 11.6636Z" fill="#DE2424"/>
</svg>
