<svg width="76" height="75" viewBox="0 0 76 75" fill="none" xmlns="http://www.w3.org/2000/svg">
<path d="M45.7065 9.95846C48.0864 11.9417 49.6216 14.7875 50.0117 17.8675C50.0318 18.3468 50.0322 18.8252 50.03 19.3048C50.0306 19.4296 50.0312 19.5543 50.0317 19.6828C50.0305 20.5046 49.9691 21.3002 49.8652 22.1155C50.0828 21.9705 50.0828 21.9705 50.3047 21.8225C50.9342 21.7539 51.567 21.7683 52.1998 21.7676C52.3746 21.764 52.5494 21.7604 52.7294 21.7567C52.9813 21.7559 52.9813 21.7559 53.2384 21.755C53.3921 21.7538 53.5458 21.7526 53.7041 21.7514C54.2149 21.8402 54.3797 22.009 54.6992 22.4085C54.9109 22.8423 54.9922 23.0951 54.9922 23.5804C55.2691 23.6625 55.547 23.7412 55.8253 23.8184C55.98 23.8626 56.1346 23.9068 56.294 23.9523C56.8095 24.0286 57.0206 23.9477 57.4824 23.7268C58.4344 23.5864 58.4344 23.5864 58.949 23.9151C59.2575 24.1812 59.542 24.4604 59.8262 24.7522C59.9348 24.8574 60.0433 24.9626 60.1552 25.071C61.1353 26.0266 61.1353 26.0266 61.172 26.7847C61.1685 27.2726 61.0689 27.5403 60.8516 27.9749C60.8954 28.647 61.0502 29.1811 61.4375 29.7327C61.8101 29.9541 62.1857 30.1344 62.5831 30.3072C62.9023 30.4651 62.9023 30.4651 63.0488 30.7581C63.0924 31.3859 63.0896 32.015 63.0946 32.6441C63.0989 32.8195 63.1031 32.9949 63.1075 33.1757C63.1087 33.3443 63.1099 33.5129 63.1112 33.6866C63.1144 33.9186 63.1144 33.9186 63.1177 34.1552C63.032 34.6674 62.8637 34.8338 62.4629 35.1526C62.0744 35.3029 61.7022 35.3634 61.291 35.4456C61.1943 35.8323 61.0977 36.219 60.9981 36.6175C61.1286 36.6514 61.2591 36.6853 61.3935 36.7202C62.6245 37.0401 63.8552 37.3611 65.0855 37.6834C65.718 37.849 66.3507 38.0142 66.9836 38.1784C67.5945 38.337 68.2052 38.4966 68.8157 38.6571C69.0484 38.7181 69.2813 38.7786 69.5142 38.8388C69.841 38.9232 70.1673 39.0091 70.4936 39.0953C70.6793 39.1438 70.8651 39.1922 71.0564 39.2422C71.6233 39.4261 72.1048 39.6206 72.4788 40.0965C72.6202 40.6056 72.5685 40.9452 72.4238 41.4515C71.7749 42.0386 71.4306 42.0537 70.5195 42.1839C70.5679 47.3079 70.6162 52.4319 70.666 57.7112C71.9712 58.4363 71.9712 58.4363 73.3027 59.1761C74.1816 59.762 74.1816 59.762 74.3805 60.1639C74.4907 60.7225 74.5168 61.2602 74.5148 61.8271C74.516 62.0005 74.516 62.0005 74.5171 62.1775C74.5191 62.5577 74.519 62.938 74.5187 63.3183C74.5192 63.5838 74.5199 63.8494 74.5206 64.115C74.5217 64.671 74.5216 65.2269 74.5209 65.7828C74.52 66.4938 74.5225 67.2046 74.5259 67.9155C74.5281 68.4638 74.5282 69.0121 74.5277 69.5604C74.5278 69.8225 74.5286 70.0845 74.53 70.3466C74.5318 70.7136 74.5308 71.0805 74.5292 71.4475C74.5303 71.5548 74.5314 71.662 74.5325 71.7725C74.5249 72.5208 74.3777 73.0261 74.0352 73.678C73.5478 73.9217 73.0933 73.9292 72.5703 73.8245C72.054 73.5427 71.6082 73.186 71.1513 72.8174C70.9101 72.6279 70.6685 72.4391 70.4263 72.2509C70.321 72.1666 70.2157 72.0822 70.1072 71.9952C69.7516 71.7492 69.4777 71.5796 69.0547 71.4808C68.6909 71.6566 68.6909 71.6566 68.3566 71.9648C68.1609 72.1249 68.1609 72.1249 67.9612 72.2881C67.6911 72.5173 67.4214 72.747 67.1521 72.9771C66.4234 73.5715 65.9119 73.961 64.9504 73.9236C64.5205 73.7768 64.352 73.6013 64.0742 73.2386C64.0164 72.8032 63.9941 72.4222 63.9984 71.9869C63.9969 71.7978 63.9969 71.7978 63.9953 71.6049C63.9927 71.1883 63.9944 70.7718 63.9964 70.3552C63.996 70.0655 63.9954 69.7758 63.9947 69.4861C63.9938 68.8789 63.9951 68.2717 63.9978 67.6645C64.0012 66.8866 63.9993 66.1087 63.9957 65.3307C63.9936 64.7324 63.9943 64.1342 63.9958 63.5359C63.9962 63.249 63.9957 62.9622 63.9944 62.6754C63.9929 62.2742 63.9951 61.8732 63.9984 61.4721C63.9972 61.3537 63.996 61.2354 63.9948 61.1134C64.0059 60.3738 64.1288 59.9873 64.6602 59.469C65.0044 59.2245 65.0044 59.2245 65.38 59.013C65.5156 58.936 65.6512 58.8591 65.7908 58.7798C65.9313 58.7021 66.0718 58.6244 66.2166 58.5443C66.3582 58.4638 66.4998 58.3833 66.6457 58.3003C67.6936 57.7112 67.6936 57.7112 68.0293 57.7112C68.0293 52.8289 68.0293 47.9466 68.0293 42.9163C65.1289 43.7139 65.1289 43.7139 62.1699 44.5276C62.0249 44.5276 61.8799 44.5276 61.7305 44.5276C61.731 44.6206 61.7316 44.7135 61.7321 44.8093C61.7451 47.071 61.7547 49.3328 61.7608 51.5946C61.7639 52.6884 61.768 53.7821 61.7747 54.8759C61.7805 55.8293 61.7843 56.7826 61.7856 57.736C61.7864 58.2408 61.7882 58.7456 61.7924 59.2503C61.7971 59.8139 61.7973 60.3775 61.797 60.9411C61.7991 61.1084 61.8012 61.2756 61.8034 61.4478C61.7975 62.5721 61.7975 62.5721 61.4706 63.1556C61.142 63.4262 60.9622 63.5357 60.5487 63.6118C60.4261 63.6359 60.3034 63.6601 60.177 63.685C59.9705 63.721 59.9705 63.721 59.7598 63.7577C59.6094 63.7865 59.459 63.8152 59.3041 63.8449C58.9516 63.912 58.5988 63.9777 58.2459 64.0425C57.5534 64.1696 56.8623 64.3039 56.1712 64.4381C54.767 64.7103 53.3618 64.9776 51.9564 65.2435C51.3689 65.3547 50.7815 65.4665 50.1943 65.5789C42.8659 66.9802 36.3073 67.7988 28.8951 66.4848C28.7702 66.4628 28.6454 66.4408 28.5167 66.4182C25.6861 65.9193 22.8603 65.3953 20.0364 64.8598C19.3446 64.7287 18.6524 64.5993 17.9602 64.4703C17.4183 64.369 16.8766 64.2664 16.335 64.1634C16.0793 64.115 15.8236 64.0672 15.5678 64.0198C15.215 63.9543 14.8626 63.8871 14.5103 63.8194C14.4071 63.8006 14.3039 63.7819 14.1975 63.7626C13.6056 63.6465 13.1396 63.4997 12.6582 63.1311C12.3718 62.6754 12.3289 62.3241 12.33 61.7907C12.3296 61.6383 12.3292 61.4859 12.3288 61.3289C12.3304 61.0793 12.3304 61.0793 12.332 60.8247C12.3319 60.6489 12.3319 60.4731 12.3319 60.2919C12.332 59.8105 12.3335 59.329 12.3355 58.8475C12.3374 58.3441 12.3375 57.8407 12.3379 57.3373C12.3388 56.3843 12.3412 55.4313 12.3441 54.4783C12.3474 53.3932 12.349 52.3081 12.3505 51.2231C12.3536 48.9912 12.3587 46.7594 12.3652 44.5276C12.2062 44.4907 12.0471 44.4537 11.8832 44.4156C10.6155 44.1198 9.35142 43.815 8.09259 43.4834C7.93888 43.443 7.78517 43.4026 7.6268 43.3609C7.30741 43.2768 6.98806 43.1925 6.66876 43.108C6.18088 42.9792 5.69264 42.8518 5.20439 42.7243C4.89146 42.6417 4.57856 42.559 4.26568 42.4763C4.0487 42.42 4.0487 42.42 3.82733 42.3625C3.11551 42.1725 2.45561 41.9808 1.81837 41.5979C1.58916 41.1395 1.56978 40.6296 1.67188 40.1331C2.14892 39.5146 2.72053 39.362 3.44686 39.1729C3.57799 39.1371 3.70911 39.1013 3.84422 39.0644C4.3402 38.93 4.83706 38.7991 5.33399 38.6683C5.54513 38.6121 5.75626 38.5559 5.96737 38.4996C7.66687 38.0468 9.36782 37.5995 11.069 37.153C12.405 36.8022 13.7406 36.4503 15.0763 36.0985C15.226 36.0591 15.3756 36.0197 15.5297 35.9791C18.5554 35.1824 21.5794 34.3797 24.6025 33.5733C24.9626 33.4773 25.3227 33.3813 25.6827 33.2854C26.243 33.1361 26.8032 32.9867 27.3634 32.8371C27.5673 32.7827 27.7712 32.7283 27.9751 32.674C28.2512 32.6004 28.5274 32.5265 28.8035 32.4527C28.9575 32.4116 29.1115 32.3705 29.2702 32.3281C29.5456 32.2519 29.8187 32.1668 30.0898 32.0765C29.6652 29.6424 28.9375 27.6127 27.7181 25.4592C26.0896 22.5705 25.4668 19.5591 26.2858 16.2945C27.2206 13.1472 29.0727 10.4415 31.9552 8.78601C36.4503 6.35279 41.6789 6.85938 45.7065 9.95846ZM30.9688 12.887C30.8385 13.0102 30.8385 13.0102 30.7055 13.1359C29.1571 14.7219 28.452 17.1928 28.4236 19.3415C28.4531 21.5711 29.3542 23.3109 30.4286 25.206C31.7272 27.5202 32.3217 29.907 32.7266 32.5159C33.4517 32.5159 34.1768 32.5159 34.9238 32.5159C34.9238 29.4222 34.9238 26.3284 34.9238 23.1409C34.2954 23.0926 33.667 23.0442 33.0195 22.9944C31.9798 22.7312 31.2417 22.4062 30.606 21.5216C29.9563 20.4146 29.8604 19.1921 30.182 17.9516C30.5661 17.0644 31.3332 16.3669 32.1898 15.9386C33.2338 15.6125 34.4397 15.6604 35.4365 16.1097C36.2982 16.6114 36.7912 17.2756 37.1669 18.1879C37.3141 19.0043 37.3668 19.8232 37.4141 20.6507C37.8008 20.6507 38.1875 20.6507 38.5859 20.6507C38.5942 20.4674 38.5942 20.4674 38.6025 20.2805C38.7523 17.7163 38.7523 17.7163 39.6674 16.7471C40.6686 15.9104 41.651 15.7021 42.941 15.7566C44.0752 15.8989 44.6767 16.4147 45.4055 17.2672C46.0602 18.2175 46.0257 19.2424 45.9102 20.3577C45.633 21.3234 45.1388 21.9871 44.3017 22.5384C43.26 23.1126 42.2943 23.0472 41.0762 23.1409C41.0762 26.2347 41.0762 29.3284 41.0762 32.5159C41.1729 32.5159 41.2695 32.5159 41.3691 32.5159C41.3746 32.3941 41.3801 32.2723 41.3857 32.1468C41.3954 31.9877 41.405 31.8285 41.4149 31.6645C41.4234 31.5064 41.4319 31.3484 41.4407 31.1855C41.5221 30.7214 41.5781 30.5875 41.9551 30.3186C42.1449 30.2337 42.3374 30.1545 42.5319 30.0806C43.1744 29.7735 43.3873 29.3894 43.6328 28.7348C43.7661 28.2015 43.6583 27.8656 43.4199 27.389C43.287 26.425 43.287 26.425 43.6128 25.9155C43.8782 25.6109 44.1565 25.3278 44.4453 25.0452C44.5312 24.9508 44.6171 24.8564 44.7057 24.7591C45.1353 24.2953 45.3882 24.0469 46.0017 23.8459C46.8054 23.4143 46.9587 22.6593 47.2285 21.8225C47.2648 21.7149 47.301 21.6073 47.3384 21.4964C47.952 19.2892 47.4801 16.816 46.4686 14.8096C45.9487 13.9128 45.3273 13.1743 44.5918 12.4475C44.4408 12.2918 44.4408 12.2918 44.2868 12.1328C42.4501 10.3541 40.1093 9.73562 37.6131 9.75962C34.8968 9.83555 32.8273 10.9857 30.9688 12.887ZM32.4336 18.8929C32.2993 19.4056 32.2993 19.4056 32.4336 19.9183C32.7475 20.317 32.8649 20.4628 33.3125 20.6507C33.8556 20.7088 34.38 20.6942 34.9238 20.6507C35.0385 19.5168 35.0385 19.5168 34.6217 18.4992C34.2126 18.1242 34.2126 18.1242 33.6787 18.0597C33.0298 18.1872 32.8125 18.3533 32.4336 18.8929ZM41.2032 18.7366C40.9474 19.3462 41.0244 20.0037 41.0762 20.6507C42.21 20.7654 42.21 20.7654 43.2277 20.3485C43.6027 19.9394 43.6027 19.9394 43.6671 19.4056C43.5396 18.7566 43.3736 18.5393 42.834 18.1604C42.0963 18.0155 41.6647 18.1107 41.2032 18.7366ZM49.5723 22.4085C49.7188 22.7015 49.7188 22.7015 49.7188 22.7015L49.5723 22.4085ZM49.4258 22.8479C49.5723 23.1409 49.5723 23.1409 49.5723 23.1409L49.4258 22.8479ZM37.4141 23.1409C37.4141 26.2347 37.4141 29.3284 37.4141 32.5159C37.8008 32.5159 38.1875 32.5159 38.5859 32.5159C38.5859 29.4222 38.5859 26.3284 38.5859 23.1409C38.1992 23.1409 37.8125 23.1409 37.4141 23.1409ZM51.7695 24.1663C51.7357 24.2458 51.7019 24.3253 51.6671 24.4072C51.6193 24.512 51.5716 24.6168 51.5223 24.7248C51.4765 24.8284 51.4306 24.9321 51.3833 25.0389C50.9635 25.668 50.2228 25.8876 49.5448 26.1621C48.9659 26.3947 48.9659 26.3947 48.4004 26.6565C47.6934 26.6973 47.1554 26.6209 46.4961 26.3636C46.3027 26.6053 46.1094 26.847 45.9102 27.096C45.9585 27.1685 46.0068 27.241 46.0566 27.3157C46.3306 28.0006 46.3079 28.5732 46.0544 29.2521C45.9274 29.5305 45.7959 29.8069 45.6601 30.0812C45.5019 30.4019 45.3735 30.716 45.251 31.0511C44.998 31.5571 44.802 31.691 44.2988 31.93C44.1538 32.0267 44.0088 32.1233 43.8594 32.2229C43.8227 32.6746 43.8227 32.6746 43.8594 33.1018C44.1222 33.1789 44.1222 33.1789 44.3904 33.2575C45.1636 33.6317 45.3593 34.3216 45.6313 35.0817C45.664 35.1761 45.6968 35.2705 45.7305 35.3678C45.889 35.8622 45.889 35.8622 46.079 36.2158C46.347 36.7666 46.2249 37.3932 46.1024 37.9725C46.0165 38.3712 46.0165 38.3712 46.2214 38.6591C46.61 38.8793 46.795 38.7719 47.2285 38.6683C48.0774 38.5774 48.6693 38.6624 49.4092 39.0894C49.7593 39.2758 50.1112 39.387 50.4878 39.5105C51.0571 39.7277 51.2961 39.9147 51.5681 40.4627C51.6346 40.644 51.7011 40.8252 51.7695 41.012C52.0596 41.012 52.3496 41.012 52.6484 41.012C52.6775 40.9253 52.7066 40.8387 52.7366 40.7494C53.0123 40.1041 53.2266 39.7693 53.8707 39.4533C54.2332 39.329 54.5983 39.2121 54.9659 39.1037C55.4483 38.9805 55.4483 38.9805 55.8711 38.6683C56.1767 38.6345 56.1767 38.6345 56.512 38.6408C56.6283 38.6427 56.7446 38.6446 56.8644 38.6465C57.1895 38.6683 57.1895 38.6683 57.6106 38.769C57.9297 38.8495 57.9297 38.8495 58.1965 38.6499C58.4297 38.2613 58.3199 38.0822 58.2148 37.6429C58.0911 36.6817 58.2898 36.0541 58.7596 35.215C58.9354 34.882 59.0378 34.5795 59.1395 34.2188C59.4374 33.5788 59.6881 33.452 60.3177 33.1888C60.4369 33.1458 60.4369 33.1458 60.5586 33.1018C60.5586 32.8118 60.5586 32.5218 60.5586 32.2229C60.3139 32.0779 60.3139 32.0779 60.0642 31.93C59.9266 31.8484 59.9266 31.8484 59.7861 31.7652C59.5369 31.6149 59.5369 31.6149 59.2402 31.637C59.2153 31.5343 59.1904 31.4316 59.1647 31.3257C58.9916 30.6481 58.8237 30.0245 58.4804 29.4123C58.0962 28.6968 58.1227 28.059 58.3156 27.2699C58.398 26.946 58.398 26.946 58.1994 26.704C57.7918 26.4191 57.5261 26.5238 57.043 26.6016C56.1195 26.6992 55.5841 26.5408 54.7748 26.1089C54.42 25.931 54.1258 25.8481 53.7379 25.7776C53.2344 25.6311 53.2344 25.6311 53.033 25.2924C53.0028 25.1625 52.9725 25.0326 52.9414 24.8987C52.887 24.7628 52.8326 24.6268 52.7766 24.4867C52.7343 24.381 52.692 24.2752 52.6484 24.1663C52.3584 24.1663 52.0684 24.1663 51.7695 24.1663ZM28.9724 34.9987C28.8563 35.0293 28.7402 35.0598 28.6206 35.0913C28.2317 35.1938 27.843 35.2968 27.4543 35.3998C27.1795 35.4724 26.9047 35.5449 26.6299 35.6173C25.8913 35.8123 25.1527 36.0077 24.4142 36.2032C23.8056 36.3643 23.1968 36.5251 22.5881 36.6859C17.7136 37.9736 12.8409 39.2686 7.97071 40.5726C7.97071 40.6692 7.97071 40.7659 7.97071 40.8655C8.07733 40.8934 8.18395 40.9214 8.2938 40.9501C9.73349 41.3272 11.173 41.705 12.6124 42.0832C12.7324 42.1147 12.8524 42.1462 12.976 42.1787C18.307 43.5795 23.6321 45.002 28.9564 46.4278C29.1116 46.4694 29.2667 46.5109 29.4265 46.5537C30.2881 46.7844 31.1496 47.0151 32.0111 47.2462C32.2679 47.315 32.5249 47.3834 32.782 47.4514C33.4112 47.6182 34.0386 47.7895 34.6641 47.9699C34.7883 48.0049 34.9125 48.0398 35.0404 48.0758C35.2725 48.1412 35.5041 48.2083 35.7349 48.2776C36.9079 48.6033 37.921 48.3831 39.0821 48.0726C39.1825 48.046 39.283 48.0194 39.3865 47.992C39.7184 47.904 40.0499 47.8145 40.3815 47.7251C40.6206 47.6614 40.8597 47.5977 41.0988 47.5342C41.7444 47.3623 42.3897 47.1893 43.0349 47.0161C43.7131 46.8343 44.3916 46.6536 45.07 46.4728C46.1993 46.1717 47.3284 45.87 48.4574 45.568C50.0987 45.1291 51.7405 44.6924 53.3826 44.2564C53.512 44.222 53.6414 44.1877 53.7747 44.1523C54.288 44.016 54.8013 43.8797 55.3146 43.7434C56.6089 43.3997 57.9031 43.0557 59.1973 42.7115C59.3048 42.6829 59.4122 42.6543 59.5229 42.6249C61.7239 42.0394 63.9245 41.4527 66.125 40.8655C66.125 40.7688 66.125 40.6722 66.125 40.5726C63.386 39.449 63.386 39.449 60.5587 39.3907C59.9022 39.8204 59.4647 40.3972 59.0874 41.0792C58.9473 41.305 58.9473 41.305 58.6543 41.4515C58.1344 41.4809 57.7383 41.4968 57.2535 41.2958C56.6254 41.0542 56.1149 41.2781 55.4866 41.4515C54.879 41.8115 54.767 42.1129 54.5413 42.7612C54.4063 43.0628 54.4063 43.0628 53.9668 43.3558C53.3585 43.4203 52.7471 43.4032 52.1357 43.4015C51.9667 43.4039 51.7977 43.4062 51.6236 43.4087C51.4618 43.4088 51.3 43.4089 51.1332 43.409C50.9849 43.4094 50.8366 43.4098 50.6838 43.4103C50.3047 43.3558 50.3047 43.3558 50.039 43.1501C49.8393 42.8813 49.7788 42.6636 49.7004 42.3395C49.5641 41.9486 49.4734 41.7791 49.1357 41.5327C48.2586 41.1125 47.7042 41.1464 46.7891 41.4515C46.258 41.5348 45.911 41.5515 45.457 41.2432C45.0309 40.8711 44.6385 40.474 44.2439 40.069C44.0257 39.8063 44.0257 39.8063 43.7129 39.8401C43.6825 39.9162 43.6521 39.9923 43.6208 40.0707C43.3589 40.6635 43.1764 41.0222 42.596 41.3324C42.1858 41.5867 42.1122 41.7025 41.9911 42.1816C41.9488 42.5188 41.9097 42.8564 41.8738 43.1944C41.7635 43.963 41.4073 44.361 40.8473 44.8664C40.0096 45.4463 39.0171 45.2984 38.0366 45.3058C37.8516 45.3101 37.6665 45.3143 37.4759 45.3187C36.4472 45.3257 35.7494 45.3135 34.9238 44.6741C34.2688 43.9837 34.0507 43.4125 34.0175 42.4768C33.9822 41.9423 33.9822 41.9423 33.6822 41.523C33.5015 41.4073 33.3189 41.2946 33.1346 41.1848C32.6815 40.8854 32.4469 40.4915 32.2871 39.9866C32.2653 39.6879 32.2505 39.3887 32.2413 39.0894C32.2301 38.484 32.2301 38.484 31.9255 37.9942C31.745 37.8818 31.562 37.7734 31.3767 37.6692C30.8874 37.3458 30.696 36.8723 30.5293 36.3245C30.4457 35.7876 30.4028 35.2559 30.3828 34.7132C29.8978 34.7132 29.4387 34.8747 28.9724 34.9987ZM32.8731 35.0061C32.8364 35.3601 32.8364 35.3601 32.8731 35.7386C33.3899 36.0831 33.604 36.0686 34.216 36.0694C34.4954 36.0708 34.4954 36.0708 34.7804 36.0722C34.9838 36.0717 35.1873 36.0711 35.3908 36.0704C35.5993 36.0706 35.8078 36.0709 36.0163 36.0713C36.4532 36.0717 36.8901 36.0711 37.327 36.0697C37.887 36.0681 38.4471 36.069 39.0071 36.0708C39.4377 36.0718 39.8682 36.0715 40.2987 36.0707C40.5052 36.0705 40.7117 36.0708 40.9183 36.0715C41.2068 36.0722 41.4954 36.0709 41.784 36.0694C41.9482 36.0692 42.1125 36.069 42.2817 36.0687C42.7187 36.0612 42.7187 36.0612 43.127 35.7386C43.127 35.6419 43.127 35.5452 43.127 35.4456C42.041 34.9272 41.0426 34.9492 39.8539 34.9632C39.652 34.964 39.4501 34.9647 39.2481 34.9651C38.7202 34.9668 38.1924 34.9711 37.6645 34.976C37.1244 34.9805 36.5843 34.9825 36.0442 34.9847C34.9871 34.9894 33.9301 34.9969 32.8731 35.0061ZM34.6309 38.5218C34.6309 38.7635 34.6309 39.0052 34.6309 39.2542C35.2094 39.6399 35.7083 39.5893 36.3795 39.5861C36.5079 39.5863 36.6363 39.5866 36.7686 39.5869C37.04 39.5871 37.3113 39.5866 37.5827 39.5854C37.9984 39.5838 38.414 39.5853 38.8297 39.5872C39.0933 39.587 39.3569 39.5866 39.6205 39.5861C39.745 39.5867 39.8695 39.5873 39.9978 39.5879C40.7268 39.5829 40.7268 39.5829 41.3691 39.2542C41.3691 39.0125 41.3691 38.7708 41.3691 38.5218C39.1455 38.5218 36.9219 38.5218 34.6309 38.5218ZM36.3887 41.8909C36.3887 42.181 36.3887 42.471 36.3887 42.7698C36.6215 43.0026 36.8631 42.9353 37.1852 42.9358C37.3818 42.936 37.3818 42.936 37.5823 42.9363C37.7891 42.9355 37.7891 42.9355 38 42.9346C38.1379 42.9352 38.2757 42.9357 38.4177 42.9363C38.5488 42.9361 38.6798 42.936 38.8148 42.9358C38.9964 42.9355 38.9964 42.9355 39.1816 42.9353C39.4658 42.9474 39.4658 42.9474 39.6113 42.7698C39.6113 42.4798 39.6113 42.1897 39.6113 41.8909C38.5479 41.8909 37.4844 41.8909 36.3887 41.8909ZM14.8555 45.26C14.8555 50.5291 14.8555 55.7981 14.8555 61.2268C16.9378 61.6607 19.0178 62.0928 21.1068 62.4908C21.3518 62.5377 21.5967 62.5845 21.8417 62.6313C22.3488 62.7281 22.856 62.8247 23.3633 62.9211C23.8736 63.0182 24.3838 63.1157 24.8939 63.2138C33.7234 64.9107 40.894 64.7892 49.7188 63.1311C49.9198 63.0934 50.1208 63.0558 50.3219 63.0181C51.7011 62.7596 53.0801 62.4997 54.4588 62.2384C54.7723 62.179 55.0858 62.1197 55.3993 62.0604C55.9855 61.9495 56.5714 61.8377 57.1574 61.7258C57.3345 61.6923 57.5116 61.6588 57.6941 61.6243C57.9361 61.5778 57.9361 61.5778 58.1831 61.5304C58.3243 61.5035 58.4655 61.4766 58.611 61.4488C58.9492 61.3871 58.9492 61.3871 59.2402 61.2268C59.2402 55.9578 59.2402 50.6888 59.2402 45.26C58.3656 45.435 57.5217 45.6082 56.6635 45.8338C56.562 45.8603 56.4605 45.8869 56.356 45.9143C56.023 46.0015 55.6901 46.0894 55.3573 46.1773C55.1188 46.2399 54.8804 46.3026 54.6419 46.3652C54.1359 46.4981 53.6299 46.6313 53.124 46.7647C52.4655 46.9383 51.8069 47.1114 51.1483 47.2842C48.6993 47.9269 46.2512 48.572 43.8093 49.2408C43.5188 49.3203 43.2282 49.3996 42.9376 49.4788C42.0636 49.7172 41.1901 49.9572 40.3176 50.2011C40.0096 50.2855 39.7015 50.3698 39.3933 50.4539C39.2594 50.4922 39.1255 50.5305 38.9875 50.57C37.2276 51.0446 35.7551 50.7577 34.0318 50.2783C33.8148 50.2196 33.5978 50.161 33.3808 50.1027C32.9179 49.9778 32.4553 49.8517 31.9929 49.7246C31.2645 49.5244 30.5354 49.3269 29.806 49.13C28.924 48.8917 28.0422 48.6528 27.1605 48.4132C24.8679 47.7901 22.5721 47.1786 20.2755 46.5702C19.7287 46.4253 19.1821 46.2796 18.6355 46.1337C18.229 46.0253 17.8224 45.9174 17.4158 45.8096C17.138 45.7358 16.8604 45.6615 16.5828 45.5872C16.4185 45.5438 16.2542 45.5004 16.0849 45.4556C15.942 45.4176 15.7992 45.3796 15.652 45.3404C15.2845 45.244 15.2845 45.244 14.8555 45.26ZM68.5042 60.1917C68.3487 60.28 68.3487 60.28 68.1901 60.37C68.0826 60.4322 67.9752 60.4944 67.8645 60.5585C67.7559 60.6202 67.6474 60.6818 67.5355 60.7453C67.0197 61.018 67.0197 61.018 66.5645 61.3733C66.5507 61.643 66.5473 61.9133 66.5478 62.1833C66.5478 62.3563 66.5479 62.5294 66.5479 62.7076C66.5486 62.8959 66.5494 63.0842 66.5502 63.2782C66.5504 63.4698 66.5506 63.6614 66.5508 63.8589C66.5513 64.3692 66.5528 64.8795 66.5544 65.3898C66.5559 65.9101 66.5566 66.4305 66.5573 66.9509C66.5589 67.9726 66.5614 68.9942 66.5645 70.0159C67.1762 69.7205 67.6879 69.3342 68.2296 68.9259C68.6666 68.6671 68.9889 68.5846 69.4941 68.5511C70.2735 68.904 70.9075 69.4232 71.5713 69.9587C71.8014 70.1772 71.8014 70.1772 71.9844 70.1624C72.0424 69.0421 72.0865 67.9219 72.1134 66.8004C72.1264 66.2794 72.1439 65.7594 72.1722 65.2389C72.3911 63.0332 72.3911 63.0332 71.739 61.036C70.8741 60.2696 69.5959 59.5675 68.5042 60.1917Z" fill="#DE2424"/>
<path d="M55.2852 26.8082C55.7144 27.0659 56.0842 27.354 56.4571 27.6871C56.5873 27.7922 56.5873 27.7922 56.7203 27.8994C57.6286 28.6972 58.4674 30.1344 58.6543 31.3492C58.7734 33.5525 58.534 35.2863 57.1025 37.0581C55.8842 38.3655 54.3087 39.0966 52.5318 39.1718C50.781 39.2014 49.3343 38.7398 47.961 37.648C47.8709 37.578 47.7808 37.5079 47.688 37.4358C46.7436 36.6045 46.0223 35.2194 45.7637 33.9859C45.6442 32.0277 45.7033 30.2479 47.0077 28.665C49.1275 26.309 52.3161 25.3144 55.2852 26.8082ZM48.8994 30.321C48.1861 31.3452 48.1211 32.3292 48.2539 33.5465C48.5351 34.5639 49.0659 35.4085 49.9482 35.9927C50.9902 36.5755 51.9003 36.8497 53.0879 36.6227C54.2759 36.2238 55.1099 35.6698 55.7246 34.5719C55.8606 34.3362 55.8606 34.3362 55.9993 34.0958C56.3413 32.9558 56.3156 31.8318 55.7613 30.7673C55.1293 29.7423 54.409 29.0709 53.2344 28.7125C51.4348 28.4587 50.0339 28.8788 48.8994 30.321Z" fill="#DE2424"/>
<path d="M47.6822 3.60486C47.9609 3.66094 47.9609 3.66094 48.318 3.89898C48.5989 4.32596 48.6546 4.61679 48.6933 5.12578C48.5463 5.51774 48.5463 5.51774 48.318 5.90398C48.2366 6.0422 48.1552 6.18042 48.0713 6.32283C47.9442 6.5279 47.9442 6.5279 47.8144 6.73711C47.7372 6.86476 47.66 6.99241 47.5804 7.12392C46.9495 8.12435 46.9495 8.12435 46.3496 8.34844C45.7802 8.33658 45.5448 8.2702 45.1228 7.88152C44.8319 7.37807 44.8212 7.1673 44.8847 6.59063C45.0561 6.17183 45.2771 5.78938 45.5073 5.40044C45.5653 5.29753 45.6232 5.19462 45.683 5.08859C46.5741 3.54296 46.5741 3.54296 47.6822 3.60486Z" fill="#DE2424"/>
<path d="M28.9036 3.55469C29.6928 3.82804 30.1755 4.87097 30.5751 5.56541C30.6276 5.6519 30.6802 5.73838 30.7344 5.82748C31.0644 6.39818 31.1949 6.81291 31.1152 7.46971C30.8261 7.97016 30.6486 8.16151 30.099 8.34862C29.5463 8.34862 29.3606 8.23593 28.9179 7.90916C28.6055 7.48058 28.6055 7.48058 28.3137 6.98448C28.1681 6.74061 28.1681 6.74061 28.0196 6.49181C27.3048 5.21917 27.3048 5.21917 27.3158 4.6682C27.599 3.7995 27.999 3.60145 28.9036 3.55469Z" fill="#DE2424"/>
<path d="M22.3262 10.5501C22.7909 10.7375 23.2031 10.9882 23.6262 11.255C23.7373 11.3212 23.8483 11.3874 23.9627 11.4556C24.4688 11.764 24.7744 11.9519 25.1094 12.4544C25.2057 13.4657 25.2057 13.4657 24.8896 13.9925C24.38 14.2983 23.925 14.2976 23.3516 14.2122C22.8897 14.0375 22.4814 13.8005 22.0607 13.5439C21.9509 13.4826 21.8411 13.4213 21.7279 13.3582C20.9831 12.9155 20.6489 12.5671 20.4219 11.722C20.4793 11.295 20.6393 11.0794 20.8613 10.6966C21.3386 10.4579 21.8102 10.474 22.3262 10.5501Z" fill="#DE2424"/>
<path d="M54.8457 10.5499C55.2119 10.7697 55.2119 10.7697 55.4317 11.1359C55.545 11.9296 55.545 11.9296 55.4317 12.3078C54.9352 12.8925 54.3606 13.2922 53.7013 13.6719C53.6166 13.7245 53.5319 13.7771 53.4447 13.8312C52.7455 14.2368 52.2604 14.2806 51.4766 14.212C51.1104 13.9923 51.1104 13.9923 50.8906 13.6261C50.7773 12.8324 50.7773 12.8324 50.8906 12.4542C51.3871 11.8695 51.9617 11.4698 52.621 11.0901C52.7057 11.0375 52.7904 10.9849 52.8776 10.9307C53.5768 10.5251 54.0619 10.4814 54.8457 10.5499Z" fill="#DE2424"/>
<path d="M38 1.09833C38.0967 1.09682 38.1934 1.09531 38.293 1.09375C38.7229 1.20794 38.8929 1.41503 39.1719 1.75751C39.2454 2.16667 39.2454 2.16667 39.2445 2.63241C39.2446 2.80037 39.2447 2.96833 39.2448 3.14138C39.2419 3.31614 39.239 3.4909 39.236 3.67096C39.237 3.84629 39.238 4.02161 39.2391 4.20225C39.2297 5.48655 39.2297 5.48655 38.9791 5.83128C38.5688 6.12113 38.201 6.135 37.707 6.15204C37.3589 5.98556 37.0999 5.83792 36.8281 5.5661C36.7828 4.94159 36.7873 4.31522 36.7823 3.68927C36.7781 3.51319 36.7738 3.33711 36.7695 3.15569C36.7676 2.90176 36.7676 2.90176 36.7658 2.64271C36.7636 2.48715 36.7615 2.33159 36.7593 2.17132C36.8746 1.47831 37.2929 1.08728 38 1.09833Z" fill="#DE2424"/>
</svg>
