<svg width="32" height="28" viewBox="0 0 32 28" fill="none" xmlns="http://www.w3.org/2000/svg">
<path d="M18.25 21.875H16V19.625C15.9991 18.7302 15.6432 17.8722 15.0105 17.2395C14.3778 16.6068 13.5198 16.2509 12.625 16.25H8.125C7.23017 16.2509 6.37224 16.6068 5.7395 17.2395C5.10676 17.8722 4.75089 18.7302 4.75 19.625V21.875H2.5V19.625C2.50179 18.1337 3.09499 16.704 4.1495 15.6495C5.204 14.595 6.63371 14.0018 8.125 14H12.625C14.1163 14.0018 15.546 14.595 16.6005 15.6495C17.655 16.704 18.2482 18.1337 18.25 19.625V21.875ZM10.375 2.75C11.0425 2.75 11.695 2.94794 12.25 3.31879C12.8051 3.68964 13.2376 4.21674 13.4931 4.83344C13.7485 5.45014 13.8154 6.12874 13.6852 6.78343C13.5549 7.43812 13.2335 8.03948 12.7615 8.51149C12.2895 8.98349 11.6881 9.30493 11.0334 9.43515C10.3787 9.56538 9.70014 9.49854 9.08344 9.24309C8.46674 8.98765 7.93964 8.55507 7.56879 8.00005C7.19794 7.44503 7 6.79251 7 6.125C7 5.22989 7.35558 4.37145 7.98851 3.73851C8.62145 3.10558 9.47989 2.75 10.375 2.75ZM10.375 0.5C9.26248 0.5 8.17494 0.8299 7.24992 1.44798C6.32489 2.06607 5.60392 2.94457 5.17818 3.97241C4.75243 5.00024 4.64104 6.13124 4.85808 7.22238C5.07512 8.31353 5.61085 9.31581 6.39752 10.1025C7.18419 10.8891 8.18647 11.4249 9.27762 11.6419C10.3688 11.859 11.4998 11.7476 12.5276 11.3218C13.5554 10.8961 14.4339 10.1751 15.052 9.25008C15.6701 8.32506 16 7.23752 16 6.125C16 4.63316 15.4074 3.20242 14.3525 2.14752C13.2976 1.09263 11.8668 0.5 10.375 0.5ZM0.25 25.25H31.75V27.5H0.25V25.25ZM28.7159 5C28.3156 4.99991 27.9194 5.08012 27.5507 5.23587C27.182 5.39162 26.8483 5.61974 26.5694 5.90675L26.125 6.36125L25.6806 5.90563C25.4017 5.6185 25.068 5.39025 24.6993 5.23439C24.3306 5.07852 23.9344 4.99821 23.5341 4.99821C23.1338 4.99821 22.7376 5.07852 22.3689 5.23439C22.0002 5.39025 21.6665 5.6185 21.3876 5.90563C20.8185 6.49321 20.5003 7.27913 20.5003 8.09713C20.5003 8.91512 20.8185 9.70104 21.3876 10.2886L26.125 15.125L30.8612 10.2897C31.4303 9.70217 31.7485 8.91625 31.7485 8.09825C31.7485 7.28025 31.4303 6.49433 30.8612 5.90675C30.5825 5.62002 30.2492 5.39205 29.8809 5.23631C29.5126 5.08057 29.1169 5.00022 28.717 5" fill="#E0263E"/>
</svg>
