<svg width="37" height="37" viewBox="0 0 37 37" fill="none" xmlns="http://www.w3.org/2000/svg">
<path d="M29 11C29 11 21.5 21.5 10.25 21.5M10.25 21.5C7.25 21.5 2 23 2 29V35H18.5V29C18.5 25.25 23 27.5 29 17L26.75 14.75M10.25 21.5C11.6424 21.5 12.9777 20.9469 13.9623 19.9623C14.9469 18.9777 15.5 17.6424 15.5 16.25C15.5 14.8576 14.9469 13.5223 13.9623 12.5377C12.9777 11.5531 11.6424 11 10.25 11C8.85761 11 7.52226 11.5531 6.53769 12.5377C5.55312 13.5223 5 14.8576 5 16.25C5 17.6424 5.55312 18.9777 6.53769 19.9623C7.52226 20.9469 8.85761 21.5 10.25 21.5ZM5 8V3.5H35V24.5H30.5M17 2H23V5H17V2Z" stroke="#E0263E" stroke-width="3"/>
</svg>
