<svg width="42" height="42" viewBox="0 0 42 42" fill="none" xmlns="http://www.w3.org/2000/svg">
<path d="M19.25 21C19.25 21.4641 19.4344 21.9092 19.7626 22.2374C20.0908 22.5656 20.5359 22.75 21 22.75C21.4641 22.75 21.9092 22.5656 22.2374 22.2374C22.5656 21.9092 22.75 21.4641 22.75 21C22.75 20.5359 22.5656 20.0908 22.2374 19.7626C21.9092 19.4344 21.4641 19.25 21 19.25C20.5359 19.25 20.0908 19.4344 19.7626 19.7626C19.4344 20.0908 19.25 20.5359 19.25 21Z" stroke="#E0263E" stroke-width="2" stroke-linecap="round" stroke-linejoin="round"/>
<path d="M27.8288 35.1925V35.21M33.3238 30.8175V30.835M36.3513 24.5V24.5175M36.3513 17.5V17.5175M33.3238 11.1825V11.2M27.8288 6.8075V6.825M21.0038 5.25V5.2675M14.1788 6.8075V6.825M8.68375 11.1825V11.2M5.65625 17.5V17.5175M5.65625 24.5V24.5175M8.68375 30.8175V30.835M14.1788 35.1925V35.21M21.0038 36.75V36.7675M12.2537 21C12.2537 23.3206 13.1756 25.5462 14.8166 27.1872C16.4575 28.8281 18.6831 29.75 21.0038 29.75C23.3244 29.75 25.55 28.8281 27.1909 27.1872C28.8319 25.5462 29.7538 23.3206 29.7538 21C29.7538 18.6794 28.8319 16.4538 27.1909 14.8128C25.55 13.1719 23.3244 12.25 21.0038 12.25C18.6831 12.25 16.4575 13.1719 14.8166 14.8128C13.1756 16.4538 12.2537 18.6794 12.2537 21Z" stroke="#E0263E" stroke-width="2" stroke-linecap="round" stroke-linejoin="round"/>
</svg>
