<svg width="76" height="75" viewBox="0 0 76 75" fill="none" xmlns="http://www.w3.org/2000/svg">
<path d="M48.8027 23.4875C49.1406 23.7881 49.2825 24.0338 49.4258 24.4637C49.4258 24.9948 49.3098 25.2196 48.9863 25.6355C48.4649 25.9831 48.2829 26.0062 47.668 25.9285C47.3053 25.7177 46.9865 25.508 46.6517 25.2602C45.0261 24.1203 43.3009 23.3402 41.3691 22.8523C41.2385 22.8193 41.1078 22.7862 40.9732 22.7522C37.1051 21.9509 33.1227 22.8582 29.7969 24.9031C29.334 25.2208 28.9043 25.5631 28.4785 25.9285C28.3597 26.0278 28.241 26.1271 28.1186 26.2295C25.2814 28.6788 23.4901 32.1662 23.0586 35.8894C22.8149 40.4467 24.0506 44.2738 27.0137 47.7547C27.0975 47.8538 27.1814 47.9529 27.2677 48.0551C29.1868 50.1275 31.9205 51.4813 34.6309 52.1492C34.7628 52.1821 34.8948 52.2149 35.0308 52.2488C38.8192 53.0289 42.9643 52.1731 46.2031 50.0984C48.6295 48.4194 50.2643 46.368 51.6488 43.7847C51.9058 43.3763 52.0881 43.1599 52.502 42.9207C53.0422 42.8402 53.3124 42.8864 53.802 43.1313C54.1996 43.6107 54.1752 43.8698 54.1596 44.4733C54.0837 45.0495 53.8377 45.48 53.5365 45.9694C53.4772 46.0698 53.418 46.1703 53.3569 46.2738C52.7946 47.2083 52.1641 48.0795 51.4766 48.9265C51.3876 49.0363 51.2987 49.146 51.2071 49.259C48.4364 52.5448 44.0274 54.7099 39.7578 55.0789C37.7246 55.1977 35.7313 55.1381 33.752 54.6394C33.6547 54.6151 33.5574 54.5907 33.4572 54.5656C31.5053 54.0568 29.6138 53.2284 28.0093 51.993C27.7542 51.8341 27.7542 51.8341 27.4669 51.8602C27.0129 52.0711 26.7354 52.3924 26.3911 52.7534C26.2491 52.9002 26.1068 53.0467 25.9642 53.1929C25.8943 53.2647 25.8244 53.3364 25.7524 53.4103C25.317 53.846 24.8459 54.2407 24.377 54.6394C24.3286 54.6878 24.2803 54.7361 24.2305 54.7859C24.2313 55.0606 24.2386 55.3354 24.2488 55.6099C24.253 56.8 23.9033 57.5289 23.1118 58.3925C22.5985 58.9092 22.063 59.4007 21.5266 59.8932C20.4815 60.8588 19.4824 61.8698 18.4832 62.8824C17.8221 63.5497 17.1548 64.1932 16.4412 64.8038C15.9195 65.2644 15.4448 65.7738 14.9665 66.2787C14.2652 66.9987 13.5622 67.4548 12.5268 67.5356C11.0784 67.5097 10.2124 66.5252 9.2685 65.5492C9.02387 65.2965 8.7759 65.0476 8.52717 64.7989C8.36799 64.6376 8.209 64.476 8.05024 64.3143C7.9773 64.2408 7.90435 64.1674 7.82919 64.0917C7.09543 63.3282 6.55161 62.5035 6.46008 61.4235C6.49877 59.8849 7.71582 58.9211 8.73975 57.9262C8.8896 57.778 9.03933 57.6297 9.18893 57.4813C9.78998 56.8876 10.3931 56.2999 11.0366 55.7518C12.0034 54.9221 12.8766 53.985 13.7681 53.0761C16.7389 50.0508 16.7389 50.0508 17.9459 49.9182C18.7684 49.9362 18.7684 49.9362 19.1015 50.0608C19.4171 50.1353 19.4171 50.1353 19.6934 49.8823C19.7962 49.7748 19.8989 49.6673 20.0047 49.5565C20.1185 49.4398 20.2323 49.323 20.3495 49.2026C20.467 49.0783 20.5846 48.9539 20.7057 48.8258C20.9386 48.5839 21.1719 48.3422 21.4055 48.1009C21.5084 47.9925 21.6113 47.8842 21.7173 47.7726C22.0488 47.4464 22.398 47.1602 22.7656 46.8758C22.6774 46.2533 22.4541 45.8037 22.1522 45.2553C20.2605 41.6402 19.8696 37.1894 20.8613 33.2527C20.8857 33.1554 20.91 33.0582 20.9351 32.958C21.6903 30.0611 23.1866 27.4995 25.2559 25.3426C25.3761 25.2113 25.4964 25.0801 25.6204 24.9449C27.7933 22.6496 30.701 21.1261 33.752 20.3621C33.8471 20.3381 33.9423 20.3141 34.0404 20.2894C39.1323 19.0691 44.6571 20.3157 48.8027 23.4875ZM24.377 48.7801C24.2942 48.8636 24.2114 48.9471 24.1261 49.0332C23.7523 49.41 23.378 49.7863 23.0037 50.1625C22.8734 50.294 22.7431 50.4255 22.6088 50.561C22.4842 50.6861 22.3596 50.8112 22.2312 50.9401C22.0586 51.1139 22.0586 51.1139 21.8825 51.2911C21.5938 51.5633 21.5938 51.5633 21.3008 51.7097C21.5521 52.3884 21.8357 52.4973 22.4727 53.0281C23.4878 52.013 24.5029 50.9978 25.5488 49.9519C24.8357 48.9858 24.8357 48.9858 24.377 48.7801ZM17.7811 52.7083C17.6612 52.8306 17.5413 52.953 17.4178 53.079C17.2852 53.2132 17.1527 53.3474 17.0161 53.4856C16.8757 53.6291 16.7353 53.7726 16.595 53.9162C15.0649 55.4767 15.0649 55.4767 14.4309 56.0167C13.572 56.7509 12.7925 57.5715 11.999 58.3748C10.0206 60.3777 10.0206 60.3777 8.99609 61.2312C9.18959 61.6614 9.39724 61.9594 9.73538 62.287C9.823 62.373 9.91061 62.459 10.0009 62.5476C10.0923 62.6359 10.1837 62.7241 10.2778 62.8151C10.9633 63.481 11.606 64.1594 12.2188 64.8933C13.6123 64.6384 14.8402 62.8698 15.8076 61.8904C17.6009 60.0749 17.6009 60.0749 18.5173 59.294C19.156 58.7277 19.7481 58.1112 20.3486 57.505C20.4831 57.3699 20.6175 57.2348 20.756 57.0956C21.0844 56.7655 21.4125 56.4351 21.7402 56.1043C20.147 54.1846 20.147 54.1846 18.3711 52.4422C18.048 52.4096 18.048 52.4096 17.7811 52.7083Z" fill="#DE2424"/>
<path d="M42.541 24.1692C42.9073 24.7186 42.9125 24.9834 42.834 25.634C42.541 26.0643 42.541 26.0643 42.1015 26.3665C41.4532 26.4421 40.9545 26.38 40.3283 26.2194C37.3295 25.5402 34.285 26.2605 31.7012 27.8313C31.1779 28.1894 30.7038 28.5754 30.2363 29.0032C30.1364 29.0897 30.0365 29.1762 29.9336 29.2653C28.5697 30.5197 27.6011 32.2399 27.0137 33.9837C26.9437 34.1913 26.9437 34.1913 26.8723 34.4031C26.0253 37.4125 26.5497 40.5595 28.0184 43.266C28.4376 43.999 28.9344 44.6406 29.5039 45.263C29.5904 45.3628 29.6769 45.4627 29.766 45.5657C31.0204 46.9295 32.7406 47.8982 34.4844 48.4856C34.6228 48.5323 34.7612 48.5789 34.9038 48.6269C37.9256 49.4774 41.0618 48.9426 43.777 47.4705C44.4477 47.0898 45.0471 46.662 45.6172 46.1419C45.7263 46.0427 45.8355 45.9436 45.9479 45.8415C46.6839 45.1392 47.2808 44.3862 47.8545 43.5469C48.1074 43.2122 48.1074 43.2122 48.5469 42.9192C49.1159 42.8571 49.4407 42.8292 49.9202 43.1572C50.2291 43.6088 50.3151 43.8315 50.3047 44.384C49.8861 45.5062 49.0311 46.4255 48.2539 47.3137C48.1321 47.4542 48.1321 47.4542 48.0078 47.5975C45.899 49.8638 42.4772 51.4313 39.3836 51.5797C35.4861 51.6898 31.9618 50.9458 28.918 48.3391C28.7398 48.1927 28.7398 48.1927 28.558 48.0433C27.5933 47.2208 26.8503 46.3066 26.1347 45.263C26.0127 45.0871 26.0127 45.0871 25.8881 44.9076C23.9437 41.9025 23.4835 38.0467 24.1023 34.5696C24.9879 30.8871 27.0711 27.6261 30.3187 25.5883C30.6315 25.4056 30.9458 25.2253 31.2617 25.0481C31.3801 24.979 31.4985 24.9099 31.6205 24.8387C34.4231 23.3065 39.6749 22.3747 42.541 24.1692Z" fill="#DE2424"/>
<path d="M40.2985 1.84059C41.5995 2.65727 42.4497 3.64609 42.9226 5.11074C43.2499 6.87318 42.8717 8.33099 41.955 9.81655C42.0561 9.87528 42.1571 9.934 42.2612 9.99451C44.3807 11.2767 45.8013 12.9849 46.4961 15.383C46.6845 16.2153 46.8373 16.9603 46.3862 17.7176C45.9036 18.1599 45.4758 18.1843 44.8379 18.1857C44.7124 18.1864 44.587 18.187 44.4577 18.1876C44.3212 18.1876 44.1848 18.1875 44.0442 18.1874C43.8996 18.1879 43.7549 18.1884 43.6059 18.1889C43.1275 18.1903 42.6491 18.1906 42.1708 18.1908C41.8384 18.1912 41.506 18.1917 41.1736 18.1922C40.4767 18.1931 39.7799 18.1934 39.083 18.1933C38.1898 18.1933 37.2966 18.1953 36.4034 18.1978C35.7169 18.1994 35.0304 18.1997 34.3439 18.1997C34.0145 18.1998 33.6852 18.2005 33.3559 18.2016C32.8955 18.203 32.4351 18.2026 31.9747 18.2017C31.8385 18.2026 31.7024 18.2034 31.5621 18.2042C30.778 18.2004 30.1421 18.1827 29.5313 17.6352C29.1202 16.8128 29.3612 16.0214 29.6046 15.1815C30.3329 12.999 31.5171 11.4035 33.4595 10.1542C33.7685 9.96642 33.7685 9.96642 34.0449 9.67007C33.9954 9.59737 33.9459 9.52467 33.895 9.44977C32.9789 8.05455 32.7854 6.62845 33.1047 4.98257C33.4822 3.76929 34.241 2.77505 35.3198 2.09694C36.8229 1.32999 38.7274 1.08552 40.2985 1.84059ZM35.8931 4.91505C35.4212 5.61134 35.3772 6.36326 35.5097 7.17983C35.8602 7.89421 36.347 8.32381 36.9746 8.79116C37.6974 9.0321 38.3316 9.0241 39.0437 8.782C39.6522 8.37191 40.1597 7.8408 40.4902 7.17983C40.61 6.25927 40.5342 5.55174 39.9832 4.79145C39.4121 4.16231 38.8565 3.92547 38.0091 3.87478C37.1166 3.91553 36.4872 4.25381 35.8931 4.91505ZM33.166 13.6251C32.4573 14.579 32.4573 14.579 32.1406 15.6759C36.0078 15.6759 39.875 15.6759 43.8593 15.6759C43.287 13.9588 42.2121 12.8301 40.6458 11.9772C38.0893 10.7812 35.0265 11.5311 33.166 13.6251Z" fill="#DE2424"/>
<path d="M13.1252 29.9798C14.3982 31.0316 15.1276 32.1091 15.3453 33.7815C15.3998 35.2242 14.8619 36.4338 14.1231 37.6428C14.2198 37.673 14.3165 37.7032 14.4161 37.7343C15.0265 38.0141 15.5119 38.3872 16.0274 38.8146C16.1354 38.9032 16.2434 38.9917 16.3547 39.083C17.7798 40.3681 18.7052 42.3381 18.9571 44.2346C18.9571 44.853 18.9393 45.1153 18.5296 45.5756C17.878 45.9657 17.3143 45.9279 16.5678 45.9217C16.3401 45.9232 16.3401 45.9232 16.1078 45.9248C15.6064 45.9274 15.1051 45.9257 14.6037 45.9237C14.2551 45.9241 13.9065 45.9247 13.5579 45.9254C12.8275 45.9263 12.097 45.925 11.3666 45.9223C10.4301 45.9189 9.49381 45.9209 8.55739 45.9244C7.83758 45.9265 7.11779 45.9258 6.39797 45.9243C6.05269 45.9239 5.70741 45.9244 5.36213 45.9257C4.87959 45.9272 4.39721 45.925 3.91468 45.9217C3.70051 45.9235 3.70051 45.9235 3.48202 45.9253C2.85293 45.9174 2.49779 45.9022 1.9495 45.5719C1.49773 45.0642 1.58121 44.6346 1.61127 43.9828C1.8881 41.789 3.09389 39.9395 4.74809 38.5217C5.90473 37.6428 5.90474 37.6428 6.35942 37.6428C6.29938 37.5312 6.23933 37.4196 6.17746 37.3046C5.38094 35.7782 4.9673 34.5346 5.33403 32.8088C5.93084 31.1746 6.79367 30.1811 8.34726 29.4316C9.90063 28.8273 11.7634 29.0187 13.1252 29.9798ZM8.20879 32.5341C7.81891 33.2239 7.61296 33.9489 7.72241 34.7445C7.96753 35.5328 8.44622 36.0424 9.14263 36.4709C9.79369 36.7825 10.3089 36.808 11.0011 36.6082C11.7976 36.2943 12.2131 35.8558 12.6399 35.1159C12.9026 34.2405 12.825 33.5755 12.4111 32.763C11.8187 32.0746 11.1953 31.6802 10.287 31.5911C9.43723 31.6608 8.84089 31.9685 8.20879 32.5341ZM5.61613 41.1939C4.79347 42.1733 4.79347 42.1733 4.45513 43.3556C8.27397 43.3556 12.0928 43.3556 16.0274 43.3556C15.7581 42.0093 14.8102 40.9016 13.6836 40.133C10.9864 38.6907 7.78307 38.8514 5.61613 41.1939Z" fill="#DE2424"/>
<path d="M68.6518 29.9957C69.8619 30.9887 70.6099 32.0906 70.8033 33.667C70.8807 35.1505 70.4315 36.4116 69.6406 37.6495C69.7482 37.6882 69.8559 37.7269 69.9668 37.7668C70.629 38.0532 71.142 38.5067 71.6914 38.9679C71.8259 39.0783 71.8259 39.0783 71.9632 39.191C73.2753 40.374 74.1876 42.2254 74.3785 43.9689C74.4353 45.1458 74.4353 45.1458 74.0508 45.5793C73.3968 45.9721 72.8351 45.9347 72.0853 45.9284C71.8576 45.93 71.8576 45.93 71.6253 45.9316C71.1239 45.9341 70.6227 45.9324 70.1213 45.9305C69.7726 45.9308 69.424 45.9314 69.0754 45.9322C68.345 45.933 67.6145 45.9318 66.8841 45.929C65.9476 45.9257 65.0113 45.9276 64.0749 45.9311C63.3551 45.9332 62.6353 45.9326 61.9155 45.931C61.5702 45.9306 61.2249 45.9311 60.8796 45.9325C60.3971 45.934 59.9147 45.9317 59.4322 45.9284C59.218 45.9302 59.218 45.9302 58.9995 45.932C58.3736 45.9242 58.0162 45.9092 57.4704 45.5818C57.0817 45.1459 57.0122 44.8065 57.0429 44.2413C57.3362 41.8113 58.5839 39.9357 60.4121 38.3819C61.3917 37.6495 61.3917 37.6495 61.8769 37.6495C61.8046 37.51 61.7323 37.3704 61.6578 37.2266C61.5629 37.0411 61.4681 36.8555 61.3734 36.6699C61.3019 36.5324 61.3019 36.5324 61.2289 36.3921C60.5853 35.1248 60.5297 33.8855 60.9156 32.5226C61.379 31.2504 62.3139 30.2354 63.4951 29.5774C65.1408 28.8237 67.1668 28.9418 68.6518 29.9957ZM63.7263 32.5866C63.1641 33.4732 63.1185 34.1366 63.3418 35.1593C63.7253 35.9557 64.175 36.2619 64.9531 36.6241C65.6423 36.8489 66.1668 36.7455 66.8305 36.4971C67.4905 36.1547 67.8775 35.667 68.1632 34.987C68.3663 34.2785 68.3407 33.749 68.0361 33.077C67.6152 32.3592 67.0401 31.9357 66.2715 31.6436C65.239 31.5098 64.4413 31.8528 63.7263 32.5866ZM61.0255 41.3025C60.2488 42.2295 60.2488 42.2295 59.9726 43.3624C63.7915 43.3624 67.6103 43.3624 71.5449 43.3624C70.9707 41.6399 70.041 40.6213 68.4413 39.801C65.9122 38.5641 62.9095 39.2344 61.0255 41.3025Z" fill="#DE2424"/>
<path d="M41.6987 58.3795C42.6487 59.3979 43.0197 60.5246 43.0629 61.9043C43.0181 63.1906 42.6163 64.102 41.9551 65.1819C42.0544 65.2495 42.1537 65.3171 42.2561 65.3868C44.5748 67.0118 46.0622 68.8077 46.6426 71.6272C46.7329 72.2203 46.7224 72.6439 46.4411 73.1909C45.8494 73.7152 45.2862 73.634 44.5203 73.6263C44.364 73.6276 44.2077 73.6289 44.0466 73.6302C43.5294 73.6334 43.0124 73.6313 42.4952 73.6288C42.1362 73.6293 41.7772 73.63 41.4182 73.6309C40.6655 73.632 39.9129 73.6304 39.1603 73.627C38.1948 73.6228 37.2294 73.6252 36.2639 73.6296C35.5224 73.6323 34.781 73.6314 34.0396 73.6295C33.6836 73.629 33.3276 73.6296 32.9715 73.6314C32.4742 73.6332 31.9771 73.6304 31.4797 73.6263C31.3321 73.6278 31.1844 73.6293 31.0323 73.6308C30.0383 73.6156 30.0383 73.6156 29.559 73.1909C29.0437 72.1892 29.4383 71.1189 29.7517 70.1017C30.4729 68.1252 31.9082 66.3616 33.8183 65.4268C33.9305 65.3781 33.9305 65.3781 34.0449 65.3284C33.9832 65.2083 33.9214 65.0882 33.8578 64.9645C33.7776 64.8066 33.6973 64.6488 33.6146 64.4861C33.5348 64.3298 33.4549 64.1734 33.3726 64.0123C32.8397 62.8728 32.8458 61.5111 33.1368 60.2987C33.6598 58.9005 34.5428 57.9252 35.8851 57.2718C37.9693 56.4387 40.0442 56.8976 41.6987 58.3795ZM36.2622 60.0052C35.634 60.7114 35.4627 61.2731 35.4794 62.2122C35.5456 62.9388 35.8958 63.4097 36.3978 63.9093C37.0255 64.4136 37.6484 64.5018 38.4395 64.4495C39.3269 64.2128 39.8396 63.729 40.3438 62.9847C40.5679 62.3122 40.6281 61.6113 40.385 60.9333C40.0216 60.2549 39.5983 59.7834 38.8783 59.4999C37.9109 59.2206 37.0325 59.3189 36.2622 60.0052ZM32.9566 69.3739C32.6161 69.8906 32.3919 70.4758 32.1406 71.0413C36.0078 71.0413 39.875 71.0413 43.8594 71.0413C42.8825 69.0875 41.8852 67.8449 39.7944 67.1045C37.1294 66.4069 34.7412 67.3741 32.9566 69.3739Z" fill="#DE2424"/>
<path d="M51.6917 22.9094C51.7967 22.909 51.9018 22.9087 52.0101 22.9083C52.2317 22.9085 52.4533 22.9104 52.6749 22.9141C53.0136 22.9191 53.3517 22.9171 53.6904 22.9143C53.9061 22.9153 54.1218 22.9167 54.3375 22.9185C54.4888 22.9175 54.4888 22.9175 54.6432 22.9163C55.1321 22.9283 55.3916 22.9708 55.7838 23.2722C56.1431 23.7568 56.1825 24.1459 56.1836 24.731C56.1842 24.876 56.1848 25.021 56.1855 25.1704C56.1854 25.3293 56.1854 25.4882 56.1853 25.6519C56.1858 25.8194 56.1863 25.9869 56.1868 26.1594C56.1882 26.7147 56.1885 27.2699 56.1886 27.8252C56.1891 28.2104 56.1896 28.5955 56.1901 28.9807C56.191 29.7887 56.1912 30.5968 56.1912 31.4048C56.1911 32.3384 56.1926 33.2719 56.1949 34.2054C56.1971 35.1038 56.1976 36.0022 56.1975 36.9007C56.1977 37.2828 56.1983 37.6648 56.1995 38.0469C56.2009 38.581 56.2005 39.1151 56.1996 39.6492C56.2004 39.8075 56.2012 39.9658 56.2021 40.1289C56.2015 40.2747 56.2009 40.4205 56.2002 40.5707C56.2003 40.697 56.2004 40.8232 56.2005 40.9532C56.1454 41.4955 55.999 41.91 55.6218 42.3063C55.1639 42.5479 54.8089 42.5408 54.2923 42.5423C54.0027 42.5432 54.0027 42.5432 53.7072 42.544C53.607 42.5431 53.5068 42.5422 53.4036 42.5412C53.0984 42.5389 52.7936 42.5412 52.4885 42.544C52.1986 42.5432 52.1986 42.5432 51.9028 42.5423C51.7263 42.5418 51.5497 42.5413 51.3678 42.5408C50.8499 42.4791 50.5725 42.3557 50.1581 42.0445C49.9772 41.6826 49.992 41.4421 49.9901 41.0372C49.9891 40.8862 49.988 40.7353 49.9869 40.5798C49.9865 40.4135 49.9861 40.2472 49.9857 40.0759C49.9848 39.9013 49.9838 39.7267 49.9828 39.5468C49.9799 38.967 49.9782 38.3872 49.9768 37.8073C49.9762 37.6077 49.9756 37.4081 49.9749 37.2085C49.9722 36.2708 49.9701 35.3331 49.9689 34.3954C49.9674 33.313 49.9636 32.2306 49.9576 31.1481C49.9532 30.3115 49.9511 29.4749 49.9506 28.6383C49.9502 28.1386 49.9489 27.6389 49.9452 27.1392C49.9417 26.5816 49.9418 26.024 49.9428 25.4664C49.94 25.2183 49.94 25.2183 49.9371 24.9652C49.9446 23.8522 49.9446 23.8522 50.2776 23.2652C50.7272 22.8947 51.1336 22.8986 51.6917 22.9094ZM52.5019 25.4917C52.5019 30.2774 52.5019 35.063 52.5019 39.9937C52.8886 39.9937 53.2753 39.9937 53.6738 39.9937C53.6738 35.2081 53.6738 30.4224 53.6738 25.4917C53.2871 25.4917 52.9003 25.4917 52.5019 25.4917Z" fill="#DE2424"/>
<path d="M45.0822 26.2745C45.1838 26.2742 45.2854 26.2738 45.3901 26.2734C45.604 26.2736 45.8178 26.2755 46.0317 26.2792C46.3584 26.2842 46.6846 26.2822 47.0114 26.2794C47.2198 26.2804 47.4281 26.2818 47.6365 26.2837C47.8252 26.2853 48.0138 26.2868 48.2082 26.2885C48.7689 26.3788 48.9376 26.5095 49.2793 26.9526C49.5305 27.4549 49.4501 28.032 49.4517 28.585C49.4532 28.7933 49.4532 28.7933 49.4546 29.0058C49.4575 29.4668 49.4592 29.9277 49.4607 30.3887C49.4613 30.5459 49.4619 30.703 49.4625 30.865C49.4656 31.6969 49.4677 32.5288 49.469 33.3607C49.4707 34.2208 49.4757 35.0808 49.4815 35.9409C49.4853 36.6015 49.4866 37.2621 49.4871 37.9227C49.4878 38.2398 49.4895 38.5569 49.4922 38.8739C49.4958 39.3176 49.4957 39.7611 49.4946 40.2047C49.4965 40.3359 49.4984 40.467 49.5003 40.6021C49.4952 41.2088 49.4764 41.5204 49.1468 42.0453C48.4591 42.6908 47.5696 42.5072 46.6794 42.5071C46.3702 42.5074 46.0609 42.51 45.7517 42.5128C45.5546 42.5132 45.3576 42.5135 45.1606 42.5137C44.9814 42.5143 44.8022 42.5149 44.6176 42.5155C44.169 42.4812 43.927 42.4498 43.5664 42.1869C43.3183 41.7735 43.2364 41.4644 43.2333 40.9849C43.2318 40.8632 43.2304 40.7414 43.2289 40.6159C43.2288 40.4836 43.2287 40.3512 43.2286 40.2149C43.2274 40.0745 43.2261 39.9342 43.2249 39.7896C43.2214 39.3254 43.2201 38.8614 43.2191 38.3972C43.2178 38.0747 43.2165 37.7521 43.2151 37.4296C43.2127 36.7534 43.2115 36.0773 43.2111 35.4011C43.2103 34.5345 43.2048 33.6679 43.1981 32.8013C43.1938 32.1352 43.1927 31.469 43.1926 30.8029C43.1919 30.4833 43.1901 30.1638 43.1871 29.8443C43.1831 29.3975 43.1838 28.9509 43.1857 28.5041C43.1835 28.3721 43.1813 28.24 43.1791 28.104C43.1867 27.4556 43.2103 27.1823 43.6136 26.6508C44.1275 26.2785 44.4512 26.2742 45.0822 26.2745ZM45.7637 28.8569C45.7637 32.5307 45.7637 36.2045 45.7637 39.9897C46.1504 39.9897 46.5371 39.9897 46.9356 39.9897C46.9356 36.3159 46.9356 32.642 46.9356 28.8569C46.5489 28.8569 46.1621 28.8569 45.7637 28.8569Z" fill="#DE2424"/>
<path d="M39.2602 30.1414C39.5907 30.1399 39.9211 30.1354 40.2516 30.1308C40.462 30.1298 40.6724 30.129 40.8828 30.1285C41.0742 30.1271 41.2657 30.1257 41.4629 30.1243C41.9806 30.1793 42.1838 30.245 42.541 30.616C42.711 31.126 42.7071 31.526 42.7088 32.0642C42.7093 32.1662 42.7098 32.2682 42.7103 32.3733C42.7117 32.7105 42.7119 33.0477 42.7121 33.3849C42.7126 33.6193 42.7131 33.8538 42.7136 34.0882C42.7145 34.5796 42.7147 35.0711 42.7146 35.5625C42.7146 36.1922 42.7166 36.8219 42.7192 37.4516C42.7208 37.9357 42.7211 38.4199 42.721 38.9041C42.7212 39.1363 42.7218 39.3684 42.723 39.6006C42.7244 39.9253 42.724 40.2499 42.7231 40.5746C42.7233 40.7594 42.7235 40.9441 42.7237 41.1344C42.6894 41.578 42.6384 41.8221 42.3945 42.1883C41.6993 42.6904 40.7445 42.5357 39.9271 42.5355C39.6219 42.5362 39.3171 42.5415 39.0119 42.547C38.8187 42.5476 38.6254 42.5482 38.4263 42.5488C38.2497 42.55 38.0732 42.5512 37.8913 42.5524C37.3248 42.4679 37.0858 42.2929 36.6816 41.8953C36.4678 41.4677 36.5141 41.0901 36.5116 40.6125C36.5108 40.5108 36.5101 40.4091 36.5093 40.3042C36.5072 39.9669 36.5062 39.6296 36.5054 39.2923C36.5046 39.0581 36.5037 38.8238 36.5029 38.5895C36.5013 38.0978 36.5005 37.6061 36.5 37.1144C36.4992 36.4848 36.4956 35.8554 36.4915 35.2259C36.4887 34.7417 36.488 34.2575 36.4878 33.7733C36.4873 33.5412 36.4861 33.3092 36.4842 33.0772C36.4817 32.7521 36.482 32.4272 36.4829 32.1021C36.4824 31.9173 36.4819 31.7324 36.4813 31.542C36.5394 31.0169 36.6578 30.7412 36.9746 30.323C37.6318 29.9945 38.5291 30.1433 39.2602 30.1414ZM39.0254 32.6668C39.0254 35.0838 39.0254 37.5008 39.0254 39.991C39.4121 39.991 39.7988 39.991 40.1973 39.991C40.1973 37.574 40.1973 35.157 40.1973 32.6668C39.8105 32.6668 39.4238 32.6668 39.0254 32.6668Z" fill="#DE2424"/>
<path d="M63.9278 47.8985C64.2024 48.0633 64.2024 48.0633 64.3672 48.3379C64.5799 49.195 64.4322 49.7109 64.0193 50.462C63.9393 50.6137 63.9393 50.6137 63.8576 50.7686C63.6893 51.0836 63.5165 51.3956 63.3418 51.7071C63.2884 51.8033 63.235 51.8994 63.1799 51.9985C62.1638 53.8093 60.9542 55.4135 59.5458 56.9405C59.2619 57.2499 58.9897 57.5664 58.7184 57.8869C58.2035 58.4742 57.6446 58.9737 57.043 59.4707C56.9714 59.5319 56.8997 59.593 56.8259 59.656C54.0466 62.0249 49.3495 65.4594 45.4707 65.3301C45.0221 65.1287 45.0221 65.1287 44.7383 64.7442C44.6364 64.2844 44.6027 63.879 44.7383 63.4258C45.3388 62.78 46.1222 62.5867 46.9356 62.318C52.9971 60.2063 58.0796 55.8494 61.1245 50.2045C61.1963 50.0715 61.268 49.9385 61.342 49.8014C61.4828 49.538 61.6219 49.2736 61.7591 49.0082C61.8231 48.8875 61.8871 48.7667 61.9531 48.6423C62.0091 48.5342 62.0652 48.426 62.1229 48.3146C62.6075 47.6394 63.1736 47.7202 63.9278 47.8985Z" fill="#DE2424"/>
<path d="M48.8398 10.5478C49.2666 10.6766 49.6632 10.8536 50.0667 11.0422C50.2378 11.1205 50.2378 11.1205 50.4123 11.2005C52.3225 12.0955 54.0758 13.189 55.7246 14.5029C55.846 14.5945 55.9674 14.6861 56.0925 14.7804C59.4843 17.4139 62.047 20.7459 64.001 24.5371C64.0506 24.6318 64.1002 24.7265 64.1514 24.8241C64.4956 25.5127 64.787 26.2345 64.5594 26.9998C64.2156 27.4419 63.8963 27.5229 63.351 27.6041C62.7659 27.5205 62.5189 27.2579 62.1699 26.8076C61.8972 26.3439 61.6644 25.8625 61.4283 25.3794C60.2637 23.0836 58.7752 21.0882 57.043 19.1904C56.9336 19.0705 56.8243 18.9506 56.7117 18.8271C55.7886 17.8631 54.7382 17.0605 53.6738 16.2607C53.4883 16.1202 53.4883 16.1202 53.299 15.9769C52.0246 15.0485 50.6245 14.2835 49.2089 13.5931C49.0495 13.5153 49.0495 13.5153 48.8868 13.436C48.6834 13.3379 48.4793 13.2412 48.2744 13.1462C47.7433 12.8919 47.3714 12.6816 47.082 12.1592C47.0088 11.7289 47.0088 11.7289 47.082 11.2802C47.6082 10.5468 47.9643 10.4694 48.8398 10.5478Z" fill="#DE2424"/>
<path d="M28.1856 10.5487C28.6817 10.9076 28.8868 11.1147 29.0004 11.7206C28.893 12.2934 28.7478 12.4767 28.3321 12.8924C27.8296 13.1761 27.3036 13.4021 26.7757 13.634C21.0963 16.2373 17.0321 20.6798 14.1551 26.131C14.0781 26.276 14.001 26.421 13.9217 26.5704C13.8248 26.7579 13.8248 26.7579 13.726 26.9492C13.5372 27.2479 13.5372 27.2479 13.0977 27.5409C12.5297 27.5892 12.1047 27.5849 11.6329 27.2479C11.3396 26.8709 11.3387 26.6773 11.3748 26.1968C11.4964 25.5863 11.7129 25.0841 11.9991 24.5379C12.0512 24.4367 12.1034 24.3354 12.1571 24.231C14.2573 20.2063 17.2782 16.5395 21.0079 13.9178C21.1346 13.8276 21.1346 13.8276 21.2639 13.7356C26.2546 10.2079 26.2546 10.2079 28.1856 10.5487Z" fill="#DE2424"/>
<path d="M32.5138 33.7842C32.7342 33.7818 32.9546 33.7778 33.1749 33.7722C33.4934 33.7641 33.8116 33.7609 34.1301 33.7588C34.3208 33.7559 34.5115 33.753 34.708 33.75C35.2168 33.8355 35.2168 33.8355 35.6458 34.1072C36.0906 34.7826 36.0463 35.3647 36.031 36.1569C36.0305 36.3874 36.0305 36.3874 36.03 36.6225C36.0285 36.9467 36.0254 37.2709 36.0205 37.595C36.0133 38.0914 36.0115 38.5876 36.0107 39.084C36.0086 39.3992 36.0063 39.7144 36.0035 40.0296C36.0027 40.1781 36.002 40.3265 36.0012 40.4795C35.9988 40.6179 35.9965 40.7562 35.9941 40.8988C35.9917 41.0809 35.9917 41.0809 35.9893 41.2667C35.945 41.6335 35.8483 41.871 35.6562 42.1851C34.961 42.6873 34.0062 42.5325 33.1888 42.5323C32.8836 42.533 32.5787 42.5383 32.2736 42.5439C32.0804 42.5444 31.8871 42.545 31.688 42.5456C31.5114 42.5468 31.3349 42.548 31.153 42.5492C30.5837 42.4643 30.3442 42.2983 29.9433 41.8921C29.806 41.4802 29.7769 41.2225 29.7732 40.7958C29.7718 40.6633 29.7704 40.5308 29.769 40.3943C29.7683 40.2515 29.7677 40.1086 29.7671 39.9615C29.7662 39.8143 29.7654 39.6671 29.7645 39.5154C29.7632 39.2039 29.7622 38.8924 29.7616 38.5808C29.7602 38.1047 29.7557 37.6287 29.7511 37.1525C29.7501 36.8498 29.7493 36.5472 29.7488 36.2445C29.747 36.1022 29.7451 35.96 29.7433 35.8134C29.7457 35.0883 29.748 34.5631 30.2363 33.982C30.8937 33.6532 31.783 33.7901 32.5138 33.7842ZM32.2871 36.3257C32.2871 37.5342 32.2871 38.7427 32.2871 39.9878C32.6738 39.9878 33.0605 39.9878 33.4589 39.9878C33.4589 38.7793 33.4589 37.5708 33.4589 36.3257C33.0722 36.3257 32.6855 36.3257 32.2871 36.3257Z" fill="#DE2424"/>
<path d="M24.6699 60.3532C25.2087 60.567 25.7198 60.8309 26.2355 61.0948C27.4551 61.7025 28.6684 62.2339 29.9649 62.6555C30.4182 62.8087 30.7676 62.9364 31.113 63.2743C31.3589 63.7727 31.3746 64.2066 31.2617 64.7477C30.9871 65.1231 30.9871 65.1231 30.5293 65.3336C29.3632 65.38 28.3281 64.9581 27.27 64.5188C27.1097 64.4535 26.9494 64.3882 26.7842 64.3208C23.9384 63.1372 23.9384 63.1372 23.0586 62.2575C22.9759 61.5371 22.9464 61.2441 23.3699 60.6461C23.8929 60.2823 24.04 60.2735 24.6699 60.3532Z" fill="#DE2424"/>
</svg>
