<svg width="31" height="34" viewBox="0 0 31 34" fill="none" xmlns="http://www.w3.org/2000/svg">
<path d="M20 21.4544V23.5634C20 27.5414 20 29.5289 18.6815 30.7649C17.3645 32.0009 15.242 32.0009 11 32.0009C6.758 32.0009 4.6355 32.0009 3.3185 30.7649C2 29.5304 2 27.5399 2 23.5649V16.3319C2 12.3539 2 10.3649 3.3185 9.12894C4.1915 8.31144 5.3405 8.08494 6.5 8.02344M11 27.5009H11.0135" stroke="#E0263E" stroke-width="2.75" stroke-linecap="round" stroke-linejoin="round"/>
<path d="M20.0001 4.25C16.8396 2.477 14.9376 2.135 12.5001 2C11.5296 2.1755 11.2236 2.5265 11.0001 3.5V12.5C10.9926 13.871 11.2971 14.384 12.5001 14.75C15.7656 15.272 17.3301 15.7445 19.8156 16.913C19.9326 16.9685 20.0706 16.97 20.1891 16.919C22.5876 15.89 24.1371 15.314 25.9161 14.9795C26.9616 14.7845 28.2606 14.7695 28.7781 13.8425C28.9611 13.517 29.0226 13.0955 29.0001 12.5V3.5C28.6941 2.534 28.3656 2.2085 27.5001 2C24.8661 2.1455 23.2731 2.5175 20.0001 4.25ZM20.0001 4.25V16.25" stroke="#E0263E" stroke-width="2.75" stroke-linecap="round" stroke-linejoin="round"/>
</svg>
