<svg width="43" height="43" viewBox="0 0 43 43" fill="none" xmlns="http://www.w3.org/2000/svg">
<path d="M4.47641 14.6658C4.66274 10.9033 5.21995 8.55619 6.88978 6.88994C8.55603 5.2201 10.9031 4.6629 14.6656 4.47656M38.5181 14.6658C38.3317 10.9033 37.7745 8.55619 36.1047 6.88994C34.4385 5.2201 32.0914 4.6629 28.3289 4.47656M28.3289 38.5182C32.0914 38.3319 34.4385 37.7747 36.1047 36.1049C37.7745 34.4386 38.3317 32.0915 38.5181 28.329M14.6656 38.5182C10.9031 38.3319 8.55603 37.7747 6.88978 36.1049C5.21995 34.4386 4.66274 32.0915 4.47641 28.329M35.1766 20.2755C35.612 20.8201 35.8306 21.0943 35.8306 21.4974C35.8306 21.9005 35.612 22.1746 35.1766 22.7193C33.2183 25.1703 28.2178 30.4557 21.4972 30.4557C14.7767 30.4557 9.77616 25.1703 7.81787 22.7193C7.38249 22.1746 7.16391 21.9005 7.16391 21.4974C7.16391 21.0943 7.38249 20.8201 7.81787 20.2755C9.77616 17.8245 14.7767 12.5391 21.4972 12.5391C28.2178 12.5391 33.2183 17.8245 35.1766 20.2755Z" stroke="#F7F8FA" stroke-width="2.6875" stroke-linecap="round" stroke-linejoin="round"/>
<path d="M25.0806 21.4974C25.0806 20.547 24.703 19.6356 24.031 18.9636C23.359 18.2916 22.4476 17.9141 21.4972 17.9141C20.5469 17.9141 19.6354 18.2916 18.9634 18.9636C18.2914 19.6356 17.9139 20.547 17.9139 21.4974C17.9139 22.4478 18.2914 23.3592 18.9634 24.0312C19.6354 24.7032 20.5469 25.0807 21.4972 25.0807C22.4476 25.0807 23.359 24.7032 24.031 24.0312C24.703 23.3592 25.0806 22.4478 25.0806 21.4974Z" stroke="#F7F8FA" stroke-width="2.6875" stroke-linecap="round" stroke-linejoin="round"/>
</svg>
